<?xml version="1.0" standalone="no"?>
<!DOCTYPE svg PUBLIC "-//W3C//DTD SVG 20010904//EN"
 "http://www.w3.org/TR/2001/REC-SVG-20010904/DTD/svg10.dtd">
<svg version="1.0" xmlns="http://www.w3.org/2000/svg"
 width="704.000000pt" height="704.000000pt" viewBox="0 0 704.000000 704.000000"
 preserveAspectRatio="xMidYMid meet">
<metadata>
Created by potrace 1.11, written by Peter Selinger 2001-2013
</metadata>
<g transform="translate(0.000000,704.000000) scale(0.100000,-0.100000)"
fill="#000000" stroke="none">
<path d="M3540 6974 c-620 -79 -1112 -526 -1235 -1121 -30 -143 -35 -293 -35
-1078 l-1 -780 -870 -650 c-642 -480 -894 -673 -960 -739 -374 -370 -516 -874
-394 -1393 127 -538 528 -959 1046 -1098 151 -41 296 -55 549 -55 l230 0 4 23
c3 12 15 87 26 167 181 1263 534 2261 1008 2854 l56 70 -47 307 -48 308 263
523 c227 452 266 524 288 528 23 5 20 8 -31 38 -113 64 -205 195 -229 323 -6
33 -9 216 -8 459 l3 405 580 0 580 0 0 -435 c-1 -421 -2 -437 -22 -492 -44
-118 -114 -200 -221 -261 -50 -28 -54 -32 -32 -35 23 -3 52 -56 289 -530 l263
-527 -46 -297 -46 -297 65 -81 c389 -482 703 -1253 899 -2210 39 -191 107
-587 127 -743 l12 -97 272 0 c366 0 465 18 655 117 249 129 425 365 487 653
17 81 18 211 18 2910 0 2721 -1 2827 -18 2878 -25 71 -109 162 -179 193 l-53
24 -710 0 -710 0 -47 -23 c-71 -36 -134 -96 -165 -160 l-28 -57 -5 -435 c-5
-406 -6 -430 -19 -360 -70 385 -305 735 -641 952 -105 68 -148 90 -264 135
-155 60 -279 83 -461 88 -88 2 -176 1 -195 -1z"/>
</g>
</svg>
