<?xml version="1.0" standalone="no"?>
<!DOCTYPE svg PUBLIC "-//W3C//DTD SVG 20010904//EN"
 "http://www.w3.org/TR/2001/REC-SVG-20010904/DTD/svg10.dtd">
<svg version="1.0" xmlns="http://www.w3.org/2000/svg"
 width="704.000000pt" height="704.000000pt" viewBox="0 0 704.000000 704.000000"
 preserveAspectRatio="xMidYMid meet">
<metadata>
Created by potrace 1.11, written by Peter Selinger 2001-2013
</metadata>
<g transform="translate(0.000000,704.000000) scale(0.100000,-0.100000)"
fill="#000000" stroke="none">
<path d="M3559 6976 c-2 -3 -27 -7 -54 -10 -28 -3 -61 -8 -75 -11 -14 -3 -38
-8 -55 -11 -30 -5 -104 -27 -160 -46 -76 -27 -305 -145 -325 -167 -3 -4 -32
-26 -65 -51 -58 -42 -183 -163 -235 -225 -61 -75 -190 -291 -205 -345 -1 -3
-7 -18 -13 -33 -16 -38 -42 -119 -47 -143 -2 -10 -4 -19 -5 -19 -2 0 -6 -17
-24 -110 -16 -87 -20 -240 -21 -969 l-1 -828 -46 -37 c-25 -20 -56 -43 -68
-51 -12 -8 -30 -22 -41 -30 -123 -96 -251 -190 -259 -190 -4 0 -10 -4 -12 -8
-1 -5 -102 -82 -223 -172 -121 -91 -224 -168 -230 -172 -5 -5 -53 -40 -105
-78 -52 -39 -105 -78 -116 -88 -12 -9 -32 -25 -45 -34 -13 -9 -49 -36 -80 -60
-31 -24 -155 -117 -275 -208 -121 -90 -237 -180 -258 -200 -62 -55 -158 -153
-188 -191 -50 -63 -93 -124 -107 -152 -8 -15 -18 -27 -23 -27 -5 0 -7 -4 -3
-9 3 -5 1 -12 -4 -15 -21 -13 -124 -256 -138 -326 -8 -40 -9 -44 -16 -65 -37
-115 -44 -485 -11 -598 3 -10 7 -30 9 -45 3 -15 11 -52 20 -82 9 -30 17 -62
19 -70 27 -111 162 -371 233 -450 13 -14 23 -28 23 -31 0 -3 10 -17 22 -31 13
-14 35 -38 49 -54 58 -66 179 -170 259 -223 92 -62 230 -135 230 -123 0 4 4 3
8 -3 8 -11 92 -44 131 -51 14 -3 29 -8 35 -12 6 -4 13 -7 16 -7 3 -1 30 -7 60
-13 93 -21 104 -23 145 -29 22 -4 1125 -8 2450 -10 1808 -3 2429 0 2485 8 82
13 193 46 267 81 88 40 214 129 271 191 77 83 77 82 151 197 9 14 28 52 43 85
37 87 41 99 39 109 -1 4 4 14 10 22 6 8 9 14 6 14 -3 0 -1 15 4 33 6 17 13 46
15 62 10 54 11 5669 2 5705 -5 19 -11 41 -13 48 -3 7 -4 13 -3 15 5 6 -64 95
-94 122 -73 64 -134 84 -258 82 -49 -1 -90 2 -90 7 0 5 -6 5 -12 0 -11 -8 -40
-9 -110 -3 -7 0 -65 0 -128 0 -63 0 -124 -1 -135 -1 -11 1 -46 0 -77 0 -31 0
-60 0 -65 1 -4 1 -12 1 -18 0 -5 -1 -89 -2 -185 -1 -252 1 -285 0 -380 -4 -85
-3 -164 -26 -186 -52 -6 -8 -16 -14 -21 -14 -13 0 -73 -69 -87 -100 -6 -14
-13 -27 -16 -30 -11 -10 -27 -76 -26 -108 1 -18 -1 -32 -4 -32 -8 0 -4 -166 4
-178 4 -7 4 -12 -1 -12 -9 0 -9 -103 1 -118 3 -6 3 -13 -1 -15 -5 -3 -7 -43
-5 -89 3 -104 3 -95 -1 -148 -2 -25 1 -53 5 -62 4 -9 4 -19 0 -22 -8 -5 -6
-79 3 -103 2 -7 1 -15 -4 -17 -4 -3 -13 25 -20 62 -46 252 -163 493 -336 691
-91 104 -289 270 -322 271 -7 0 -13 5 -13 10 0 6 -6 10 -14 10 -8 0 -21 6 -28
14 -21 20 -233 116 -273 122 -5 1 -35 9 -65 17 -51 15 -92 23 -165 34 -45 6
-321 14 -326 9z"/>
</g>
</svg>
