<?xml version="1.0" encoding="UTF-8" standalone="no"?>
<!-- Generator: Adobe Illustrator 18.0.0, SVG Export Plug-In . SVG Version: 6.00 Build 0)  -->

<svg
   xmlns:dc="http://purl.org/dc/elements/1.1/"
   xmlns:cc="http://creativecommons.org/ns#"
   xmlns:rdf="http://www.w3.org/1999/02/22-rdf-syntax-ns#"
   xmlns:svg="http://www.w3.org/2000/svg"
   xmlns="http://www.w3.org/2000/svg"
   xmlns:xlink="http://www.w3.org/1999/xlink"
   xmlns:sodipodi="http://sodipodi.sourceforge.net/DTD/sodipodi-0.dtd"
   xmlns:inkscape="http://www.inkscape.org/namespaces/inkscape"
   version="1.1"
   id="Ebene_1"
   x="0px"
   y="0px"
   viewBox="0 0 175.49999 172.4"
   enable-background="new 0 0 841.9 595.3"
   xml:space="preserve"
   inkscape:version="0.91 r13725"
   sodipodi:docname="Logo_Calliope_Woman.svg"
   width="175.5"
   height="172.39999"><metadata
     id="metadata5011"><rdf:RDF><cc:Work
         rdf:about=""><dc:format>image/svg+xml</dc:format><dc:type
           rdf:resource="http://purl.org/dc/dcmitype/StillImage" /><dc:title></dc:title></cc:Work></rdf:RDF></metadata><defs
     id="defs5009" /><sodipodi:namedview
     pagecolor="#ffffff"
     bordercolor="#666666"
     borderopacity="1"
     objecttolerance="10"
     gridtolerance="10"
     guidetolerance="10"
     inkscape:pageopacity="0"
     inkscape:pageshadow="2"
     inkscape:window-width="1920"
     inkscape:window-height="1137"
     id="namedview5007"
     showgrid="false"
     inkscape:zoom="0.34208337"
     inkscape:cx="420.95001"
     inkscape:cy="297.64999"
     inkscape:window-x="-8"
     inkscape:window-y="156"
     inkscape:window-maximized="1"
     inkscape:current-layer="Ebene_1" /><g
     id="g4955"
     transform="translate(-260.90025,-204.1)"><g
       id="g4957"><defs
         id="defs4959"><rect
           id="SVGID_7_"
           x="193.10001"
           y="204.10001"
           width="318.29999"
           height="256.29999" /></defs><clipPath
         id="SVGID_1_"><use
           xlink:href="#SVGID_7_"
           overflow="visible"
           id="use4963"
           style="overflow:visible"
           x="0"
           y="0"
           width="100%"
           height="100%" /></clipPath></g><g
       id="g4965"><defs
         id="defs4967"><rect
           id="SVGID_9_"
           x="193.10001"
           y="204.10001"
           width="318.29999"
           height="256.29999" /></defs><clipPath
         id="SVGID_2_"><use
           xlink:href="#SVGID_9_"
           overflow="visible"
           id="use4971"
           style="overflow:visible"
           x="0"
           y="0"
           width="100%"
           height="100%" /></clipPath></g><g
       id="g4973"><defs
         id="defs4975"><rect
           id="SVGID_11_"
           x="193.10001"
           y="204.10001"
           width="318.29999"
           height="256.29999" /></defs><clipPath
         id="SVGID_3_"><use
           xlink:href="#SVGID_11_"
           overflow="visible"
           id="use4979"
           style="overflow:visible"
           x="0"
           y="0"
           width="100%"
           height="100%" /></clipPath><path
         clip-path="url(#SVGID_3_)"
         d="m 436.4,262 -47.9,0 0,-46 c 0,-4.7 3.8,-8.4 8.4,-8.4 l 31,0 c 4.7,0 8.4,3.8 8.4,8.4 l 0,46 z"
         id="path4981"
         inkscape:connector-curvature="0"
         style="fill:#4a5261" /></g><rect
       x="394.79999"
       y="218.7"
       width="35.099998"
       height="43.200001"
       id="rect4983"
       style="fill:#8096a1" /><path
       d="m 317.6,239.5 0,61 71,0.2 c 0,0 0,-57.3 0,-61 0,-19.5 -16.1,-35.6 -35.6,-35.6 -19.6,0 -35.4,15.8 -35.4,35.4"
       id="path4985"
       inkscape:connector-curvature="0"
       style="fill:#855c33" /><path
       d="m 412.4,376.5 -114.2,0 c -35.6,0 -50.9,-45.2 -22.6,-66.8 l 63.8,-47.8 96.9,0 0,90.7 c 0.1,13.2 -10.6,23.9 -23.9,23.9"
       id="path4987"
       inkscape:connector-curvature="0"
       style="fill:#26a6ab" /><polygon
       points="345.7,257.3 334.8,298.8 285.1,302.5 "
       id="polygon4989"
       style="fill:#42c9c9" /><polygon
       points="354,283.8 332.5,283.8 345.7,257.3 "
       id="polygon4991"
       style="fill:#f7f5e8" /><polygon
       points="375.4,283.8 354,283.8 362.2,257.3 "
       id="polygon4993"
       style="fill:#f7f5e8" /><polygon
       points="373.1,298.8 334.8,298.8 332.5,283.8 375.4,283.8 "
       id="polygon4995"
       style="fill:#bdd1cf" /><path
       d="m 400.6,376.5 c -3.5,-26.2 -10.6,-58 -27.3,-77.7 l -0.2,0 -19,0 -19,0 -0.2,0 c -16.7,19.8 -23.8,51.5 -27.3,77.7 l 93,0 z"
       id="path4997"
       inkscape:connector-curvature="0"
       style="fill:#f7f5e8" /><path
       d="m 357,258 -6.1,0 c -6.4,0 -11.5,-5.2 -11.5,-11.5 l 0,-19.7 29.2,0 0,19.7 c -0.1,6.3 -5.3,11.5 -11.6,11.5"
       id="path4999"
       inkscape:connector-curvature="0"
       style="fill:#ffcc99" /><path
       d="m 335.8,376.5 0,-77.7 c 12.4,29.1 27.7,64.3 46.5,77.7 l -46.5,0 z"
       id="path5001"
       inkscape:connector-curvature="0"
       style="fill:#bdd1cf" /><polygon
       points="362.2,257.3 345.7,257.3 354,283.8 "
       id="polygon5003"
       style="fill:#ffcc99" /><polygon
       points="436.4,315.3 394.8,262 436.4,262 "
       id="polygon5005"
       style="fill:#42c9c9" /></g></svg>