<?xml version="1.0" encoding="UTF-8" standalone="no"?>
<!-- Generator: Adobe Illustrator 18.0.0, SVG Export Plug-In . SVG Version: 6.00 Build 0)  -->

<svg
   xmlns:dc="http://purl.org/dc/elements/1.1/"
   xmlns:cc="http://creativecommons.org/ns#"
   xmlns:rdf="http://www.w3.org/1999/02/22-rdf-syntax-ns#"
   xmlns:svg="http://www.w3.org/2000/svg"
   xmlns="http://www.w3.org/2000/svg"
   xmlns:sodipodi="http://sodipodi.sourceforge.net/DTD/sodipodi-0.dtd"
   xmlns:inkscape="http://www.inkscape.org/namespaces/inkscape"
   version="1.1"
   id="calliope"
   x="0px"
   y="0px"
   viewBox="0 0 179.9 32.4"
   enable-background="new 0 0 179.9 32.4"
   xml:space="preserve"
   inkscape:version="0.91 r13725"
   sodipodi:docname="Calliopeminieditor.svg"><metadata
     id="metadata65"><rdf:RDF><cc:Work
         rdf:about=""><dc:format>image/svg+xml</dc:format><dc:type
           rdf:resource="http://purl.org/dc/dcmitype/StillImage" /><dc:title></dc:title></cc:Work></rdf:RDF></metadata><defs
     id="defs63" /><sodipodi:namedview
     pagecolor="#ffffff"
     bordercolor="#666666"
     borderopacity="1"
     objecttolerance="10"
     gridtolerance="10"
     guidetolerance="10"
     inkscape:pageopacity="0"
     inkscape:pageshadow="2"
     inkscape:window-width="1536"
     inkscape:window-height="801"
     id="namedview61"
     showgrid="false"
     inkscape:zoom="1.6008894"
     inkscape:cx="89.949997"
     inkscape:cy="16.200001"
     inkscape:window-x="-8"
     inkscape:window-y="-8"
     inkscape:window-maximized="1"
     inkscape:current-layer="calliope" /><g
     id="g3"><g
       id="g5"><path
         fill="#495260"
         d="M33.1,11.2h-8.5V5.8c0-2.3,1.9-4.2,4.2-4.2h0c2.3,0,4.2,1.9,4.2,4.2V11.2z"
         id="path7" /><rect
         x="25.8"
         y="3.6"
         fill="#7F96A1"
         width="6.2"
         height="7.6"
         id="rect9" /><path
         fill="#845B32"
         d="M12.2,7.2c0,0.8,0,10.8,0,10.8h12.5c0,0,0-10.1,0-10.8c0-3.4-2.8-6.2-6.2-6.2S12.2,3.8,12.2,7.2z"
         id="path11" /><path
         fill="#26A7AA"
         d="M28.9,31.4H8.7c-6.3,0-9-8-4-11.8L16,11.2h17.1v16C33.1,29.5,31.2,31.4,28.9,31.4z"
         id="path13" /><polygon
         fill="#43C9C9"
         points="15.2,17.7 6.4,18.4 17.1,10.4   "
         id="polygon15" /><polygon
         fill="#F6F4E7"
         points="14.8,15.1 17.1,10.4 18.6,15.1   "
         id="polygon17" /><polygon
         fill="#F6F4E7"
         points="18.6,15.1 20,10.4 22.3,15.1   "
         id="polygon19" /><polygon
         fill="#BDD1CF"
         points="21.9,17.7 15.2,17.7 14.8,15.1 22.3,15.1   "
         id="polygon21" /><path
         fill="#F6F4E7"
         d="M26.8,31.4c-0.6-4.6-1.9-10.2-4.8-13.7h0v0h-3.4h-3.4v0h0c-3,3.5-4.2,9.1-4.8,13.7H26.8z"
         id="path23" /><path
         fill="#FFCD9A"
         d="M18.6,10.5L18.6,10.5c-1.4,0-2.6-1.2-2.6-2.6V5h5.1v2.9C21.1,9.4,20,10.5,18.6,10.5z"
         id="path25" /><path
         fill="#BDD1CF"
         d="M15.4,31.4l0-13.7c2.2,5.1,4.9,11.3,8.2,13.7H15.4z"
         id="path27" /><polygon
         fill="#FFCD9A"
         points="17.1,10.4 18.6,15.1 20,10.4   "
         id="polygon29" /><polygon
         fill="#43C9C9"
         points="25.8,11.2 33.1,11.2 33.1,20.6   "
         id="polygon31" /></g><g
       id="g33"><g
         id="g35"><path
           fill="#BCD1CF"
           d="M52.3,15.1h-1.6l-0.2-1.4c-0.2-0.2-0.5-0.4-0.8-0.5S49,13,48.5,13c-0.9,0-1.7,0.3-2.2,1s-0.8,1.6-0.8,2.7     v0.4c0,1.1,0.3,2,0.8,2.7c0.5,0.7,1.2,1,2.1,1c0.4,0,0.8-0.1,1.2-0.2c0.4-0.1,0.6-0.3,0.8-0.5l0.2-1.4h1.6v2.1     c-0.4,0.5-1,0.9-1.7,1.2c-0.7,0.3-1.4,0.5-2.3,0.5c-1.5,0-2.6-0.5-3.6-1.5s-1.4-2.3-1.4-3.9v-0.4c0-1.6,0.5-2.9,1.4-3.9     s2.1-1.5,3.6-1.5c0.8,0,1.6,0.2,2.3,0.5c0.7,0.3,1.2,0.7,1.7,1.2V15.1z"
           id="path37" /><path
           fill="#BCD1CF"
           d="M53.8,21l0.8-0.1l3.3-9.4h2.2l3.3,9.4l0.8,0.1v1.3h-3.7V21l0.8-0.1l-0.5-1.5h-3.5l-0.5,1.5l0.8,0.1v1.3     h-3.7V21z M57.7,17.8h2.5L59,14h0L57.7,17.8z"
           id="path39" /><path
           fill="#BCD1CF"
           d="M65.5,22.3V21l1.2-0.2V13l-1.2-0.2v-1.3h1.2h2.2H70v1.3L68.8,13v7.6h3.1l0.1-1.4h1.7v3H65.5z"
           id="path41" /><path
           fill="#BCD1CF"
           d="M75,22.3V21l1.2-0.2V13L75,12.8v-1.3h1.2h2.2h1.2v1.3L78.3,13v7.6h3.1l0.1-1.4h1.7v3H75z"
           id="path43" /><path
           fill="#BCD1CF"
           d="M84.5,12.8v-1.3H89v1.3L87.9,13v7.8L89,21v1.3h-4.5V21l1.2-0.2V13L84.5,12.8z"
           id="path45" /><path
           fill="#BCD1CF"
           d="M100.4,17c0,1.6-0.5,2.9-1.4,3.9c-0.9,1-2.1,1.6-3.6,1.6c-1.5,0-2.6-0.5-3.5-1.6s-1.4-2.3-1.4-3.9v-0.2     c0-1.6,0.4-2.9,1.3-3.9s2.1-1.6,3.5-1.6c1.5,0,2.7,0.5,3.6,1.6s1.4,2.4,1.4,3.9V17z M98.2,16.8c0-1.1-0.2-2-0.7-2.7s-1.2-1-2.1-1     s-1.6,0.3-2,1s-0.7,1.6-0.7,2.7V17c0,1.1,0.2,2.1,0.7,2.8c0.5,0.7,1.1,1,2,1c0.9,0,1.6-0.3,2.1-1c0.5-0.7,0.7-1.6,0.7-2.8V16.8z"
           id="path47" /><path
           fill="#BCD1CF"
           d="M107,11.5c1.2,0,2.2,0.3,2.9,1s1.1,1.5,1.1,2.5c0,1-0.4,1.9-1.1,2.5c-0.7,0.6-1.7,0.9-2.9,0.9h-1.8v2.4     l1.2,0.2v1.3h-4.5V21l1.2-0.2V13l-1.2-0.2v-1.3h1.2H107z M105.2,16.7h1.8c0.6,0,1.1-0.2,1.4-0.5s0.5-0.8,0.5-1.3     c0-0.5-0.2-1-0.5-1.3c-0.3-0.3-0.8-0.5-1.4-0.5h-1.8V16.7z"
           id="path49" /><path
           fill="#BCD1CF"
           d="M119.3,17.6h-3.7v3.1h3.5l0.1-1.3h1.7v3h-8.6V21l1.2-0.2V13l-1.2-0.2v-1.3h1.2h7.4v3h-1.7l-0.1-1.3h-3.5     v2.7h3.7V17.6z"
           id="path51" /><path
           fill="#FFFFFF"
           d="M134.3,11.6l0.1,1.1c0.2-0.4,0.5-0.7,0.9-1c0.4-0.2,0.8-0.4,1.3-0.4c0.5,0,0.8,0.1,1.1,0.3     c0.3,0.2,0.5,0.5,0.7,0.8c0.2-0.3,0.5-0.6,0.8-0.8c0.3-0.2,0.7-0.3,1.2-0.3c0.4,0,0.7,0.1,1,0.2c0.3,0.1,0.5,0.3,0.8,0.6     c0.2,0.3,0.4,0.6,0.5,1c0.1,0.4,0.2,0.9,0.2,1.4v7.8h-2.2v-7.9c0-0.4-0.1-0.7-0.3-0.9c-0.2-0.2-0.4-0.2-0.7-0.2     c-0.3,0-0.5,0.1-0.6,0.2s-0.3,0.3-0.3,0.5v8.3h-2.2v-7.9c0-0.4-0.1-0.7-0.3-0.9c-0.2-0.2-0.4-0.3-0.7-0.3c-0.3,0-0.5,0.1-0.7,0.2     c-0.2,0.1-0.3,0.3-0.4,0.5v8.3h-2.2V11.6H134.3z"
           id="path53" /><path
           fill="#FFFFFF"
           d="M145.6,11.6h5.7v8.8h3.2v2h-8.9v-2h3.3v-6.8h-3.3V11.6z M148.7,8.8c0-0.4,0.1-0.7,0.4-0.9     c0.2-0.2,0.6-0.4,1-0.4c0.4,0,0.8,0.1,1,0.4c0.2,0.2,0.4,0.5,0.4,0.9c0,0.4-0.1,0.7-0.4,0.9c-0.2,0.2-0.6,0.4-1,0.4     c-0.4,0-0.8-0.1-1-0.4C148.9,9.5,148.7,9.2,148.7,8.8z"
           id="path55" /><path
           fill="#FFFFFF"
           d="M159.4,11.6l0.1,1.5c0.4-0.5,0.9-1,1.4-1.2c0.6-0.3,1.2-0.4,1.8-0.4c0.5,0,1,0.1,1.5,0.2     c0.5,0.2,0.8,0.4,1.2,0.7c0.3,0.3,0.6,0.8,0.8,1.3c0.2,0.5,0.3,1.2,0.3,1.9v6.7h-2.4v-6.7c0-0.4-0.1-0.8-0.2-1.1     c-0.1-0.3-0.2-0.5-0.4-0.7c-0.2-0.2-0.4-0.3-0.7-0.4c-0.3-0.1-0.6-0.1-0.9-0.1c-0.5,0-1,0.1-1.4,0.3c-0.4,0.2-0.7,0.5-0.9,0.9     v7.7h-2.4V11.6H159.4z"
           id="path57" /><path
           fill="#FFFFFF"
           d="M170,11.6h5.7v8.8h3.2v2H170v-2h3.3v-6.8H170V11.6z M173.1,8.8c0-0.4,0.1-0.7,0.4-0.9     c0.2-0.2,0.6-0.4,1-0.4c0.4,0,0.8,0.1,1,0.4c0.2,0.2,0.4,0.5,0.4,0.9c0,0.4-0.1,0.7-0.4,0.9c-0.2,0.2-0.6,0.4-1,0.4     c-0.4,0-0.8-0.1-1-0.4C173.2,9.5,173.1,9.2,173.1,8.8z"
           id="path59" /></g></g></g></svg>