<svg xmlns="http://www.w3.org/2000/svg" xmlns:xlink="http://www.w3.org/1999/xlink" viewBox="0 0 340.2 311.8">
  <symbol id="b" viewBox="-122.3 -112.9 244.6 225.8">
    <use xlink:href="#a" width="298.9" height="263.3" x="-150.5" y="-131.7" transform="matrix(.82 0 0 .82 .67 -5.36)" overflow="visible"/>
    <path d="M-42.4-78.2c-1.2 0-2.1-1-2.1-2.1s1-2.1 2.1-2.1 2.1 1 2.1 2.1-1 2.1-2.1 2.1zm0-3.2c-.6 0-1 .5-1 1 0 .6.5 1 1 1 .6 0 1-.5 1-1s-.5-1-1-1z" fill="#EFDA48"/>
    <path d="M-42.4-81.4c-.6 0-1 .5-1 1 0 .6.5 1 1 1 .6 0 1-.5 1-1s-.5-1-1-1z"/>
    <path d="M-35.2-78.2c-1.2 0-2.1-1-2.1-2.1s1-2.1 2.1-2.1c1.2 0 2.1 1 2.1 2.1s-1 2.1-2.1 2.1zm0-3.2c-.6 0-1 .5-1 1 0 .6.5 1 1 1 .6 0 1-.5 1-1s-.5-1-1-1z" fill="#EFDA48"/>
    <path d="M-35.2-81.4c-.6 0-1 .5-1 1 0 .6.5 1 1 1 .6 0 1-.5 1-1s-.5-1-1-1z"/>
    <path d="M-28-78.2c-1.2 0-2.1-1-2.1-2.1s1-2.1 2.1-2.1c1.2 0 2.1 1 2.1 2.1s-1 2.1-2.1 2.1zm0-3.2c-.6 0-1 .5-1 1 0 .6.5 1 1 1s1-.5 1-1-.5-1-1-1z" fill="#EFDA48"/>
    <path d="M-28-81.4c-.6 0-1 .5-1 1 0 .6.5 1 1 1s1-.5 1-1-.5-1-1-1z"/>
    <path d="M-20.9-78.2c-1.2 0-2.1-1-2.1-2.1s1-2.1 2.1-2.1c1.2 0 2.1 1 2.1 2.1s-.9 2.1-2.1 2.1zm0-3.2c-.6 0-1 .5-1 1 0 .6.5 1 1 1s1-.5 1-1c.1-.5-.4-1-1-1z" fill="#EFDA48"/>
    <path d="M-20.9-81.4c-.6 0-1 .5-1 1 0 .6.5 1 1 1s1-.5 1-1c.1-.5-.4-1-1-1z"/>
    <path d="M-13.7-78.2c-1.2 0-2.1-1-2.1-2.1s1-2.1 2.1-2.1 2.1 1 2.1 2.1-.9 2.1-2.1 2.1zm0-3.2c-.6 0-1 .5-1 1 0 .6.5 1 1 1s1-.5 1-1c.1-.5-.4-1-1-1z" fill="#EFDA48"/>
    <path d="M-13.7-81.4c-.6 0-1 .5-1 1 0 .6.5 1 1 1s1-.5 1-1c.1-.5-.4-1-1-1z"/>
    <path d="M-6.5-78.2c-1.2 0-2.1-1-2.1-2.1s1-2.1 2.1-2.1 2.1 1 2.1 2.1-.9 2.1-2.1 2.1zm0-3.2c-.6 0-1 .5-1 1 0 .6.5 1 1 1s1-.5 1-1c.1-.5-.4-1-1-1z" fill="#EFDA48"/>
    <path d="M-6.5-81.4c-.6 0-1 .5-1 1 0 .6.5 1 1 1s1-.5 1-1c.1-.5-.4-1-1-1z"/>
    <path d="M.7-78.2c-1.2 0-2.1-1-2.1-2.1s1-2.1 2.1-2.1 2.1 1 2.1 2.1-.9 2.1-2.1 2.1zm0-3.2c-.6 0-1 .5-1 1 0 .6.5 1 1 1s1-.5 1-1c.1-.5-.4-1-1-1z" fill="#EFDA48"/>
    <path d="M.7-81.4c-.6 0-1 .5-1 1 0 .6.5 1 1 1s1-.5 1-1c.1-.5-.4-1-1-1z"/>
    <path d="M7.9-78.2c-1.2 0-2.1-1-2.1-2.1s1-2.1 2.1-2.1 2.1 1 2.1 2.1-.9 2.1-2.1 2.1zm0-3.2c-.6 0-1 .5-1 1 0 .6.5 1 1 1s1-.5 1-1-.4-1-1-1z" fill="#EFDA48"/>
    <path d="M7.9-81.4c-.6 0-1 .5-1 1 0 .6.5 1 1 1s1-.5 1-1-.4-1-1-1z"/>
    <path d="M15.1-78.2c-1.2 0-2.1-1-2.1-2.1s1-2.1 2.1-2.1 2.1 1 2.1 2.1-.9 2.1-2.1 2.1zm0-3.2c-.6 0-1 .5-1 1 0 .6.5 1 1 1 .6 0 1-.5 1-1s-.4-1-1-1z" fill="#EFDA48"/>
    <path d="M15.1-81.4c-.6 0-1 .5-1 1 0 .6.5 1 1 1 .6 0 1-.5 1-1s-.4-1-1-1z"/>
    <path d="M22.3-78.2c-1.2 0-2.1-1-2.1-2.1s1-2.1 2.1-2.1c1.2 0 2.1 1 2.1 2.1s-.9 2.1-2.1 2.1zm0-3.2c-.6 0-1 .5-1 1 0 .6.5 1 1 1s1-.5 1-1-.4-1-1-1z" fill="#EFDA48"/>
    <path d="M22.3-81.4c-.6 0-1 .5-1 1 0 .6.5 1 1 1s1-.5 1-1-.4-1-1-1z"/>
    <path d="M29.5-78.2c-1.2 0-2.1-1-2.1-2.1s1-2.1 2.1-2.1c1.2 0 2.1 1 2.1 2.1s-.9 2.1-2.1 2.1zm0-3.2c-.6 0-1 .5-1 1 0 .6.5 1 1 1s1-.5 1-1-.4-1-1-1z" fill="#EFDA48"/>
    <path d="M29.5-81.4c-.6 0-1 .5-1 1 0 .6.5 1 1 1s1-.5 1-1-.4-1-1-1z"/>
    <path d="M36.7-78.2c-1.2 0-2.1-1-2.1-2.1s1-2.1 2.1-2.1c1.2 0 2.1 1 2.1 2.1s-.9 2.1-2.1 2.1zm0-3.2c-.6 0-1 .5-1 1 0 .6.5 1 1 1 .6 0 1-.5 1-1s-.4-1-1-1z" fill="#EFDA48"/>
    <path d="M36.7-81.4c-.6 0-1 .5-1 1 0 .6.5 1 1 1 .6 0 1-.5 1-1s-.4-1-1-1z"/>
    <path d="M43.9-78.2c-1.2 0-2.1-1-2.1-2.1s1-2.1 2.1-2.1c1.2 0 2.1 1 2.1 2.1s-.9 2.1-2.1 2.1zm0-3.2c-.6 0-1 .5-1 1 0 .6.5 1 1 1 .6 0 1-.5 1-1s-.4-1-1-1z" fill="#EFDA48"/>
    <path d="M43.9-81.4c-.6 0-1 .5-1 1 0 .6.5 1 1 1 .6 0 1-.5 1-1s-.4-1-1-1z"/>
    <path d="M-42.4-71c-1.2 0-2.1-1-2.1-2.1 0-1.2 1-2.1 2.1-2.1s2.1 1 2.1 2.1c0 1.2-1 2.1-2.1 2.1zm0-3.1c-.6 0-1 .5-1 1 0 .6.5 1 1 1 .6 0 1-.5 1-1 0-.6-.5-1-1-1z" fill="#EFDA48"/>
    <path d="M-42.4-74.1c-.6 0-1 .5-1 1 0 .6.5 1 1 1 .6 0 1-.5 1-1 0-.6-.5-1-1-1z"/>
    <path d="M-35.2-71c-1.2 0-2.1-1-2.1-2.1 0-1.2 1-2.1 2.1-2.1 1.2 0 2.1 1 2.1 2.1 0 1.2-1 2.1-2.1 2.1zm0-3.1c-.6 0-1 .5-1 1 0 .6.5 1 1 1 .6 0 1-.5 1-1 0-.6-.5-1-1-1z" fill="#EFDA48"/>
    <path d="M-35.2-74.1c-.6 0-1 .5-1 1 0 .6.5 1 1 1 .6 0 1-.5 1-1 0-.6-.5-1-1-1z"/>
    <path d="M-28-71c-1.2 0-2.1-1-2.1-2.1 0-1.2 1-2.1 2.1-2.1 1.2 0 2.1 1 2.1 2.1 0 1.2-1 2.1-2.1 2.1zm0-3.1c-.6 0-1 .5-1 1 0 .6.5 1 1 1s1-.5 1-1c0-.6-.5-1-1-1z" fill="#EFDA48"/>
    <path d="M-28-74.1c-.6 0-1 .5-1 1 0 .6.5 1 1 1s1-.5 1-1c0-.6-.5-1-1-1z"/>
    <path d="M-20.9-71c-1.2 0-2.1-1-2.1-2.1 0-1.2 1-2.1 2.1-2.1 1.2 0 2.1 1 2.1 2.1.1 1.2-.9 2.1-2.1 2.1zm0-3.1c-.6 0-1 .5-1 1 0 .6.5 1 1 1s1-.5 1-1c.1-.6-.4-1-1-1z" fill="#EFDA48"/>
    <path d="M-20.9-74.1c-.6 0-1 .5-1 1 0 .6.5 1 1 1s1-.5 1-1c.1-.6-.4-1-1-1z"/>
    <path d="M-13.7-71c-1.2 0-2.1-1-2.1-2.1 0-1.2 1-2.1 2.1-2.1s2.1 1 2.1 2.1c.1 1.2-.9 2.1-2.1 2.1zm0-3.1c-.6 0-1 .5-1 1 0 .6.5 1 1 1s1-.5 1-1c.1-.6-.4-1-1-1z" fill="#EFDA48"/>
    <path d="M-13.7-74.1c-.6 0-1 .5-1 1 0 .6.5 1 1 1s1-.5 1-1c.1-.6-.4-1-1-1z"/>
    <path d="M-6.5-71c-1.2 0-2.1-1-2.1-2.1 0-1.2 1-2.1 2.1-2.1s2.1 1 2.1 2.1c.1 1.2-.9 2.1-2.1 2.1zm0-3.1c-.6 0-1 .5-1 1 0 .6.5 1 1 1s1-.5 1-1c.1-.6-.4-1-1-1z" fill="#EFDA48"/>
    <path d="M-6.5-74.1c-.6 0-1 .5-1 1 0 .6.5 1 1 1s1-.5 1-1c.1-.6-.4-1-1-1z"/>
    <path d="M.7-71c-1.2 0-2.1-1-2.1-2.1 0-1.2 1-2.1 2.1-2.1s2.1 1 2.1 2.1c.1 1.2-.9 2.1-2.1 2.1zm0-3.1c-.6 0-1 .5-1 1 0 .6.5 1 1 1s1-.5 1-1c.1-.6-.4-1-1-1z" fill="#EFDA48"/>
    <path d="M.7-74.1c-.6 0-1 .5-1 1 0 .6.5 1 1 1s1-.5 1-1c.1-.6-.4-1-1-1z"/>
    <path d="M7.9-71c-1.2 0-2.1-1-2.1-2.1 0-1.2 1-2.1 2.1-2.1s2.1 1 2.1 2.1c.1 1.2-.9 2.1-2.1 2.1zm0-3.1c-.6 0-1 .5-1 1 0 .6.5 1 1 1s1-.5 1-1c0-.6-.4-1-1-1z" fill="#EFDA48"/>
    <path d="M7.9-74.1c-.6 0-1 .5-1 1 0 .6.5 1 1 1s1-.5 1-1c0-.6-.4-1-1-1z"/>
    <path d="M15.1-71c-1.2 0-2.1-1-2.1-2.1 0-1.2 1-2.1 2.1-2.1s2.1 1 2.1 2.1c.1 1.2-.9 2.1-2.1 2.1zm0-3.1c-.6 0-1 .5-1 1 0 .6.5 1 1 1 .6 0 1-.5 1-1 0-.6-.4-1-1-1z" fill="#EFDA48"/>
    <path d="M15.1-74.1c-.6 0-1 .5-1 1 0 .6.5 1 1 1 .6 0 1-.5 1-1 0-.6-.4-1-1-1z"/>
    <path d="M22.3-71c-1.2 0-2.1-1-2.1-2.1 0-1.2 1-2.1 2.1-2.1 1.2 0 2.1 1 2.1 2.1.1 1.2-.9 2.1-2.1 2.1zm0-3.1c-.6 0-1 .5-1 1 0 .6.5 1 1 1s1-.5 1-1c0-.6-.4-1-1-1z" fill="#EFDA48"/>
    <path d="M22.3-74.1c-.6 0-1 .5-1 1 0 .6.5 1 1 1s1-.5 1-1c0-.6-.4-1-1-1z"/>
    <path d="M29.5-71c-1.2 0-2.1-1-2.1-2.1 0-1.2 1-2.1 2.1-2.1 1.2 0 2.1 1 2.1 2.1.1 1.2-.9 2.1-2.1 2.1zm0-3.1c-.6 0-1 .5-1 1 0 .6.5 1 1 1s1-.5 1-1c0-.6-.4-1-1-1z" fill="#EFDA48"/>
    <path d="M29.5-74.1c-.6 0-1 .5-1 1 0 .6.5 1 1 1s1-.5 1-1c0-.6-.4-1-1-1z"/>
    <path d="M36.7-71c-1.2 0-2.1-1-2.1-2.1 0-1.2 1-2.1 2.1-2.1 1.2 0 2.1 1 2.1 2.1.1 1.2-.9 2.1-2.1 2.1zm0-3.1c-.6 0-1 .5-1 1 0 .6.5 1 1 1 .6 0 1-.5 1-1 0-.6-.4-1-1-1z" fill="#EFDA48"/>
    <path d="M36.7-74.1c-.6 0-1 .5-1 1 0 .6.5 1 1 1 .6 0 1-.5 1-1 0-.6-.4-1-1-1z"/>
    <path d="M43.9-71c-1.2 0-2.1-1-2.1-2.1 0-1.2 1-2.1 2.1-2.1 1.2 0 2.1 1 2.1 2.1 0 1.2-.9 2.1-2.1 2.1zm0-3.1c-.6 0-1 .5-1 1 0 .6.5 1 1 1 .6 0 1-.5 1-1 0-.6-.4-1-1-1z" fill="#EFDA48"/>
    <path d="M43.9-74.1c-.6 0-1 .5-1 1 0 .6.5 1 1 1 .6 0 1-.5 1-1 0-.6-.4-1-1-1z"/>
    <path d="M-13.7-57.2c-1.2 0-2.1-1-2.1-2.1 0-1.2 1-2.1 2.1-2.1s2.1 1 2.1 2.1c.1 1.2-.9 2.1-2.1 2.1zm0-3.1c-.6 0-1 .5-1 1 0 .6.5 1 1 1s1-.5 1-1c.1-.6-.4-1-1-1z" fill="#EFDA48"/>
    <path d="M-13.7-60.3c-.6 0-1 .5-1 1 0 .6.5 1 1 1s1-.5 1-1c.1-.6-.4-1-1-1z"/>
    <path d="M-6.5-57.2c-1.2 0-2.1-1-2.1-2.1 0-1.2 1-2.1 2.1-2.1s2.1 1 2.1 2.1c.1 1.2-.9 2.1-2.1 2.1zm0-3.1c-.6 0-1 .5-1 1 0 .6.5 1 1 1s1-.5 1-1c.1-.6-.4-1-1-1z" fill="#EFDA48"/>
    <path d="M-6.5-60.3c-.6 0-1 .5-1 1 0 .6.5 1 1 1s1-.5 1-1c.1-.6-.4-1-1-1z"/>
    <path d="M.7-57.2c-1.2 0-2.1-1-2.1-2.1 0-1.2 1-2.1 2.1-2.1s2.1 1 2.1 2.1c.1 1.2-.9 2.1-2.1 2.1zm0-3.1c-.6 0-1 .5-1 1 0 .6.5 1 1 1s1-.5 1-1c.1-.6-.4-1-1-1z" fill="#EFDA48"/>
    <path d="M.7-60.3c-.6 0-1 .5-1 1 0 .6.5 1 1 1s1-.5 1-1c.1-.6-.4-1-1-1z"/>
    <path d="M7.9-57.2c-1.2 0-2.1-1-2.1-2.1 0-1.2 1-2.1 2.1-2.1s2.1 1 2.1 2.1c.1 1.2-.9 2.1-2.1 2.1zm0-3.1c-.6 0-1 .5-1 1 0 .6.5 1 1 1s1-.5 1-1c0-.6-.4-1-1-1z" fill="#EFDA48"/>
    <path d="M7.9-60.3c-.6 0-1 .5-1 1 0 .6.5 1 1 1s1-.5 1-1c0-.6-.4-1-1-1z"/>
    <path d="M15.1-57.2c-1.2 0-2.1-1-2.1-2.1 0-1.2 1-2.1 2.1-2.1s2.1 1 2.1 2.1c.1 1.2-.9 2.1-2.1 2.1zm0-3.1c-.6 0-1 .5-1 1 0 .6.5 1 1 1 .6 0 1-.5 1-1 0-.6-.4-1-1-1z" fill="#EFDA48"/>
    <path d="M15.1-60.3c-.6 0-1 .5-1 1 0 .6.5 1 1 1 .6 0 1-.5 1-1 0-.6-.4-1-1-1z"/>
    <path fill="#EFDA48" d="M80.6 17.6l-3 2.9 3 3 2.9-3z"/>
    <path d="M79.9 19.8c-.4.4-.4 1 0 1.4.4.4 1 .4 1.4 0s.4-1 0-1.4c-.4-.4-1-.4-1.4 0z"/>
    <path d="M86.3 18.1c-.8.8-2.2.8-3 0-.8-.8-.8-2.2 0-3 .8-.8 2.2-.8 3 0 .8.8.8 2.1 0 3zm-2.2-2.3c-.4.4-.4 1 0 1.4s1 .4 1.4 0 .4-1 0-1.4-1-.4-1.4 0z" fill="#EFDA48"/>
    <path d="M84.1 15.8c-.4.4-.4 1 0 1.4s1 .4 1.4 0 .4-1 0-1.4-1-.4-1.4 0z"/>
    <path d="M90.1 14.3c-.8.8-2.2.8-3 0-.8-.8-.8-2.2 0-3s2.2-.8 3 0c.8.8.8 2.2 0 3zm-2.2-2.2c-.4.4-.4 1 0 1.4.4.4 1 .4 1.4 0s.4-1 0-1.4c-.4-.4-1-.4-1.4 0z" fill="#EFDA48"/>
    <path d="M87.9 12.1c-.4.4-.4 1 0 1.4.4.4 1 .4 1.4 0s.4-1 0-1.4c-.4-.4-1-.4-1.4 0z"/>
    <path d="M94.4 10c-.8.8-2.2.8-3 0-.8-.8-.8-2.2 0-3s2.2-.8 3 0c.9.8.9 2.2 0 3zm-2.2-2.2c-.4.4-.4 1 0 1.4.4.4 1 .4 1.4 0s.4-1 0-1.4c-.4-.4-1-.4-1.4 0z" fill="#EFDA48"/>
    <path d="M92.2 7.8c-.4.4-.4 1 0 1.4.4.4 1 .4 1.4 0s.4-1 0-1.4c-.4-.4-1-.4-1.4 0z"/>
    <path fill="#EFDA48" d="M-88 8.6l-3-2.9-3 2.9 3 3z"/>
    <path d="M-90.3 8c-.4-.4-1-.4-1.4 0-.4.4-.4 1 0 1.4s1 .4 1.4 0c.4-.4.4-1.1 0-1.4z"/>
    <path d="M-88.5 14.4c-.8-.8-.8-2.2 0-3 .8-.8 2.2-.8 3 0 .8.8.8 2.2 0 3-.8.8-2.2.8-3 0zm2.2-2.2c-.4-.4-1-.4-1.4 0-.4.4-.4 1 0 1.4s1 .4 1.4 0c.4-.4.4-1.1 0-1.4z" fill="#EFDA48"/>
    <path d="M-86.3 12.2c-.4-.4-1-.4-1.4 0-.4.4-.4 1 0 1.4s1 .4 1.4 0c.4-.4.4-1.1 0-1.4z"/>
    <path d="M-84.8 18.2c-.8-.8-.8-2.2 0-3 .8-.8 2.2-.8 3 0 .8.8.8 2.2 0 3-.8.8-2.2.8-3 0zm2.2-2.2c-.4-.4-1-.4-1.4 0-.4.4-.4 1 0 1.4s1 .4 1.4 0c.4-.4.4-1 0-1.4z" fill="#EFDA48"/>
    <path d="M-82.6 16c-.4-.4-1-.4-1.4 0-.4.4-.4 1 0 1.4s1 .4 1.4 0c.4-.4.4-1 0-1.4z"/>
    <path d="M-80.5 22.5c-.8-.8-.8-2.2 0-3 .8-.8 2.2-.8 3 0 .8.8.8 2.2 0 3-.8.8-2.2.8-3 0zm2.2-2.2c-.4-.4-1-.4-1.4 0-.4.4-.4 1 0 1.4s1 .4 1.4 0c.4-.4.4-1 0-1.4z" fill="#EFDA48"/>
    <path d="M-78.3 20.3c-.4-.4-1-.4-1.4 0-.4.4-.4 1 0 1.4s1 .4 1.4 0c.4-.4.4-1 0-1.4z"/>
    <path d="M-107.8 8.6c-7.7 0-13.9-6.2-13.9-13.9s6.2-13.9 13.9-13.9S-93.9-13-93.9-5.3s-6.2 13.9-13.9 13.9zm0-20.6c-3.7 0-6.6 3-6.6 6.6s3 6.6 6.6 6.6c3.7 0 6.6-3 6.6-6.6s-2.9-6.6-6.6-6.6zM54.8 102.3c-7.7 0-13.9-6.2-13.9-13.9s6.2-13.9 13.9-13.9 13.9 6.2 13.9 13.9-6.3 13.9-13.9 13.9zm0-20.6c-3.7 0-6.6 3-6.6 6.6s3 6.6 6.6 6.6 6.6-3 6.6-6.6-3-6.6-6.6-6.6zm53.6-73.1c-7.7 0-13.9-6.2-13.9-13.9s6.2-13.9 13.9-13.9 13.9 6.2 13.9 13.9-6.2 13.9-13.9 13.9zm0-20.6c-3.7 0-6.6 3-6.6 6.6s3 6.6 6.6 6.6 6.6-3 6.6-6.6-3-6.6-6.6-6.6zM54.8-84.2c-7.7 0-13.9-6.2-13.9-13.9S47.1-112 54.8-112s13.9 6.2 13.9 13.9-6.3 13.9-13.9 13.9zm0-20.5c-3.7 0-6.6 3-6.6 6.6s3 6.6 6.6 6.6c3.7 0 6.6-3 6.6-6.6s-3-6.6-6.6-6.6zM-53.1-85C-60.8-85-67-91.2-67-98.9s6.2-13.9 13.9-13.9 13.9 6.2 13.9 13.9S-45.4-85-53.1-85zm0-20.5c-3.7 0-6.6 3-6.6 6.6 0 3.7 3 6.6 6.6 6.6s6.6-3 6.6-6.6c0-3.7-2.9-6.6-6.6-6.6zm0 207.8c-7.7 0-13.9-6.2-13.9-13.9s6.2-13.9 13.9-13.9 13.9 6.2 13.9 13.9-6.2 13.9-13.9 13.9zm0-20.6c-3.7 0-6.6 3-6.6 6.6s3 6.6 6.6 6.6c3.7 0 6.6-3 6.6-6.6s-2.9-6.6-6.6-6.6z" fill="#EFDA48"/>
    <path d="M-20.9 36.6H-23V42h2.1zm11 0h-2.2V42h2.2zm10.9 0h-2.1V42H1zm11 0H9.8V42H12zm10.9 0h-2.1V42h2.1zm-43.8-10.7H-23v5.4h2.1zm11 0h-2.2v5.4h2.2zm10.9 0h-2.1v5.4H1zm11 0H9.8v5.4H12zm10.9 0h-2.1v5.4h2.1zm-43.8-10.8H-23v5.5h2.1zm11 0h-2.2v5.5h2.2zm10.9 0h-2.1v5.5H1zm11 0H9.8v5.5H12zm10.9 0h-2.1v5.5h2.1zM-20.9 4.4H-23v5.5h2.1zm11 0h-2.2v5.5h2.2zM1 4.4h-2.1v5.5H1zm11 0H9.8v5.5H12zm10.9 0h-2.1v5.5h2.1zM-20.9-6.3H-23v5.4h2.1zm11 0h-2.2v5.4h2.2zM1-6.3h-2.1v5.4H1zm11 0H9.8v5.4H12zm10.9 0h-2.1v5.4h2.1z" fill="#FFF"/>
    <path d="M-61.4 47.4c0-.9-.7-1.6-1.6-1.6s-1.6.7-1.6 1.6.7 1.6 1.6 1.6 1.6-.7 1.6-1.6zm5.5 0c0-.9-.7-1.6-1.6-1.6s-1.6.7-1.6 1.6.7 1.6 1.6 1.6 1.6-.7 1.6-1.6zm5.5 0c0-.9-.7-1.6-1.6-1.6s-1.6.7-1.6 1.6.7 1.6 1.6 1.6 1.6-.7 1.6-1.6zm5.4 0c0-.9-.7-1.6-1.6-1.6-.9 0-1.6.7-1.6 1.6s.7 1.6 1.6 1.6c.9.1 1.6-.7 1.6-1.6zm5.5 0c0-.9-.7-1.6-1.6-1.6s-1.6.7-1.6 1.6.7 1.6 1.6 1.6 1.6-.7 1.6-1.6zm5.4 0c0-.9-.7-1.6-1.6-1.6s-1.6.7-1.6 1.6.7 1.6 1.6 1.6 1.6-.7 1.6-1.6zm-5.4 29.2c0-.9-.7-1.6-1.6-1.6s-1.6.7-1.6 1.6c0 .9.7 1.6 1.6 1.6s1.6-.7 1.6-1.6zm5.4 0c0-.9-.7-1.6-1.6-1.6s-1.6.7-1.6 1.6c0 .9.7 1.6 1.6 1.6s1.6-.7 1.6-1.6zm5.5 0c0-.9-.7-1.6-1.6-1.6s-1.6.7-1.6 1.6c0 .9.7 1.6 1.6 1.6s1.6-.7 1.6-1.6zm5.5 0c0-.9-.7-1.6-1.6-1.6s-1.6.7-1.6 1.6c0 .9.7 1.6 1.6 1.6s1.6-.7 1.6-1.6zm5.4 0c0-.9-.7-1.6-1.6-1.6s-1.6.7-1.6 1.6c0 .9.7 1.6 1.6 1.6s1.6-.7 1.6-1.6zm0-8.3c0-.9-.7-1.6-1.6-1.6s-1.6.7-1.6 1.6c0 .9.7 1.6 1.6 1.6s1.6-.8 1.6-1.6zM-.1 47.4c0-.9-.7-1.6-1.6-1.6s-1.6.7-1.6 1.6.7 1.6 1.6 1.6 1.6-.7 1.6-1.6zm5.5 0c0-.9-.7-1.6-1.6-1.6s-1.6.7-1.6 1.6.7 1.6 1.6 1.6 1.6-.7 1.6-1.6z" fill="#EFDA48"/>
    <path d="M8.8 66.6H-8.8c-.7 0-1.2.5-1.2 1.2v13.5c0 .7.5 1.2 1.2 1.2H8.8c.7 0 1.2-.5 1.2-1.2V67.8c0-.6-.6-1.2-1.2-1.2z" fill="#BDD1CF"/>
    <path d="M-59.9 36.6H-62V42h2.1zm11.7 0h-2.1V42h2.1zM-59.9 16H-62v5.5h2.1zm11.7 0h-2.1v5.5h2.1z" fill="#FFF"/>
    <path d="M-48.3 21.4h-13.6c-.6 0-1.1.5-1.1 1.1v13.7c0 .6.5 1.1 1.1 1.1h13.6c.6 0 1.1-.5 1.1-1.1V22.4c0-.6-.5-1-1.1-1z" fill="#BDD1CF"/>
    <path d="M-50.2 29.3c0-2.7-2.2-4.9-4.9-4.9s-4.9 2.2-4.9 4.9 2.2 4.9 4.9 4.9 4.9-2.2 4.9-4.9z" fill="#476975"/>
    <path d="M-59.3 35.2c0-.9-.7-1.6-1.6-1.6-.9 0-1.6.7-1.6 1.6 0 .9.7 1.6 1.6 1.6.9 0 1.6-.7 1.6-1.6zm11.7 0c0-.9-.7-1.6-1.6-1.6-.9 0-1.6.7-1.6 1.6 0 .9.7 1.6 1.6 1.6.8 0 1.6-.7 1.6-1.6zm-11.7-11.6c0-.9-.7-1.6-1.6-1.6-.9 0-1.6.7-1.6 1.6s.7 1.6 1.6 1.6c.9 0 1.6-.7 1.6-1.6zm11.7 0c0-.9-.7-1.6-1.6-1.6-.9 0-1.6.7-1.6 1.6s.7 1.6 1.6 1.6c.8 0 1.6-.7 1.6-1.6z"/>
    <g fill="#FFF">
      <path d="M68.7-61.4h-17c-.8 0-1.5.7-1.5 1.5V-39c0 .8.7 1.5 1.5 1.5h17c.8 0 1.5-.7 1.5-1.5v-20.9c0-.8-.7-1.5-1.5-1.5z"/>
      <path d="M54.4-40.8H44v3.3h10.4zm0-20.6H44v3.4h10.4z"/>
    </g>
    <path d="M76.6-2.2c-9.9 0-17.9-8-17.9-17.9S66.7-38 76.6-38s17.9 8 17.9 17.9-8 17.9-17.9 17.9z"/>
    <path d="M39.1-57.2c-1.2 0-2.1-1-2.1-2.1 0-1.2 1-2.1 2.1-2.1s2.1 1 2.1 2.1c.1 1.2-.9 2.1-2.1 2.1z" fill="#EFDA48"/>
    <path d="M51.6 36.6h-2.1V42h2.1zm11.7 0h-2.2V42h2.2zM51.6 16h-2.1v5.5h2.1zm11.7 0h-2.2v5.5h2.2z" fill="#FFF"/>
    <path d="M63.2 21.4H49.6c-.6 0-1.1.5-1.1 1.1v13.7c0 .6.5 1.1 1.1 1.1h13.6c.6 0 1.1-.5 1.1-1.1V22.4c0-.6-.5-1-1.1-1z" fill="#BDD1CF"/>
    <path d="M61.3 29.3c0-2.7-2.2-4.9-4.9-4.9s-4.9 2.2-4.9 4.9 2.2 4.9 4.9 4.9 4.9-2.2 4.9-4.9z" fill="#476975"/>
    <path d="M52.2 35.2c0-.9-.7-1.6-1.6-1.6-.9 0-1.6.7-1.6 1.6 0 .9.7 1.6 1.6 1.6.9 0 1.6-.7 1.6-1.6zm11.6 0c0-.9-.7-1.6-1.6-1.6-.9 0-1.6.7-1.6 1.6 0 .9.7 1.6 1.6 1.6.9 0 1.6-.7 1.6-1.6zM52.2 23.6c0-.9-.7-1.6-1.6-1.6-.9 0-1.6.7-1.6 1.6s.7 1.6 1.6 1.6c.9 0 1.6-.7 1.6-1.6zm11.6 0c0-.9-.7-1.6-1.6-1.6-.9 0-1.6.7-1.6 1.6s.7 1.6 1.6 1.6c.9 0 1.6-.7 1.6-1.6z"/>
    <path d="M37.3 60H23.7c-.6 0-1.1.5-1.1 1.1v13.7c0 .6.5 1.1 1.1 1.1h13.6c.6 0 1.1-.5 1.1-1.1V61.1c0-.6-.5-1.1-1.1-1.1z" fill="#BDD1CF"/>
    <path d="M35.5 68c0-2.7-2.2-4.9-4.9-4.9s-4.9 2.2-4.9 4.9 2.2 4.9 4.9 4.9 4.9-2.2 4.9-4.9z" fill="#476975"/>
    <path fill="#F9B233" d="M37.1-46H25.4v21h11.7z"/>
    <path d="M-31.8-47.4l-11.9 11.9 11.9 11.9 11.9-11.9zm28.2-5.1v6.1h6.1v-6.1z"/>
    <path fill="#FFF" d="M5.3-35.5H-5.5V-25H5.3z"/>
    <path d="M4-30.2c0-2.3-1.8-4.1-4.1-4.1s-4.1 1.8-4.1 4.1 1.8 4.1 4.1 4.1S4-28 4-30.2z" fill="#BDD1CF"/>
    <path fill="#FFF" d="M-36.8-54.6l-6.8-4.4-3.9 6.1 6.8 4.4z"/>
  </symbol>
  <symbol id="a" viewBox="-150.5 -131.7 298.9 263.3">
    <path d="M-77.1 127.5c6.2 4.6 14.6 4.8 20.9.5 12.5-8.4 34.7-21 56-21 23.2 0 45.7 13.5 56.4 21 4.3 3 9.8 3.8 14.7 2l.6-.2c7.3-2.6 11.8-9.8 11-17.4-1.7-15.4-3-41.9 13-62.9 16.8-21.9 31.7-31.2 42.3-34.8 5.9-2 9.9-7.4 10.4-13.6.5-8-5.1-13.6-12.3-17-12-5.7-30.8-15.7-42.8-36.2-14.4-24.9-13-51.3-11.4-62.7.7-5.1-1.6-10.1-5.9-12.8-4.8-3-11.9-4.6-21.4 1.5-5.5 3.6-12 8.6-20.8 12-10.8 4.1-16.9 5.5-20.3 5.8-2.4.2-4.4 1.8-5.2 4-1.1 2.9-3.4 6.2-8.2 6.2-5 0-7.2-3.6-8.2-6.6-.8-2.5-3.3-3.4-5.9-3.7-4.9-.4-12.5-2.4-20.5-6.1-7.1-3.3-14-7.9-20.4-12.7-5.5-4.1-15-5.5-20.4-1.3-5.7 4.4-7.4 11.7-6.5 18.8 1.9 15.3 1.1 43.3-16.7 64.2-17.6 20.8-28.2 26.2-37.2 29.2-3.9 1.3-11.4 5.4-12.3 14.1s3 14.5 10.9 18.4c12.3 6.1 30.5 17.2 42.1 34.1 15.1 22 15.1 48.1 13.1 61.7-.7 5.7.4 12.1 5 15.5z" fill="#034854"/>
    <path d="M-133.5 17c-9.4 0-17.1-7.6-17.1-17.1s7.6-17.1 17.1-17.1 17.1 7.6 17.1 17.1-7.7 17.1-17.1 17.1zm0-25.2c-4.5 0-8.1 3.6-8.1 8.1S-138 8-133.5 8s8.1-3.6 8.1-8.1-3.6-8.1-8.1-8.1zm199 139.9c-9.4 0-17.1-7.6-17.1-17.1S56 97.5 65.5 97.5s17.1 7.6 17.1 17.1-7.7 17.1-17.1 17.1zm0-25.2c-4.5 0-8.1 3.6-8.1 8.1s3.6 8.1 8.1 8.1 8.1-3.6 8.1-8.1-3.6-8.1-8.1-8.1zM131.2 17c-9.4 0-17.1-7.6-17.1-17.1s7.6-17.1 17.1-17.1 17.1 7.6 17.1 17.1S140.6 17 131.2 17zm0-25.2c-4.5 0-8.1 3.6-8.1 8.1s3.6 8.1 8.1 8.1 8.1-3.6 8.1-8.1-3.7-8.1-8.1-8.1zM65.5-96.6c-9.4 0-17.1-7.6-17.1-17.1s7.6-17.1 17.1-17.1 17.1 7.6 17.1 17.1-7.7 17.1-17.1 17.1zm0-25.1c-4.5 0-8.1 3.6-8.1 8.1s3.6 8.1 8.1 8.1 8.1-3.6 8.1-8.1-3.6-8.1-8.1-8.1zm-132 24.1c-9.4 0-17.1-7.6-17.1-17.1s7.6-17.1 17.1-17.1 17.1 7.6 17.1 17.1-7.7 17.1-17.1 17.1zm0-25.1c-4.5 0-8.1 3.6-8.1 8.1s3.6 8.1 8.1 8.1 8.1-3.6 8.1-8.1-3.6-8.1-8.1-8.1zm0 254.4c-9.4 0-17.1-7.6-17.1-17.1s7.6-17.1 17.1-17.1 17.1 7.6 17.1 17.1-7.7 17.1-17.1 17.1zm0-25.2c-4.5 0-8.1 3.6-8.1 8.1s3.6 8.1 8.1 8.1 8.1-3.6 8.1-8.1-3.6-8.1-8.1-8.1z" fill="#EFDA48"/>
    <path d="M131.2-8.2c-4.5 0-8.1 3.6-8.1 8.1s3.6 8.1 8.1 8.1 8.1-3.6 8.1-8.1-3.7-8.1-8.1-8.1zM65.5 106.5c-4.5 0-8.1 3.6-8.1 8.1s3.6 8.1 8.1 8.1 8.1-3.6 8.1-8.1-3.6-8.1-8.1-8.1zm-132 0c-4.5 0-8.1 3.6-8.1 8.1s3.6 8.1 8.1 8.1 8.1-3.6 8.1-8.1-3.6-8.1-8.1-8.1zm-67-114.6c-4.5 0-8.1 3.6-8.1 8.1s3.6 8.1 8.1 8.1 8.1-3.6 8.1-8.1-3.6-8.1-8.1-8.1zm67-114.6c-4.5 0-8.1 3.6-8.1 8.1s3.6 8.1 8.1 8.1 8.1-3.6 8.1-8.1-3.6-8.1-8.1-8.1zm132 1c-4.5 0-8.1 3.6-8.1 8.1s3.6 8.1 8.1 8.1 8.1-3.6 8.1-8.1-3.6-8.1-8.1-8.1z" fill="#FFF"/>
  </symbol>
  <g transform="matrix(1.37 0 0 1.37 -54.72 -54.89)">
    <use xlink:href="#b" width="244.6" height="225.8" x="-122.3" y="-112.9" transform="matrix(1 0 0 -1 164.02 147.6)" overflow="visible"/>
    <path d="M156.7 83.9v2.9c0 .2 0 .4-.1.6-.1.2-.2.3-.3.5-.1.2-.3.2-.4.3-.2.1-.4.1-.6.1-.2 0-.4 0-.6-.1-.2-.1-.3-.2-.4-.3-.1-.1-.2-.3-.3-.5-.1-.2-.1-.4-.1-.6v-2.9h.5v2.9c0 .1 0 .2.1.4 0 .1.1.2.2.3.1.1.2.2.3.2.1.1.2.1.4.1s.3 0 .4-.1c.1-.1.2-.1.3-.2.1-.1.1-.2.2-.3.1-.1.1-.2.1-.4v-2.9h.3zm3.2 3.2c0-.1 0-.2-.1-.3-.1-.1-.1-.2-.2-.2-.1-.1-.2-.1-.3-.2-.1-.1-.2-.1-.3-.1-.2 0-.3-.1-.5-.2s-.3-.2-.4-.3c-.1-.1-.2-.2-.3-.4-.1-.1-.1-.3-.1-.5s0-.3.1-.5c.1-.1.2-.3.3-.4.1-.1.3-.2.4-.2.1 0 .3-.1.5-.1s.4 0 .5.1c.2.1.3.1.5.3.2.2.2.2.3.4.1.2.1.3.1.5h-.6c0-.1 0-.2-.1-.3-.1-.1-.1-.2-.2-.3-.1-.1-.2-.1-.3-.2-.1 0-.2-.1-.3-.1h-.3c-.1 0-.2.1-.3.1l-.2.2c-.1.1-.1.2-.1.3 0 .1 0 .2.1.3.1.1.1.2.2.2.1.1.2.1.3.1.1 0 .2.1.3.1.1 0 .2.1.3.1.1 0 .2.1.3.1.1 0 .2.1.3.2.1.1.2.1.2.2.1.1.1.2.2.3 0 .1.1.2.1.3 0 .2 0 .4-.1.5-.1.1-.2.3-.3.4-.1.1-.3.2-.5.2s-.3.1-.5.1-.4 0-.6-.1c-.2-.1-.3-.1-.5-.3-.1-.1-.3-.2-.4-.4-.1-.2-.1-.3-.1-.5h.6c0 .1.1.2.1.4.1.1.1.2.2.3.1.1.2.1.3.2.1.1.2.1.4.1h.3c.1 0 .2-.1.3-.1l.2-.2c.2.1.2 0 .2-.1zm1.3 1.1v-4.3h1.3c.2 0 .3 0 .5.1.2 0 .3.1.4.2.1.1.2.2.3.4.1.2.1.3.1.5 0 .1 0 .2-.1.3-.1.1-.1.2-.1.2l-.2.2c-.1.1-.2.1-.3.1.1 0 .2.1.3.1.1.1.2.1.2.2s.1.2.2.3c0 .1.1.2.1.4s0 .4-.1.5c-.1.1-.2.3-.3.4-.1.1-.3.2-.5.2-.2.1-.3.1-.5.1h-1.3zm.6-2.5h1.1c.1 0 .2-.1.3-.1l.2-.2c.1-.1.1-.2.1-.3 0-.1 0-.2-.1-.3 0-.1-.1-.2-.2-.2s-.2-.1-.3-.1h-1v1.2zm0 .5v1.5h.8c.1 0 .2 0 .3-.1.1 0 .2-.1.3-.2l.2-.2c0-.1.1-.2.1-.3 0-.1 0-.2-.1-.3-.1-.1-.1-.2-.2-.2s-.2-.1-.3-.2c-.1-.1-.2-.1-.3-.1h-.8z" fill="#fff"/>
    <path d="M67.3 153.4c0 .3 0 .5-.1.7-.1.2-.2.4-.3.5-.1.1-.3.3-.4.3-.1 0-.4.1-.6.1-.2 0-.4 0-.6-.1-.2-.1-.3-.2-.4-.3-.1-.1-.2-.3-.3-.5-.1-.2-.1-.5-.1-.7v-1c0-.3 0-.5.1-.7.1-.2.2-.4.3-.5.1-.1.3-.3.4-.3.2-.1.4-.1.6-.1.2 0 .4 0 .6.1.2.1.3.2.4.3.1.1.2.3.3.5.1.2.1.5.1.7v1zm-2.2-.1l1.7-1.3c0-.3-.1-.5-.2-.6-.1-.1-.3-.2-.6-.2s-.5.1-.6.3c-.1.2-.2.5-.2.8v1zm1.6-.8l-1.7 1.3c0 .3.1.5.3.6.2.1.3.2.6.2s.5-.1.6-.3c.1-.2.2-.5.2-.8v-1zM111.8 70h-2.2v-.4h2.2v.4zm106.9-.6h1.2v.5h-1.2v1.3h-.5v-1.3H217v-.5h1.2v-1.2h.5v1.2zm43.1 83.2h.4c.1 0 .3 0 .4-.1.1-.1.2-.1.3-.2l.2-.2c.1-.1.1-.2.1-.3 0-.2-.1-.4-.2-.6-.1-.1-.3-.2-.6-.2-.1 0-.2 0-.3.1-.1 0-.2.1-.2.1l-.2.2c-.1.1-.1.2-.1.3h-.5c0-.2 0-.3.1-.5.1-.1.2-.3.3-.4.1-.1.3-.2.4-.3.2-.1.3-.1.5-.1s.4 0 .5.1c.1.1.3.1.4.2.1.1.2.2.3.4.1.2.1.3.1.5v.3c0 .1-.1.2-.1.3 0 .1-.1.2-.2.2-.1.1-.2.1-.3.2.1 0 .3.1.3.2s.2.2.2.2c.1.1.1.2.1.3v.3c0 .2 0 .4-.1.5-.1.1-.2.3-.3.4-.1.1-.3.2-.4.2-.2.1-.3.1-.5.1s-.4 0-.5-.1c-.1-.1-.3-.1-.4-.2-.1-.1-.2-.2-.3-.4-.1-.1-.1-.3-.1-.5h.5c0 .1 0 .2.1.3 0 .1.1.2.2.2s.2.1.3.1c.1 0 .2.1.3.1h.3c.1 0 .2-.1.3-.1.1 0 .1-.1.2-.2 0-.1.1-.2.1-.3 0-.1 0-.2-.1-.3 0-.1-.1-.2-.2-.2-.1-.1-.2-.1-.3-.1h-.8v-.5zm-150.1 85.7h-.5v-3.6l-1.1.4v-.5l1.6-.6v4.3zm107.8-.6h-2.8v-.4l1.4-1.6c.1-.1.2-.3.3-.4.1-.1.2-.2.2-.3.1-.1.1-.2.1-.3v-.2c0-.1 0-.2-.1-.3 0-.1-.1-.2-.2-.2s-.1-.1-.2-.2c-.1 0-.2-.1-.3-.1-.1 0-.3 0-.4.1-.1 0-.2.1-.3.2-.1.1-.1.2-.2.3 0 .1-.1.2-.1.4h-.5c0-.2 0-.3.1-.5s.2-.3.3-.4c.1-.1.3-.2.4-.3.1-.1.4-.1.6-.1.2 0 .4 0 .5.1.2.1.3.1.4.2.1.1.2.2.3.4.1.2.1.3.1.5 0 .1 0 .3-.1.4-.1.1-.1.2-.2.4-.1.1-.2.2-.3.4-.1.1-.2.2-.3.4l-1.1 1.2h2.1v.3z"/>
    <path d="M166.4 169.8v-4.3h1.3c.2 0 .3 0 .5.1.2 0 .3.1.4.2.1.1.2.2.3.4.1.2.1.3.1.5 0 .1 0 .2-.1.3-.1.1-.1.2-.1.2l-.2.2c-.1.1-.2.1-.3.1.1 0 .2.1.3.1.1.1.2.1.2.2s.1.2.2.3c0 .1.1.2.1.4s0 .4-.1.5c-.1.1-.2.3-.3.4-.1.1-.3.2-.5.2-.2.1-.3.1-.5.1h-1.3zm.5-2.4h1.1c.1 0 .2-.1.3-.1l.2-.2c.1-.1.1-.2.1-.3 0-.1 0-.2-.1-.3 0-.1-.1-.2-.2-.2s-.2-.1-.3-.1h-1v1.2zm0 .4v1.5h.8c.1 0 .2 0 .3-.1.1 0 .2-.1.3-.2l.2-.2c0-.1.1-.2.1-.3 0-.1 0-.2-.1-.3-.1-.1-.1-.2-.2-.2s-.2-.1-.3-.2c-.1-.1-.2-.1-.3-.1h-.8zm5.1.9h-1.4l-.3 1.1h-.5l1.4-4.3h.5l1.4 4.3h-.5l-.6-1.1zm-1.2-.5h1.1l-.6-1.9-.5 1.9zm5.7-2.2h-1.3v3.8h-.5V166h-1.3v-.5h3.2v.5zm3.6 0h-1.3v3.8h-.5V166H177v-.5h3.2v.5zm3.1 1.8h-1.8v1.5h2.1v.5h-2.6v-4.3h2.6v.5h-2.1v1.4h1.8v.4zm2.6.3h-.8v1.7h-.5v-4.3h1.3c.2 0 .4 0 .6.1.2.1.3.1.5.2.1.1.2.2.3.4.1.2.1.3.1.6 0 .1 0 .3-.1.4-.1.1-.1.2-.2.3-.1.1-.2.2-.3.2-.1 0-.2.1-.3.2l.9 1.8h-.6l-.9-1.6zm-.8-.5h.7c.1 0 .2 0 .3-.1.1-.1.2-.1.3-.2.1-.1.1-.2.2-.3 0-.1.1-.2.1-.3 0-.1 0-.3-.1-.4 0-.1-.1-.2-.2-.3-.1-.1-.2-.1-.3-.2-.1-.1-.2-.1-.4-.1h-.6v1.9zm3-2.1h2.6v.5h-1v3.3h1v.5H188v-.5h1V166h-1v-.5zm6 2.3h-1.8v1.5h2.1v.5h-2.6v-4.3h2.6v.5h-2.1v1.4h1.8v.4zm-27-5.3h2.1v.5h-2.6v-4.3h.5v3.8zm5-.6h-1.4l-.3 1.1h-.5l1.4-4.3h.5l1.4 4.3h-.5l-.6-1.1zm-1.2-.5h1.1l-.6-1.9-.5 1.9zm5.5-2.7v2.9c0 .2 0 .4-.1.6-.1.2-.2.3-.3.5-.1.2-.3.2-.4.3-.2.1-.4.1-.6.1-.2 0-.4 0-.6-.1-.2-.1-.3-.2-.4-.3-.1-.1-.2-.3-.3-.5-.1-.2-.1-.4-.1-.6v-2.9h.5v2.9c0 .1 0 .2.1.4 0 .1.1.2.2.3.1.1.2.2.3.2.1.1.2.1.4.1s.3 0 .4-.1c.1-.1.2-.1.3-.2.1-.1.1-.2.2-.3.1-.1.1-.2.1-.4v-2.9h.3zm3.8.5h-1.3v3.8h-.5v-3.8H177v-.5h3.2v.5zm2.9 2.7c0-.1 0-.2-.1-.3-.1-.1-.1-.2-.2-.2-.1-.1-.2-.1-.3-.2-.1-.1-.2-.1-.3-.1-.2 0-.3-.1-.5-.2s-.3-.2-.4-.3c-.1-.1-.2-.2-.3-.4-.1-.1-.1-.3-.1-.5s0-.3.1-.5c.1-.1.2-.3.3-.4.1-.1.3-.2.4-.2.1 0 .3-.1.5-.1s.4 0 .5.1c.2.1.3.1.5.3.2.2.2.2.3.4.1.2.1.3.1.5h-.5c0-.1 0-.2-.1-.3-.1-.1-.1-.2-.2-.3-.1-.1-.2-.1-.3-.2-.1 0-.2-.1-.3-.1h-.3c-.1 0-.2.1-.3.1l-.2.2c-.1.1-.1.2-.1.3 0 .1 0 .2.1.3.1.1.1.2.2.2.1.1.2.1.3.1.1 0 .2.1.3.1.1 0 .2.1.3.1.1 0 .2.1.3.1.1 0 .2.1.3.2.1.1.2.1.2.2.1.1.1.2.2.3 0 .1.1.2.1.3 0 .2 0 .4-.1.5-.1.1-.2.3-.3.4-.1.1-.3.2-.5.2s-.3.1-.5.1-.4 0-.6-.1c-.2-.1-.3-.1-.5-.3-.1-.1-.3-.2-.4-.4-.1-.2-.1-.3-.1-.5h.6c0 .1.1.2.1.4.1.1.1.2.2.3.1.1.2.1.3.2.1.1.2.1.4.1h.3c.1 0 .2-.1.3-.1l.2-.2c.1.1.1 0 .1-.1zm2-.6v1.7h-.5v-4.3h1.4c.2 0 .4 0 .5.1.2.1.3.1.4.2.1.1.2.2.3.4.1.2.1.3.1.5s0 .4-.1.5c-.1.2-.2.3-.3.4-.1.1-.3.2-.4.2-.2.1-.4.1-.5.1h-.9zm0-.5h.8c.1 0 .2 0 .3-.1.1 0 .2-.1.3-.2.1-.1.1-.2.2-.3 0-.1.1-.2.1-.3 0-.1 0-.2-.1-.3 0-.1-.1-.2-.2-.3-.1-.1-.2-.1-.3-.2-.1-.1-.2-.1-.3-.1h-.8v1.8zm4.4.4h-.9v1.7h-.5v-4.3h1.3c.2 0 .4 0 .6.1.2.1.3.1.5.2.1.1.2.2.3.4.1.2.1.3.1.6 0 .1 0 .3-.1.4-.1.1-.1.2-.2.3-.1.1-.2.2-.3.2-.1 0-.2.1-.3.2l.9 1.8h-.6l-.8-1.6zm-.8-.4h.7c.1 0 .2 0 .3-.1.1-.1.2-.1.3-.2.1-.1.1-.2.2-.3 0-.1.1-.2.1-.3 0-.1 0-.3-.1-.4 0-.1-.1-.2-.2-.3-.1-.1-.2-.1-.3-.2-.1-.1-.2-.1-.4-.1h-.7v1.9zm5.4.2h-1.8v1.5h2.1v.5h-2.6v-4.3h2.6v.5h-2.1v1.4h1.8v.4zm4 .7c0 .2-.1.4-.2.5-.1.2-.2.3-.3.4-.1.1-.3.2-.4.3-.2.1-.4.1-.6.1-.2 0-.3 0-.5-.1-.1-.1-.3-.1-.4-.2l-.3-.3c-.1-.1-.1-.2-.2-.4-.1-.1-.1-.3-.1-.4V160c0-.2.1-.3.1-.4.1-.1.1-.3.2-.4l.3-.3c.1-.1.2-.2.4-.2.1 0 .3-.1.5-.1s.4 0 .6.1c.2.1.3.2.4.3.1.1.2.3.3.4.1.2.1.4.1.6h-.5c0-.1 0-.2-.1-.4s-.1-.2-.2-.3c-.1-.1-.2-.1-.3-.2-.1 0-.2-.1-.4-.1-.1 0-.2 0-.3.1-.1 0-.2.1-.3.2-.1.1-.1.2-.2.3 0 .1-.1.2-.1.3 0 .1-.1.2-.1.3v1.2c0 .1 0 .2.1.3 0 .1.1.2.1.3 0 .1.1.2.2.3.1.1.2.1.3.2.1.1.2.1.3.1.1 0 .3 0 .4-.1.1-.1.2-.1.3-.2.1-.1.1-.2.2-.3.1-.1.1-.2.1-.4h.6zm3.5 1.3h-.5v-2h-1.7v2h-.5v-4.3h.5v1.8h1.7v-1.8h.5v4.3zm3.3-2H203v1.5h2.1v.5h-2.6v-4.3h2.6v.5H203v1.4h1.8v.4zm2.6.2h-.9v1.7h-.5v-4.3h1.3c.2 0 .4 0 .6.1.2.1.3.1.5.2.1.1.2.2.3.4.1.2.1.3.1.6 0 .1 0 .3-.1.4-.1.1-.1.2-.2.3-.1.1-.2.2-.3.2-.1 0-.2.1-.3.2l.9 1.8h-.6l-.8-1.6zm-.8-.4h.7c.1 0 .2 0 .3-.1.1-.1.2-.1.3-.2.1-.1.1-.2.2-.3 0-.1.1-.2.1-.3 0-.1 0-.3-.1-.4 0-.1-.1-.2-.2-.3-.1-.1-.2-.1-.3-.2-.1-.1-.2-.1-.4-.1h-.7v1.9zm-131.5 7.3v1.7h-.5v-4.3H76c.2 0 .4 0 .5.1.2.1.3.1.4.2.1.1.2.2.3.4.1.2.1.3.1.5s0 .4-.1.5c-.1.2-.2.3-.3.4-.1.1-.3.2-.4.2-.2.1-.4.1-.5.1h-.9zm0-.4h.8c.1 0 .2 0 .3-.1.1 0 .2-.1.3-.2.1-.1.1-.2.2-.3 0-.1.1-.2.1-.3 0-.1 0-.2-.1-.3 0-.1-.1-.2-.2-.3-.1-.1-.2-.1-.3-.2-.1-.1-.2-.1-.3-.1h-.8v1.8zm4.4.4h-.9v1.7h-.5v-4.3h1.3c.2 0 .4 0 .6.1.2.1.3.1.5.2.1.1.2.2.3.4.1.2.1.3.1.6 0 .1 0 .3-.1.4-.1.1-.1.2-.2.3-.1.1-.2.2-.3.2-.1 0-.2.1-.3.2l.9 1.8h-.6l-.8-1.6zm-.8-.5h.7c.1 0 .2 0 .3-.1.1-.1.2-.1.3-.2.1-.1.1-.2.2-.3 0-.1.1-.2.1-.3 0-.1 0-.3-.1-.4 0-.1-.1-.2-.2-.3-.1-.1-.2-.1-.3-.2-.1-.1-.2-.1-.4-.1h-.7v1.9zm5.8.3v.5c0 .2-.1.3-.1.5s-.1.3-.2.4l-.3.3c-.1.1-.2.2-.4.2-.1.1-.3.1-.5.1s-.3 0-.5-.1c-.1-.1-.3-.1-.4-.2l-.3-.3c-.1-.1-.1-.3-.2-.4-.1-.1-.1-.3-.1-.4V167c0-.2.1-.3.1-.5.1-.1.1-.3.2-.4l.3-.3c.1-.1.2-.2.4-.2.1-.1.3-.1.5-.1s.3 0 .5.1c.1.1.3.1.4.2l.3.3c.1.1.1.3.2.4.1.1.1.3.1.5v.9zm-.6-.5v-.3c0-.1 0-.2-.1-.3 0-.1-.1-.2-.1-.3 0-.1-.1-.2-.2-.3-.1-.1-.2-.1-.2-.2-.1 0-.2-.1-.3-.1-.1 0-.2 0-.3.1-.1.1-.2.1-.2.2-.1.1-.1.2-.2.3-.1.1-.1.2-.1.3 0 .1 0 .2-.1.3-.1.1 0 .2 0 .3v.8c0 .1 0 .2.1.3 0 .1.1.2.1.3 0 .1.1.2.2.3.1.1.2.1.2.2s.2.1.3.1c.1 0 .2 0 .3-.1.1 0 .2-.1.2-.2.1-.1.1-.2.2-.3 0-.1.1-.2.1-.3 0-.1 0-.2.1-.3.1-.1 0-.2 0-.3v-.5zm1.8 1.9H88v.5h-2.8v-.4l2.1-3.4h-2.1v-.5h2.7v.4l-2.2 3.4zm5.5-1.5h-1.8v1.5h2.1v.5h-2.6v-4.3h2.6v.5h-2.1v1.4h1.8v.4zm3.5.9c0-.1 0-.2-.1-.3-.1-.1-.1-.2-.2-.2-.1-.1-.2-.1-.3-.2-.1-.1-.2-.1-.3-.1-.2 0-.3-.1-.5-.2s-.3-.2-.4-.3c-.1-.1-.2-.2-.3-.4-.1-.1-.1-.3-.1-.5s0-.3.1-.5c.1-.1.2-.3.3-.4.1-.1.3-.2.4-.2.1 0 .3-.1.5-.1s.4 0 .5.1c.2.1.3.1.5.3.2.2.2.2.3.4.1.2.1.3.1.5h-.6c0-.1 0-.2-.1-.3-.1-.1-.1-.2-.2-.3-.1-.1-.2-.1-.3-.2-.1 0-.2-.1-.3-.1h-.3c-.1 0-.2.1-.3.1l-.2.2c-.1.1-.1.2-.1.3 0 .1 0 .2.1.3.1.1.1.2.2.2.1.1.2.1.3.1.1 0 .2.1.3.1.1 0 .2.1.3.1.1 0 .2.1.3.1.1 0 .2.1.3.2.1.1.2.1.2.2.1.1.1.2.2.3 0 .1.1.2.1.3 0 .2 0 .4-.1.5-.1.1-.2.3-.3.4-.1.1-.3.2-.5.2s-.3.1-.5.1-.4 0-.6-.1c-.2-.1-.3-.1-.5-.3-.1-.1-.3-.2-.4-.4-.1-.2-.1-.3-.1-.5h.6c0 .1.1.2.1.4.1.1.1.2.2.3.1.1.2.1.3.2.1.1.2.1.4.1h.3c.1 0 .2-.1.3-.1l.2-.2c.2.1.2 0 .2-.1zm3.6 0c0-.1 0-.2-.1-.3-.1-.1-.1-.2-.2-.2-.1-.1-.2-.1-.3-.2-.1-.1-.2-.1-.3-.1-.2 0-.3-.1-.5-.2s-.3-.2-.4-.3c-.1-.1-.2-.2-.3-.4-.1-.1-.1-.3-.1-.5s0-.3.1-.5c.1-.1.2-.3.3-.4.1-.1.3-.2.4-.2.1 0 .3-.1.5-.1s.4 0 .5.1c.2.1.3.1.5.3.2.2.2.2.3.4.1.2.1.3.1.5h-.6c0-.1 0-.2-.1-.3-.1-.1-.1-.2-.2-.3-.1-.1-.2-.1-.3-.2-.1 0-.2-.1-.3-.1H97c-.1 0-.2.1-.3.1l-.2.2c-.1.1-.1.2-.1.3 0 .1 0 .2.1.3.1.1.1.2.2.2.1.1.2.1.3.1.1 0 .2.1.3.1.1 0 .2.1.3.1.1 0 .2.1.3.1.1 0 .2.1.3.2.1.1.2.1.2.2.1.1.1.2.2.3 0 .1.1.2.1.3 0 .2 0 .4-.1.5-.1.1-.2.3-.3.4-.1.1-.3.2-.5.2s-.3.1-.5.1-.4 0-.6-.1c-.2-.1-.3-.1-.5-.3-.1-.1-.3-.2-.4-.4-.1-.2-.1-.3-.1-.5h.6c0 .1.1.2.1.4.1.1.1.2.2.3.1.1.2.1.3.2.1.1.2.1.4.1h.3c.1 0 .2-.1.3-.1l.2-.2c.2.1.2 0 .2-.1zm4.2-.8v.5c0 .2-.1.3-.1.5s-.1.3-.2.4l-.3.3c-.1.1-.2.2-.4.2-.1.1-.3.1-.5.1s-.3 0-.5-.1c-.1-.1-.3-.1-.4-.2l-.3-.3c-.1-.1-.1-.3-.2-.4-.1-.1-.1-.3-.1-.4V167c0-.2.1-.3.1-.5.1-.1.1-.3.2-.4l.3-.3c.1-.1.2-.2.4-.2.1-.1.3-.1.5-.1s.3 0 .5.1c.1.1.3.1.4.2l.3.3c.1.1.1.3.2.4.1.1.1.3.1.5v.9zm-.6-.5v-.3c0-.1 0-.2-.1-.3 0-.1-.1-.2-.1-.3 0-.1-.1-.2-.2-.3-.1-.1-.2-.1-.2-.2-.1 0-.2-.1-.3-.1-.1 0-.2 0-.3.1-.1.1-.2.1-.2.2-.1.1-.1.2-.2.3-.1.1-.1.2-.1.3 0 .1 0 .2-.1.3-.1.1 0 .2 0 .3v.8c0 .1 0 .2.1.3 0 .1.1.2.1.3 0 .1.1.2.2.3.1.1.2.1.2.2s.2.1.3.1c.1 0 .2 0 .3-.1.1 0 .2-.1.2-.2.1-.1.1-.2.2-.3 0-.1.1-.2.1-.3 0-.1 0-.2.1-.3.1-.1 0-.2 0-.3v-.5zm2.8.7h-.9v1.7h-.5v-4.3h1.3c.2 0 .4 0 .6.1.2.1.3.1.5.2.1.1.2.2.3.4.1.2.1.3.1.6 0 .1 0 .3-.1.4-.1.1-.1.2-.2.3-.1.1-.2.2-.3.2-.1 0-.2.1-.3.2l.9 1.8h-.6l-.8-1.6zm-.8-.5h.7c.1 0 .2 0 .3-.1.1-.1.2-.1.3-.2.1-.1.1-.2.2-.3 0-.1.1-.2.1-.3 0-.1 0-.3-.1-.4 0-.1-.1-.2-.2-.3-.1-.1-.2-.1-.3-.2-.1-.1-.2-.1-.4-.1h-.7v1.9zm-28-6.4H75v1.7h-.5v-4.3h1.3c.2 0 .4 0 .6.1.2.1.3.1.5.2.1.1.2.2.3.4.1.2.1.3.1.6 0 .1 0 .3-.1.4-.1.1-.1.2-.2.3-.1.1-.2.2-.3.2-.1 0-.2.1-.3.2l.9 1.8h-.6l-.8-1.6zm-.8-.4h.7c.1 0 .2 0 .3-.1.1-.1.2-.1.3-.2.1-.1.1-.2.2-.3 0-.1.1-.2.1-.3 0-.1 0-.3-.1-.4 0-.1-.1-.2-.2-.3-.1-.1-.2-.1-.3-.2-.1-.1-.2-.1-.4-.1H75v1.9zm5.8 1.6c-.2.2-.4.4-.6.5-.2.1-.5.2-.8.1-.2 0-.3 0-.5-.1-.1-.1-.3-.1-.4-.2l-.3-.3c-.1-.1-.2-.3-.2-.4-.1-.1-.1-.3-.1-.5V160c0-.2.1-.3.1-.5s.1-.3.2-.4l.3-.3c.1-.1.2-.2.4-.2s.3-.1.5-.1.4 0 .6.1c.2.1.3.2.4.3.1.1.2.3.3.4.1.2.1.3.1.5h-.5c0-.1-.1-.2-.1-.3 0-.1-.1-.2-.2-.3-.1-.1-.2-.1-.3-.2-.1 0-.2-.1-.4-.1-.1 0-.2 0-.3.1-.1 0-.2.1-.3.2-.1.1-.1.2-.2.3 0 .1-.1.2-.1.3 0 .1-.1.2-.1.3v1.1c0 .1 0 .2.1.3.1.1.1.2.1.3 0 .1.1.2.2.3.1.1.2.1.3.2.1 0 .2.1.3.1h.4s.1-.1.2-.1.1-.1.2-.2v-1h-.9v-.5h1.4l.2 1.8zm.8.6v-4.3H83c.2 0 .3 0 .5.1.2 0 .3.1.4.2.1.1.2.2.3.4.1.2.1.3.1.5 0 .1 0 .2-.1.3-.1.1-.1.2-.1.2l-.2.2c-.1.1-.2.1-.3.1.1 0 .2.1.3.1.1.1.2.1.2.2s.1.2.2.3c0 .1.1.2.1.4s0 .4-.1.5c-.1.1-.2.3-.3.4-.1.1-.3.2-.5.2-.2.1-.3.1-.5.1h-1.3zm.5-2.5h1.1c.1 0 .2-.1.3-.1l.2-.2c.1-.1.1-.2.1-.3 0-.1 0-.2-.1-.3 0-.1-.1-.2-.2-.2s-.2-.1-.3-.1h-1v1.2zm0 .5v1.5h.8c.1 0 .2 0 .3-.1.1 0 .2-.1.3-.2l.2-.2c0-.1.1-.2.1-.3 0-.1 0-.2-.1-.3-.1-.1-.1-.2-.2-.2s-.2-.1-.3-.2c-.1-.1-.2-.1-.3-.1h-.8zm5.3 1.5h2.1v.5H87v-4.3h.5v3.8zm5.3-1.5H91v1.5h2.1v.5h-2.6v-4.3h2.6v.5H91v1.4h1.8v.4zm1.2 2v-4.3h1c.3 0 .6.1.8.2.2.1.4.2.6.4.2.2.3.4.4.6.1.2.1.5.1.8v.3c0 .3 0 .6-.1.8-.1.2-.2.4-.4.6-.2.2-.4.3-.6.4-.2.1-.5.1-.8.1h-1zm.6-3.9v3.4h.4c.2 0 .4 0 .6-.1.2-.1.3-.2.4-.3.1-.1.2-.3.2-.5.1-.2.1-.4.1-.6v-.3c0-.2 0-.4-.1-.6-.1-.2-.1-.3-.2-.5-.1-.1-.2-.2-.4-.3-.2-.1-.4-.1-.6-.1h-.4zm40.3 56.3h2.1v.5h-2.6v-4.3h.5v3.8zm5.1-.7h-1.4l-.3 1.1h-.5l1.4-4.3h.5l1.4 4.3h-.5l-.6-1.1zm-1.3-.4h1.1l-.6-1.9-.5 1.9zm5.6 1c-.2.2-.4.4-.6.5-.2.1-.5.2-.8.1-.2 0-.3 0-.5-.1-.1-.1-.3-.1-.4-.2l-.3-.3c-.1-.1-.2-.3-.2-.4-.1-.1-.1-.3-.1-.5v-1.5c0-.2.1-.3.1-.5s.1-.3.2-.4l.3-.3c.1-.1.2-.2.4-.2s.3-.1.5-.1.4 0 .6.1c.2.1.3.2.4.3.1.1.2.3.3.4.1.2.1.3.1.5h-.5c0-.1-.1-.2-.1-.3 0-.1-.1-.2-.2-.3-.1-.1-.2-.1-.3-.2-.1 0-.2-.1-.4-.1-.1 0-.2 0-.3.1-.1 0-.2.1-.3.2-.1.1-.1.2-.2.3 0 .1-.1.2-.1.3 0 .1-.1.2-.1.3v1.1c0 .1 0 .2.1.3.1.1.1.2.1.3 0 .1.1.2.2.3.1.1.2.1.3.2.1 0 .2.1.3.1h.4s.1-.1.2-.1.1-.1.2-.2v-1h-.9v-.5h1.4l.2 1.8zm3.2-1.4h-1.8v1.5h2.1v.5h-2.6v-4.3h2.6v.5h-2.1v1.4h1.8v.4zm3.4.9c0-.1 0-.2-.1-.3-.1-.1-.1-.2-.2-.2-.1-.1-.2-.1-.3-.2-.1-.1-.2-.1-.3-.1-.2 0-.3-.1-.5-.2s-.3-.2-.4-.3c-.1-.1-.2-.2-.3-.4-.1-.1-.1-.3-.1-.5s0-.3.1-.5c.1-.1.2-.3.3-.4.1-.1.3-.2.4-.2.1 0 .3-.1.5-.1s.4 0 .5.1c.2.1.3.1.5.3.2.2.2.2.3.4.1.2.1.3.1.5h-.6c0-.1 0-.2-.1-.3-.1-.1-.1-.2-.2-.3-.1-.1-.2-.1-.3-.2-.1 0-.2-.1-.3-.1h-.3c-.1 0-.2.1-.3.1l-.2.2c-.1.1-.1.2-.1.3 0 .1 0 .2.1.3.1.1.1.2.2.2.1.1.2.1.3.1.1 0 .2.1.3.1.1 0 .2.1.3.1.1 0 .2.1.3.1.1 0 .2.1.3.2.1.1.2.1.2.2.1.1.1.2.2.3 0 .1.1.2.1.3 0 .2 0 .4-.1.5-.1.1-.2.3-.3.4-.1.1-.3.2-.5.2s-.3.1-.5.1-.4 0-.6-.1c-.2-.1-.3-.1-.5-.3-.1-.1-.3-.2-.4-.4-.1-.2-.1-.3-.1-.5h.6c0 .1.1.2.1.4.1.1.1.2.2.3.1.1.2.1.3.2.1.1.2.1.4.1h.3c.1 0 .2-.1.3-.1l.2-.2c.2.1.2 0 .2-.1zm3.8-.9h-1.8v1.5h2.1v.5h-2.6v-4.3h2.6v.5h-2.1v1.4h1.8v.4zm3.9 2h-.6l-1.7-3.2v3.2h-.5v-4.3h.6l1.7 3.2v-3.2h.5v4.3zm3.2-1.1c0-.1 0-.2-.1-.3-.1-.1-.1-.2-.2-.2-.1-.1-.2-.1-.3-.2-.1-.1-.2-.1-.3-.1-.2 0-.3-.1-.5-.2s-.3-.2-.4-.3c-.1-.1-.2-.2-.3-.4-.1-.1-.1-.3-.1-.5s0-.3.1-.5c.1-.1.2-.3.3-.4.1-.1.3-.2.4-.2.1 0 .3-.1.5-.1s.4 0 .5.1c.2.1.3.1.5.3.2.2.2.2.3.4.1.2.1.3.1.5h-.6c0-.1 0-.2-.1-.3-.1-.1-.1-.2-.2-.3-.1-.1-.2-.1-.3-.2-.1 0-.2-.1-.3-.1h-.3c-.1 0-.2.1-.3.1l-.2.2c-.1.1-.1.2-.1.3 0 .1 0 .2.1.3.1.1.1.2.2.2.1.1.2.1.3.1.1 0 .2.1.3.1.1 0 .2.1.3.1.1 0 .2.1.3.1.1 0 .2.1.3.2.1.1.2.1.2.2.1.1.1.2.2.3 0 .1.1.2.1.3 0 .2 0 .4-.1.5-.1.1-.2.3-.3.4-.1.1-.3.2-.5.2s-.3.1-.5.1-.4 0-.6-.1c-.2-.1-.3-.1-.5-.3-.1-.1-.3-.2-.4-.4-.1-.2-.1-.3-.1-.5h.6c0 .1.1.2.1.4.1.1.1.2.2.3.1.1.2.1.3.2.1.1.2.1.4.1h.3c.1 0 .2-.1.3-.1l.2-.2c.1.1.2 0 .2-.1zm4.1-.8v.5c0 .2-.1.3-.1.5s-.1.3-.2.4l-.3.3c-.1.1-.2.2-.4.2-.1.1-.3.1-.5.1s-.3 0-.5-.1c-.1-.1-.3-.1-.4-.2l-.3-.3c-.1-.1-.1-.3-.2-.4-.1-.1-.1-.3-.1-.4v-1.5c0-.2.1-.3.1-.5.1-.1.1-.3.2-.4l.3-.3c.1-.1.2-.2.4-.2.1-.1.3-.1.5-.1s.3 0 .5.1c.1.1.3.1.4.2l.3.3c.1.1.1.3.2.4.1.1.1.3.1.5v.9zm-.5-.5v-.3c0-.1 0-.2-.1-.3 0-.1-.1-.2-.1-.3 0-.1-.1-.2-.2-.3-.1-.1-.2-.1-.2-.2-.1 0-.2-.1-.3-.1-.1 0-.2 0-.3.1-.1.1-.2.1-.2.2-.1.1-.1.2-.2.3-.1.1-.1.2-.1.3 0 .1 0 .2-.1.3-.1.1 0 .2 0 .3v.8c0 .1 0 .2.1.3 0 .1.1.2.1.3 0 .1.1.2.2.3.1.1.2.1.2.2s.2.1.3.1c.1 0 .2 0 .3-.1.1 0 .2-.1.2-.2.1-.1.1-.2.2-.3 0-.1.1-.2.1-.3 0-.1 0-.2.1-.3.1-.1 0-.2 0-.3v-.5zm2.7.6h-.9v1.7h-.5v-4.3h1.3c.2 0 .4 0 .6.1.2.1.3.1.5.2.1.1.2.2.3.4.1.2.1.3.1.6 0 .1 0 .3-.1.4-.1.1-.1.2-.2.3-.1.1-.2.2-.3.2-.1 0-.2.1-.3.2l.9 1.8h-.5l-.9-1.6zm-.8-.4h.7c.1 0 .2 0 .3-.1.1-.1.2-.1.3-.2.1-.1.1-.2.2-.3 0-.1.1-.2.1-.3 0-.1 0-.3-.1-.4 0-.1-.1-.2-.2-.3-.1-.1-.2-.1-.3-.2-.1-.1-.2-.1-.4-.1h-.7v1.9zM155.5 92.9h-.9v1.7h-.5v-4.3h1.3c.2 0 .4 0 .6.1.2.1.3.1.5.2.1.1.2.2.3.4.1.2.1.3.1.6 0 .1 0 .3-.1.4-.1.1-.1.2-.2.3-.1.1-.2.2-.3.2-.1 0-.2.1-.3.2l.9 1.8h-.6l-.8-1.6zm-.9-.4h.7c.1 0 .2 0 .3-.1.1 0 .2-.1.3-.2.1-.1.1-.2.2-.2 0-.1.1-.2.1-.3 0-.1 0-.3-.1-.4 0-.1-.1-.2-.2-.3-.1-.1-.2-.1-.3-.2-.1-.1-.2-.1-.4-.1h-.7v1.8zm5.4.2h-1.8v1.5h2.1v.5h-2.6v-4.3h2.6v.5h-2.1v1.4h1.8v.4zm3.5.9c0-.1 0-.2-.1-.3-.1-.1-.1-.2-.2-.2-.1-.1-.2-.1-.3-.2-.1-.1-.2-.1-.3-.1-.2 0-.3-.1-.5-.2s-.3-.2-.4-.3c-.1-.1-.2-.2-.3-.4-.1-.1-.1-.3-.1-.5s0-.3.1-.5c.1-.1.2-.3.3-.4.1-.1.3-.2.4-.2.2-.1.3-.1.5-.1s.4 0 .5.1c.2.1.3.1.5.3.2.2.2.2.3.4.1.2.1.3.1.5h-.6c0-.1 0-.2-.1-.3 0-.1-.1-.2-.2-.3-.1-.1-.2-.1-.3-.2-.1 0-.2-.1-.3-.1h-.3c-.1 0-.2.1-.3.1l-.2.2c-.1.1-.1.2-.1.3 0 .1 0 .2.1.3.1.1.1.2.2.2.1.1.2.1.3.1.1 0 .2.1.3.1.1 0 .2.1.3.1.1 0 .2.1.3.1.1 0 .2.1.3.2.1.1.2.1.2.2.1.1.1.2.2.3 0 .1.1.2.1.3 0 .2 0 .4-.1.5-.1.1-.2.3-.3.4-.1.1-.3.2-.5.2s-.3.1-.5.1-.4 0-.6-.1c-.2-.1-.3-.1-.5-.3-.1-.1-.3-.2-.4-.4-.1-.2-.1-.3-.1-.5h.6c0 .1.1.2.1.4.1.1.1.2.2.3.1.1.2.1.3.2.1 0 .2.1.4.1h.3c.1 0 .2-.1.3-.1l.2-.2c.2.1.2 0 .2-.1zm3.7-.9h-1.8v1.5h2.1v.5h-2.6v-4.3h2.6v.5h-2.1v1.4h1.8v.4zm4.1-1.8H170v3.8h-.5v-3.8h-1.3v-.5h3.2v.5zm62 15.4c.8 0 1.5.2 2 .5s.7.8.7 1.5c0 .3-.1.6-.3.9-.2.3-.4.5-.8.6.4.1.7.3 1 .6.2.3.3.6.3 1 0 .7-.2 1.2-.7 1.5-.4.4-1.1.5-1.9.5h-3.5v-.9l.8-.1v-5.1l-.8-.1v-.9h3.2zm-1 2.9h1c.4 0 .7-.1.9-.2.2-.1.3-.4.3-.7 0-.3-.1-.6-.3-.7-.2-.2-.5-.2-.9-.2h-1v1.8zm0 1v2.1h1.3c.4 0 .7-.1.9-.2.2-.2.3-.4.3-.7 0-.3-.1-.6-.3-.8-.2-.2-.4-.3-.8-.3h-1.4z" fill="#fff"/>
    <g fill="#fff">
      <path d="M238 120.5l-1.7-.9.9 1.7"/>
      <path d="M240.4 115.9c-1.3-1.3-3.4-1.3-4.6 0l-1.2 1.2c-1.3 1.3-1.3 3.4 0 4.6l4.2 4.2 5.9-5.9-4.3-4.1zm-.9 5.3l-1-.5-1 1 .5 1-.4.4-2-4 .3-.3 4 2.1-.4.3zm-1.3-3.7l-.5 1.1-.3-.4.7-1.6 3 3-.4.4-2.5-2.5z"/>
    </g>
    <path d="M91.2 112.7l.5-.1 2.2-6.2h1.5l2.1 6.2.5.1v.9h-2.4v-.9l.5-.1-.3-1h-2.3l-.3 1 .5.1v.9h-2.4v-.9zm2.6-2.1h1.6l-.8-2.5-.8 2.5z" fill="#fff"/>
    <g fill="#fff">
      <path d="M89.7 121.4c0 .2.1.4.3.6.2.2.4.3.7.2.3-.1.5-.2.7-.5l.7-.7-2.1-.3c-.3.3-.3.5-.3.7zm2-2.1c-.2 0-.5.2-.7.5l-.7.7 2.1.3c.2-.2.3-.4.3-.6 0-.2-.1-.4-.3-.6-.2-.3-.4-.4-.7-.3zm-2.8 0l.9-1.7-1.7.9"/>
      <path d="M93.4 117.4l-1.2-1.2c-1.3-1.3-3.4-1.3-4.6 0l-4.2 4.2 5.9 5.9 4.2-4.2c1.2-1.4 1.2-3.4-.1-4.7zm-5.3 3.3l.5-1-1-1-1 .5-.4-.4 4-2 .3.3-2.1 4-.3-.4zm4.8.1c-.1.2-.3.4-.4.6l-.7.7c-.2.2-.4.3-.6.4-.2.1-.4.2-.6.2-.2 0-.4 0-.5-.1-.2-.1-.3-.2-.5-.3-.2-.2-.3-.3-.3-.5-.1-.2-.1-.4-.1-.5 0-.2.1-.4.2-.6.1-.2.3-.4.4-.6l.7-.7c.2-.2.4-.3.6-.4.2-.1.4-.2.6-.2.2 0 .4 0 .5.1.2.1.3.2.5.3.2.2.3.3.3.5.1.2.1.4.1.5 0 .1-.1.4-.2.6z"/>
    </g>
    <g fill="#fff">
      <path d="M216.2 132.2h-4.4c-.7 0-1.2.5-1.2 1.2v3.3c0-2.8-2.3-5.1-5.1-5.1s-5.1 2.3-5.1 5.1v5.6l-6 4.5c-4 3.1-1.9 9.5 3.2 9.5h1.2c.5-3.7 1.7-8.3 4-11.1h5.5c2.4 2.8 3.4 7.4 3.9 11.1h1.7c1.9 0 3.4-1.5 3.4-3.4v-19.6c.1-.6-.5-1.1-1.1-1.1zm-12.7 2.7h4.2v2.8c0 .9-.7 1.6-1.6 1.6h-.9c-.9 0-1.6-.7-1.6-1.6v-2.8zm-1 8.2l1.9-3.6 1.1 3.6h-3zm3.1 0l1.1-3.6 1.9 3.6h-3zm5.8-3.2v-6.2h5v6.2h-5z"/>
      <path d="M209.6 156.3c-2.7-1.9-4.9-7-6.6-11.1v11.1h6.6z"/>
    </g>
    <path stroke-miterlimit="10" fill="none" stroke="#fff" stroke-width=".75" d="M171.8 92.8h7.7l1.7-1.7v-7.3l1.5-1.6h3.1m-28.4 93.4h-16.2l-12-12h-18.4l-2.8-3H97.7"/>
    <path stroke-miterlimit="10" fill="none" stroke="#fff" stroke-width=".75" d="M108.1 167.5h2.7l2.5-2.5h11.1l6.1 6.2M166 85.8h10.7l1.7-1.7v-5.4l-1.5-1.5H175m20.5 90.1h13.6l1.7 1.7v13.4m-.3-21.8h12.6m-64.5 36.7h-21.5l-8.3 8.8v4.6l3.4 3.5"/>
  </g>
</svg>
