<?xml version="1.0" encoding="utf-8"?>
<!-- Generator: Adobe Illustrator 18.0.0, SVG Export Plug-In . SVG Version: 6.00 Build 0)  -->
<!DOCTYPE svg PUBLIC "-//W3C//DTD SVG 1.1//EN" "http://www.w3.org/Graphics/SVG/1.1/DTD/svg11.dtd">
<svg version="1.1" id="Ebene_1" xmlns="http://www.w3.org/2000/svg" xmlns:xlink="http://www.w3.org/1999/xlink" x="0px" y="0px"
	 viewBox="0 0 595.3 793.7" enable-background="new 0 0 595.3 793.7" xml:space="preserve">
<symbol  id="calliope_mini_backside">
</symbol>
<g>
	<g>
		<g>
			<g>
				<path fill="#034854" d="M155.7,159.7L155.7,159.7c11.5-8.5,27-8.9,38.7-0.9c23.1,15.5,64.2,38.9,103.6,38.9
					c42.9,0,84.6-25,104.4-38.9c8-5.6,18.1-7,27.2-3.7l1.1,0.4c13.5,4.8,21.8,18.1,20.4,32.2c-3.1,28.5-5.6,77.5,24.1,116.4
					c31.1,40.5,58.7,57.7,78.3,64.4c10.9,3.7,18.3,13.7,19.2,25.2l0,0c0.9,14.8-9.4,25.2-22.8,31.5c-22.2,10.5-57,29.1-79.2,67
					c-26.7,46.1-24.1,94.9-21.1,116c1.3,9.4-3,18.7-10.9,23.7c-8.9,5.6-22,8.5-39.6-2.8c-10.2-6.7-22.2-15.9-38.5-22.2
					c-20-7.6-31.3-10.2-37.6-10.7c-4.4-0.4-8.1-3.3-9.6-7.4c-2-5.4-6.3-11.5-15.2-11.5c-9.3,0-13.3,6.7-15.2,12.2
					c-1.5,4.6-6.1,6.3-10.9,6.8c-9.1,0.7-23.1,4.4-37.9,11.3c-13.1,6.1-25.9,14.6-37.8,23.5c-10.2,7.6-27.8,10.2-37.8,2.4l0,0
					c-10.5-8.1-13.7-21.7-12-34.8c3.5-28.3,2-80.1-30.9-118.8c-32.6-38.7-52.2-48.7-68.8-54c-7.2-2.4-21.1-10-22.8-26.1
					c-1.7-16.1,5.6-26.8,20.2-34.1c22.8-11.3,56.4-31.8,77.9-63.1c27.9-40.7,27.9-89,24.2-114.2C145.2,177.9,147.2,166,155.7,159.7z
					"/>
				<g display="none">
					<g display="inline">
						<path fill="#EFDA48" d="M199.4,561c-2.6,0-4.8,2.2-4.8,4.8c0,2.6,2.2,4.8,4.8,4.8c2.6,0,4.8-2.2,4.8-4.8
							C204.2,563.2,202.2,561,199.4,561z M199.4,568c-1.3,0-2.2-1.1-2.2-2.2c0-1.1,1.1-2.2,2.2-2.2c1.3,0,2.2,1.1,2.2,2.2
							C201.6,566.9,200.7,568,199.4,568z"/>
						<path fill="#1D1D1B" d="M199.4,568c-1.3,0-2.2-1.1-2.2-2.2c0-1.1,1.1-2.2,2.2-2.2c1.3,0,2.2,1.1,2.2,2.2
							C201.6,566.9,200.7,568,199.4,568z"/>
					</g>
					<g display="inline">
						<path fill="#EFDA48" d="M215.7,561c-2.6,0-4.8,2.2-4.8,4.8c0,2.6,2.2,4.8,4.8,4.8s4.8-2.2,4.8-4.8
							C220.5,563.2,218.5,561,215.7,561z M215.7,568c-1.3,0-2.2-1.1-2.2-2.2c0-1.1,1.1-2.2,2.2-2.2c1.3,0,2.2,1.1,2.2,2.2
							C217.9,566.9,217,568,215.7,568z"/>
						<path fill="#1D1D1B" d="M215.7,568c-1.3,0-2.2-1.1-2.2-2.2c0-1.1,1.1-2.2,2.2-2.2c1.3,0,2.2,1.1,2.2,2.2
							C217.9,566.9,217,568,215.7,568z"/>
					</g>
					<g display="inline">
						<path fill="#EFDA48" d="M232,561c-2.6,0-4.8,2.2-4.8,4.8c0,2.6,2.2,4.8,4.8,4.8s4.8-2.2,4.8-4.8
							C236.8,563.2,234.7,561,232,561z M232,568c-1.3,0-2.2-1.1-2.2-2.2c0-1.1,1.1-2.2,2.2-2.2c1.3,0,2.2,1.1,2.2,2.2
							C234.2,566.9,233.3,568,232,568z"/>
						<path fill="#1D1D1B" d="M232,568c-1.3,0-2.2-1.1-2.2-2.2c0-1.1,1.1-2.2,2.2-2.2c1.3,0,2.2,1.1,2.2,2.2
							C234.2,566.9,233.3,568,232,568z"/>
					</g>
					<g display="inline">
						<path fill="#EFDA48" d="M248.4,561c-2.6,0-4.8,2.2-4.8,4.8c0,2.6,2.2,4.8,4.8,4.8s4.8-2.2,4.8-4.8
							C253.2,563.2,251,561,248.4,561z M248.4,568c-1.3,0-2.2-1.1-2.2-2.2c0-1.1,1.1-2.2,2.2-2.2c1.3,0,2.2,1.1,2.2,2.2
							C250.7,566.9,249.5,568,248.4,568z"/>
						<path fill="#1D1D1B" d="M248.4,568c-1.3,0-2.2-1.1-2.2-2.2c0-1.1,1.1-2.2,2.2-2.2c1.3,0,2.2,1.1,2.2,2.2
							C250.7,566.9,249.5,568,248.4,568z"/>
					</g>
					<g display="inline">
						<path fill="#EFDA48" d="M264.7,561c-2.6,0-4.8,2.2-4.8,4.8c0,2.6,2.2,4.8,4.8,4.8s4.8-2.2,4.8-4.8
							C269.5,563.2,267.3,561,264.7,561z M264.7,568c-1.3,0-2.2-1.1-2.2-2.2c0-1.1,1.1-2.2,2.2-2.2c1.3,0,2.2,1.1,2.2,2.2
							C266.9,566.9,265.8,568,264.7,568z"/>
						<path fill="#1D1D1B" d="M264.7,568c-1.3,0-2.2-1.1-2.2-2.2c0-1.1,1.1-2.2,2.2-2.2c1.3,0,2.2,1.1,2.2,2.2
							C266.9,566.9,265.8,568,264.7,568z"/>
					</g>
					<g display="inline">
						<path fill="#EFDA48" d="M281,561c-2.6,0-4.8,2.2-4.8,4.8c0,2.6,2.2,4.8,4.8,4.8c2.6,0,4.8-2.2,4.8-4.8
							C285.8,563.2,283.6,561,281,561z M281,568c-1.3,0-2.2-1.1-2.2-2.2c0-1.1,1.1-2.2,2.2-2.2s2.2,1.1,2.2,2.2
							C283.2,566.9,282.3,568,281,568z"/>
						<path fill="#1D1D1B" d="M281,568c-1.3,0-2.2-1.1-2.2-2.2c0-1.1,1.1-2.2,2.2-2.2s2.2,1.1,2.2,2.2
							C283.2,566.9,282.3,568,281,568z"/>
					</g>
					<g display="inline">
						<path fill="#EFDA48" d="M297.3,561c-2.6,0-4.8,2.2-4.8,4.8c0,2.6,2.2,4.8,4.8,4.8c2.6,0,4.8-2.2,4.8-4.8
							C302.1,563.2,299.9,561,297.3,561z M297.3,568c-1.3,0-2.2-1.1-2.2-2.2c0-1.1,1.1-2.2,2.2-2.2c1.1,0,2.2,1.1,2.2,2.2
							C299.5,566.9,298.6,568,297.3,568z"/>
						<path fill="#1D1D1B" d="M297.3,568c-1.3,0-2.2-1.1-2.2-2.2c0-1.1,1.1-2.2,2.2-2.2c1.1,0,2.2,1.1,2.2,2.2
							C299.5,566.9,298.6,568,297.3,568z"/>
					</g>
					<g display="inline">
						<path fill="#EFDA48" d="M313.6,561c-2.6,0-4.8,2.2-4.8,4.8c0,2.6,2.2,4.8,4.8,4.8c2.6,0,4.8-2.2,4.8-4.8
							C318.4,563.2,316.2,561,313.6,561z M313.6,568c-1.3,0-2.2-1.1-2.2-2.2c0-1.1,1.1-2.2,2.2-2.2c1.1,0,2.2,1.1,2.2,2.2
							C315.8,566.9,314.9,568,313.6,568z"/>
						<path fill="#1D1D1B" d="M313.6,568c-1.3,0-2.2-1.1-2.2-2.2c0-1.1,1.1-2.2,2.2-2.2c1.1,0,2.2,1.1,2.2,2.2
							C315.8,566.9,314.9,568,313.6,568z"/>
					</g>
					<g display="inline">
						<path fill="#EFDA48" d="M329.9,561c-2.6,0-4.8,2.2-4.8,4.8c0,2.6,2.2,4.8,4.8,4.8c2.6,0,4.8-2.2,4.8-4.8
							C334.7,563.2,332.5,561,329.9,561z M329.9,568c-1.3,0-2.2-1.1-2.2-2.2c0-1.1,1.1-2.2,2.2-2.2c1.3,0,2.2,1.1,2.2,2.2
							C332.1,566.9,331.2,568,329.9,568z"/>
						<path fill="#1D1D1B" d="M329.9,568c-1.3,0-2.2-1.1-2.2-2.2c0-1.1,1.1-2.2,2.2-2.2c1.3,0,2.2,1.1,2.2,2.2
							C332.1,566.9,331.2,568,329.9,568z"/>
					</g>
					<g display="inline">
						<path fill="#EFDA48" d="M346.1,561c-2.6,0-4.8,2.2-4.8,4.8c0,2.6,2.2,4.8,4.8,4.8c2.6,0,4.8-2.2,4.8-4.8
							C351,563.2,348.7,561,346.1,561z M346.1,568c-1.3,0-2.2-1.1-2.2-2.2c0-1.1,1.1-2.2,2.2-2.2c1.1,0,2.2,1.1,2.2,2.2
							C348.4,566.9,347.4,568,346.1,568z"/>
						<path fill="#1D1D1B" d="M346.1,568c-1.3,0-2.2-1.1-2.2-2.2c0-1.1,1.1-2.2,2.2-2.2c1.1,0,2.2,1.1,2.2,2.2
							C348.4,566.9,347.4,568,346.1,568z"/>
					</g>
					<g display="inline">
						<path fill="#EFDA48" d="M362.4,561c-2.6,0-4.8,2.2-4.8,4.8c0,2.6,2.2,4.8,4.8,4.8c2.6,0,4.8-2.2,4.8-4.8
							C367.2,563.2,365.2,561,362.4,561z M362.4,568c-1.3,0-2.2-1.1-2.2-2.2c0-1.1,1.1-2.2,2.2-2.2c1.3,0,2.2,1.1,2.2,2.2
							C364.7,566.9,363.7,568,362.4,568z"/>
						<path fill="#1D1D1B" d="M362.4,568c-1.3,0-2.2-1.1-2.2-2.2c0-1.1,1.1-2.2,2.2-2.2c1.3,0,2.2,1.1,2.2,2.2
							C364.7,566.9,363.7,568,362.4,568z"/>
					</g>
					<g display="inline">
						<path fill="#EFDA48" d="M378.7,561c-2.6,0-4.8,2.2-4.8,4.8c0,2.6,2.2,4.8,4.8,4.8c2.6,0,4.8-2.2,4.8-4.8
							C383.5,563.2,381.5,561,378.7,561z M378.7,568c-1.3,0-2.2-1.1-2.2-2.2c0-1.1,1.1-2.2,2.2-2.2c1.3,0,2.2,1.1,2.2,2.2
							C380.9,566.9,380,568,378.7,568z"/>
						<path fill="#1D1D1B" d="M378.7,568c-1.3,0-2.2-1.1-2.2-2.2c0-1.1,1.1-2.2,2.2-2.2c1.3,0,2.2,1.1,2.2,2.2
							C380.9,566.9,380,568,378.7,568z"/>
					</g>
					<g display="inline">
						<path fill="#EFDA48" d="M395,561c-2.6,0-4.8,2.2-4.8,4.8c0,2.6,2.2,4.8,4.8,4.8s4.8-2.2,4.8-4.8
							C399.8,563.2,397.8,561,395,561z M395,568c-1.3,0-2.2-1.1-2.2-2.2c0-1.1,1.1-2.2,2.2-2.2c1.3,0,2.2,1.1,2.2,2.2
							C397.2,566.9,396.3,568,395,568z"/>
						<path fill="#1D1D1B" d="M395,568c-1.3,0-2.2-1.1-2.2-2.2c0-1.1,1.1-2.2,2.2-2.2c1.3,0,2.2,1.1,2.2,2.2
							C397.2,566.9,396.3,568,395,568z"/>
					</g>
				</g>
				<g display="none">
					<g display="inline">
						<path fill="#EFDA48" d="M199.4,544.5c-2.6,0-4.8,2.2-4.8,4.8c0,2.6,2.2,4.8,4.8,4.8c2.6,0,4.8-2.2,4.8-4.8
							C204.2,546.7,202.2,544.5,199.4,544.5z M199.4,551.7c-1.3,0-2.2-1.1-2.2-2.2c0-1.3,1.1-2.2,2.2-2.2c1.3,0,2.2,1.1,2.2,2.2
							C201.8,550.6,200.7,551.7,199.4,551.7z"/>
						<path fill="#1D1D1B" d="M199.4,551.7c-1.3,0-2.2-1.1-2.2-2.2c0-1.3,1.1-2.2,2.2-2.2c1.3,0,2.2,1.1,2.2,2.2
							C201.8,550.6,200.7,551.7,199.4,551.7z"/>
					</g>
					<g display="inline">
						<path fill="#EFDA48" d="M215.7,544.5c-2.6,0-4.8,2.2-4.8,4.8c0,2.6,2.2,4.8,4.8,4.8s4.8-2.2,4.8-4.8
							C220.7,546.7,218.5,544.5,215.7,544.5z M215.7,551.7c-1.3,0-2.2-1.1-2.2-2.2c0-1.3,1.1-2.2,2.2-2.2c1.3,0,2.2,1.1,2.2,2.2
							C218.1,550.6,217,551.7,215.7,551.7z"/>
						<path fill="#1D1D1B" d="M215.7,551.7c-1.3,0-2.2-1.1-2.2-2.2c0-1.3,1.1-2.2,2.2-2.2c1.3,0,2.2,1.1,2.2,2.2
							C218.1,550.6,217,551.7,215.7,551.7z"/>
					</g>
					<g display="inline">
						<path fill="#EFDA48" d="M232,544.5c-2.6,0-4.8,2.2-4.8,4.8c0,2.6,2.2,4.8,4.8,4.8s4.8-2.2,4.8-4.8
							C237,546.7,234.7,544.5,232,544.5z M232,551.7c-1.3,0-2.2-1.1-2.2-2.2c0-1.3,1.1-2.2,2.2-2.2c1.3,0,2.2,1.1,2.2,2.2
							C234.4,550.6,233.3,551.7,232,551.7z"/>
						<path fill="#1D1D1B" d="M232,551.7c-1.3,0-2.2-1.1-2.2-2.2c0-1.3,1.1-2.2,2.2-2.2c1.3,0,2.2,1.1,2.2,2.2
							C234.4,550.6,233.3,551.7,232,551.7z"/>
					</g>
					<g display="inline">
						<path fill="#EFDA48" d="M248.4,544.5c-2.6,0-4.8,2.2-4.8,4.8c0,2.6,2.2,4.8,4.8,4.8s4.8-2.2,4.8-4.8
							C253.2,546.7,251,544.5,248.4,544.5z M248.4,551.7c-1.3,0-2.2-1.1-2.2-2.2c0-1.3,1.1-2.2,2.2-2.2c1.3,0,2.2,1.1,2.2,2.2
							S249.5,551.7,248.4,551.7z"/>
						<path fill="#1D1D1B" d="M248.4,551.7c-1.3,0-2.2-1.1-2.2-2.2c0-1.3,1.1-2.2,2.2-2.2c1.3,0,2.2,1.1,2.2,2.2
							S249.5,551.7,248.4,551.7z"/>
					</g>
					<g display="inline">
						<path fill="#EFDA48" d="M264.7,544.5c-2.6,0-4.8,2.2-4.8,4.8c0,2.6,2.2,4.8,4.8,4.8s4.8-2.2,4.8-4.8
							C269.5,546.7,267.3,544.5,264.7,544.5z M264.7,551.7c-1.3,0-2.2-1.1-2.2-2.2c0-1.3,1.1-2.2,2.2-2.2c1.3,0,2.2,1.1,2.2,2.2
							S265.8,551.7,264.7,551.7z"/>
						<path fill="#1D1D1B" d="M264.7,551.7c-1.3,0-2.2-1.1-2.2-2.2c0-1.3,1.1-2.2,2.2-2.2c1.3,0,2.2,1.1,2.2,2.2
							S265.8,551.7,264.7,551.7z"/>
					</g>
					<g display="inline">
						<path fill="#EFDA48" d="M281,544.5c-2.6,0-4.8,2.2-4.8,4.8c0,2.6,2.2,4.8,4.8,4.8c2.6,0,4.8-2.2,4.8-4.8
							C285.8,546.7,283.6,544.5,281,544.5z M281,551.7c-1.3,0-2.2-1.1-2.2-2.2c0-1.3,1.1-2.2,2.2-2.2s2.2,1.1,2.2,2.2
							S282.3,551.7,281,551.7z"/>
						<path fill="#1D1D1B" d="M281,551.7c-1.3,0-2.2-1.1-2.2-2.2c0-1.3,1.1-2.2,2.2-2.2s2.2,1.1,2.2,2.2S282.3,551.7,281,551.7z"/>
					</g>
					<g display="inline">
						<path fill="#EFDA48" d="M297.3,544.5c-2.6,0-4.8,2.2-4.8,4.8c0,2.6,2.2,4.8,4.8,4.8c2.6,0,4.8-2.2,4.8-4.8
							C302.1,546.7,299.9,544.5,297.3,544.5z M297.3,551.7c-1.3,0-2.2-1.1-2.2-2.2c0-1.3,1.1-2.2,2.2-2.2c1.1,0,2.2,1.1,2.2,2.2
							S298.6,551.7,297.3,551.7z"/>
						<path fill="#1D1D1B" d="M297.3,551.7c-1.3,0-2.2-1.1-2.2-2.2c0-1.3,1.1-2.2,2.2-2.2c1.1,0,2.2,1.1,2.2,2.2
							S298.6,551.7,297.3,551.7z"/>
					</g>
					<g display="inline">
						<path fill="#EFDA48" d="M313.6,544.5c-2.6,0-4.8,2.2-4.8,4.8c0,2.6,2.2,4.8,4.8,4.8c2.6,0,4.8-2.2,4.8-4.8
							C318.4,546.7,316.2,544.5,313.6,544.5z M313.6,551.7c-1.3,0-2.2-1.1-2.2-2.2c0-1.3,1.1-2.2,2.2-2.2c1.1,0,2.2,1.1,2.2,2.2
							S314.9,551.7,313.6,551.7z"/>
						<path fill="#1D1D1B" d="M313.6,551.7c-1.3,0-2.2-1.1-2.2-2.2c0-1.3,1.1-2.2,2.2-2.2c1.1,0,2.2,1.1,2.2,2.2
							S314.9,551.7,313.6,551.7z"/>
					</g>
					<g display="inline">
						<path fill="#EFDA48" d="M329.9,544.5c-2.6,0-4.8,2.2-4.8,4.8c0,2.6,2.2,4.8,4.8,4.8c2.6,0,4.8-2.2,4.8-4.8
							C334.7,546.7,332.5,544.5,329.9,544.5z M329.9,551.7c-1.3,0-2.2-1.1-2.2-2.2c0-1.3,1.1-2.2,2.2-2.2c1.3,0,2.2,1.1,2.2,2.2
							S331.2,551.7,329.9,551.7z"/>
						<path fill="#1D1D1B" d="M329.9,551.7c-1.3,0-2.2-1.1-2.2-2.2c0-1.3,1.1-2.2,2.2-2.2c1.3,0,2.2,1.1,2.2,2.2
							S331.2,551.7,329.9,551.7z"/>
					</g>
					<g display="inline">
						<path fill="#EFDA48" d="M346.1,544.5c-2.6,0-4.8,2.2-4.8,4.8c0,2.6,2.2,4.8,4.8,4.8c2.6,0,4.8-2.2,4.8-4.8
							C351,546.7,348.7,544.5,346.1,544.5z M346.1,551.7c-1.3,0-2.2-1.1-2.2-2.2c0-1.3,1.1-2.2,2.2-2.2c1.1,0,2.2,1.1,2.2,2.2
							S347.4,551.7,346.1,551.7z"/>
						<path fill="#1D1D1B" d="M346.1,551.7c-1.3,0-2.2-1.1-2.2-2.2c0-1.3,1.1-2.2,2.2-2.2c1.1,0,2.2,1.1,2.2,2.2
							S347.4,551.7,346.1,551.7z"/>
					</g>
					<g display="inline">
						<path fill="#EFDA48" d="M362.4,544.5c-2.6,0-4.8,2.2-4.8,4.8c0,2.6,2.2,4.8,4.8,4.8c2.6,0,4.8-2.2,4.8-4.8
							C367.2,546.7,365.2,544.5,362.4,544.5z M362.4,551.7c-1.3,0-2.2-1.1-2.2-2.2c0-1.3,1.1-2.2,2.2-2.2c1.3,0,2.2,1.1,2.2,2.2
							C364.8,550.6,363.7,551.7,362.4,551.7z"/>
						<path fill="#1D1D1B" d="M362.4,551.7c-1.3,0-2.2-1.1-2.2-2.2c0-1.3,1.1-2.2,2.2-2.2c1.3,0,2.2,1.1,2.2,2.2
							C364.8,550.6,363.7,551.7,362.4,551.7z"/>
					</g>
					<g display="inline">
						<path fill="#EFDA48" d="M378.7,544.5c-2.6,0-4.8,2.2-4.8,4.8c0,2.6,2.2,4.8,4.8,4.8c2.6,0,4.8-2.2,4.8-4.8
							C383.5,546.7,381.5,544.5,378.7,544.5z M378.7,551.7c-1.3,0-2.2-1.1-2.2-2.2c0-1.3,1.1-2.2,2.2-2.2c1.3,0,2.2,1.1,2.2,2.2
							C381.1,550.6,380,551.7,378.7,551.7z"/>
						<path fill="#1D1D1B" d="M378.7,551.7c-1.3,0-2.2-1.1-2.2-2.2c0-1.3,1.1-2.2,2.2-2.2c1.3,0,2.2,1.1,2.2,2.2
							C381.1,550.6,380,551.7,378.7,551.7z"/>
					</g>
					<g display="inline">
						<path fill="#EFDA48" d="M395,544.5c-2.6,0-4.8,2.2-4.8,4.8c0,2.6,2.2,4.8,4.8,4.8s4.8-2.2,4.8-4.8
							C399.8,546.7,397.8,544.5,395,544.5z M395,551.7c-1.3,0-2.2-1.1-2.2-2.2c0-1.3,1.1-2.2,2.2-2.2c1.3,0,2.2,1.1,2.2,2.2
							C397.4,550.6,396.3,551.7,395,551.7z"/>
						<path fill="#1D1D1B" d="M395,551.7c-1.3,0-2.2-1.1-2.2-2.2c0-1.3,1.1-2.2,2.2-2.2c1.3,0,2.2,1.1,2.2,2.2
							C397.4,550.6,396.3,551.7,395,551.7z"/>
					</g>
				</g>
				<g display="none">
					<g display="inline">
						<path fill="#EFDA48" d="M264.7,513.2c-2.6,0-4.8,2.2-4.8,4.8s2.2,4.8,4.8,4.8s4.8-2.2,4.8-4.8S267.3,513.2,264.7,513.2z
							 M264.7,520.4c-1.3,0-2.2-1.1-2.2-2.2c0-1.3,1.1-2.2,2.2-2.2c1.3,0,2.2,1.1,2.2,2.2S265.8,520.4,264.7,520.4z"/>
						<path fill="#1D1D1B" d="M264.7,520.4c-1.3,0-2.2-1.1-2.2-2.2c0-1.3,1.1-2.2,2.2-2.2c1.3,0,2.2,1.1,2.2,2.2
							S265.8,520.4,264.7,520.4z"/>
					</g>
					<g display="inline">
						<path fill="#EFDA48" d="M281,513.2c-2.6,0-4.8,2.2-4.8,4.8s2.2,4.8,4.8,4.8c2.6,0,4.8-2.2,4.8-4.8S283.6,513.2,281,513.2z
							 M281,520.4c-1.3,0-2.2-1.1-2.2-2.2c0-1.3,1.1-2.2,2.2-2.2s2.2,1.1,2.2,2.2S282.3,520.4,281,520.4z"/>
						<path fill="#1D1D1B" d="M281,520.4c-1.3,0-2.2-1.1-2.2-2.2c0-1.3,1.1-2.2,2.2-2.2s2.2,1.1,2.2,2.2S282.3,520.4,281,520.4z"/>
					</g>
					<g display="inline">
						<path fill="#EFDA48" d="M297.3,513.2c-2.6,0-4.8,2.2-4.8,4.8s2.2,4.8,4.8,4.8c2.6,0,4.8-2.2,4.8-4.8S299.9,513.2,297.3,513.2z
							 M297.3,520.4c-1.3,0-2.2-1.1-2.2-2.2c0-1.3,1.1-2.2,2.2-2.2c1.1,0,2.2,1.1,2.2,2.2S298.6,520.4,297.3,520.4z"/>
						<path fill="#1D1D1B" d="M297.3,520.4c-1.3,0-2.2-1.1-2.2-2.2c0-1.3,1.1-2.2,2.2-2.2c1.1,0,2.2,1.1,2.2,2.2
							S298.6,520.4,297.3,520.4z"/>
					</g>
					<g display="inline">
						<path fill="#EFDA48" d="M313.6,513.2c-2.6,0-4.8,2.2-4.8,4.8s2.2,4.8,4.8,4.8c2.6,0,4.8-2.2,4.8-4.8S316.2,513.2,313.6,513.2z
							 M313.6,520.4c-1.3,0-2.2-1.1-2.2-2.2c0-1.3,1.1-2.2,2.2-2.2c1.1,0,2.2,1.1,2.2,2.2S314.9,520.4,313.6,520.4z"/>
						<path fill="#1D1D1B" d="M313.6,520.4c-1.3,0-2.2-1.1-2.2-2.2c0-1.3,1.1-2.2,2.2-2.2c1.1,0,2.2,1.1,2.2,2.2
							S314.9,520.4,313.6,520.4z"/>
					</g>
					<g display="inline">
						<path fill="#EFDA48" d="M329.9,513.2c-2.6,0-4.8,2.2-4.8,4.8s2.2,4.8,4.8,4.8c2.6,0,4.8-2.2,4.8-4.8S332.5,513.2,329.9,513.2z
							 M329.9,520.4c-1.3,0-2.2-1.1-2.2-2.2c0-1.3,1.1-2.2,2.2-2.2c1.3,0,2.2,1.1,2.2,2.2S331.2,520.4,329.9,520.4z"/>
						<path fill="#1D1D1B" d="M329.9,520.4c-1.3,0-2.2-1.1-2.2-2.2c0-1.3,1.1-2.2,2.2-2.2c1.3,0,2.2,1.1,2.2,2.2
							S331.2,520.4,329.9,520.4z"/>
					</g>
				</g>
				<g display="none">
					<g display="inline">
						<polygon fill="#EFDA48" points="478.1,343.9 471.4,337.2 478.1,330.6 484.8,337.2 						"/>
						<path fill="#1D1D1B" d="M476.4,338.7c-0.9-0.9-0.9-2.4,0-3.3s2.4-0.9,3.3,0s0.9,2.4,0,3.3S477.4,339.6,476.4,338.7z"/>
					</g>
					<g display="inline">
						<path fill="#EFDA48" d="M491.1,342.8c-1.9-1.9-5-1.9-6.8,0s-1.9,5,0,6.8c1.9,1.9,5,1.9,6.8,0
							C492.9,347.8,492.9,344.8,491.1,342.8z M486.1,348c-0.9-0.9-0.9-2.4,0-3.3s2.4-0.9,3.3,0s0.9,2.4,0,3.3
							C488.5,348.9,487,348.9,486.1,348z"/>
						<path fill="#1D1D1B" d="M486.1,348c-0.9-0.9-0.9-2.4,0-3.3s2.4-0.9,3.3,0s0.9,2.4,0,3.3C488.5,348.9,487,348.9,486.1,348z"/>
					</g>
					<g display="inline">
						<path fill="#EFDA48" d="M499.8,351.3c-1.9-1.9-5-1.9-6.8,0c-1.9,1.9-1.9,5,0,6.8c1.9,1.9,5,1.9,6.8,0S501.6,353.1,499.8,351.3
							z M494.6,356.3c-0.9-0.9-0.9-2.4,0-3.3c0.9-0.9,2.4-0.9,3.3,0c0.9,0.9,0.9,2.4,0,3.3S495.5,357.2,494.6,356.3z"/>
						<path fill="#1D1D1B" d="M494.6,356.3c-0.9-0.9-0.9-2.4,0-3.3c0.9-0.9,2.4-0.9,3.3,0c0.9,0.9,0.9,2.4,0,3.3
							S495.5,357.2,494.6,356.3z"/>
					</g>
					<g display="inline">
						<path fill="#EFDA48" d="M509.6,361.1c-1.9-1.9-5-1.9-6.8,0s-1.9,5,0,6.8c1.9,1.9,5,1.9,6.8,0
							C511.4,366.1,511.4,363,509.6,361.1z M504.4,366.1c-0.9-0.9-0.9-2.4,0-3.3s2.4-0.9,3.3,0c0.9,0.9,0.9,2.4,0,3.3
							C506.8,367,505.3,367,504.4,366.1z"/>
						<path fill="#1D1D1B" d="M504.4,366.1c-0.9-0.9-0.9-2.4,0-3.3s2.4-0.9,3.3,0c0.9,0.9,0.9,2.4,0,3.3
							C506.8,367,505.3,367,504.4,366.1z"/>
					</g>
				</g>
				<g display="none">
					<g display="inline">
						<polygon fill="#EFDA48" points="96.1,364.2 89.5,370.9 82.6,364.2 89.5,357.4 						"/>
						<path fill="#1D1D1B" d="M90.9,365.7c-0.9,0.9-2.4,0.9-3.3,0s-0.9-2.4,0-3.3s2.4-0.9,3.3,0C91.9,363.3,91.9,364.8,90.9,365.7z"
							/>
					</g>
					<g display="inline">
						<path fill="#EFDA48" d="M95,351.1c-1.9,1.9-1.9,5,0,6.8c1.9,1.9,5,1.9,6.8,0s1.9-5,0-6.8C100,349.3,96.9,349.3,95,351.1z
							 M100,356.3c-0.9,0.9-2.4,0.9-3.3,0s-0.9-2.4,0-3.3c0.9-0.9,2.4-0.9,3.3,0C100.9,353.9,100.9,355.4,100,356.3z"/>
						<path fill="#1D1D1B" d="M100,356.3c-0.9,0.9-2.4,0.9-3.3,0s-0.9-2.4,0-3.3c0.9-0.9,2.4-0.9,3.3,0
							C100.9,353.9,100.9,355.4,100,356.3z"/>
					</g>
					<g display="inline">
						<path fill="#EFDA48" d="M103.5,342.6c-1.9,1.9-1.9,5,0,6.8c1.9,1.9,5,1.9,6.8,0c1.9-1.9,1.9-5,0-6.8
							C108.5,340.6,105.4,340.6,103.5,342.6z M108.5,347.6c-0.9,0.9-2.4,0.9-3.3,0c-0.9-0.9-0.9-2.4,0-3.3c0.9-0.9,2.4-0.9,3.3,0
							S109.4,346.7,108.5,347.6z"/>
						<path fill="#1D1D1B" d="M108.5,347.6c-0.9,0.9-2.4,0.9-3.3,0c-0.9-0.9-0.9-2.4,0-3.3c0.9-0.9,2.4-0.9,3.3,0
							S109.4,346.7,108.5,347.6z"/>
					</g>
					<g display="inline">
						<path fill="#EFDA48" d="M113.1,332.8c-1.9,1.9-1.9,5,0,6.8c1.9,1.9,5,1.9,6.8,0c1.9-1.9,1.9-5,0-6.8
							C118.1,330.9,115.2,330.9,113.1,332.8z M118.3,337.8c-0.9,0.9-2.4,0.9-3.3,0s-0.9-2.4,0-3.3s2.4-0.9,3.3,0
							C119.3,335.4,119.3,336.9,118.3,337.8z"/>
						<path fill="#1D1D1B" d="M118.3,337.8c-0.9,0.9-2.4,0.9-3.3,0s-0.9-2.4,0-3.3s2.4-0.9,3.3,0
							C119.3,335.4,119.3,336.9,118.3,337.8z"/>
					</g>
				</g>
			</g>
		</g>
	</g>
</g>
<path fill="#BDD1CF" d="M318.7,231.9h-39.9c-1.6,0-2.7-1.1-2.7-2.7v-30.6c0-1.6,1.1-2.7,2.7-2.7h39.9c1.6,0,2.7,1.1,2.7,2.7v30.6
	C321.4,230.6,320.1,231.9,318.7,231.9z"/>
<path id="EXT_PWR" fill="#F2F2C8" d="M454.2,520.6l-35.4-15c-1.8-0.7-2.5-2.7-1.8-4.5l18.4-43.8c0.7-1.8,2.7-2.5,4.5-1.8l35.4,15
	c1.8,0.7,2.5,2.7,1.8,4.5l-18.4,43.8C458.1,520.6,456,521.3,454.2,520.6z"/>
<polygon fill="#F2F2C8" points="442.4,465 420.9,456 423.8,448.9 445.4,458 "/>
<polygon fill="#F2F2C8" points="424.3,508.2 402.7,498.9 405.6,491.8 427.4,501.1 "/>
<polygon fill="#F8B133" points="383,487.5 356.4,487.5 356.4,439.8 383,439.8 "/>
<polygon fill="#1D1D1B" points="226.6,490.7 199.6,463.7 226.6,436.7 253.6,463.7 "/>
<polygon fill="#FFFFFF" points="220.9,505.4 202.5,505.2 202.5,488.9 220.9,489.1 "/>
<rect id="ACCEL" x="170.7" y="373.4" fill="#1D1D1B" width="22.8" height="13.8"/>
<path fill="#BDD1CF" d="M356.7,222.4h-9.9c-1,0-1.9-0.9-1.9-1.9v-14.6c0-1,0.9-1.9,1.9-1.9h9.9c1,0,1.9,0.9,1.9,1.9v14.6
	C358.5,221.5,357.7,222.4,356.7,222.4z"/>
<path fill="#FFFFFF" d="M356.1,213.2c0-3.1-0.3-8-4.4-8c-4.9,0-4.4,4.8-4.4,8c0,3.1-0.2,8,4.4,8
	C356.7,221.2,356.1,216.2,356.1,213.2z"/>
<rect id="FLASH" x="379.1" y="228" fill="#1D1D1B" width="24.2" height="29.5"/>
<rect id="G_A0" x="140.9" y="260.3" transform="matrix(0.8226 0.5687 -0.5687 0.8226 191.5004 -34.2437)" fill="#FFFFFF" width="19.4" height="58.9"/>
<circle id="G_A0_GND" fill="#BDD1CF" cx="163.5" cy="271.6" r="2.6"/>
<circle id="G_A0_VCC" fill="#BDD1CF" cx="154.7" cy="283.8" r="2.6"/>
<circle id="G_A0_SDA" fill="#BDD1CF" cx="146.8" cy="295.1" r="2.6"/>
<circle id="G_A0_SCL" fill="#BDD1CF" cx="137.8" cy="308" r="2.6"/>
<rect id="G_A1" x="438.7" y="259.8" transform="matrix(-0.8226 0.5687 -0.5687 -0.8226 981.8003 272.2067)" fill="#FFFFFF" width="19.4" height="58.9"/>
<circle id="G_A1_RX" fill="#BDD1CF" cx="435.5" cy="271.2" r="2.6"/>
<circle id="G_A1_TX" fill="#BDD1CF" cx="444.4" cy="283.3" r="2.6"/>
<circle id="G_A1_VCC" fill="#BDD1CF" cx="452.4" cy="294.6" r="2.6"/>
<circle id="G_A1_GND" fill="#BDD1CF" cx="461.2" cy="307.5" r="2.6"/>
<path fill="#FFFFFF" d="M155.7,328.5l-36.1,12.6l9.2,28.8l37.6-13.6c7-2.2,9.2-8.7,7-15.7l-1.2-3.6
	C170,330.2,162.5,326.3,155.7,328.5z M170,349.1h-5.6v-2l1.2-0.2l-0.7-2.2h-5.5l-0.7,2.2l1.2,0.2v2h-5.6v-2l1.2-0.2l5.1-14.3h3.4
	l4.9,14.3l1.2,0.2v2H170z"/>
<path fill="#FFFFFF" d="M438.2,326.6c-7.3-2-14.6,2.7-16.7,9.7l-1,3.6c-2,7,2,14.3,9,16.4l38.3,12.3l8.5-29.3L438.2,326.6z
	 M439.6,347.7c-1,0.9-2.6,1.2-4.4,1.2H427v-2l1.7-0.3v-11.9l-1.7-0.3v-2h1.7h5.6c1.9,0,3.4,0.3,4.6,1.2c1,0.7,1.7,1.9,1.7,3.4
	c0,0.7-0.2,1.5-0.7,2c-0.3,0.7-1,1-1.7,1.4c1,0.2,1.7,0.7,2.2,1.4c0.5,0.7,0.7,1.5,0.7,2.4C441.1,345.7,440.6,346.9,439.6,347.7z"/>
<polygon fill="#FFFFFF" points="161.6,336 159.8,341.8 163.5,341.8 "/>
<path fill="#FFFFFF" d="M436.7,338c0.3-0.3,0.5-0.7,0.5-1.2c0-0.7-0.2-1-0.5-1.4c-0.3-0.3-0.9-0.3-1.7-0.3h-2.9v3.4h3.1
	C435.9,338.5,436.4,338.3,436.7,338z"/>
<path fill="#FFFFFF" d="M435.3,341.6h-3.2v4.8h3.1c0.9,0,1.5-0.2,2-0.5c0.5-0.3,0.7-1,0.7-1.7c0-0.9-0.2-1.4-0.5-1.9
	C436.9,341.8,436.2,341.6,435.3,341.6z"/>
<rect x="120.1" y="320.2" transform="matrix(-0.8923 -0.4514 0.4514 -0.8923 84.459 672.9003)" fill="#F9EBA7" width="4.8" height="12.3"/>
<rect x="143.6" y="332.2" transform="matrix(-0.8923 -0.4514 0.4514 -0.8923 123.5288 706.0592)" fill="#F9EBA7" width="4.8" height="12.3"/>
<rect x="99.2" y="361.6" transform="matrix(-0.8923 -0.4514 0.4514 -0.8923 26.1487 741.7703)" fill="#F9EBA7" width="4.8" height="12.3"/>
<rect x="122.7" y="373.6" transform="matrix(-0.8923 -0.4514 0.4514 -0.8923 65.2188 774.929)" fill="#F9EBA7" width="4.8" height="12.3"/>
<path id="BTN_A_BOX" fill="#BDD1CF" d="M130.3,375.8l-28.4-14.5c-0.9-0.5-1.2-1.5-0.9-2.6l14.5-28.8c0.5-0.9,1.5-1.2,2.6-0.9
	l28.4,14.5c0.9,0.5,1.2,1.5,0.9,2.6L132.9,375C132.3,375.8,131.1,376.3,130.3,375.8z"/>
<circle id="BTN_A" fill="#42767F" cx="124.2" cy="352.5" r="11.1"/>
<circle fill="#1D1D1B" cx="118.4" cy="334.8" r="3.7"/>
<circle fill="#1D1D1B" cx="141.9" cy="346.7" r="3.7"/>
<circle fill="#1D1D1B" cx="106.5" cy="358.1" r="3.7"/>
<circle fill="#1D1D1B" cx="130" cy="370" r="3.7"/>
<rect x="449.3" y="331.9" transform="matrix(-0.8998 0.4362 -0.4362 -0.8998 1005.6083 445.1756)" fill="#F9EBA7" width="4.8" height="12.3"/>
<rect x="472.9" y="320.3" transform="matrix(-0.8998 0.4362 -0.4362 -0.8998 1045.4718 412.9018)" fill="#F9EBA7" width="4.8" height="12.3"/>
<rect x="469.6" y="373.6" transform="matrix(-0.8998 0.4362 -0.4362 -0.8998 1062.2843 515.601)" fill="#F9EBA7" width="4.8" height="12.3"/>
<rect x="493.2" y="362.1" transform="matrix(-0.8998 0.4362 -0.4362 -0.8998 1102.1477 483.3272)" fill="#F9EBA7" width="4.8" height="12.3"/>
<path id="BTN_B_BOX" fill="#BDD1CF" d="M495.6,361.7l-28.8,14c-0.9,0.5-2,0-2.4-0.9l-14.1-29c-0.5-0.9,0-2,0.9-2.4l28.8-14
	c0.9-0.5,2,0,2.4,0.9l14.1,29C497,360.1,496.7,361.3,495.6,361.7z"/>
<circle id="BTN_B" fill="#BC1254" cx="473.5" cy="352.5" r="11.1"/>
<circle fill="#1D1D1B" cx="455.8" cy="346.3" r="3.7"/>
<circle fill="#1D1D1B" cx="479.5" cy="334.9" r="3.7"/>
<circle fill="#1D1D1B" cx="467.2" cy="370" r="3.7"/>
<circle fill="#1D1D1B" cx="491" cy="358.4" r="3.7"/>
<rect x="214.4" y="189.3" fill="#FFFFFF" width="9" height="2.2"/>
<polygon fill="#FFFFFF" points="380.2,189.5 380.2,185.6 377.9,185.6 377.9,189.5 374.2,189.5 374.2,191.7 377.9,191.7 377.9,195.8 
	380.2,195.8 380.2,191.7 383.9,191.7 383.9,189.5 "/>
<polygon fill="#FFFFFF" points="177.1,410.4 162.5,410.4 162.5,408.7 176.5,408.7 177.5,407.5 177.5,386.7 179.4,386.7 179.4,408.2 
	"/>
<polygon fill="#FFFFFF" points="298.2,246 291.6,246 291.6,244.2 297.4,244.2 298.6,243.1 298.6,233.6 300.3,233.6 300.3,243.8 "/>
<polygon fill="#FFFFFF" points="368.8,212.5 358.2,212.5 358.2,214.3 368.1,214.3 369.3,215.4 369.3,238.5 368.1,239.7 367,239.7 
	367,241.4 368.8,241.4 371,239.2 371,214.7 "/>
<polygon fill="#FFFFFF" points="336.9,450.8 309.5,450.8 309.5,449.1 336.2,449.1 337.4,447.9 337.4,430.3 336.2,429.1 333.2,429.1 
	333.2,427.4 336.9,427.4 339.1,429.6 339.1,448.7 "/>
<polygon fill="#FFFFFF" points="438.6,409.7 396.2,409.7 396.2,408 438.9,408 "/>
<polygon fill="#FFFFFF" points="236.7,479.7 257.2,500.5 263.3,500.5 263.3,498.8 258,498.8 237.9,478.5 "/>
<polygon fill="#FFFFFF" points="432.8,512.1 417.8,527.1 396.7,527.2 396.7,525.4 417.1,525.4 430.9,511.4 "/>
<path fill="#FFFFFF" d="M79,424.5c-0.2-0.3-0.5-0.5-0.9-0.7c-0.7-0.3-1.7-0.3-2.4,0c-0.3,0.2-0.7,0.3-0.9,0.7
	c-0.2,0.3-0.5,0.7-0.5,1c-0.2,0.3-0.2,0.9-0.2,1.4v1.9c0,0.5,0,1,0.2,1.4c0.2,0.3,0.3,0.9,0.5,1c0.2,0.3,0.5,0.5,0.9,0.7
	c0.3,0.2,0.7,0.2,1.2,0.2s0.9,0,1.2-0.2c0.3-0.2,0.7-0.3,0.9-0.7c0.2-0.3,0.5-0.7,0.5-1c0.2-0.3,0.2-0.9,0.2-1.4v-1.7
	c0-0.5,0-1-0.2-1.4C79.4,425.2,79.2,424.9,79,424.5z M78.2,426.2l-2.6,2v-1.4c0-0.7,0.2-1.2,0.3-1.4c0.2-0.3,0.5-0.5,1-0.5
	c0.3,0,0.7,0.2,0.9,0.3C78,425.5,78,425.7,78.2,426.2z M78.2,427.8v1.4c0,0.7-0.2,1.2-0.3,1.4c-0.2,0.3-0.5,0.5-1,0.5
	c-0.3,0-0.7-0.2-0.9-0.3c-0.2-0.2-0.3-0.5-0.3-0.9L78.2,427.8z"/>
<path fill="#FFFFFF" d="M521.9,429.1c0-0.2-0.2-0.5-0.2-0.7c-0.2-0.2-0.3-0.3-0.5-0.5l-0.2-0.2c0,0,0.2,0,0.2-0.2
	c0.2-0.2,0.3-0.3,0.3-0.5c0.2-0.2,0.2-0.3,0.2-0.5c0-0.2,0-0.3,0-0.5c0-0.3,0-0.9-0.2-1c-0.2-0.3-0.3-0.5-0.5-0.9
	c-0.2-0.2-0.5-0.3-0.9-0.5c-0.7-0.2-1.5-0.2-2.2,0c-0.3,0.2-0.7,0.3-0.9,0.5c-0.2,0.2-0.5,0.5-0.5,0.9c-0.2,0.3-0.2,0.7-0.2,1v0.2
	h1.5v-0.2c0-0.2,0-0.3,0.2-0.5c0-0.2,0.2-0.2,0.2-0.3c0.2-0.2,0.2-0.2,0.3-0.2c0.2,0,0.3,0,0.5,0c0.3,0,0.7,0.2,0.9,0.3
	s0.3,0.5,0.3,0.9c0,0.2,0,0.3,0,0.5c0,0.2-0.2,0.2-0.2,0.3c-0.2,0.2-0.2,0.2-0.3,0.2s-0.3,0.2-0.7,0.2h-1v1.4h1c0.2,0,0.5,0,0.7,0
	s0.3,0.2,0.5,0.2c0.2,0.2,0.2,0.2,0.3,0.3c0,0.2,0.2,0.3,0.2,0.5c0,0.2,0,0.3-0.2,0.5c0,0.2-0.2,0.3-0.2,0.3
	c-0.2,0.2-0.2,0.2-0.3,0.2c-0.3,0.2-0.9,0.2-1,0c-0.2,0-0.3-0.2-0.3-0.2c-0.2-0.2-0.2-0.2-0.2-0.3c0-0.2-0.2-0.3-0.2-0.5v-0.2h-1.5
	v0.2c0,0.3,0,0.7,0.2,1s0.3,0.5,0.7,0.9c0.2,0.2,0.5,0.3,0.9,0.5c0.3,0.2,0.7,0.2,1,0.2c0.3,0,0.7,0,1-0.2c0.3-0.2,0.7-0.3,0.9-0.5
	c0.3-0.2,0.5-0.5,0.7-0.9c0.2-0.3,0.2-0.7,0.2-1C522,429.6,522,429.3,521.9,429.1z"/>
<polygon fill="#FFFFFF" points="213.8,597.4 213.8,598.9 216,598.1 216,604.7 217.5,604.7 217.5,596.2 217.2,596.2 "/>
<path fill="#FFFFFF" d="M378.8,603.4l1.7-1.9c0.2-0.2,0.3-0.5,0.5-0.7c0.2-0.2,0.3-0.5,0.5-0.7c0.2-0.2,0.3-0.5,0.3-0.7
	c0.2-0.3,0.2-0.5,0.2-0.9c0-0.3,0-0.7-0.2-1c-0.2-0.3-0.3-0.5-0.5-0.9c-0.2-0.2-0.5-0.3-0.9-0.5c-0.7-0.3-1.7-0.2-2.4,0
	c-0.3,0.2-0.7,0.3-0.9,0.5c-0.2,0.2-0.5,0.5-0.5,0.9c-0.2,0.3-0.2,0.7-0.2,1v0.2h1.5v-0.2c0-0.2,0-0.5,0.2-0.7
	c0-0.2,0.2-0.3,0.2-0.3c0.2-0.2,0.2-0.2,0.3-0.3c0.3-0.2,0.7-0.2,1,0c0.2,0,0.3,0.2,0.3,0.2c0.2,0.2,0.2,0.2,0.2,0.3s0,0.3,0,0.5
	c0,0.2,0,0.3,0,0.3c0,0.2-0.2,0.3-0.2,0.5c0,0.2-0.2,0.3-0.3,0.5c-0.2,0.2-0.3,0.3-0.5,0.7l-2.7,3.1v1h5.8V603h-3.6V603.4z"/>
<polygon fill="#FFFFFF" points="314.8,412.3 310.5,412.3 310.5,405.1 309,405.1 309,413.6 314.8,413.6 "/>
<path fill="#FFFFFF" d="M319.9,405.1h-1.2l-2.7,8.5h1.5l0.7-2h2.4l0.7,2h1.5l-2.7-8.3L319.9,405.1z M320,410.2h-1.5l0.7-2.4
	L320,410.2z"/>
<path fill="#FFFFFF" d="M327.5,410.7c0,0.2,0,0.3-0.2,0.7c0,0.2-0.2,0.3-0.3,0.5c-0.2,0.2-0.2,0.3-0.3,0.3c-0.3,0.2-0.9,0.2-1.2,0
	c-0.2,0-0.3-0.2-0.3-0.3c-0.2-0.2-0.2-0.3-0.3-0.5c0-0.2-0.2-0.3-0.2-0.7v-5.6h-1.5v5.6c0,0.3,0,0.9,0.2,1.2c0.2,0.3,0.3,0.7,0.5,1
	c0.2,0.3,0.5,0.5,0.9,0.7s0.7,0.2,1.2,0.2c0.3,0,0.9,0,1.2-0.2c0.3-0.2,0.7-0.3,0.9-0.7c0.2-0.3,0.5-0.5,0.5-1
	c0.2-0.3,0.2-0.7,0.2-1.2v-5.6H327L327.5,410.7z"/>
<polygon fill="#FFFFFF" points="334.2,413.6 334.2,406.5 336.7,406.5 336.7,405.1 330.3,405.1 330.3,406.5 332.6,406.5 332.6,413.6 
	"/>
<path fill="#FFFFFF" d="M340.3,413.8c0.3,0,0.7,0,1-0.2c0.3-0.2,0.7-0.2,1-0.5c0.3-0.2,0.5-0.5,0.7-0.7c0.2-0.3,0.3-0.7,0.3-1
	c0-0.3,0-0.5-0.2-0.7c0-0.2-0.2-0.3-0.3-0.7c-0.2-0.2-0.3-0.3-0.5-0.5c-0.2-0.2-0.3-0.3-0.5-0.3c-0.2-0.2-0.3-0.2-0.7-0.3
	c-0.2,0-0.3-0.2-0.7-0.2c-0.2,0-0.3-0.2-0.5-0.2c-0.2,0-0.3-0.2-0.5-0.2c-0.2-0.2-0.3-0.2-0.3-0.3c-0.2-0.2-0.2-0.3-0.2-0.5
	c0-0.2,0-0.3,0.2-0.5c0-0.2,0.2-0.2,0.3-0.3c0.2-0.2,0.3-0.2,0.3-0.2c0.3-0.2,0.7-0.2,1,0c0.2,0,0.3,0.2,0.3,0.3
	c0.2,0.2,0.2,0.2,0.3,0.3c0,0.2,0.2,0.3,0.2,0.5v0.2h1.5v-0.3c0-0.3-0.2-0.9-0.3-1.2c-0.2-0.3-0.3-0.7-0.7-0.9
	c-0.3-0.2-0.5-0.3-1-0.5c-0.7-0.2-1.4-0.2-2,0c-0.3,0.2-0.7,0.3-0.9,0.5c-0.3,0.2-0.5,0.5-0.7,0.9s-0.3,0.7-0.3,1
	c0,0.3,0.2,0.7,0.3,1c0.2,0.3,0.3,0.5,0.7,0.7c0.3,0.2,0.5,0.3,0.9,0.5c0.3,0.2,0.5,0.2,0.9,0.3c0.2,0,0.3,0.2,0.7,0.2
	c0.2,0,0.3,0.2,0.5,0.3c0.2,0.2,0.3,0.2,0.3,0.3c0.2,0.2,0.2,0.3,0.2,0.5c0,0.2,0,0.3-0.2,0.5c0,0.2-0.2,0.2-0.3,0.3
	c-0.2,0.2-0.3,0.2-0.5,0.2c-0.3,0.2-0.9,0-1.2,0c-0.2,0-0.3-0.2-0.5-0.3c-0.2-0.2-0.2-0.2-0.3-0.3c-0.2-0.2-0.2-0.3-0.2-0.5v-0.2
	h-1.2v0.3c0,0.3,0.2,0.9,0.3,1.2c0.2,0.3,0.5,0.7,0.7,0.9c0.3,0.2,0.7,0.3,1,0.5C339.6,413.6,340,413.8,340.3,413.8z"/>
<path fill="#FFFFFF" d="M346.3,410.4h1.4c0.3,0,0.7,0,1-0.2c0.3-0.2,0.7-0.3,0.9-0.5c0.3-0.2,0.5-0.5,0.7-0.9
	c0.2-0.3,0.2-0.7,0.2-1.2c0-0.3,0-0.9-0.2-1.2c-0.2-0.3-0.3-0.7-0.7-0.9c-0.3-0.2-0.5-0.3-0.9-0.5c-0.3-0.2-0.7-0.2-1-0.2h-2.9v8.5
	h1.5V410.4z M348.7,408.7c-0.2,0.2-0.3,0.2-0.5,0.3c-0.2,0-0.3,0.2-0.5,0.2h-1.4v-2.6h1.4c0.2,0,0.3,0,0.5,0.2
	c0.2,0,0.3,0.2,0.5,0.3c0.2,0.2,0.2,0.2,0.3,0.3c0,0.2,0.2,0.3,0.2,0.5c0,0.2,0,0.3-0.2,0.5C348.8,408.5,348.7,408.5,348.7,408.7z"
	/>
<path fill="#FFFFFF" d="M352.9,410.4h1.2l1.5,3.1v0.2h1.5v-0.3l-1.7-3.2c0.2,0,0.3-0.2,0.3-0.3c0.2-0.2,0.3-0.3,0.5-0.5
	c0.2-0.2,0.3-0.3,0.3-0.7c0.2-0.2,0.2-0.5,0.2-0.9c0-0.5,0-0.9-0.2-1.2c-0.2-0.3-0.3-0.7-0.7-0.9c-0.3-0.2-0.5-0.3-1-0.5
	c-0.3-0.2-0.7-0.2-1.2-0.2h-2.6v8.5h1.5v-3.1H352.9z M355.5,408.3c0,0.2-0.2,0.3-0.3,0.3c-0.2,0.2-0.3,0.2-0.5,0.2
	c-0.2,0-0.3,0.2-0.5,0.2h-1.2v-2.6h1c0.2,0,0.3,0,0.7,0.2c0.2,0,0.3,0.2,0.5,0.2c0.2,0.2,0.2,0.2,0.3,0.3c0,0.2,0.2,0.3,0.2,0.5
	C355.5,408,355.5,408.2,355.5,408.3z"/>
<polygon fill="#FFFFFF" points="363.6,412.3 359.7,412.3 359.7,409.9 363.1,409.9 363.1,408.5 359.7,408.5 359.7,406.5 363.6,406.5 
	363.6,405.1 358.2,405.1 358.2,413.6 363.6,413.6 "/>
<path fill="#FFFFFF" d="M369.3,410.9c0,0.2,0,0.5-0.2,0.7c0,0.2-0.2,0.3-0.3,0.5c-0.2,0.2-0.2,0.2-0.3,0.3c-0.3,0.2-0.9,0.2-1.2,0
	c-0.2,0-0.3-0.2-0.3-0.3c-0.2-0.2-0.2-0.2-0.3-0.3c0-0.2-0.2-0.3-0.2-0.5c0-0.2-0.2-0.3-0.2-0.5c0-0.2,0-0.3,0-0.5V409
	c0-0.2,0-0.3,0-0.5c0-0.2,0-0.3,0.2-0.5c0.2-0.2,0.2-0.3,0.2-0.5c0-0.2,0.2-0.3,0.3-0.3c0.2-0.2,0.2-0.2,0.3-0.3
	c0.3-0.2,0.9-0.2,1.2,0c0.2,0,0.3,0.2,0.3,0.3c0.2,0.2,0.2,0.3,0.3,0.5c0,0.2,0.2,0.3,0.2,0.7v0.2h1.5v-0.3c0-0.3-0.2-0.9-0.3-1.2
	s-0.3-0.7-0.7-0.9c-0.2-0.2-0.5-0.5-0.9-0.5c-0.7-0.2-1.5-0.3-2.2,0c-0.3,0.2-0.5,0.2-0.9,0.5c-0.2,0.2-0.5,0.3-0.7,0.7
	c-0.2,0.2-0.3,0.5-0.3,0.9c-0.2,0.3-0.2,0.5-0.2,0.9s0,0.7,0,0.9v1.2c0,0.3,0,0.7,0,0.9c0,0.3,0.2,0.7,0.2,0.9
	c0.2,0.3,0.2,0.5,0.3,0.9c0.2,0.2,0.3,0.5,0.7,0.7c0.2,0.2,0.5,0.3,0.9,0.5c0.3,0.2,0.7,0.2,1,0.2s0.9,0,1.2-0.2
	c0.3-0.2,0.7-0.3,0.9-0.5c0.2-0.2,0.5-0.5,0.7-0.9c0.2-0.3,0.3-0.7,0.3-1v-0.3h-1.5V410.9z"/>
<polygon fill="#FFFFFF" points="375.9,408.5 373,408.5 373,405.1 371.6,405.1 371.6,413.6 373,413.6 373,409.9 375.9,409.9 
	375.9,413.6 377.3,413.6 377.3,405.1 375.9,405.1 "/>
<polygon fill="#FFFFFF" points="380.2,409.9 383.6,409.9 383.6,408.5 380.2,408.5 380.2,406.5 384.1,406.5 384.1,405.1 378.6,405.1 
	378.6,413.6 384.1,413.6 384.1,412.3 380.2,412.3 "/>
<path fill="#FFFFFF" d="M390,409.7c0.2-0.2,0.3-0.3,0.5-0.5c0.2-0.2,0.3-0.3,0.3-0.7c0-0.2,0.2-0.5,0.2-0.9c0-0.5,0-0.9-0.2-1.2
	c-0.2-0.3-0.3-0.7-0.7-0.9c-0.3-0.2-0.5-0.3-1-0.5c-0.3-0.2-0.7-0.2-1.2-0.2h-2.6v8.5h1.5v-3.2h1.2l1.5,3.1v0.2h1.5v-0.3l-1.7-3.2
	C389.7,409.9,389.9,409.9,390,409.7z M389.5,407.7c0,0.2,0,0.3-0.2,0.5c0,0.2-0.2,0.3-0.3,0.3c-0.2,0.2-0.3,0.2-0.5,0.2
	c-0.2,0-0.3,0.2-0.5,0.2h-1.2v-2.6h1c0.2,0,0.5,0,0.7,0.2c0.2,0,0.3,0.2,0.5,0.2c0.2,0.2,0.2,0.2,0.3,0.3
	C389.4,407.3,389.5,407.5,389.5,407.7z"/>
<polygon fill="#FFFFFF" points="92.1,405.1 90.6,405.1 90.6,413.6 96.1,413.6 96.1,412.3 92.1,412.3 "/>
<path fill="#FFFFFF" d="M99.5,405.1l-2.7,8.5h1.5l0.7-2h2.4l0.7,2h1.5l-2.7-8.5H99.5z M100.8,410.2h-1.5l0.7-2.4L100.8,410.2z"/>
<path fill="#FFFFFF" d="M105.3,408.3c0-0.2,0-0.3,0.2-0.5c0-0.2,0.2-0.3,0.2-0.5c0-0.2,0.2-0.3,0.3-0.3c0.2-0.2,0.3-0.2,0.3-0.3
	c0.3-0.2,0.9-0.2,1.2,0c0.2,0,0.3,0.2,0.3,0.3c0.2,0.2,0.2,0.3,0.3,0.3c0,0.2,0.2,0.3,0.2,0.5v0.2h1.5v-0.3c0-0.3-0.2-0.9-0.3-1
	c-0.2-0.3-0.3-0.7-0.7-0.9c-0.3-0.2-0.5-0.3-0.9-0.5c-0.7-0.2-1.5-0.3-2,0c-0.3,0.2-0.5,0.3-0.9,0.5c-0.2,0.2-0.5,0.3-0.7,0.7
	c-0.2,0.2-0.3,0.5-0.3,0.9c-0.2,0.3-0.2,0.7-0.2,0.9c0,0.3,0,0.7,0,0.9v0.9c0,0.3,0,0.7,0.2,1c0,0.3,0.2,0.7,0.3,0.9
	c0.2,0.3,0.3,0.5,0.5,0.9s0.3,0.5,0.7,0.7c0.2,0.2,0.5,0.3,0.9,0.5c0.3,0.2,0.7,0.2,1,0.2l0,0c0.5,0,1-0.2,1.5-0.3s0.9-0.5,1.2-1
	l0,0v-3.2h-3.1v1.4h1.7v1.5l-0.2,0.2c-0.2,0-0.2,0.2-0.3,0.2c-0.2,0-0.3,0-0.3,0c-0.2,0-0.2,0-0.3,0h-0.2c-0.2,0-0.3,0-0.5-0.2
	c-0.2,0-0.3-0.2-0.5-0.3c-0.2-0.2-0.2-0.3-0.3-0.3c-0.2-0.2-0.2-0.3-0.2-0.5c0-0.2-0.2-0.3-0.2-0.5c0-0.2,0-0.3,0-0.5v-1
	C105.3,408.7,105.3,408.5,105.3,408.3z M107,413.5L107,413.5L107,413.5L107,413.5z"/>
<polygon fill="#FFFFFF" points="112.4,409.9 115.8,409.9 115.8,408.5 112.4,408.5 112.4,406.5 116.3,406.5 116.3,405.1 110.9,405.1 
	110.9,413.6 116.3,413.6 116.3,412.3 112.4,412.3 "/>
<path fill="#FFFFFF" d="M123,410.1c-0.2-0.2-0.3-0.3-0.5-0.5c-0.2-0.2-0.3-0.3-0.5-0.3c-0.2-0.2-0.3-0.2-0.7-0.3
	c-0.2,0-0.3-0.2-0.7-0.2c-0.2,0-0.3-0.2-0.5-0.2c-0.2,0-0.3-0.2-0.5-0.2c-0.2-0.2-0.3-0.2-0.3-0.3s-0.2-0.3-0.2-0.5
	c0-0.2,0-0.3,0.2-0.5c0-0.2,0.2-0.2,0.3-0.3c0.2-0.2,0.3-0.2,0.3-0.2c0.3-0.2,0.7-0.2,1,0c0.2,0,0.3,0.2,0.3,0.3
	c0.2,0.2,0.2,0.2,0.3,0.3c0,0.2,0.2,0.3,0.2,0.5v0.2h1.5v-0.3c0-0.3-0.2-0.9-0.3-1.2s-0.3-0.7-0.7-0.9c-0.3-0.2-0.5-0.3-1-0.5
	c-0.7-0.2-1.4-0.2-2,0c-0.3,0.2-0.7,0.3-0.9,0.5c-0.3,0.2-0.5,0.5-0.7,0.9s-0.3,0.7-0.3,1c0,0.3,0.2,0.7,0.3,1
	c0.2,0.3,0.3,0.5,0.7,0.7c0.3,0.2,0.5,0.3,0.9,0.5c0.3,0.2,0.5,0.2,0.9,0.3c0.2,0,0.3,0.2,0.7,0.2c0.2,0,0.3,0.2,0.5,0.3
	c0.2,0.2,0.3,0.2,0.3,0.3c0.2,0.2,0.2,0.3,0.2,0.5c0,0.2,0,0.3-0.2,0.5c0,0.2-0.2,0.2-0.3,0.3c-0.2,0.2-0.3,0.2-0.5,0.2
	c-0.3,0.2-0.9,0-1.2,0c-0.2,0-0.3-0.2-0.5-0.3c-0.2-0.2-0.2-0.2-0.3-0.3c-0.2-0.2-0.2-0.3-0.2-0.5v-0.2H117v0.3
	c0,0.3,0.2,0.9,0.3,1.2c0.2,0.3,0.5,0.7,0.7,0.9c0.3,0.2,0.7,0.3,1,0.5c0.3,0.2,0.7,0.2,1.2,0.2c0.3,0,0.7,0,1-0.2
	c0.3-0.2,0.7-0.2,1-0.5c0.3-0.2,0.5-0.5,0.7-0.7c0.2-0.3,0.3-0.7,0.3-1c0-0.3,0-0.5-0.2-0.7C123.3,410.4,123.1,410.2,123,410.1z"/>
<polygon fill="#FFFFFF" points="126,409.9 129.4,409.9 129.4,408.5 126,408.5 126,406.5 130,406.5 130,405.1 124.5,405.1 
	124.5,413.6 130,413.6 130,412.3 126,412.3 "/>
<polygon fill="#FFFFFF" points="135.2,410.2 132.5,405.1 131.1,405.1 131.1,413.6 132.7,413.6 132.7,408.3 135.4,413.6 136.8,413.6 
	136.8,405.1 135.2,405.1 "/>
<path fill="#FFFFFF" d="M143.4,410.1c-0.2-0.2-0.3-0.3-0.5-0.5c-0.2-0.2-0.3-0.3-0.5-0.3c-0.2-0.2-0.3-0.2-0.7-0.3
	c-0.2,0-0.3-0.2-0.7-0.2c-0.2,0-0.3-0.2-0.5-0.2s-0.3-0.2-0.5-0.2c-0.2-0.2-0.3-0.2-0.3-0.3s-0.2-0.3-0.2-0.5c0-0.2,0-0.3,0.2-0.5
	c0-0.2,0.2-0.2,0.3-0.3c0.2-0.2,0.3-0.2,0.3-0.2c0.3-0.2,0.7-0.2,1,0c0.2,0,0.3,0.2,0.3,0.3c0.2,0.2,0.2,0.2,0.3,0.3
	c0,0.2,0.2,0.3,0.2,0.5v0.2h1.5v-0.3c0-0.3-0.2-0.9-0.3-1.2c-0.2-0.3-0.3-0.7-0.7-0.9c-0.3-0.2-0.5-0.3-1-0.5c-0.7-0.2-1.4-0.2-2,0
	c-0.3,0.2-0.7,0.3-0.9,0.5c-0.3,0.2-0.5,0.5-0.7,0.9s-0.3,0.7-0.3,1c0,0.3,0.2,0.7,0.3,1c0.2,0.3,0.3,0.5,0.7,0.7
	c0.3,0.2,0.5,0.3,0.9,0.5c0.3,0.2,0.5,0.2,0.9,0.3c0.2,0,0.3,0.2,0.7,0.2c0.2,0,0.3,0.2,0.5,0.3c0.2,0.2,0.3,0.2,0.3,0.3
	c0.2,0.2,0.2,0.3,0.2,0.5c0,0.2,0,0.3-0.2,0.5c0,0.2-0.2,0.2-0.3,0.3c-0.2,0.2-0.3,0.2-0.5,0.2c-0.3,0.2-0.9,0-1.2,0
	c-0.2,0-0.3-0.2-0.5-0.3c-0.2-0.2-0.2-0.2-0.3-0.3c-0.2-0.2-0.2-0.3-0.2-0.5v-0.2h-1.5v0.3c0,0.3,0.2,0.9,0.3,1.2
	c0.2,0.3,0.5,0.7,0.7,0.9c0.3,0.2,0.7,0.3,1,0.5c0.3,0.2,0.7,0.2,1.2,0.2c0.3,0,0.7,0,1-0.2c0.3-0.2,0.7-0.2,1-0.5
	c0.3-0.2,0.5-0.5,0.7-0.7c0.2-0.3,0.3-0.7,0.3-1c0-0.3,0-0.5-0.2-0.7C143.6,410.4,143.6,410.2,143.4,410.1z"/>
<path fill="#FFFFFF" d="M150.2,407.2c-0.2-0.3-0.2-0.5-0.3-0.9c-0.2-0.3-0.3-0.5-0.5-0.7c-0.2-0.2-0.5-0.3-0.9-0.5
	c-0.5-0.2-1.4-0.2-2,0c-0.3,0.2-0.5,0.3-0.9,0.5c-0.2,0.2-0.3,0.3-0.5,0.7c-0.2,0.3-0.3,0.5-0.3,0.9c-0.2,0.3-0.2,0.5-0.2,0.9
	s0,0.7,0,0.9v0.9c0,0.3,0,0.7,0,0.9c0,0.3,0.2,0.7,0.2,0.9c0.2,0.3,0.2,0.5,0.3,0.9s0.3,0.5,0.5,0.7c0.2,0.2,0.5,0.3,0.9,0.5
	c0.3,0.2,0.7,0.2,1,0.2c0.3,0,0.7,0,1-0.2c0.3-0.2,0.5-0.3,0.9-0.5c0.2-0.2,0.3-0.3,0.5-0.7c0.2-0.3,0.3-0.5,0.3-0.9
	c0.2-0.3,0.2-0.5,0.2-0.9c0-0.3,0-0.7,0-0.9v-0.9c0-0.3,0-0.7,0-0.9C150.4,407.7,150.4,407.3,150.2,407.2z M149,408.9v0.9
	c0,0.2,0,0.3,0,0.5c0,0.2,0,0.3-0.2,0.5c0,0.2-0.2,0.3-0.2,0.5c0,0.2-0.2,0.3-0.3,0.3c-0.2,0.2-0.2,0.2-0.3,0.3
	c-0.3,0.2-0.7,0.2-1,0c-0.2,0-0.3-0.2-0.3-0.3c-0.2-0.2-0.2-0.3-0.3-0.5c0-0.2-0.2-0.3-0.2-0.5c0-0.2-0.2-0.3-0.2-0.5
	c0-0.2,0-0.3,0-0.5v-0.9c0-0.2,0-0.3,0-0.5c0-0.2,0-0.3,0.2-0.5c0-0.2,0.2-0.3,0.2-0.5c0-0.2,0.2-0.3,0.3-0.5
	c0.2-0.2,0.2-0.2,0.3-0.3c0.2,0,0.3-0.2,0.5-0.2s0.3,0,0.5,0.2c0.2,0,0.3,0.2,0.3,0.3c0.2,0.2,0.2,0.3,0.3,0.3
	c0,0.2,0.2,0.3,0.2,0.5c0,0.2,0.2,0.3,0.2,0.5C149,408.5,149,408.7,149,408.9z"/>
<path fill="#FFFFFF" d="M156.2,409.7c0.2-0.2,0.3-0.3,0.5-0.5c0.2-0.2,0.3-0.3,0.3-0.7c0-0.2,0.2-0.5,0.2-0.9c0-0.5,0-0.9-0.2-1.2
	s-0.3-0.7-0.7-0.9c-0.3-0.2-0.5-0.3-1-0.5c-0.3-0.2-0.7-0.2-1.2-0.2h-2.6v8.5h1.5v-3.2h1.2l1.5,3.2h1.5v-0.3l-1.7-3.2
	C156,409.9,156.2,409.9,156.2,409.7z M155.7,407.7c0,0.2,0,0.3-0.2,0.5c0,0.2-0.2,0.3-0.3,0.3c-0.2,0.2-0.3,0.2-0.5,0.2
	c-0.2,0-0.3,0.2-0.5,0.2H153v-2.6h1c0.2,0,0.3,0,0.7,0.2c0.2,0,0.3,0.2,0.5,0.2c0.2,0.2,0.2,0.2,0.3,0.3
	C155.7,407.3,155.7,407.5,155.7,407.7z"/>
<path fill="#FFFFFF" d="M273.2,496.4c-0.3-0.2-0.5-0.3-0.9-0.5c-0.3-0.2-0.7-0.2-1-0.2h-2.9v8.5h1.5V501h1.4c0.3,0,0.7,0,1-0.2
	c0.3-0.2,0.7-0.3,0.9-0.5c0.3-0.2,0.5-0.5,0.7-0.9c0.2-0.3,0.2-0.7,0.2-1.2c0-0.3,0-0.9-0.2-1.2
	C273.7,496.9,273.5,496.6,273.2,496.4z M272.7,498.4c0,0.2,0,0.3-0.2,0.5c0,0.2-0.2,0.3-0.3,0.3c-0.2,0.2-0.3,0.2-0.5,0.3
	c-0.2,0-0.3,0.2-0.5,0.2h-1.4v-2.6h1.4c0.2,0,0.3,0,0.5,0.2c0.2,0,0.3,0.2,0.5,0.3c0.2,0.2,0.2,0.2,0.3,0.3
	C272.5,497.9,272.7,498.1,272.7,498.4z"/>
<path fill="#FFFFFF" d="M279.7,500.3c0.2-0.2,0.3-0.3,0.5-0.5c0.2-0.2,0.3-0.3,0.3-0.7c0-0.2,0.2-0.5,0.2-0.9c0-0.5,0-0.9-0.2-1.2
	c-0.2-0.3-0.3-0.7-0.7-0.9c-0.3-0.2-0.5-0.3-1-0.5c-0.3-0.2-0.7-0.2-1.2-0.2h-2.6v8.5h1.5v-3.2h1.2l1.5,3.2h1.5v-0.3l-1.7-3.2
	C279.5,500.5,279.5,500.5,279.7,500.3z M279.2,498.4c0,0.2,0,0.3-0.2,0.5c0,0.2-0.2,0.3-0.3,0.3c-0.2,0.2-0.3,0.2-0.5,0.2
	c-0.2,0-0.3,0.2-0.5,0.2h-1.2v-2.6h1c0.2,0,0.3,0,0.7,0.2c0.2,0,0.3,0.2,0.5,0.2c0.2,0.2,0.2,0.2,0.3,0.3
	C279.2,497.9,279.2,498.1,279.2,498.4z"/>
<path fill="#FFFFFF" d="M287.3,497.8c-0.2-0.3-0.2-0.5-0.3-0.9c-0.2-0.2-0.3-0.5-0.5-0.7c-0.2-0.2-0.5-0.3-0.9-0.5
	c-0.7-0.2-1.4-0.2-2,0c-0.3,0.2-0.5,0.3-0.9,0.5c-0.2,0.2-0.3,0.3-0.5,0.7c-0.2,0.3-0.3,0.5-0.3,0.9c-0.2,0.3-0.2,0.5-0.2,0.9
	s0,0.5,0,0.9v0.9c0,0.3,0,0.7,0,0.9c0,0.3,0.2,0.7,0.2,0.9c0.2,0.3,0.2,0.5,0.3,0.9c0.2,0.3,0.3,0.5,0.5,0.7
	c0.2,0.2,0.5,0.3,0.9,0.5c0.3,0.2,0.7,0.2,1,0.2c0.3,0,0.7,0,1-0.2c0.3-0.2,0.5-0.3,0.9-0.5c0.2-0.2,0.3-0.3,0.5-0.7
	c0.2-0.3,0.3-0.5,0.3-0.9c0.2-0.3,0.2-0.5,0.2-0.9c0-0.3,0-0.7,0-0.9v-0.9c0-0.3,0-0.5,0-0.9C287.5,498.3,287.3,498.1,287.3,497.8z
	 M286.1,499.5v0.9c0,0.2,0,0.3,0,0.5c0,0.2,0,0.3-0.2,0.5c0,0.2-0.2,0.3-0.2,0.5c0,0.2-0.2,0.3-0.3,0.5c-0.2,0.2-0.2,0.2-0.3,0.3
	c-0.3,0.2-0.7,0.2-1,0c-0.2,0-0.3-0.2-0.3-0.3c-0.2-0.2-0.2-0.3-0.3-0.5c0-0.2-0.2-0.3-0.2-0.5c0-0.2-0.2-0.3-0.2-0.5
	c0-0.2,0-0.3,0-0.5v-0.9c0-0.2,0-0.3,0-0.5c0-0.2,0-0.3,0.2-0.5c0-0.2,0.2-0.3,0.2-0.5c0-0.2,0.2-0.3,0.3-0.5
	c0.2-0.2,0.2-0.2,0.3-0.3c0.2,0,0.3-0.2,0.5-0.2c0.2,0,0.3,0,0.5,0.2c0.2,0,0.3,0.2,0.3,0.3c0.2,0.2,0.2,0.3,0.3,0.3
	c0,0.2,0.2,0.3,0.2,0.5c0,0.2,0,0.3,0.2,0.5C286.1,499.1,286.1,499.3,286.1,499.5z"/>
<polygon fill="#FFFFFF" points="294,496.9 294,496.7 294,495.7 288.4,495.7 288.4,497.1 292.1,497.1 288.4,503 288.4,503.2 
	288.4,504.2 294.1,504.2 294.1,502.9 290.2,502.9 "/>
<polygon fill="#FFFFFF" points="297,500.5 300.5,500.5 300.5,499.1 297,499.1 297,497.1 301,497.1 301,495.7 295.5,495.7 
	295.5,504.2 301,504.2 301,502.9 297,502.9 "/>
<path fill="#FFFFFF" d="M307.6,500.7c-0.2-0.2-0.3-0.3-0.5-0.5c-0.2-0.2-0.3-0.3-0.5-0.3c-0.2-0.2-0.3-0.2-0.7-0.3
	c-0.2,0-0.3-0.2-0.7-0.2c-0.2,0-0.3-0.2-0.5-0.2c-0.2,0-0.3-0.2-0.5-0.2c-0.2-0.2-0.3-0.2-0.3-0.3s-0.2-0.3-0.2-0.5
	c0-0.2,0-0.3,0.2-0.5c0-0.2,0.2-0.2,0.3-0.3c0.2-0.2,0.3-0.2,0.3-0.2c0.3-0.2,0.7-0.2,1,0c0.2,0,0.3,0.2,0.3,0.3
	c0.2,0.2,0.2,0.2,0.3,0.3c0,0.2,0.2,0.3,0.2,0.5v0.2h1.5v-0.3c0-0.3-0.2-0.9-0.3-1.2c-0.2-0.3-0.3-0.7-0.7-0.9
	c-0.3-0.2-0.5-0.3-1-0.5c-0.7-0.2-1.4-0.2-2,0c-0.3,0.2-0.7,0.3-0.9,0.5c-0.3,0.2-0.5,0.5-0.7,0.9s-0.3,0.7-0.3,1
	c0,0.3,0.2,0.7,0.3,1c0.2,0.3,0.3,0.5,0.7,0.7s0.5,0.3,0.9,0.5c0.3,0.2,0.5,0.2,0.9,0.3c0.2,0,0.3,0.2,0.7,0.2
	c0.2,0,0.3,0.2,0.5,0.3c0.2,0.2,0.3,0.2,0.3,0.3c0,0.2,0.2,0.3,0.2,0.5c0,0.2,0,0.3-0.2,0.5c0,0.2-0.2,0.2-0.3,0.3s-0.3,0.2-0.5,0.2
	c-0.3,0.2-0.9,0-1.2,0c-0.2,0-0.3-0.2-0.5-0.3c-0.2-0.2-0.2-0.2-0.3-0.3c-0.2-0.2-0.2-0.3-0.2-0.5v-0.2h-1.5v0.3
	c0,0.3,0.2,0.9,0.3,1.2c0.2,0.3,0.5,0.7,0.7,0.9c0.3,0.2,0.7,0.3,1,0.5c0.3,0.2,0.7,0.2,1.2,0.2c0.3,0,0.7,0,1-0.2
	c0.3-0.2,0.7-0.2,1-0.5c0.3-0.2,0.5-0.5,0.7-0.7c0.2-0.3,0.3-0.7,0.3-1c0-0.3,0-0.5-0.2-0.7C307.8,501,307.8,500.8,307.6,500.7z"/>
<path fill="#FFFFFF" d="M314.4,500.7c-0.2-0.2-0.3-0.3-0.5-0.5c-0.2-0.2-0.3-0.3-0.5-0.3c-0.2-0.2-0.3-0.2-0.7-0.3
	c-0.2,0-0.3-0.2-0.7-0.2c-0.2,0-0.3-0.2-0.5-0.2c-0.2,0-0.3-0.2-0.5-0.2c-0.2-0.2-0.3-0.2-0.3-0.3s-0.2-0.3-0.2-0.5
	c0-0.2,0-0.3,0.2-0.5c0-0.2,0.2-0.2,0.3-0.3c0.2-0.2,0.2-0.2,0.3-0.2c0.3-0.2,0.7-0.2,1,0c0.2,0,0.3,0.2,0.3,0.3
	c0.2,0.2,0.2,0.2,0.3,0.3c0,0.2,0.2,0.3,0.2,0.5v0.2h1.5v-0.3c0-0.3-0.2-0.9-0.3-1.2c-0.2-0.3-0.3-0.7-0.7-0.9
	c-0.3-0.2-0.5-0.3-1-0.5c-0.7-0.2-1.4-0.2-2,0c-0.3,0.2-0.7,0.3-0.9,0.5c-0.3,0.2-0.5,0.5-0.7,0.9c-0.2,0.3-0.3,0.7-0.3,1
	c0,0.3,0.2,0.7,0.3,1c0.2,0.3,0.3,0.5,0.7,0.7s0.5,0.3,0.9,0.5c0.3,0.2,0.5,0.2,0.9,0.3c0.2,0,0.3,0.2,0.7,0.2
	c0.2,0,0.3,0.2,0.5,0.3c0.2,0.2,0.3,0.2,0.3,0.3c0,0.2,0.2,0.3,0.2,0.5c0,0.2,0,0.3-0.2,0.5c0,0.2-0.2,0.2-0.3,0.3s-0.3,0.2-0.5,0.2
	c-0.3,0.2-0.9,0-1.2,0c-0.2,0-0.3-0.2-0.5-0.3c-0.2-0.2-0.2-0.2-0.3-0.3c-0.2-0.2-0.2-0.3-0.2-0.5v-0.2h-1.5v0.3
	c0,0.3,0.2,0.9,0.3,1.2s0.5,0.7,0.7,0.9c0.3,0.2,0.7,0.3,1,0.5c0.3,0.2,0.7,0.2,1.2,0.2c0.3,0,0.7,0,1-0.2c0.3-0.2,0.7-0.2,1-0.5
	c0.3-0.2,0.5-0.5,0.7-0.7c0.2-0.3,0.3-0.7,0.3-1c0-0.3,0-0.5-0.2-0.7C314.6,501,314.6,500.8,314.4,500.7z"/>
<path fill="#FFFFFF" d="M321.2,497.8c-0.2-0.3-0.2-0.5-0.3-0.9c-0.2-0.2-0.3-0.5-0.5-0.7c-0.2-0.2-0.5-0.3-0.9-0.5
	c-0.5-0.2-1.4-0.2-2,0c-0.3,0.2-0.5,0.3-0.9,0.5c-0.2,0.2-0.3,0.3-0.5,0.7c-0.2,0.3-0.3,0.5-0.3,0.9c-0.2,0.3-0.2,0.5-0.2,0.9
	s0,0.7,0,0.9v0.9c0,0.3,0,0.7,0,0.9c0,0.3,0.2,0.7,0.2,0.9c0.2,0.3,0.2,0.5,0.3,0.9c0.2,0.3,0.3,0.5,0.5,0.7
	c0.2,0.2,0.5,0.3,0.9,0.5s0.7,0.2,1,0.2c0.3,0,0.7,0,1-0.2s0.5-0.3,0.9-0.5c0.2-0.2,0.3-0.3,0.5-0.7c0.2-0.3,0.3-0.5,0.3-0.9
	c0.2-0.3,0.2-0.5,0.2-0.9c0-0.3,0-0.7,0-0.9v-0.9c0-0.3,0-0.7,0-0.9C321.4,498.3,321.4,498.1,321.2,497.8z M320,499.5v0.9
	c0,0.2,0,0.3,0,0.5c0,0.2,0,0.3-0.2,0.5c0,0.2-0.2,0.3-0.2,0.5c0,0.2-0.2,0.3-0.3,0.3c-0.2,0.2-0.2,0.2-0.3,0.3
	c-0.3,0.2-0.7,0.2-1,0c-0.2,0-0.3-0.2-0.3-0.3c-0.2-0.2-0.2-0.3-0.3-0.5c0-0.2-0.2-0.3-0.2-0.5c0-0.2-0.2-0.3-0.2-0.5
	c0-0.2,0-0.3,0-0.5v-0.9c0-0.2,0-0.3,0-0.5c0-0.2,0-0.3,0.2-0.5c0-0.2,0.2-0.3,0.2-0.5c0-0.2,0.2-0.3,0.3-0.5
	c0.2-0.2,0.2-0.2,0.3-0.3c0.2,0,0.3-0.2,0.5-0.2c0.2,0,0.3,0,0.5,0.2c0.2,0,0.3,0.2,0.3,0.3c0.2,0.2,0.2,0.3,0.3,0.3
	c0,0.2,0.2,0.3,0.2,0.5c0,0.2,0.2,0.3,0.2,0.5C320,499.1,320,499.3,320,499.5z"/>
<path fill="#FFFFFF" d="M327.2,500.3c0.2-0.2,0.3-0.3,0.5-0.5c0.2-0.2,0.3-0.3,0.3-0.7c0.2-0.2,0.2-0.5,0.2-0.9c0-0.5,0-0.9-0.2-1.2
	c-0.2-0.3-0.3-0.7-0.7-0.9c-0.3-0.2-0.5-0.3-1-0.5c-0.3-0.2-0.7-0.2-1.2-0.2h-2.6v8.5h1.5v-3.2h1.2l1.5,3.1v0.2h1.5v-0.3l-1.7-3.2
	C327,500.5,327,500.5,327.2,500.3z M326.7,498.4c0,0.2,0,0.3-0.2,0.5c0,0.2-0.2,0.3-0.3,0.3c-0.2,0.2-0.3,0.2-0.5,0.2
	c-0.2,0-0.3,0.2-0.5,0.2H324v-2.6h1c0.2,0,0.3,0,0.7,0.2c0.2,0,0.3,0.2,0.5,0.2c0.2,0.2,0.2,0.2,0.3,0.3
	C326.7,497.9,326.7,498.1,326.7,498.4z"/>
<path fill="#FFFFFF" d="M273,241.1h-1.5v5.6c0,0.2,0,0.3-0.2,0.7c0,0.2-0.2,0.3-0.3,0.5c-0.2,0.2-0.2,0.3-0.3,0.3
	c-0.3,0.2-0.9,0.2-1.2,0c-0.2,0-0.3-0.2-0.3-0.3c-0.2-0.2-0.2-0.3-0.3-0.5c0-0.2-0.2-0.3-0.2-0.7v-5.6h-1.2v5.6c0,0.3,0,0.9,0.2,1.2
	c0.2,0.3,0.3,0.7,0.5,1c0.2,0.3,0.5,0.5,0.9,0.7c0.3,0.2,0.7,0.2,1.2,0.2c0.3,0,0.9,0,1.2-0.2c0.3-0.2,0.7-0.3,0.9-0.7
	c0.2-0.3,0.5-0.5,0.5-1c0.2-0.3,0.2-0.7,0.2-1.2L273,241.1z"/>
<path fill="#FFFFFF" d="M280,247.4c0-0.3,0-0.5-0.2-0.7c0-0.2-0.2-0.3-0.3-0.7c-0.2-0.2-0.3-0.3-0.5-0.5c-0.2-0.2-0.3-0.3-0.5-0.3
	c-0.2-0.2-0.3-0.2-0.7-0.3c-0.2,0-0.3-0.2-0.7-0.2c-0.2,0-0.3-0.2-0.5-0.2c-0.2,0-0.3-0.2-0.5-0.2c-0.2-0.2-0.3-0.2-0.3-0.3
	s-0.2-0.3-0.2-0.5c0-0.2,0-0.3,0.2-0.5c0-0.2,0.2-0.2,0.3-0.3c0.2-0.2,0.3-0.2,0.3-0.2c0.3-0.2,0.7-0.2,1,0c0.2,0,0.3,0.2,0.3,0.3
	c0.2,0.2,0.2,0.2,0.3,0.3c0,0.2,0.2,0.3,0.2,0.5v0.2h1.5v-0.3c0-0.3-0.2-0.9-0.3-1.2c-0.2-0.3-0.3-0.7-0.7-0.9s-0.5-0.3-1-0.5
	c-0.7-0.2-1.4-0.2-2,0c-0.3,0.2-0.7,0.3-0.9,0.5c-0.3,0.2-0.5,0.5-0.7,0.9c-0.2,0.3-0.3,0.7-0.3,1c0,0.3,0.2,0.7,0.3,1
	c0.2,0.3,0.3,0.5,0.7,0.7c0.3,0.2,0.5,0.3,0.9,0.5c0.3,0.2,0.5,0.2,0.9,0.3c0.2,0,0.3,0.2,0.7,0.2c0.2,0,0.3,0.2,0.5,0.3
	c0.2,0.2,0.3,0.2,0.3,0.3s0.2,0.3,0.2,0.5c0,0.2,0,0.3-0.2,0.5c0,0.2-0.2,0.2-0.3,0.3c-0.2,0.2-0.3,0.2-0.5,0.2
	c-0.3,0.2-0.9,0-1.2,0c-0.2,0-0.3-0.2-0.5-0.3c-0.2-0.2-0.2-0.2-0.3-0.3s-0.2-0.3-0.2-0.5v-0.2h-1.5v0.3c0,0.3,0.2,0.9,0.3,1.2
	c0.2,0.3,0.5,0.7,0.7,0.9c0.3,0.2,0.7,0.3,1,0.5c0.3,0.2,0.7,0.2,1.2,0.2c0.3,0,0.7,0,1-0.2c0.3-0.2,0.7-0.2,1-0.5
	c0.3-0.2,0.5-0.5,0.7-0.7C280,248.2,280,247.7,280,247.4z"/>
<path fill="#FFFFFF" d="M283.9,249.8c0.3,0,0.7,0,1-0.2c0.3-0.2,0.7-0.3,0.9-0.5c0.3-0.2,0.5-0.5,0.7-0.9c0.2-0.3,0.2-0.7,0.2-1.2
	c0-0.3,0-0.5-0.2-0.7c0-0.2-0.2-0.5-0.3-0.7c-0.2-0.2-0.3-0.3-0.5-0.5c0,0-0.2,0-0.2-0.2l0,0c0.2-0.2,0.3-0.2,0.5-0.3
	c0.2-0.2,0.2-0.3,0.3-0.5c0-0.2,0.2-0.3,0.2-0.7s0-0.9-0.2-1c-0.2-0.3-0.3-0.5-0.7-0.7c-0.3-0.2-0.5-0.3-0.9-0.3
	c-0.3-0.2-0.7-0.2-1-0.2H281v8.5H283.9L283.9,249.8z M282.6,245.9h1.4c0.2,0,0.3,0,0.5,0.2c0.2,0,0.3,0.2,0.3,0.2
	c0.2,0.2,0.2,0.2,0.3,0.3c0,0.2,0.2,0.3,0.2,0.5c0,0.2,0,0.3-0.2,0.5c0,0.2-0.2,0.3-0.3,0.3c-0.2,0.2-0.3,0.2-0.5,0.2
	c-0.2,0-0.3,0.2-0.5,0.2h-1.4v-2.4H282.6z M285,244c0,0.2-0.2,0.2-0.3,0.3c-0.2,0.2-0.3,0.2-0.3,0.2c-0.2,0-0.3,0-0.5,0h-1.2v-2h1.2
	c0.2,0,0.3,0,0.5,0c0.2,0,0.3,0.2,0.3,0.2c0.2,0,0.2,0.2,0.3,0.3c0,0.2,0.2,0.3,0.2,0.5S285,243.8,285,244z"/>
<path fill="#FFFFFF" d="M338.3,241.3c0.2-0.2,0.3-0.3,0.5-0.5c0.2-0.2,0.3-0.3,0.3-0.7c0.2-0.2,0.2-0.5,0.2-0.9c0-0.5,0-0.9-0.2-1.2
	c-0.2-0.3-0.3-0.7-0.7-0.9c-0.3-0.2-0.5-0.3-1-0.5c-0.3-0.2-0.7-0.2-1.2-0.2h-2.6v8.5h1.5v-3.2h1.2l1.5,3.1v0.2h1.5v-0.3l-1.7-3.2
	C337.9,241.4,338.1,241.3,338.3,241.3z M337.8,239.2c0,0.2,0,0.3-0.2,0.5c0,0.2-0.2,0.3-0.3,0.3c-0.2,0.2-0.3,0.2-0.5,0.2
	c-0.2,0-0.3,0.2-0.5,0.2H335v-2.6h1c0.2,0,0.5,0,0.7,0.2c0.2,0,0.3,0.2,0.5,0.2c0.2,0.2,0.2,0.2,0.3,0.3
	C337.6,238.7,337.8,239,337.8,239.2z"/>
<polygon fill="#FFFFFF" points="345.9,243.6 342,243.6 342,241.4 345.2,241.4 345.2,240.1 342,240.1 342,237.9 345.8,237.9 
	345.8,236.5 340.5,236.5 340.5,245 345.9,245 "/>
<path fill="#FFFFFF" d="M350.5,243.5c-0.2,0.2-0.3,0.2-0.5,0.2c-0.3,0.2-0.9,0-1.2,0c-0.2,0-0.3-0.2-0.5-0.3
	c-0.2-0.2-0.2-0.2-0.3-0.3s-0.2-0.3-0.2-0.5v-0.2h-1.5v0.3c0,0.3,0.2,0.9,0.3,1.2s0.5,0.7,0.7,0.9c0.3,0.2,0.7,0.3,1,0.5
	c0.3,0.2,0.7,0.2,1.2,0.2c0.3,0,0.7,0,1-0.2c0.3-0.2,0.7-0.2,1-0.5c0.3-0.2,0.5-0.5,0.7-0.7c0.2-0.3,0.3-0.7,0.3-1
	c0-0.3,0-0.5-0.2-0.7c0-0.2-0.2-0.5-0.3-0.7c-0.2-0.2-0.3-0.3-0.5-0.5c-0.2-0.2-0.3-0.3-0.5-0.3c-0.2-0.2-0.3-0.2-0.7-0.3
	c-0.2,0-0.3-0.2-0.7-0.2c-0.2,0-0.3-0.2-0.5-0.2c-0.2,0-0.3-0.2-0.5-0.2c-0.2-0.2-0.3-0.2-0.3-0.3s-0.2-0.3-0.2-0.5
	c0-0.2,0-0.3,0.2-0.5c0-0.2,0.2-0.2,0.3-0.3c0.2-0.2,0.3-0.2,0.3-0.2c0.3-0.2,0.7-0.2,1,0c0.2,0,0.3,0.2,0.3,0.3
	c0.2,0.2,0.2,0.2,0.3,0.3c0,0.2,0.2,0.3,0.2,0.5v0.2h1.5V239c0-0.3-0.2-0.9-0.3-1c-0.2-0.3-0.3-0.7-0.7-0.9c-0.3-0.2-0.5-0.3-1-0.5
	c-0.7-0.2-1.4-0.2-2,0c-0.3,0.2-0.7,0.3-0.9,0.5c-0.3,0.2-0.5,0.5-0.7,0.7c-0.2,0.3-0.3,0.7-0.3,1c0,0.3,0.2,0.7,0.3,1
	c0.2,0.3,0.3,0.5,0.7,0.7c0.3,0.2,0.5,0.3,0.9,0.5c0.3,0.2,0.7,0.2,0.9,0.3c0.2,0,0.3,0.2,0.7,0.2c0.2,0,0.3,0.2,0.5,0.3
	c0.2,0.2,0.3,0.2,0.3,0.3s0.2,0.3,0.2,0.5c0,0.2,0,0.3-0.2,0.5L350.5,243.5z"/>
<polygon fill="#FFFFFF" points="358.9,243.6 355,243.6 355,241.4 358.4,241.4 358.4,240.1 355,240.1 355,237.9 358.9,237.9 
	358.9,236.5 353.4,236.5 353.4,245 358.9,245 "/>
<polygon fill="#FFFFFF" points="362.1,245 363.6,245 363.6,237.9 366.2,237.9 366.2,236.5 359.7,236.5 359.7,237.9 362.1,237.9 "/>
<path fill="#FFFFFF" d="M172.5,292.9l-2.7,8.5h1.5l0.7-2h2.2l0.7,2h1.5l-2.7-8.5H172.5z M173.7,298h-1.4l0.7-2.4L173.7,298z"/>
<path fill="#FFFFFF" d="M183.1,293.7c-0.2-0.3-0.5-0.5-0.9-0.7c-0.7-0.3-1.7-0.3-2.4,0c-0.3,0.2-0.7,0.3-0.9,0.7
	c-0.2,0.3-0.5,0.7-0.5,1c-0.2,0.3-0.2,0.9-0.2,1.4v1.9c0,0.5,0,1,0.2,1.4s0.3,0.9,0.5,1c0.2,0.3,0.5,0.5,0.9,0.7
	c0.3,0.2,0.7,0.2,1.2,0.2c0.5,0,0.9,0,1.2-0.2s0.7-0.3,0.9-0.7c0.2-0.3,0.3-0.7,0.5-1c0.2-0.3,0.2-0.9,0.2-1.4v-1.9
	c0-0.5,0-1-0.2-1.4S183.3,294.1,183.1,293.7z M182.2,295.4l-2.6,2v-1.5c0-0.7,0.2-1.2,0.3-1.4c0.2-0.3,0.5-0.5,1-0.5
	c0.3,0,0.7,0.2,0.9,0.3C182.1,294.6,182.2,294.9,182.2,295.4z M182.2,297v1.4c0,0.7-0.2,1.2-0.3,1.4c-0.2,0.3-0.5,0.5-1,0.5
	c-0.3,0-0.7-0.2-0.9-0.3c-0.2-0.2-0.3-0.5-0.3-0.9L182.2,297z"/>
<path fill="#FFFFFF" d="M415.4,301.2h1.5l-2.6-8.3v-0.2h-1.2l-2.7,8.5h1.5l0.7-2h2.2L415.4,301.2z M414.2,297.8h-1.4l0.7-2.4
	L414.2,297.8z"/>
<polygon fill="#FFFFFF" points="420.9,301.2 422.4,301.2 422.4,292.9 422.2,292.9 418.8,294.1 418.8,295.4 420.9,294.7 "/>
<path fill="#FFFFFF" d="M343.5,527.4c-0.2-0.2-0.3-0.3-0.5-0.5c0,0-0.2,0-0.2-0.2l0,0c0.2-0.2,0.3-0.2,0.5-0.3
	c0.2-0.2,0.2-0.3,0.3-0.5c0-0.2,0.2-0.3,0.2-0.7s0-0.9-0.2-1c-0.2-0.3-0.3-0.5-0.7-0.7c-0.3-0.2-0.5-0.3-0.9-0.3
	c-0.3,0-0.7-0.2-1-0.2h-2.7v8.5h2.9c0.3,0,0.7,0,1-0.2c0.3-0.2,0.7-0.3,0.9-0.5c0.3-0.2,0.5-0.5,0.7-0.9c0.2-0.3,0.2-0.7,0.2-1.2
	c0-0.3,0-0.5-0.2-0.7C343.9,527.7,343.7,527.6,343.5,527.4z M339.8,527.6h1.4c0.2,0,0.3,0,0.5,0.2c0.2,0,0.3,0.2,0.3,0.2
	c0.2,0.2,0.2,0.2,0.3,0.3c0,0.2,0.2,0.3,0.2,0.5s0,0.3-0.2,0.5c0,0.2-0.2,0.3-0.3,0.3c-0.2,0.2-0.3,0.2-0.5,0.2
	c-0.2,0-0.3,0.2-0.5,0.2h-1.4v-2.4H339.8z M342.2,525.5c0,0.2-0.2,0.2-0.3,0.3c-0.2,0.2-0.2,0.2-0.3,0.2s-0.3,0-0.5,0h-1.2v-1.9h1.2
	c0.2,0,0.3,0,0.5,0c0.2,0,0.3,0.2,0.3,0.2c0.2,0,0.2,0.2,0.3,0.3c0,0.2,0.2,0.3,0.2,0.5C342.3,525.4,342.2,525.5,342.2,525.5z"/>
<path fill="#FFFFFF" d="M348.5,522.8h-1.2l-2.7,8.5h1.5l0.7-2h2.4l0.7,2h1.5l-2.7-8.3L348.5,522.8z M348.7,527.9h-1.5l0.7-2.4
	L348.7,527.9z"/>
<polygon fill="#FFFFFF" points="351.4,524.2 353.8,524.2 353.8,531.3 355.3,531.3 355.3,524.2 357.8,524.2 357.8,522.8 351.4,522.8 
	"/>
<polygon fill="#FFFFFF" points="358.4,524.2 360.9,524.2 360.9,531.3 362.4,531.3 362.4,524.2 364.8,524.2 364.8,522.8 358.4,522.8 
	"/>
<polygon fill="#FFFFFF" points="367.4,527.6 370.6,527.6 370.6,526.2 367.4,526.2 367.4,524.2 371.1,524.2 371.1,522.8 365.9,522.8 
	365.9,531.3 371.3,531.3 371.3,530 367.4,530 "/>
<path fill="#FFFFFF" d="M376.9,531.3h1.5V531l-1.7-3.2c0.2,0,0.3-0.2,0.3-0.3c0.2-0.2,0.3-0.3,0.5-0.5c0.2-0.2,0.3-0.3,0.3-0.7
	c0-0.2,0.2-0.5,0.2-0.9c0-0.5,0-0.9-0.2-1.2c-0.2-0.3-0.3-0.7-0.7-0.9c-0.3-0.2-0.5-0.3-1-0.5c-0.3-0.2-0.7-0.2-1.2-0.2h-2.6v8.5
	h1.5v-3.2h1.2L376.9,531.3z M376.6,526c0,0.2-0.2,0.3-0.3,0.3c-0.2,0.2-0.3,0.2-0.5,0.2c-0.2,0-0.3,0.2-0.5,0.2H374v-2.6h1
	c0.2,0,0.3,0,0.7,0.2c0.2,0,0.3,0.2,0.5,0.2c0.2,0.2,0.2,0.2,0.3,0.3c0,0.2,0.2,0.3,0.2,0.5C376.6,525.7,376.6,525.9,376.6,526z"/>
<polygon fill="#FFFFFF" points="379.3,524.2 381.2,524.2 381.2,530 379.3,530 379.3,531.3 384.8,531.3 384.8,530 382.7,530 
	382.7,524.2 384.8,524.2 384.8,522.8 379.3,522.8 "/>
<polygon fill="#FFFFFF" points="387.7,527.6 391.1,527.6 391.1,526.2 387.7,526.2 387.7,524.2 391.6,524.2 391.6,522.8 386.1,522.8 
	386.1,531.3 391.6,531.3 391.6,530 387.7,530 "/>
<path fill="#FFFFFF" d="M289.7,432.7h1.5v-0.3l-1.7-3.2c0.2,0,0.3-0.2,0.3-0.3c0.2-0.2,0.3-0.3,0.5-0.5c0.2-0.2,0.3-0.3,0.3-0.7
	c0.2-0.2,0.2-0.5,0.2-0.9c0-0.5,0-0.9-0.2-1.2c-0.2-0.3-0.3-0.7-0.7-0.9c-0.3-0.2-0.5-0.3-1-0.5c-0.3-0.2-0.7-0.2-1.2-0.2h-2.6v8.5
	h1.5v-3.2h1.2L289.7,432.7z M289.4,427.4c0,0.2-0.2,0.3-0.3,0.3c-0.2,0.2-0.3,0.2-0.5,0.2c-0.2,0-0.3,0.2-0.5,0.2h-1.2v-2.6h1
	c0.2,0,0.3,0,0.7,0.2c0.2,0,0.3,0.2,0.5,0.2c0.2,0.2,0.2,0.2,0.3,0.3c0,0.2,0.2,0.3,0.2,0.5C289.5,427.1,289.5,427.3,289.4,427.4z"
	/>
<path fill="#FFFFFF" d="M295.2,432.9c0.5,0,1-0.2,1.5-0.3c0.5-0.2,0.9-0.5,1.2-1l0,0v-3.2h-3.1v1.4h1.7v1.5l-0.2,0.2
	c-0.2,0-0.2,0.2-0.3,0.2s-0.3,0-0.3,0c-0.2,0-0.2,0-0.3,0c-0.2,0-0.3,0-0.5-0.2c-0.2,0-0.3-0.2-0.5-0.3c-0.2-0.2-0.2-0.3-0.3-0.3
	c-0.2-0.2-0.2-0.3-0.2-0.5c0-0.2-0.2-0.3-0.2-0.5c0-0.2,0-0.3,0-0.5v-1c0-0.2,0-0.3,0-0.5c0-0.2,0-0.3,0.2-0.5
	c0-0.2,0.2-0.3,0.2-0.5c0-0.2,0.2-0.3,0.3-0.3c0.2-0.2,0.2-0.2,0.3-0.3c0.3-0.2,0.9-0.2,1.2,0c0.2,0,0.3,0.2,0.3,0.3
	c0.2,0.2,0.2,0.3,0.3,0.5c0,0.2,0.2,0.3,0.2,0.5v0.2h1.5v-0.3c0-0.3-0.2-0.9-0.3-1c-0.2-0.3-0.3-0.7-0.7-0.9
	c-0.3-0.2-0.5-0.3-0.9-0.5c-0.7-0.2-1.5-0.3-2.2,0c-0.3,0.2-0.5,0.3-0.9,0.5c-0.2,0.2-0.5,0.3-0.7,0.7c-0.2,0.2-0.3,0.5-0.3,0.9
	c-0.2,0.3-0.2,0.5-0.2,0.9s0,0.7,0,0.9v1c0,0.3,0,0.7,0.2,1c0,0.3,0.2,0.7,0.3,0.9c0.2,0.3,0.3,0.5,0.5,0.9c0.2,0.2,0.3,0.5,0.7,0.7
	c0.2,0.2,0.5,0.3,0.9,0.5C294.3,432.9,294.7,432.9,295.2,432.9L295.2,432.9z M295.2,432.7L295.2,432.7L295.2,432.7L295.2,432.7z"/>
<path fill="#FFFFFF" d="M301.8,432.7c0.3,0,0.7,0,1-0.2c0.3-0.2,0.7-0.3,0.9-0.5c0.3-0.2,0.5-0.5,0.7-0.9c0.2-0.3,0.2-0.7,0.2-1.2
	c0-0.3,0-0.5-0.2-0.7c0-0.2-0.2-0.5-0.3-0.7s-0.3-0.3-0.5-0.5c0,0-0.2,0-0.2-0.2l0,0c0.2-0.2,0.3-0.2,0.5-0.3
	c0.2-0.2,0.2-0.3,0.3-0.5c0-0.2,0.2-0.3,0.2-0.7s0-0.9-0.2-1c-0.2-0.3-0.3-0.5-0.7-0.7c-0.3-0.2-0.5-0.3-0.9-0.3
	c-0.3-0.2-0.7-0.2-1-0.2h-2.7v8.5H301.8L301.8,432.7z M300.6,429h1.4c0.2,0,0.3,0,0.5,0.2c0.2,0,0.3,0.2,0.3,0.2
	c0.2,0.2,0.2,0.2,0.3,0.3c0,0.2,0.2,0.3,0.2,0.5c0,0.2,0,0.3-0.2,0.5c0,0.2-0.2,0.3-0.3,0.3c-0.2,0.2-0.3,0.2-0.5,0.2
	c-0.2,0-0.3,0.2-0.5,0.2h-1.4V429H300.6z M302.8,427.1c0,0.2-0.2,0.2-0.3,0.3c-0.2,0.2-0.3,0.2-0.3,0.2c-0.2,0-0.3,0-0.5,0h-1.2v-2
	h1.2c0.2,0,0.3,0,0.5,0c0.2,0,0.3,0.2,0.3,0.2c0.2,0,0.2,0.2,0.3,0.3c0,0.2,0.2,0.3,0.2,0.5C303,426.7,303,426.9,302.8,427.1z"/>
<polygon fill="#FFFFFF" points="310.5,424.2 309,424.2 309,432.7 314.4,432.7 314.4,431.3 310.5,431.3 "/>
<polygon fill="#FFFFFF" points="317.1,429.1 320.5,429.1 320.5,427.8 317.1,427.8 317.1,425.5 321.1,425.5 321.1,424.2 315.6,424.2 
	315.6,432.7 321.1,432.7 321.1,431.3 317.1,431.3 "/>
<path fill="#FFFFFF" d="M327.2,425.4c-0.3-0.3-0.7-0.7-1.2-0.9c-0.5-0.2-1-0.3-1.5-0.3h-2v8.5h2c0.5,0,1.2-0.2,1.5-0.3
	c0.5-0.2,0.9-0.5,1.2-0.9c0.3-0.3,0.5-0.9,0.7-1.2c0.2-0.5,0.3-1,0.3-1.5v-0.5c0-0.5-0.2-1.2-0.3-1.5
	C327.7,426.1,327.5,425.7,327.2,425.4z M326.7,428.3v0.7c0,0.3,0,0.7-0.2,1c-0.2,0.3-0.2,0.5-0.3,0.9c-0.2,0.2-0.3,0.3-0.7,0.5
	c-0.3,0.2-0.7,0.2-1,0.2H324v-5.8h0.5c0.3,0,0.7,0,1,0.2c0.3,0.2,0.5,0.3,0.7,0.5c0.2,0.2,0.3,0.5,0.3,0.9
	C326.5,427.4,326.7,427.8,326.7,428.3z"/>
<path fill="#FFFFFF" d="M165.2,476.8l-0.7-1.2l0.9-0.7c0-0.2,0-0.5,0-0.9s-0.2-0.5-0.3-0.9c-0.3-0.7-0.9-1-1.7-1.2
	c-0.7,0-1.4,0.2-2.2,0.5l-0.3,0.2c-0.9,0.5-1.4,1-1.5,1.7c-0.3,0.7-0.2,1.4,0.2,1.9c0.2,0.3,0.3,0.5,0.7,0.7
	c0.2,0.2,0.5,0.3,0.7,0.3l1.2-0.5l0.7,1.2l-1.5,0.9c-0.5-0.2-1-0.3-1.5-0.7c-0.5-0.3-0.9-0.9-1.2-1.4c-0.7-1-0.7-2-0.3-3.2
	c0.3-1,1-1.9,2.2-2.6l0.3-0.2c1.2-0.7,2.2-0.9,3.2-0.7c1,0.2,1.9,0.9,2.6,1.9c0.3,0.5,0.5,1.2,0.7,1.9c0,0.7,0,1.2-0.2,1.7
	L165.2,476.8z"/>
<path fill="#FFFFFF" d="M161.8,480.6l0.3,0.5l8-1.5l0.9,1.5l-5.3,6.1l0.2,0.5l-0.9,0.5l-1.5-2.6l0.9-0.5l0.3,0.5l0.9-1l-1.4-2.6
	l-1.2,0.3l0.2,0.5l-0.9,0.5l-1.5-2.6L161.8,480.6z M165.7,481.9l1,1.7l2.2-2.4l0,0L165.7,481.9z"/>
<path fill="#FFFFFF" d="M165.7,489.6l0.9-0.5l0.7,0.7l5.5-3.2l-0.3-0.9l0.9-0.5l0.5,0.9l0.9,1.5l0.5,0.9l-0.9,0.5l-0.7-0.7l-5.5,3.1
	l1.2,2.2l1-0.5l0.7,1.2l-2.2,1.2L165.7,489.6z"/>
<path fill="#FFFFFF" d="M169.8,496.6l0.9-0.5l0.7,0.7l5.5-3.2l-0.3-0.9l0.9-0.5l0.5,0.9l0.9,1.5l0.5,0.9l-0.9,0.5l-0.7-0.7l-5.5,3.1
	l1.2,2.2l1-0.5l0.7,1.2l-2.2,1.2L169.8,496.6z"/>
<path fill="#FFFFFF" d="M180.5,499.6l0.9-0.5l1.9,3.2l-0.9,0.5l-0.7-0.7l-5.5,3.2l0.3,0.9l-0.9,0.5l-1.9-3.2l0.9-0.5l0.7,0.7
	l5.5-3.2L180.5,499.6z"/>
<path fill="#FFFFFF" d="M184.3,512.8c-1.2,0.7-2.2,0.9-3.4,0.7s-2-0.9-2.6-1.9c-0.7-1-0.7-2-0.3-3.2c0.3-1,1.2-1.9,2.2-2.6h0.2
	c1.2-0.7,2.2-0.9,3.4-0.7c1.2,0.2,2,0.9,2.6,1.9c0.7,1,0.7,2,0.3,3.2C186.3,511.2,185.5,512.1,184.3,512.8L184.3,512.8z
	 M183.4,511.2c0.9-0.5,1.4-1,1.7-1.5c0.3-0.7,0.3-1.2-0.2-1.9c-0.3-0.7-0.9-1-1.5-1c-0.7,0-1.4,0.2-2.2,0.7h-0.2
	c-0.9,0.5-1.4,1-1.7,1.5c-0.3,0.7-0.3,1.2,0.2,1.9c0.3,0.7,0.9,1,1.5,1C181.9,511.9,182.6,511.7,183.4,511.2L183.4,511.2z"/>
<path fill="#FFFFFF" d="M191.1,515.5c0.5,0.9,0.7,1.7,0.5,2.6s-0.7,1.4-1.4,1.9c-0.7,0.5-1.5,0.5-2.2,0.3c-0.7-0.2-1.4-0.9-1.9-1.7
	l-0.7-1.4l-1.7,1l0.3,0.9l-0.9,0.5l-1.9-3.2l0.9-0.5l0.7,0.7l5.5-3.2l-0.3-0.9l0.9-0.5l0.5,0.9L191.1,515.5z M186.5,516.3l0.7,1.4
	c0.2,0.5,0.5,0.7,0.9,0.9c0.3,0,0.7,0,1-0.2c0.3-0.2,0.7-0.5,0.7-0.9c0.2-0.3,0-0.7-0.2-1.2l-0.7-1.4L186.5,516.3z"/>
<path fill="#FFFFFF" d="M192,526.9l-1.5-2.6l-2.2,1.2l1.4,2.6l1-0.5l0.7,1.2l-2,1.2l-3.6-6.1l0.9-0.5l0.7,0.7l5.5-3.2l-0.3-0.9
	l0.9-0.5l0.5,0.9l3.1,5.3l-2,1.2l-0.7-1.2l0.9-0.7l-1.4-2.4l-1.9,1.2l1.5,2.6L192,526.9z"/>
<path fill="#FFFFFF" d="M150.7,480.2l-1.4,0.9c0.7,0,1.2,0,1.9,0.3c0.5,0.3,1,0.7,1.4,1.4c0.3,0.5,0.5,1,0.5,1.5
	c0,0.5-0.2,1-0.5,1.4c0.5,0,1,0.2,1.5,0.3c0.5,0.3,0.9,0.7,1.2,1.2c0.2,0.5,0.3,0.9,0.5,1.4c0,0.5,0,0.9-0.2,1.4s-0.5,0.9-0.9,1.2
	c-0.3,0.3-0.9,0.9-1.5,1.2l-9.5,5.6l-1.5-2.7l9.5-5.6c0.5-0.3,0.9-0.7,0.9-1c0-0.3,0-0.7-0.2-1c-0.2-0.3-0.3-0.5-0.7-0.7
	c-0.3-0.2-0.5-0.2-0.9,0l-10.2,5.8l-1.5-2.6l9.5-5.6c0.5-0.3,0.9-0.7,0.9-0.9c0.2-0.3,0-0.7-0.2-1c-0.2-0.3-0.3-0.5-0.7-0.7
	s-0.5-0.2-0.9-0.2l-10.2,6l-1.5-2.7l13.1-7.7L150.7,480.2z"/>
<path fill="#FFFFFF" d="M158.9,494l4.1,7l-10.7,6.1l2.2,3.9l-2.4,1.4l-6.3-10.9l2.4-1.2l2.4,4.1l8.3-4.8l-2.4-4.1L158.9,494z
	 M164.5,495.9c0.5-0.3,0.9-0.3,1.4-0.2c0.5,0.2,0.9,0.5,1.2,1c0.3,0.5,0.3,1,0.3,1.5c-0.2,0.5-0.3,0.9-0.9,1
	c-0.5,0.3-0.9,0.3-1.4,0.2c-0.5-0.2-0.9-0.5-1.2-1c-0.3-0.5-0.3-1-0.3-1.5C163.7,496.6,164,496.2,164.5,495.9z"/>
<path fill="#FFFFFF" d="M168.6,511.2l-1.7,1.2c0.9,0.2,1.7,0.3,2.6,0.9c0.7,0.5,1.4,1.2,1.9,1.9c0.3,0.7,0.7,1.4,0.9,2
	c0.2,0.7,0.2,1.4,0,2c-0.2,0.7-0.5,1.2-1,1.9c-0.5,0.7-1.2,1.2-2.2,1.7l-8.2,4.8l-1.7-2.9l8.2-4.8c0.5-0.3,1-0.7,1.2-1
	c0.3-0.3,0.5-0.7,0.5-1c0-0.3,0-0.7,0-1.2c-0.2-0.3-0.3-0.9-0.5-1.2c-0.3-0.7-0.9-1.2-1.4-1.4c-0.5-0.3-1.2-0.5-1.9-0.5l-9.4,5.5
	l-1.7-2.9l13.1-7.7L168.6,511.2z"/>
<path fill="#FFFFFF" d="M175.6,523.1l4.1,7l-10.7,6.1l2.2,3.9l-2.4,1.4l-6.3-10.9l2.4-1.4l2.4,4.1l8.3-4.8l-2.4-4.1L175.6,523.1z
	 M181.2,525c0.5-0.3,0.9-0.3,1.4-0.2c0.5,0.2,0.9,0.5,1.2,1s0.3,1,0.3,1.5c-0.2,0.5-0.3,0.9-0.9,1c-0.5,0.3-0.9,0.3-1.4,0.2
	c-0.5-0.2-0.9-0.5-1.2-1s-0.3-1-0.3-1.5C180.4,525.7,180.7,525.4,181.2,525z"/>
<path fill="#FFFFFF" d="M163.2,456l-3.9-6.8c-0.5-1-1.9-1.4-2.9-0.9c0,0-5.8,3.2-5.1,2.9c4.3-2.4,5.8-8,3.4-12.3
	c-2.4-4.3-8-5.8-12.3-3.4c-0.7,0.3-5.3,3.1-8.5,4.9l-12.3-5.3c-8.3-3.6-16.4,5.5-11.9,13.3l1,1.9c6.1-2.6,14.3-4.8,20.8-3.6l0.2,0.2
	l4.8,8.3c-2.2,6.1-8.3,11.8-13.8,15.8l1.5,2.6c1.7,2.9,5.5,3.9,8.3,2.2l19.9-11.4l10-5.8C163.5,458.4,163.9,457.1,163.2,456z
	 M147.8,439l3.7,6.5l-4.4,2.6c-1.4,0.9-3.2,0.3-3.9-1l-0.9-1.4c-0.9-1.4-0.3-3.2,1-3.9L147.8,439z M134.4,444.6l7.2-0.3l-4.6,4.9
	L134.4,444.6z M137.1,449.4l6.6-1.5l-3.9,6.1L137.1,449.4z M147.2,455.5l9.5-5.5l4.4,7.7l-9.5,5.5L147.2,455.5z"/>
<path fill="#FFFFFF" d="M123.8,472.4c0.5-5.6,6.1-12.9,10.7-19.1l-16.4,9.4L123.8,472.4z"/>
<path id="C_GND1" fill="#EFDA48" d="M202.3,557.9c-2.7,0-4.9,2.2-4.9,4.9s2.2,4.9,4.9,4.9s4.9-2.2,4.9-4.9
	C207.1,560.1,204.9,557.9,202.3,557.9z M202.3,565c-1.2,0-2.4-1-2.4-2.4s1-2.4,2.4-2.4s2.4,1,2.4,2.4S203.5,565,202.3,565z"/>
<circle fill="#1D1D1B" cx="202.3" cy="562.7" r="2.4"/>
<path id="C_P0" fill="#EFDA48" d="M218.5,557.9c-2.7,0-4.9,2.2-4.9,4.9s2.2,4.9,4.9,4.9c2.7,0,4.9-2.2,4.9-4.9
	C223.5,560.1,221.2,557.9,218.5,557.9z M218.5,565c-1.2,0-2.4-1-2.4-2.4s1-2.4,2.4-2.4c1.2,0,2.4,1,2.4,2.4S219.9,565,218.5,565z"/>
<circle fill="#1D1D1B" cx="218.5" cy="562.7" r="2.4"/>
<path id="C_P2" fill="#EFDA48" d="M234.9,557.9c-2.7,0-4.9,2.2-4.9,4.9s2.2,4.9,4.9,4.9c2.7,0,4.9-2.2,4.9-4.9
	C239.8,560.1,237.6,557.9,234.9,557.9z M234.9,565c-1.2,0-2.4-1-2.4-2.4s1-2.4,2.4-2.4c1.2,0,2.4,1,2.4,2.4S236.2,565,234.9,565z"/>
<circle fill="#1D1D1B" cx="234.9" cy="562.7" r="2.4"/>
<path id="C_P4" fill="#EFDA48" d="M251.2,557.9c-2.7,0-4.9,2.2-4.9,4.9s2.2,4.9,4.9,4.9c2.7,0,4.9-2.2,4.9-4.9
	C256,560.1,254,557.9,251.2,557.9z M251.2,565c-1.2,0-2.4-1-2.4-2.4s1-2.4,2.4-2.4c1.2,0,2.4,1,2.4,2.4S252.4,565,251.2,565z"/>
<circle fill="#1D1D1B" cx="251.2" cy="562.7" r="2.4"/>
<path id="C_P6" fill="#EFDA48" d="M267.6,557.9c-2.7,0-4.9,2.2-4.9,4.9s2.2,4.9,4.9,4.9s4.9-2.2,4.9-4.9
	C272.3,560.1,270.1,557.9,267.6,557.9z M267.6,565c-1.2,0-2.4-1-2.4-2.4s1-2.4,2.4-2.4c1.4,0,2.4,1,2.4,2.4S268.8,565,267.6,565z"/>
<circle fill="#1D1D1B" cx="267.6" cy="562.7" r="2.4"/>
<path id="C_P8" fill="#EFDA48" d="M283.8,557.9c-2.7,0-4.9,2.2-4.9,4.9s2.2,4.9,4.9,4.9c2.7,0,4.9-2.2,4.9-4.9
	C288.7,560.1,286.5,557.9,283.8,557.9z M283.8,565c-1.2,0-2.4-1-2.4-2.4s1-2.4,2.4-2.4c1.2,0,2.4,1,2.4,2.4S285.1,565,283.8,565z"/>
<circle fill="#1D1D1B" cx="283.8" cy="562.7" r="2.4"/>
<path id="C_GND2" fill="#EFDA48" d="M300.1,557.9c-2.7,0-4.9,2.2-4.9,4.9s2.2,4.9,4.9,4.9c2.7,0,4.9-2.2,4.9-4.9
	C305,560.1,302.8,557.9,300.1,557.9z M300.1,565c-1.2,0-2.4-1-2.4-2.4s1-2.4,2.4-2.4c1.2,0,2.4,1,2.4,2.4S301.5,565,300.1,565z"/>
<circle fill="#1D1D1B" cx="300.1" cy="562.7" r="2.4"/>
<path id="C_P10" fill="#EFDA48" d="M316.5,557.9c-2.7,0-4.9,2.2-4.9,4.9s2.2,4.9,4.9,4.9s4.9-2.2,4.9-4.9
	C321.4,560.1,319.2,557.9,316.5,557.9z M316.5,565c-1.2,0-2.4-1-2.4-2.4s1-2.4,2.4-2.4c1.2,0,2.4,1,2.4,2.4S317.7,565,316.5,565z"/>
<circle fill="#1D1D1B" cx="316.5" cy="562.7" r="2.4"/>
<path id="C_P12" fill="#EFDA48" d="M332.8,557.9c-2.7,0-4.9,2.2-4.9,4.9s2.2,4.9,4.9,4.9c2.7,0,4.9-2.2,4.9-4.9
	C337.6,560.1,335.5,557.9,332.8,557.9z M332.8,565c-1.2,0-2.4-1-2.4-2.4s1-2.4,2.4-2.4c1.2,0,2.4,1,2.4,2.4S334,565,332.8,565z"/>
<circle fill="#1D1D1B" cx="332.8" cy="562.7" r="2.4"/>
<path id="C_P14" fill="#EFDA48" d="M349.2,557.9c-2.7,0-4.9,2.2-4.9,4.9s2.2,4.9,4.9,4.9s4.9-2.2,4.9-4.9
	C353.9,560.1,351.7,557.9,349.2,557.9z M349.2,565c-1.2,0-2.4-1-2.4-2.4s1-2.4,2.4-2.4c1.2,0,2.4,1,2.4,2.4S350.4,565,349.2,565z"/>
<circle fill="#1D1D1B" cx="349.2" cy="562.7" r="2.4"/>
<path id="C_P16" fill="#EFDA48" d="M365.3,557.9c-2.7,0-4.9,2.2-4.9,4.9s2.2,4.9,4.9,4.9c2.7,0,4.9-2.2,4.9-4.9
	C370.3,560.1,368.1,557.9,365.3,557.9z M365.3,565c-1.2,0-2.4-1-2.4-2.4s1-2.4,2.4-2.4c1.2,0,2.4,1,2.4,2.4S366.7,565,365.3,565z"/>
<circle fill="#1D1D1B" cx="365.3" cy="562.7" r="2.4"/>
<path id="C_P18" fill="#EFDA48" d="M381.7,557.9c-2.7,0-4.9,2.2-4.9,4.9s2.2,4.9,4.9,4.9c2.7,0,4.9-2.2,4.9-4.9
	C386.6,560.1,384.4,557.9,381.7,557.9z M381.7,565c-1.2,0-2.4-1-2.4-2.4s1-2.4,2.4-2.4c1.2,0,2.4,1,2.4,2.4S383.1,565,381.7,565z"/>
<circle fill="#1D1D1B" cx="381.7" cy="562.7" r="2.4"/>
<path id="C_VCC1" fill="#EFDA48" d="M398,557.9c-2.7,0-4.9,2.2-4.9,4.9s2.2,4.9,4.9,4.9c2.7,0,4.9-2.2,4.9-4.9
	C402.8,560.1,400.8,557.9,398,557.9z M398,565c-1.2,0-2.4-1-2.4-2.4s1-2.4,2.4-2.4c1.2,0,2.4,1,2.4,2.4S399.2,565,398,565z"/>
<circle fill="#1D1D1B" cx="398" cy="562.7" r="2.4"/>
<path id="C_VCC2" fill="#EFDA48" d="M202.3,541.5c-2.7,0-4.9,2.2-4.9,4.9s2.2,4.9,4.9,4.9s4.9-2.2,4.9-4.9S204.9,541.5,202.3,541.5z
	 M202.3,548.7c-1.2,0-2.4-1-2.4-2.4c0-1.2,1-2.4,2.4-2.4s2.4,1,2.4,2.4C204.6,547.7,203.5,548.7,202.3,548.7z"/>
<circle fill="#1D1D1B" cx="202.3" cy="546.3" r="2.4"/>
<path id="C_P1" fill="#EFDA48" d="M218.5,541.5c-2.7,0-4.9,2.2-4.9,4.9s2.2,4.9,4.9,4.9c2.7,0,4.9-2.2,4.9-4.9
	S221.2,541.5,218.5,541.5z M218.5,548.7c-1.2,0-2.4-1-2.4-2.4c0-1.2,1-2.4,2.4-2.4c1.2,0,2.4,1,2.4,2.4
	C220.9,547.7,219.9,548.7,218.5,548.7z"/>
<circle fill="#1D1D1B" cx="218.5" cy="546.3" r="2.4"/>
<path id="C_P3" fill="#EFDA48" d="M234.9,541.5c-2.7,0-4.9,2.2-4.9,4.9s2.2,4.9,4.9,4.9c2.7,0,4.9-2.2,4.9-4.9
	S237.6,541.5,234.9,541.5z M234.9,548.7c-1.2,0-2.4-1-2.4-2.4c0-1.2,1-2.4,2.4-2.4c1.2,0,2.4,1,2.4,2.4
	C237.3,547.7,236.2,548.7,234.9,548.7z"/>
<circle fill="#1D1D1B" cx="234.9" cy="546.3" r="2.4"/>
<path id="C_P5" fill="#EFDA48" d="M251.2,541.5c-2.7,0-4.9,2.2-4.9,4.9s2.2,4.9,4.9,4.9c2.7,0,4.9-2.2,4.9-4.9
	S254,541.5,251.2,541.5z M251.2,548.7c-1.2,0-2.4-1-2.4-2.4c0-1.2,1-2.4,2.4-2.4c1.2,0,2.4,1,2.4,2.4
	C253.4,547.7,252.4,548.7,251.2,548.7z"/>
<circle fill="#1D1D1B" cx="251.2" cy="546.3" r="2.4"/>
<path id="C_P7" fill="#EFDA48" d="M267.6,541.5c-2.7,0-4.9,2.2-4.9,4.9s2.2,4.9,4.9,4.9s4.9-2.2,4.9-4.9S270.1,541.5,267.6,541.5z
	 M267.6,548.7c-1.2,0-2.4-1-2.4-2.4c0-1.2,1-2.4,2.4-2.4c1.4,0,2.4,1,2.4,2.4C269.8,547.7,268.8,548.7,267.6,548.7z"/>
<circle fill="#1D1D1B" cx="267.6" cy="546.3" r="2.4"/>
<path id="C_P9" fill="#EFDA48" d="M283.8,541.5c-2.7,0-4.9,2.2-4.9,4.9s2.2,4.9,4.9,4.9c2.7,0,4.9-2.2,4.9-4.9
	S286.5,541.5,283.8,541.5z M283.8,548.7c-1.2,0-2.4-1-2.4-2.4c0-1.2,1-2.4,2.4-2.4c1.2,0,2.4,1,2.4,2.4
	C286.1,547.7,285.1,548.7,283.8,548.7z"/>
<circle fill="#1D1D1B" cx="283.8" cy="546.3" r="2.4"/>
<path id="C_GND3" fill="#EFDA48" d="M300.1,541.5c-2.7,0-4.9,2.2-4.9,4.9s2.2,4.9,4.9,4.9c2.7,0,4.9-2.2,4.9-4.9
	S302.8,541.5,300.1,541.5z M300.1,548.7c-1.2,0-2.4-1-2.4-2.4c0-1.2,1-2.4,2.4-2.4c1.2,0,2.4,1,2.4,2.4
	C302.5,547.7,301.5,548.7,300.1,548.7z"/>
<circle fill="#1D1D1B" cx="300.1" cy="546.3" r="2.4"/>
<path id="C_P11" fill="#EFDA48" d="M316.5,541.5c-2.7,0-4.9,2.2-4.9,4.9s2.2,4.9,4.9,4.9s4.9-2.2,4.9-4.9S319.2,541.5,316.5,541.5z
	 M316.5,548.7c-1.2,0-2.4-1-2.4-2.4c0-1.2,1-2.4,2.4-2.4c1.2,0,2.4,1,2.4,2.4C318.8,547.7,317.7,548.7,316.5,548.7z"/>
<circle fill="#1D1D1B" cx="316.5" cy="546.3" r="2.4"/>
<path id="C_P13" fill="#EFDA48" d="M332.8,541.5c-2.7,0-4.9,2.2-4.9,4.9s2.2,4.9,4.9,4.9c2.7,0,4.9-2.2,4.9-4.9
	S335.5,541.5,332.8,541.5z M332.8,548.7c-1.2,0-2.4-1-2.4-2.4c0-1.2,1-2.4,2.4-2.4c1.2,0,2.4,1,2.4,2.4
	C335,547.7,334,548.7,332.8,548.7z"/>
<circle fill="#1D1D1B" cx="332.8" cy="546.3" r="2.4"/>
<path id="C_P15" fill="#EFDA48" d="M349.2,541.5c-2.7,0-4.9,2.2-4.9,4.9s2.2,4.9,4.9,4.9s4.9-2.2,4.9-4.9S351.7,541.5,349.2,541.5z
	 M349.2,548.7c-1.2,0-2.4-1-2.4-2.4c0-1.2,1-2.4,2.4-2.4c1.2,0,2.4,1,2.4,2.4C351.4,547.7,350.4,548.7,349.2,548.7z"/>
<circle fill="#1D1D1B" cx="349.2" cy="546.3" r="2.4"/>
<path id="C_P17" fill="#EFDA48" d="M365.3,541.5c-2.7,0-4.9,2.2-4.9,4.9s2.2,4.9,4.9,4.9c2.7,0,4.9-2.2,4.9-4.9
	S368.1,541.5,365.3,541.5z M365.3,548.7c-1.2,0-2.4-1-2.4-2.4c0-1.2,1-2.4,2.4-2.4c1.2,0,2.4,1,2.4,2.4
	C367.7,547.7,366.7,548.7,365.3,548.7z"/>
<circle fill="#1D1D1B" cx="365.3" cy="546.3" r="2.4"/>
<path id="C_P19" fill="#EFDA48" d="M381.7,541.5c-2.7,0-4.9,2.2-4.9,4.9s2.2,4.9,4.9,4.9c2.7,0,4.9-2.2,4.9-4.9
	S384.4,541.5,381.7,541.5z M381.7,548.7c-1.2,0-2.4-1-2.4-2.4c0-1.2,1-2.4,2.4-2.4c1.2,0,2.4,1,2.4,2.4
	C384.1,547.7,383.1,548.7,381.7,548.7z"/>
<circle fill="#1D1D1B" cx="381.7" cy="546.3" r="2.4"/>
<path id="C_GND4" fill="#EFDA48" d="M398,541.5c-2.7,0-4.9,2.2-4.9,4.9s2.2,4.9,4.9,4.9c2.7,0,4.9-2.2,4.9-4.9
	S400.8,541.5,398,541.5z M398,548.7c-1.2,0-2.4-1-2.4-2.4c0-1.2,1-2.4,2.4-2.4c1.2,0,2.4,1,2.4,2.4
	C400.3,547.7,399.2,548.7,398,548.7z"/>
<circle fill="#1D1D1B" cx="398" cy="546.3" r="2.4"/>
<path id="M_GND1" fill="#EFDA48" d="M267.6,510.2c-2.7,0-4.9,2.2-4.9,4.9s2.2,4.9,4.9,4.9s4.9-2.2,4.9-4.9S270.1,510.2,267.6,510.2z
	 M267.6,517.4c-1.2,0-2.4-1-2.4-2.4s1-2.4,2.4-2.4c1.4,0,2.4,1,2.4,2.4S268.8,517.4,267.6,517.4z"/>
<circle fill="#1D1D1B" cx="267.6" cy="515" r="2.4"/>
<path id="M_OUT1" fill="#EFDA48" d="M283.8,510.2c-2.7,0-4.9,2.2-4.9,4.9s2.2,4.9,4.9,4.9c2.7,0,4.9-2.2,4.9-4.9
	S286.5,510.2,283.8,510.2z M283.8,517.4c-1.2,0-2.4-1-2.4-2.4s1-2.4,2.4-2.4c1.2,0,2.4,1,2.4,2.4S285.1,517.4,283.8,517.4z"/>
<circle fill="#1D1D1B" cx="283.8" cy="515" r="2.4"/>
<path id="M_OUT2" fill="#EFDA48" d="M300.1,510.2c-2.7,0-4.9,2.2-4.9,4.9s2.2,4.9,4.9,4.9c2.7,0,4.9-2.2,4.9-4.9
	S302.8,510.2,300.1,510.2z M300.1,517.4c-1.2,0-2.4-1-2.4-2.4s1-2.4,2.4-2.4c1.2,0,2.4,1,2.4,2.4S301.5,517.4,300.1,517.4z"/>
<circle fill="#1D1D1B" cx="300.1" cy="515" r="2.4"/>
<path id="M_GND2" fill="#EFDA48" d="M316.5,510.2c-2.7,0-4.9,2.2-4.9,4.9s2.2,4.9,4.9,4.9s4.9-2.2,4.9-4.9S319.2,510.2,316.5,510.2z
	 M316.5,517.4c-1.2,0-2.4-1-2.4-2.4s1-2.4,2.4-2.4c1.2,0,2.4,1,2.4,2.4S317.7,517.4,316.5,517.4z"/>
<circle fill="#1D1D1B" cx="316.5" cy="515" r="2.4"/>
<path id="M_VM" fill="#EFDA48" d="M332.8,510.2c-2.7,0-4.9,2.2-4.9,4.9s2.2,4.9,4.9,4.9c2.7,0,4.9-2.2,4.9-4.9
	S335.5,510.2,332.8,510.2z M332.8,517.4c-1.2,0-2.4-1-2.4-2.4s1-2.4,2.4-2.4c1.2,0,2.4,1,2.4,2.4S334,517.4,332.8,517.4z"/>
<circle fill="#1D1D1B" cx="332.8" cy="515" r="2.4"/>
<path id="EDGE_P0" fill="#EFDA48" d="M53.1,363.6c-17.4,0-31.5,14.1-31.5,31.5c0,17.4,14.1,31.5,31.5,31.5s31.5-14.1,31.5-31.5
	C84.7,377.5,70.5,363.6,53.1,363.6z M53.1,409.9c-8.2,0-15-6.6-15-15c0-8.2,6.6-15,15-15s15,6.6,15,15S61.5,409.9,53.1,409.9z"/>
<path id="EDGE_VCC" fill="#EFDA48" d="M420.7,152.2c-17.4,0-31.5,14.1-31.5,31.5s14.1,31.5,31.5,31.5c17.4,0,31.5-14.1,31.5-31.5
	S438,152.2,420.7,152.2z M420.7,198.5c-8.2,0-15-6.6-15-15s6.6-15,15-15s15,6.6,15,15S428.9,198.5,420.7,198.5z"/>
<path id="EDGE_P3" fill="#EFDA48" d="M542.5,364.6c-17.4,0-31.5,14.1-31.5,31.5c0,17.4,14.1,31.5,31.5,31.5s31.5-14.1,31.5-31.5
	C574,378.7,559.8,364.6,542.5,364.6z M542.5,410.9c-8.2,0-15-6.6-15-15c0-8.2,6.6-15,15-15c8.2,0,15,6.6,15,15
	C557.4,404.3,550.8,410.9,542.5,410.9z"/>
<path id="EDGE_P2" fill="#EFDA48" d="M420.7,575.6c-17.4,0-31.5,14.1-31.5,31.5s14.1,31.5,31.5,31.5c17.4,0,31.5-14.1,31.5-31.5
	C452,589.7,437.9,575.6,420.7,575.6z M420.7,622.1c-8.2,0-15-6.6-15-15c0-8.2,6.6-15,15-15c8.2,0,15,6.6,15,15
	C435.5,615.3,428.9,622.1,420.7,622.1z"/>
<path id="EDGE_P1" fill="#EFDA48" d="M176.1,576.8c-17.4,0-31.5,14.1-31.5,31.5s14.1,31.5,31.5,31.5s31.5-14.1,31.5-31.5
	C207.6,590.9,193.5,576.8,176.1,576.8z M176.1,623.3c-8.2,0-15-6.6-15-15s6.6-15,15-15s15,6.6,15,15S184.5,623.3,176.1,623.3z"/>
<path id="EDGE_GND" fill="#EFDA48" d="M175.1,151.4c-17.4,0-31.5,14.1-31.5,31.5s14.1,31.5,31.5,31.5s31.5-14.1,31.5-31.5
	S192.5,151.4,175.1,151.4z M175.1,197.8c-8.3,0-15-6.8-15-15s6.6-15,15-15c8.3,0,15,6.6,15,15S183.3,197.8,175.1,197.8z"/>
<circle fill="#FFFFFF" cx="542.5" cy="396.1" r="15"/>
<circle fill="#FFFFFF" cx="420.7" cy="183.7" r="15"/>
<circle fill="#FFFFFF" cx="175.1" cy="182.9" r="15"/>
<circle fill="#FFFFFF" cx="53.1" cy="394.9" r="15"/>
<circle fill="#FFFFFF" cx="176.1" cy="608.3" r="15"/>
<circle fill="#FFFFFF" cx="420.7" cy="607.1" r="15"/>
<rect id="LED_0_0" x="245.9" y="281.8" fill="#FFFFFF" width="4.9" height="12.4"/>
<rect id="LED_1_0" x="270.8" y="281.8" fill="#FFFFFF" width="4.9" height="12.4"/>
<rect id="LED_2_0" x="295.5" y="281.8" fill="#FFFFFF" width="4.9" height="12.4"/>
<rect id="LED_3_0" x="320.4" y="281.8" fill="#FFFFFF" width="4.9" height="12.4"/>
<rect id="LED_4_0" x="345.2" y="281.8" fill="#FFFFFF" width="4.9" height="12.4"/>
<rect id="LED_0_1" x="245.9" y="306.2" fill="#FFFFFF" width="4.9" height="12.4"/>
<rect id="LED_1_1" x="270.8" y="306.2" fill="#FFFFFF" width="4.9" height="12.4"/>
<rect id="LED_2_1" x="295.5" y="306.2" fill="#FFFFFF" width="4.9" height="12.4"/>
<rect id="LED_3_1" x="320.4" y="306.2" fill="#FFFFFF" width="4.9" height="12.4"/>
<rect id="LED_4_1" x="345.2" y="306.2" fill="#FFFFFF" width="4.9" height="12.4"/>
<rect id="LED_0_2" x="245.9" y="330.5" fill="#FFFFFF" width="4.9" height="12.4"/>
<rect id="LED_1_2" x="270.8" y="330.5" fill="#FFFFFF" width="4.9" height="12.4"/>
<rect id="LED_2_2" x="295.5" y="330.5" fill="#FFFFFF" width="4.9" height="12.4"/>
<rect id="LED_3_2" x="320.4" y="330.5" fill="#FFFFFF" width="4.9" height="12.4"/>
<rect id="LED_4_2" x="345.2" y="330.5" fill="#FFFFFF" width="4.9" height="12.4"/>
<rect id="LED_0_3" x="245.9" y="354.9" fill="#FFFFFF" width="4.9" height="12.4"/>
<rect id="LED_1_3" x="270.8" y="354.9" fill="#FFFFFF" width="4.9" height="12.4"/>
<rect id="LED_2_3" x="295.5" y="354.9" fill="#FFFFFF" width="4.9" height="12.4"/>
<rect id="LED_3_3" x="320.4" y="354.9" fill="#FFFFFF" width="4.9" height="12.4"/>
<rect id="LED_4_3" x="345.2" y="354.9" fill="#FFFFFF" width="4.9" height="12.4"/>
<rect id="LED_0_4" x="245.9" y="379.1" fill="#FFFFFF" width="4.9" height="12.4"/>
<rect id="LED_1_4" x="270.8" y="379.1" fill="#FFFFFF" width="4.9" height="12.4"/>
<rect id="LED_2_4" x="295.5" y="379.1" fill="#FFFFFF" width="4.9" height="12.4"/>
<rect id="LED_3_4" x="320.4" y="379.1" fill="#FFFFFF" width="4.9" height="12.4"/>
<rect id="LED_4_4" x="345.2" y="379.1" fill="#FFFFFF" width="4.9" height="12.4"/>
<rect id="rgbled" x="287.8" y="440.2" fill="#FFFFFF" width="24.4" height="23.7"/>
<circle fill="#BDD1CF" cx="299.9" cy="452.1" r="9.2"/>
<rect id="SPKR" x="435.2" y="395.9" transform="matrix(-0.9332 -0.3593 0.3593 -0.9332 742.0744 984.3658)" fill="#1D1D1B" width="54.7" height="54.7"/>
<polygon fill="#EFDA48" points="382.4,316 382.4,305.6 401,305.6 401,316 "/>
<path id="M_GND1_2_" fill="#1D1D1B" d="M387.3,308.5c-0.9,0-1.7,0.7-1.7,1.7s0.7,1.7,1.7,1.7s1.7-0.7,1.7-1.7
	S388.2,308.5,387.3,308.5z"/>
<polygon fill="#FFFFFF" points="195.4,281.8 200.3,281.8 200.3,290.6 195.4,290.6 "/>
<path id="M_GND1_1_" fill="#BDD1CF" d="M199.6,286.2c0-0.9-0.8-1.7-1.7-1.7s-1.7,0.8-1.7,1.7c0,0.9,0.8,1.7,1.7,1.7
	S199.6,287.1,199.6,286.2z"/>
<use xlink:href="#calliope_mini_backside"  width="-32766" height="-32766" id="XMLID_3_" x="16383" y="16383" transform="matrix(1.8539 0 0 -1.8539 298.3123 395.1657)" overflow="visible"/>
</svg>
