<?xml version="1.0" encoding="UTF-8" standalone="no"?>
<!-- Generator: Adobe Illustrator 18.0.0, SVG Export Plug-In . SVG Version: 6.00 Build 0)  -->

<svg
   xmlns:dc="http://purl.org/dc/elements/1.1/"
   xmlns:cc="http://creativecommons.org/ns#"
   xmlns:rdf="http://www.w3.org/1999/02/22-rdf-syntax-ns#"
   xmlns:svg="http://www.w3.org/2000/svg"
   xmlns="http://www.w3.org/2000/svg"
   xmlns:xlink="http://www.w3.org/1999/xlink"
   xmlns:sodipodi="http://sodipodi.sourceforge.net/DTD/sodipodi-0.dtd"
   xmlns:inkscape="http://www.inkscape.org/namespaces/inkscape"
   version="1.1"
   x="0px"
   y="0px"
   viewBox="0 0 340.2 311.8"
   enable-background="new 0 0 340.2 311.8"
   xml:space="preserve"
   id="svg2"
   inkscape:version="0.91 r13725"
   sodipodi:docname="calliope.simplified.svg"><metadata
     id="metadata945"><rdf:RDF><cc:Work
         rdf:about=""><dc:format>image/svg+xml</dc:format><dc:type
           rdf:resource="http://purl.org/dc/dcmitype/StillImage" /><dc:title></dc:title></cc:Work></rdf:RDF></metadata><defs
     id="defs943" /><sodipodi:namedview
     pagecolor="#ffffff"
     bordercolor="#666666"
     borderopacity="1"
     objecttolerance="10"
     gridtolerance="10"
     guidetolerance="10"
     inkscape:pageopacity="0"
     inkscape:pageshadow="2"
     inkscape:window-width="1920"
     inkscape:window-height="1137"
     id="namedview941"
     showgrid="false"
     inkscape:zoom="3.0275819"
     inkscape:cx="131.29885"
     inkscape:cy="162.10198"
     inkscape:window-x="-8"
     inkscape:window-y="156"
     inkscape:window-maximized="1"
     inkscape:current-layer="svg2" /><symbol
     id="Mini_front"
     viewBox="-122.3 -112.9 244.6 225.8"><g
       id="g5"><use
         xlink:href="#calliope_mini_backside"
         width="298.9"
         height="263.3"
         id="XMLID_3_"
         x="-150.5"
         y="-131.7"
         transform="matrix(0.8169 0 0 0.8169 0.6672 -5.3582)"
         overflow="visible" /><g
         id="holes_3_"><g
           id="g9"><g
             id="g11"><path
               d="M-42.4-78.2c-1.2,0-2.1-1-2.1-2.1s1-2.1,2.1-2.1s2.1,1,2.1,2.1S-41.3-78.2-42.4-78.2z M-42.4-81.4       c-0.6,0-1,0.5-1,1c0,0.6,0.5,1,1,1c0.6,0,1-0.5,1-1C-41.4-80.9-41.9-81.4-42.4-81.4z"
               id="path13"
               fill="#EFDA48" /><path
               d="M-42.4-81.4c-0.6,0-1,0.5-1,1c0,0.6,0.5,1,1,1c0.6,0,1-0.5,1-1C-41.4-80.9-41.9-81.4-42.4-81.4z"
               id="path15" /></g><g
             id="g17"><path
               d="M-35.2-78.2c-1.2,0-2.1-1-2.1-2.1s1-2.1,2.1-2.1c1.2,0,2.1,1,2.1,2.1S-34.1-78.2-35.2-78.2z        M-35.2-81.4c-0.6,0-1,0.5-1,1c0,0.6,0.5,1,1,1c0.6,0,1-0.5,1-1C-34.2-80.9-34.7-81.4-35.2-81.4z"
               id="path19"
               fill="#EFDA48" /><path
               d="M-35.2-81.4c-0.6,0-1,0.5-1,1c0,0.6,0.5,1,1,1c0.6,0,1-0.5,1-1C-34.2-80.9-34.7-81.4-35.2-81.4z"
               id="path21" /></g><g
             id="g23"><path
               d="M-28-78.2c-1.2,0-2.1-1-2.1-2.1s1-2.1,2.1-2.1c1.2,0,2.1,1,2.1,2.1S-26.9-78.2-28-78.2z M-28-81.4       c-0.6,0-1,0.5-1,1c0,0.6,0.5,1,1,1s1-0.5,1-1C-27-80.9-27.5-81.4-28-81.4z"
               id="path25"
               fill="#EFDA48" /><path
               d="M-28-81.4c-0.6,0-1,0.5-1,1c0,0.6,0.5,1,1,1s1-0.5,1-1C-27-80.9-27.5-81.4-28-81.4z"
               id="path27" /></g><g
             id="g29"><path
               d="M-20.9-78.2c-1.2,0-2.1-1-2.1-2.1s1-2.1,2.1-2.1c1.2,0,2.1,1,2.1,2.1S-19.7-78.2-20.9-78.2z        M-20.9-81.4c-0.6,0-1,0.5-1,1c0,0.6,0.5,1,1,1s1-0.5,1-1C-19.8-80.9-20.3-81.4-20.9-81.4z"
               id="path31"
               fill="#EFDA48" /><path
               d="M-20.9-81.4c-0.6,0-1,0.5-1,1c0,0.6,0.5,1,1,1s1-0.5,1-1C-19.8-80.9-20.3-81.4-20.9-81.4z"
               id="path33" /></g><g
             id="g35"><path
               d="M-13.7-78.2c-1.2,0-2.1-1-2.1-2.1s1-2.1,2.1-2.1s2.1,1,2.1,2.1S-12.5-78.2-13.7-78.2z M-13.7-81.4       c-0.6,0-1,0.5-1,1c0,0.6,0.5,1,1,1s1-0.5,1-1C-12.6-80.9-13.1-81.4-13.7-81.4z"
               id="path37"
               fill="#EFDA48" /><path
               d="M-13.7-81.4c-0.6,0-1,0.5-1,1c0,0.6,0.5,1,1,1s1-0.5,1-1C-12.6-80.9-13.1-81.4-13.7-81.4z"
               id="path39" /></g><g
             id="g41"><path
               d="M-6.5-78.2c-1.2,0-2.1-1-2.1-2.1s1-2.1,2.1-2.1s2.1,1,2.1,2.1S-5.3-78.2-6.5-78.2z M-6.5-81.4       c-0.6,0-1,0.5-1,1c0,0.6,0.5,1,1,1s1-0.5,1-1C-5.4-80.9-5.9-81.4-6.5-81.4z"
               id="path43"
               fill="#EFDA48" /><path
               d="M-6.5-81.4c-0.6,0-1,0.5-1,1c0,0.6,0.5,1,1,1s1-0.5,1-1C-5.4-80.9-5.9-81.4-6.5-81.4z"
               id="path45" /></g><g
             id="g47"><path
               d="M0.7-78.2c-1.2,0-2.1-1-2.1-2.1s1-2.1,2.1-2.1s2.1,1,2.1,2.1S1.9-78.2,0.7-78.2z M0.7-81.4       c-0.6,0-1,0.5-1,1c0,0.6,0.5,1,1,1s1-0.5,1-1C1.8-80.9,1.3-81.4,0.7-81.4z"
               id="path49"
               fill="#EFDA48" /><path
               d="M0.7-81.4c-0.6,0-1,0.5-1,1c0,0.6,0.5,1,1,1s1-0.5,1-1C1.8-80.9,1.3-81.4,0.7-81.4z"
               id="path51" /></g><g
             id="g53"><path
               d="M7.9-78.2c-1.2,0-2.1-1-2.1-2.1s1-2.1,2.1-2.1s2.1,1,2.1,2.1S9.1-78.2,7.9-78.2z M7.9-81.4       c-0.6,0-1,0.5-1,1c0,0.6,0.5,1,1,1s1-0.5,1-1C8.9-80.9,8.5-81.4,7.9-81.4z"
               id="path55"
               fill="#EFDA48" /><path
               d="M7.9-81.4c-0.6,0-1,0.5-1,1c0,0.6,0.5,1,1,1s1-0.5,1-1C8.9-80.9,8.5-81.4,7.9-81.4z"
               id="path57" /></g><g
             id="g59"><path
               d="M15.1-78.2c-1.2,0-2.1-1-2.1-2.1s1-2.1,2.1-2.1s2.1,1,2.1,2.1S16.3-78.2,15.1-78.2z M15.1-81.4       c-0.6,0-1,0.5-1,1c0,0.6,0.5,1,1,1c0.6,0,1-0.5,1-1C16.1-80.9,15.7-81.4,15.1-81.4z"
               id="path61"
               fill="#EFDA48" /><path
               d="M15.1-81.4c-0.6,0-1,0.5-1,1c0,0.6,0.5,1,1,1c0.6,0,1-0.5,1-1C16.1-80.9,15.7-81.4,15.1-81.4z"
               id="path63" /></g><g
             id="g65"><path
               d="M22.3-78.2c-1.2,0-2.1-1-2.1-2.1s1-2.1,2.1-2.1c1.2,0,2.1,1,2.1,2.1S23.5-78.2,22.3-78.2z M22.3-81.4       c-0.6,0-1,0.5-1,1c0,0.6,0.5,1,1,1s1-0.5,1-1C23.3-80.9,22.9-81.4,22.3-81.4z"
               id="path67"
               fill="#EFDA48" /><path
               d="M22.3-81.4c-0.6,0-1,0.5-1,1c0,0.6,0.5,1,1,1s1-0.5,1-1C23.3-80.9,22.9-81.4,22.3-81.4z"
               id="path69" /></g><g
             id="g71"><path
               d="M29.5-78.2c-1.2,0-2.1-1-2.1-2.1s1-2.1,2.1-2.1c1.2,0,2.1,1,2.1,2.1S30.7-78.2,29.5-78.2z M29.5-81.4       c-0.6,0-1,0.5-1,1c0,0.6,0.5,1,1,1s1-0.5,1-1C30.5-80.9,30.1-81.4,29.5-81.4z"
               id="path73"
               fill="#EFDA48" /><path
               d="M29.5-81.4c-0.6,0-1,0.5-1,1c0,0.6,0.5,1,1,1s1-0.5,1-1C30.5-80.9,30.1-81.4,29.5-81.4z"
               id="path75" /></g><g
             id="g77"><path
               d="M36.7-78.2c-1.2,0-2.1-1-2.1-2.1s1-2.1,2.1-2.1c1.2,0,2.1,1,2.1,2.1S37.9-78.2,36.7-78.2z M36.7-81.4       c-0.6,0-1,0.5-1,1c0,0.6,0.5,1,1,1c0.6,0,1-0.5,1-1C37.7-80.9,37.3-81.4,36.7-81.4z"
               id="path79"
               fill="#EFDA48" /><path
               d="M36.7-81.4c-0.6,0-1,0.5-1,1c0,0.6,0.5,1,1,1c0.6,0,1-0.5,1-1C37.7-80.9,37.3-81.4,36.7-81.4z"
               id="path81" /></g><g
             id="g83"><path
               d="M43.9-78.2c-1.2,0-2.1-1-2.1-2.1s1-2.1,2.1-2.1c1.2,0,2.1,1,2.1,2.1S45.1-78.2,43.9-78.2z M43.9-81.4       c-0.6,0-1,0.5-1,1c0,0.6,0.5,1,1,1c0.6,0,1-0.5,1-1C44.9-80.9,44.5-81.4,43.9-81.4z"
               id="path85"
               fill="#EFDA48" /><path
               d="M43.9-81.4c-0.6,0-1,0.5-1,1c0,0.6,0.5,1,1,1c0.6,0,1-0.5,1-1C44.9-80.9,44.5-81.4,43.9-81.4z"
               id="path87" /></g></g><g
           id="g89"><g
             id="g91"><path
               d="M-42.4-71c-1.2,0-2.1-1-2.1-2.1c0-1.2,1-2.1,2.1-2.1s2.1,1,2.1,2.1C-40.3-71.9-41.3-71-42.4-71z        M-42.4-74.1c-0.6,0-1,0.5-1,1c0,0.6,0.5,1,1,1c0.6,0,1-0.5,1-1C-41.4-73.7-41.9-74.1-42.4-74.1z"
               id="path93"
               fill="#EFDA48" /><path
               d="M-42.4-74.1c-0.6,0-1,0.5-1,1c0,0.6,0.5,1,1,1c0.6,0,1-0.5,1-1C-41.4-73.7-41.9-74.1-42.4-74.1z"
               id="path95" /></g><g
             id="g97"><path
               d="M-35.2-71c-1.2,0-2.1-1-2.1-2.1c0-1.2,1-2.1,2.1-2.1c1.2,0,2.1,1,2.1,2.1C-33.1-71.9-34.1-71-35.2-71z        M-35.2-74.1c-0.6,0-1,0.5-1,1c0,0.6,0.5,1,1,1c0.6,0,1-0.5,1-1C-34.2-73.7-34.7-74.1-35.2-74.1z"
               id="path99"
               fill="#EFDA48" /><path
               d="M-35.2-74.1c-0.6,0-1,0.5-1,1c0,0.6,0.5,1,1,1c0.6,0,1-0.5,1-1C-34.2-73.7-34.7-74.1-35.2-74.1z"
               id="path101" /></g><g
             id="g103"><path
               d="M-28-71c-1.2,0-2.1-1-2.1-2.1c0-1.2,1-2.1,2.1-2.1c1.2,0,2.1,1,2.1,2.1C-25.9-71.9-26.9-71-28-71z        M-28-74.1c-0.6,0-1,0.5-1,1c0,0.6,0.5,1,1,1s1-0.5,1-1C-27-73.7-27.5-74.1-28-74.1z"
               id="path105"
               fill="#EFDA48" /><path
               d="M-28-74.1c-0.6,0-1,0.5-1,1c0,0.6,0.5,1,1,1s1-0.5,1-1C-27-73.7-27.5-74.1-28-74.1z"
               id="path107" /></g><g
             id="g109"><path
               d="M-20.9-71c-1.2,0-2.1-1-2.1-2.1c0-1.2,1-2.1,2.1-2.1c1.2,0,2.1,1,2.1,2.1C-18.7-71.9-19.7-71-20.9-71z        M-20.9-74.1c-0.6,0-1,0.5-1,1c0,0.6,0.5,1,1,1s1-0.5,1-1C-19.8-73.7-20.3-74.1-20.9-74.1z"
               id="path111"
               fill="#EFDA48" /><path
               d="M-20.9-74.1c-0.6,0-1,0.5-1,1c0,0.6,0.5,1,1,1s1-0.5,1-1C-19.8-73.7-20.3-74.1-20.9-74.1z"
               id="path113" /></g><g
             id="g115"><path
               d="M-13.7-71c-1.2,0-2.1-1-2.1-2.1c0-1.2,1-2.1,2.1-2.1s2.1,1,2.1,2.1C-11.5-71.9-12.5-71-13.7-71z        M-13.7-74.1c-0.6,0-1,0.5-1,1c0,0.6,0.5,1,1,1s1-0.5,1-1C-12.6-73.7-13.1-74.1-13.7-74.1z"
               id="path117"
               fill="#EFDA48" /><path
               d="M-13.7-74.1c-0.6,0-1,0.5-1,1c0,0.6,0.5,1,1,1s1-0.5,1-1C-12.6-73.7-13.1-74.1-13.7-74.1z"
               id="path119" /></g><g
             id="g121"><path
               d="M-6.5-71c-1.2,0-2.1-1-2.1-2.1c0-1.2,1-2.1,2.1-2.1s2.1,1,2.1,2.1C-4.3-71.9-5.3-71-6.5-71z M-6.5-74.1       c-0.6,0-1,0.5-1,1c0,0.6,0.5,1,1,1s1-0.5,1-1C-5.4-73.7-5.9-74.1-6.5-74.1z"
               id="path123"
               fill="#EFDA48" /><path
               d="M-6.5-74.1c-0.6,0-1,0.5-1,1c0,0.6,0.5,1,1,1s1-0.5,1-1C-5.4-73.7-5.9-74.1-6.5-74.1z"
               id="path125" /></g><g
             id="g127"><path
               d="M0.7-71c-1.2,0-2.1-1-2.1-2.1c0-1.2,1-2.1,2.1-2.1s2.1,1,2.1,2.1C2.9-71.9,1.9-71,0.7-71z M0.7-74.1       c-0.6,0-1,0.5-1,1c0,0.6,0.5,1,1,1s1-0.5,1-1C1.8-73.7,1.3-74.1,0.7-74.1z"
               id="path129"
               fill="#EFDA48" /><path
               d="M0.7-74.1c-0.6,0-1,0.5-1,1c0,0.6,0.5,1,1,1s1-0.5,1-1C1.8-73.7,1.3-74.1,0.7-74.1z"
               id="path131" /></g><g
             id="g133"><path
               d="M7.9-71c-1.2,0-2.1-1-2.1-2.1c0-1.2,1-2.1,2.1-2.1s2.1,1,2.1,2.1C10.1-71.9,9.1-71,7.9-71z M7.9-74.1       c-0.6,0-1,0.5-1,1c0,0.6,0.5,1,1,1s1-0.5,1-1C8.9-73.7,8.5-74.1,7.9-74.1z"
               id="path135"
               fill="#EFDA48" /><path
               d="M7.9-74.1c-0.6,0-1,0.5-1,1c0,0.6,0.5,1,1,1s1-0.5,1-1C8.9-73.7,8.5-74.1,7.9-74.1z"
               id="path137" /></g><g
             id="g139"><path
               d="M15.1-71c-1.2,0-2.1-1-2.1-2.1c0-1.2,1-2.1,2.1-2.1s2.1,1,2.1,2.1C17.3-71.9,16.3-71,15.1-71z        M15.1-74.1c-0.6,0-1,0.5-1,1c0,0.6,0.5,1,1,1c0.6,0,1-0.5,1-1C16.1-73.7,15.7-74.1,15.1-74.1z"
               id="path141"
               fill="#EFDA48" /><path
               d="M15.1-74.1c-0.6,0-1,0.5-1,1c0,0.6,0.5,1,1,1c0.6,0,1-0.5,1-1C16.1-73.7,15.7-74.1,15.1-74.1z"
               id="path143" /></g><g
             id="g145"><path
               d="M22.3-71c-1.2,0-2.1-1-2.1-2.1c0-1.2,1-2.1,2.1-2.1c1.2,0,2.1,1,2.1,2.1C24.5-71.9,23.5-71,22.3-71z        M22.3-74.1c-0.6,0-1,0.5-1,1c0,0.6,0.5,1,1,1s1-0.5,1-1C23.3-73.7,22.9-74.1,22.3-74.1z"
               id="path147"
               fill="#EFDA48" /><path
               d="M22.3-74.1c-0.6,0-1,0.5-1,1c0,0.6,0.5,1,1,1s1-0.5,1-1C23.3-73.7,22.9-74.1,22.3-74.1z"
               id="path149" /></g><g
             id="g151"><path
               d="M29.5-71c-1.2,0-2.1-1-2.1-2.1c0-1.2,1-2.1,2.1-2.1c1.2,0,2.1,1,2.1,2.1C31.7-71.9,30.7-71,29.5-71z        M29.5-74.1c-0.6,0-1,0.5-1,1c0,0.6,0.5,1,1,1s1-0.5,1-1C30.5-73.7,30.1-74.1,29.5-74.1z"
               id="path153"
               fill="#EFDA48" /><path
               d="M29.5-74.1c-0.6,0-1,0.5-1,1c0,0.6,0.5,1,1,1s1-0.5,1-1C30.5-73.7,30.1-74.1,29.5-74.1z"
               id="path155" /></g><g
             id="g157"><path
               d="M36.7-71c-1.2,0-2.1-1-2.1-2.1c0-1.2,1-2.1,2.1-2.1c1.2,0,2.1,1,2.1,2.1C38.9-71.9,37.9-71,36.7-71z        M36.7-74.1c-0.6,0-1,0.5-1,1c0,0.6,0.5,1,1,1c0.6,0,1-0.5,1-1C37.7-73.7,37.3-74.1,36.7-74.1z"
               id="path159"
               fill="#EFDA48" /><path
               d="M36.7-74.1c-0.6,0-1,0.5-1,1c0,0.6,0.5,1,1,1c0.6,0,1-0.5,1-1C37.7-73.7,37.3-74.1,36.7-74.1z"
               id="path161" /></g><g
             id="g163"><path
               d="M43.9-71c-1.2,0-2.1-1-2.1-2.1c0-1.2,1-2.1,2.1-2.1c1.2,0,2.1,1,2.1,2.1C46-71.9,45.1-71,43.9-71z        M43.9-74.1c-0.6,0-1,0.5-1,1c0,0.6,0.5,1,1,1c0.6,0,1-0.5,1-1C44.9-73.7,44.5-74.1,43.9-74.1z"
               id="path165"
               fill="#EFDA48" /><path
               d="M43.9-74.1c-0.6,0-1,0.5-1,1c0,0.6,0.5,1,1,1c0.6,0,1-0.5,1-1C44.9-73.7,44.5-74.1,43.9-74.1z"
               id="path167" /></g></g><g
           id="g169"><g
             id="g171"><path
               d="M-13.7-57.2c-1.2,0-2.1-1-2.1-2.1c0-1.2,1-2.1,2.1-2.1s2.1,1,2.1,2.1C-11.5-58.1-12.5-57.2-13.7-57.2z        M-13.7-60.3c-0.6,0-1,0.5-1,1c0,0.6,0.5,1,1,1s1-0.5,1-1C-12.6-59.9-13.1-60.3-13.7-60.3z"
               id="path173"
               fill="#EFDA48" /><path
               d="M-13.7-60.3c-0.6,0-1,0.5-1,1c0,0.6,0.5,1,1,1s1-0.5,1-1C-12.6-59.9-13.1-60.3-13.7-60.3z"
               id="path175" /></g><g
             id="g177"><path
               d="M-6.5-57.2c-1.2,0-2.1-1-2.1-2.1c0-1.2,1-2.1,2.1-2.1s2.1,1,2.1,2.1C-4.3-58.1-5.3-57.2-6.5-57.2z        M-6.5-60.3c-0.6,0-1,0.5-1,1c0,0.6,0.5,1,1,1s1-0.5,1-1C-5.4-59.9-5.9-60.3-6.5-60.3z"
               id="path179"
               fill="#EFDA48" /><path
               d="M-6.5-60.3c-0.6,0-1,0.5-1,1c0,0.6,0.5,1,1,1s1-0.5,1-1C-5.4-59.9-5.9-60.3-6.5-60.3z"
               id="path181" /></g><g
             id="g183"><path
               d="M0.7-57.2c-1.2,0-2.1-1-2.1-2.1c0-1.2,1-2.1,2.1-2.1s2.1,1,2.1,2.1C2.9-58.1,1.9-57.2,0.7-57.2z        M0.7-60.3c-0.6,0-1,0.5-1,1c0,0.6,0.5,1,1,1s1-0.5,1-1C1.8-59.9,1.3-60.3,0.7-60.3z"
               id="path185"
               fill="#EFDA48" /><path
               d="M0.7-60.3c-0.6,0-1,0.5-1,1c0,0.6,0.5,1,1,1s1-0.5,1-1C1.8-59.9,1.3-60.3,0.7-60.3z"
               id="path187" /></g><g
             id="g189"><path
               d="M7.9-57.2c-1.2,0-2.1-1-2.1-2.1c0-1.2,1-2.1,2.1-2.1s2.1,1,2.1,2.1C10.1-58.1,9.1-57.2,7.9-57.2z        M7.9-60.3c-0.6,0-1,0.5-1,1c0,0.6,0.5,1,1,1s1-0.5,1-1C8.9-59.9,8.5-60.3,7.9-60.3z"
               id="path191"
               fill="#EFDA48" /><path
               d="M7.9-60.3c-0.6,0-1,0.5-1,1c0,0.6,0.5,1,1,1s1-0.5,1-1C8.9-59.9,8.5-60.3,7.9-60.3z"
               id="path193" /></g><g
             id="g195"><path
               d="M15.1-57.2c-1.2,0-2.1-1-2.1-2.1c0-1.2,1-2.1,2.1-2.1s2.1,1,2.1,2.1C17.3-58.1,16.3-57.2,15.1-57.2z        M15.1-60.3c-0.6,0-1,0.5-1,1c0,0.6,0.5,1,1,1c0.6,0,1-0.5,1-1C16.1-59.9,15.7-60.3,15.1-60.3z"
               id="path197"
               fill="#EFDA48" /><path
               d="M15.1-60.3c-0.6,0-1,0.5-1,1c0,0.6,0.5,1,1,1c0.6,0,1-0.5,1-1C16.1-59.9,15.7-60.3,15.1-60.3z"
               id="path199" /></g></g><g
           id="g201"><g
             id="g203"><polygon
               points="80.6,17.6 77.6,20.5 80.6,23.5 83.5,20.5      "
               id="polygon205"
               fill="#EFDA48" /><path
               d="M79.9,19.8c-0.4,0.4-0.4,1,0,1.4c0.4,0.4,1,0.4,1.4,0s0.4-1,0-1.4C80.9,19.4,80.3,19.4,79.9,19.8z"
               id="path207" /></g><g
             id="g209"><path
               d="M86.3,18.1c-0.8,0.8-2.2,0.8-3,0c-0.8-0.8-0.8-2.2,0-3c0.8-0.8,2.2-0.8,3,0       C87.1,15.9,87.1,17.2,86.3,18.1z M84.1,15.8c-0.4,0.4-0.4,1,0,1.4s1,0.4,1.4,0s0.4-1,0-1.4S84.5,15.4,84.1,15.8z"
               id="path211"
               fill="#EFDA48" /><path
               d="M84.1,15.8c-0.4,0.4-0.4,1,0,1.4s1,0.4,1.4,0s0.4-1,0-1.4S84.5,15.4,84.1,15.8z"
               id="path213" /></g><g
             id="g215"><path
               d="M90.1,14.3c-0.8,0.8-2.2,0.8-3,0c-0.8-0.8-0.8-2.2,0-3s2.2-0.8,3,0C90.9,12.1,90.9,13.5,90.1,14.3z        M87.9,12.1c-0.4,0.4-0.4,1,0,1.4c0.4,0.4,1,0.4,1.4,0s0.4-1,0-1.4C88.9,11.7,88.3,11.7,87.9,12.1z"
               id="path217"
               fill="#EFDA48" /><path
               d="M87.9,12.1c-0.4,0.4-0.4,1,0,1.4c0.4,0.4,1,0.4,1.4,0s0.4-1,0-1.4C88.9,11.7,88.3,11.7,87.9,12.1z"
               id="path219" /></g><g
             id="g221"><path
               d="M94.4,10c-0.8,0.8-2.2,0.8-3,0c-0.8-0.8-0.8-2.2,0-3s2.2-0.8,3,0C95.3,7.8,95.3,9.2,94.4,10z M92.2,7.8       c-0.4,0.4-0.4,1,0,1.4c0.4,0.4,1,0.4,1.4,0s0.4-1,0-1.4C93.2,7.4,92.6,7.4,92.2,7.8z"
               id="path223"
               fill="#EFDA48" /><path
               d="M92.2,7.8c-0.4,0.4-0.4,1,0,1.4c0.4,0.4,1,0.4,1.4,0s0.4-1,0-1.4C93.2,7.4,92.6,7.4,92.2,7.8z"
               id="path225" /></g></g><g
           id="g227"><g
             id="g229"><polygon
               points="-88,8.6 -91,5.7 -94,8.6 -91,11.6      "
               id="polygon231"
               fill="#EFDA48" /><path
               d="M-90.3,8c-0.4-0.4-1-0.4-1.4,0c-0.4,0.4-0.4,1,0,1.4s1,0.4,1.4,0C-89.9,9-89.9,8.3-90.3,8z"
               id="path233" /></g><g
             id="g235"><path
               d="M-88.5,14.4c-0.8-0.8-0.8-2.2,0-3c0.8-0.8,2.2-0.8,3,0c0.8,0.8,0.8,2.2,0,3       C-86.3,15.2-87.7,15.2-88.5,14.4z M-86.3,12.2c-0.4-0.4-1-0.4-1.4,0c-0.4,0.4-0.4,1,0,1.4s1,0.4,1.4,0       C-85.9,13.2-85.9,12.5-86.3,12.2z"
               id="path237"
               fill="#EFDA48" /><path
               d="M-86.3,12.2c-0.4-0.4-1-0.4-1.4,0c-0.4,0.4-0.4,1,0,1.4s1,0.4,1.4,0C-85.9,13.2-85.9,12.5-86.3,12.2z"
               id="path239" /></g><g
             id="g241"><path
               d="M-84.8,18.2c-0.8-0.8-0.8-2.2,0-3c0.8-0.8,2.2-0.8,3,0c0.8,0.8,0.8,2.2,0,3C-82.6,19-84,19-84.8,18.2z        M-82.6,16c-0.4-0.4-1-0.4-1.4,0c-0.4,0.4-0.4,1,0,1.4s1,0.4,1.4,0C-82.2,17-82.2,16.4-82.6,16z"
               id="path243"
               fill="#EFDA48" /><path
               d="M-82.6,16c-0.4-0.4-1-0.4-1.4,0c-0.4,0.4-0.4,1,0,1.4s1,0.4,1.4,0C-82.2,17-82.2,16.4-82.6,16z"
               id="path245" /></g><g
             id="g247"><path
               d="M-80.5,22.5c-0.8-0.8-0.8-2.2,0-3c0.8-0.8,2.2-0.8,3,0c0.8,0.8,0.8,2.2,0,3       C-78.3,23.3-79.7,23.3-80.5,22.5z M-78.3,20.3c-0.4-0.4-1-0.4-1.4,0c-0.4,0.4-0.4,1,0,1.4s1,0.4,1.4,0       C-77.9,21.3-77.9,20.7-78.3,20.3z"
               id="path249"
               fill="#EFDA48" /><path
               d="M-78.3,20.3c-0.4-0.4-1-0.4-1.4,0c-0.4,0.4-0.4,1,0,1.4s1,0.4,1.4,0C-77.9,21.3-77.9,20.7-78.3,20.3z"
               id="path251" /></g></g><g
           id="g253"><path
             d="M-107.8,8.6c-7.7,0-13.9-6.2-13.9-13.9s6.2-13.9,13.9-13.9s13.9,6.2,13.9,13.9S-100.1,8.6-107.8,8.6z       M-107.8-12c-3.7,0-6.6,3-6.6,6.6s3,6.6,6.6,6.6c3.7,0,6.6-3,6.6-6.6S-104.1-12-107.8-12z"
             id="path255"
             fill="#EFDA48" /><path
             d="M54.8,102.3c-7.7,0-13.9-6.2-13.9-13.9s6.2-13.9,13.9-13.9s13.9,6.2,13.9,13.9S62.4,102.3,54.8,102.3z       M54.8,81.7c-3.7,0-6.6,3-6.6,6.6s3,6.6,6.6,6.6s6.6-3,6.6-6.6S58.4,81.7,54.8,81.7z"
             id="path257"
             fill="#EFDA48" /><path
             d="M108.4,8.6c-7.7,0-13.9-6.2-13.9-13.9s6.2-13.9,13.9-13.9s13.9,6.2,13.9,13.9S116.1,8.6,108.4,8.6z       M108.4-12c-3.7,0-6.6,3-6.6,6.6s3,6.6,6.6,6.6s6.6-3,6.6-6.6S112-12,108.4-12z"
             id="path259"
             fill="#EFDA48" /><path
             d="M54.8-84.2c-7.7,0-13.9-6.2-13.9-13.9S47.1-112,54.8-112s13.9,6.2,13.9,13.9S62.4-84.2,54.8-84.2z       M54.8-104.7c-3.7,0-6.6,3-6.6,6.6s3,6.6,6.6,6.6c3.7,0,6.6-3,6.6-6.6S58.4-104.7,54.8-104.7z"
             id="path261"
             fill="#EFDA48" /><path
             d="M-53.1-85C-60.8-85-67-91.2-67-98.9s6.2-13.9,13.9-13.9s13.9,6.2,13.9,13.9S-45.4-85-53.1-85z       M-53.1-105.5c-3.7,0-6.6,3-6.6,6.6c0,3.7,3,6.6,6.6,6.6s6.6-3,6.6-6.6C-46.5-102.6-49.4-105.5-53.1-105.5z"
             id="path263"
             fill="#EFDA48" /><path
             d="M-53.1,102.3c-7.7,0-13.9-6.2-13.9-13.9s6.2-13.9,13.9-13.9s13.9,6.2,13.9,13.9S-45.4,102.3-53.1,102.3z       M-53.1,81.7c-3.7,0-6.6,3-6.6,6.6s3,6.6,6.6,6.6c3.7,0,6.6-3,6.6-6.6S-49.4,81.7-53.1,81.7z"
             id="path265"
             fill="#EFDA48" /></g></g></g><g
       id="g273"><g
         id="g275"><polygon
           points="-20.9,36.6 -23,36.6 -23,42 -20.9,42    "
           id="polygon277"
           fill="#FFFFFF" /><polygon
           points="-9.9,36.6 -12.1,36.6 -12.1,42 -9.9,42    "
           id="polygon279"
           fill="#FFFFFF" /><polygon
           points="1,36.6 -1.1,36.6 -1.1,42 1,42    "
           id="polygon281"
           fill="#FFFFFF" /><polygon
           points="12,36.6 9.8,36.6 9.8,42 12,42    "
           id="polygon283"
           fill="#FFFFFF" /><polygon
           points="22.9,36.6 20.8,36.6 20.8,42 22.9,42    "
           id="polygon285"
           fill="#FFFFFF" /></g><g
         id="g287"><polygon
           points="-20.9,25.9 -23,25.9 -23,31.3 -20.9,31.3    "
           id="polygon289"
           fill="#FFFFFF" /><polygon
           points="-9.9,25.9 -12.1,25.9 -12.1,31.3 -9.9,31.3    "
           id="polygon291"
           fill="#FFFFFF" /><polygon
           points="1,25.9 -1.1,25.9 -1.1,31.3 1,31.3    "
           id="polygon293"
           fill="#FFFFFF" /><polygon
           points="12,25.9 9.8,25.9 9.8,31.3 12,31.3    "
           id="polygon295"
           fill="#FFFFFF" /><polygon
           points="22.9,25.9 20.8,25.9 20.8,31.3 22.9,31.3    "
           id="polygon297"
           fill="#FFFFFF" /></g><g
         id="g299"><polygon
           points="-20.9,15.1 -23,15.1 -23,20.6 -20.9,20.6    "
           id="polygon301"
           fill="#FFFFFF" /><polygon
           points="-9.9,15.1 -12.1,15.1 -12.1,20.6 -9.9,20.6    "
           id="polygon303"
           fill="#FFFFFF" /><polygon
           points="1,15.1 -1.1,15.1 -1.1,20.6 1,20.6    "
           id="polygon305"
           fill="#FFFFFF" /><polygon
           points="12,15.1 9.8,15.1 9.8,20.6 12,20.6    "
           id="polygon307"
           fill="#FFFFFF" /><polygon
           points="22.9,15.1 20.8,15.1 20.8,20.6 22.9,20.6    "
           id="polygon309"
           fill="#FFFFFF" /></g><g
         id="g311"><polygon
           points="-20.9,4.4 -23,4.4 -23,9.9 -20.9,9.9    "
           id="polygon313"
           fill="#FFFFFF" /><polygon
           points="-9.9,4.4 -12.1,4.4 -12.1,9.9 -9.9,9.9    "
           id="polygon315"
           fill="#FFFFFF" /><polygon
           points="1,4.4 -1.1,4.4 -1.1,9.9 1,9.9    "
           id="polygon317"
           fill="#FFFFFF" /><polygon
           points="12,4.4 9.8,4.4 9.8,9.9 12,9.9    "
           id="polygon319"
           fill="#FFFFFF" /><polygon
           points="22.9,4.4 20.8,4.4 20.8,9.9 22.9,9.9    "
           id="polygon321"
           fill="#FFFFFF" /></g><g
         id="g323"><polygon
           points="-20.9,-6.3 -23,-6.3 -23,-0.9 -20.9,-0.9    "
           id="polygon325"
           fill="#FFFFFF" /><polygon
           points="-9.9,-6.3 -12.1,-6.3 -12.1,-0.9 -9.9,-0.9    "
           id="polygon327"
           fill="#FFFFFF" /><polygon
           points="1,-6.3 -1.1,-6.3 -1.1,-0.9 1,-0.9    "
           id="polygon329"
           fill="#FFFFFF" /><polygon
           points="12,-6.3 9.8,-6.3 9.8,-0.9 12,-0.9    "
           id="polygon331"
           fill="#FFFFFF" /><polygon
           points="22.9,-6.3 20.8,-6.3 20.8,-0.9 22.9,-0.9    "
           id="polygon333"
           fill="#FFFFFF" /></g></g><g
       id="g335"><path
         d="M-61.4,47.4c0-0.9-0.7-1.6-1.6-1.6s-1.6,0.7-1.6,1.6s0.7,1.6,1.6,1.6S-61.4,48.3-61.4,47.4z"
         id="path337"
         fill="#EFDA48" /><path
         d="M-55.9,47.4c0-0.9-0.7-1.6-1.6-1.6s-1.6,0.7-1.6,1.6s0.7,1.6,1.6,1.6S-55.9,48.3-55.9,47.4z"
         id="path339"
         fill="#EFDA48" /><path
         d="M-50.4,47.4c0-0.9-0.7-1.6-1.6-1.6s-1.6,0.7-1.6,1.6s0.7,1.6,1.6,1.6S-50.4,48.3-50.4,47.4z"
         id="path341"
         fill="#EFDA48" /><path
         d="M-45,47.4c0-0.9-0.7-1.6-1.6-1.6c-0.9,0-1.6,0.7-1.6,1.6s0.7,1.6,1.6,1.6C-45.7,49.1-45,48.3-45,47.4z"
         id="path343"
         fill="#EFDA48" /><path
         d="M-39.5,47.4c0-0.9-0.7-1.6-1.6-1.6s-1.6,0.7-1.6,1.6s0.7,1.6,1.6,1.6S-39.5,48.3-39.5,47.4z"
         id="path345"
         fill="#EFDA48" /><path
         d="M-34.1,47.4c0-0.9-0.7-1.6-1.6-1.6s-1.6,0.7-1.6,1.6s0.7,1.6,1.6,1.6S-34.1,48.3-34.1,47.4z"
         id="path347"
         fill="#EFDA48" /></g><g
       id="g349"><path
         d="M-39.5,76.6c0-0.9-0.7-1.6-1.6-1.6s-1.6,0.7-1.6,1.6c0,0.9,0.7,1.6,1.6,1.6S-39.5,77.5-39.5,76.6z"
         id="path351"
         fill="#EFDA48" /><path
         d="M-34.1,76.6c0-0.9-0.7-1.6-1.6-1.6s-1.6,0.7-1.6,1.6c0,0.9,0.7,1.6,1.6,1.6S-34.1,77.5-34.1,76.6z"
         id="path353"
         fill="#EFDA48" /><path
         d="M-28.6,76.6c0-0.9-0.7-1.6-1.6-1.6s-1.6,0.7-1.6,1.6c0,0.9,0.7,1.6,1.6,1.6S-28.6,77.5-28.6,76.6z"
         id="path355"
         fill="#EFDA48" /><path
         d="M-23.1,76.6c0-0.9-0.7-1.6-1.6-1.6s-1.6,0.7-1.6,1.6c0,0.9,0.7,1.6,1.6,1.6S-23.1,77.5-23.1,76.6z"
         id="path357"
         fill="#EFDA48" /><path
         d="M-17.7,76.6c0-0.9-0.7-1.6-1.6-1.6s-1.6,0.7-1.6,1.6c0,0.9,0.7,1.6,1.6,1.6S-17.7,77.5-17.7,76.6z"
         id="path359"
         fill="#EFDA48" /><path
         d="M-17.7,68.3c0-0.9-0.7-1.6-1.6-1.6s-1.6,0.7-1.6,1.6c0,0.9,0.7,1.6,1.6,1.6S-17.7,69.1-17.7,68.3z"
         id="path361"
         fill="#EFDA48" /></g><g
       id="g363"><path
         d="M-0.1,47.4c0-0.9-0.7-1.6-1.6-1.6s-1.6,0.7-1.6,1.6s0.7,1.6,1.6,1.6S-0.1,48.3-0.1,47.4z"
         id="path365"
         fill="#EFDA48" /><path
         d="M5.4,47.4c0-0.9-0.7-1.6-1.6-1.6s-1.6,0.7-1.6,1.6s0.7,1.6,1.6,1.6S5.4,48.3,5.4,47.4z"
         id="path367"
         fill="#EFDA48" /></g><path
       d="M8.8,66.6H-8.8c-0.7,0-1.2,0.5-1.2,1.2v13.5c0,0.7,0.5,1.2,1.2,1.2H8.8c0.7,0,1.2-0.5,1.2-1.2V67.8   C10,67.2,9.4,66.6,8.8,66.6z"
       id="path369"
       fill="#BDD1CF" /><g
       id="g371"><g
         id="g373"><polygon
           points="-59.9,36.6 -62,36.6 -62,42 -59.9,42    "
           id="polygon375"
           fill="#FFFFFF" /><polygon
           points="-48.2,36.6 -50.3,36.6 -50.3,42 -48.2,42    "
           id="polygon377"
           fill="#FFFFFF" /><polygon
           points="-59.9,16 -62,16 -62,21.5 -59.9,21.5    "
           id="polygon379"
           fill="#FFFFFF" /><polygon
           points="-48.2,16 -50.3,16 -50.3,21.5 -48.2,21.5    "
           id="polygon381"
           fill="#FFFFFF" /></g><path
         d="M-48.3,21.4h-13.6c-0.6,0-1.1,0.5-1.1,1.1v13.7c0,0.6,0.5,1.1,1.1,1.1h13.6c0.6,0,1.1-0.5,1.1-1.1V22.4    C-47.2,21.8-47.7,21.4-48.3,21.4z"
         id="path383"
         fill="#BDD1CF" /><path
         d="M-50.2,29.3c0-2.7-2.2-4.9-4.9-4.9c-2.7,0-4.9,2.2-4.9,4.9s2.2,4.9,4.9,4.9C-52.4,34.2-50.2,32-50.2,29.3z    "
         id="path385"
         fill="#476975" /><path
         d="M-59.3,35.2c0-0.9-0.7-1.6-1.6-1.6c-0.9,0-1.6,0.7-1.6,1.6c0,0.9,0.7,1.6,1.6,1.6C-60,36.8-59.3,36.1-59.3,35.2z"
         id="path387" /><path
         d="M-47.6,35.2c0-0.9-0.7-1.6-1.6-1.6c-0.9,0-1.6,0.7-1.6,1.6c0,0.9,0.7,1.6,1.6,1.6C-48.4,36.8-47.6,36.1-47.6,35.2z"
         id="path389" /><path
         d="M-59.3,23.6c0-0.9-0.7-1.6-1.6-1.6c-0.9,0-1.6,0.7-1.6,1.6s0.7,1.6,1.6,1.6C-60,25.2-59.3,24.5-59.3,23.6z"
         id="path391" /><path
         d="M-47.6,23.6c0-0.9-0.7-1.6-1.6-1.6c-0.9,0-1.6,0.7-1.6,1.6s0.7,1.6,1.6,1.6C-48.4,25.2-47.6,24.5-47.6,23.6z"
         id="path393" /></g><g
       id="g395"><path
         d="M68.7-61.4h-17c-0.8,0-1.5,0.7-1.5,1.5V-39c0,0.8,0.7,1.5,1.5,1.5h17c0.8,0,1.5-0.7,1.5-1.5v-20.9    C70.2-60.7,69.5-61.4,68.7-61.4z"
         id="path397"
         fill="#FFFFFF" /><polygon
         points="54.4,-40.8 44,-40.8 44,-37.5 54.4,-37.5   "
         id="polygon399"
         fill="#FFFFFF" /><polygon
         points="54.4,-61.4 44,-61.4 44,-58 54.4,-58   "
         id="polygon401"
         fill="#FFFFFF" /></g><path
       d="M76.6-2.2c-9.9,0-17.9-8-17.9-17.9S66.7-38,76.6-38s17.9,8,17.9,17.9S86.5-2.2,76.6-2.2z"
       id="path403" /><g
       id="g405"><path
         d="M39.1-57.2c-1.2,0-2.1-1-2.1-2.1c0-1.2,1-2.1,2.1-2.1s2.1,1,2.1,2.1C41.3-58.1,40.3-57.2,39.1-57.2z"
         id="path407"
         fill="#EFDA48" /></g><g
       id="g409"><g
         id="g411"><polygon
           points="51.6,36.6 49.5,36.6 49.5,42 51.6,42    "
           id="polygon413"
           fill="#FFFFFF" /><polygon
           points="63.3,36.6 61.1,36.6 61.1,42 63.3,42    "
           id="polygon415"
           fill="#FFFFFF" /><polygon
           points="51.6,16 49.5,16 49.5,21.5 51.6,21.5    "
           id="polygon417"
           fill="#FFFFFF" /><polygon
           points="63.3,16 61.1,16 61.1,21.5 63.3,21.5    "
           id="polygon419"
           fill="#FFFFFF" /></g><path
         d="M63.2,21.4H49.6c-0.6,0-1.1,0.5-1.1,1.1v13.7c0,0.6,0.5,1.1,1.1,1.1h13.6c0.6,0,1.1-0.5,1.1-1.1V22.4    C64.3,21.8,63.8,21.4,63.2,21.4z"
         id="path421"
         fill="#BDD1CF" /><path
         d="M61.3,29.3c0-2.7-2.2-4.9-4.9-4.9c-2.7,0-4.9,2.2-4.9,4.9s2.2,4.9,4.9,4.9C59.1,34.2,61.3,32,61.3,29.3z"
         id="path423"
         fill="#476975" /><path
         d="M52.2,35.2c0-0.9-0.7-1.6-1.6-1.6c-0.9,0-1.6,0.7-1.6,1.6c0,0.9,0.7,1.6,1.6,1.6C51.5,36.8,52.2,36.1,52.2,35.2z"
         id="path425" /><path
         d="M63.8,35.2c0-0.9-0.7-1.6-1.6-1.6c-0.9,0-1.6,0.7-1.6,1.6c0,0.9,0.7,1.6,1.6,1.6C63.1,36.8,63.8,36.1,63.8,35.2z"
         id="path427" /><path
         d="M52.2,23.6c0-0.9-0.7-1.6-1.6-1.6c-0.9,0-1.6,0.7-1.6,1.6s0.7,1.6,1.6,1.6C51.5,25.2,52.2,24.5,52.2,23.6z"
         id="path429" /><path
         d="M63.8,23.6c0-0.9-0.7-1.6-1.6-1.6c-0.9,0-1.6,0.7-1.6,1.6s0.7,1.6,1.6,1.6C63.1,25.2,63.8,24.5,63.8,23.6z"
         id="path431" /></g><g
       id="g433"><path
         d="M37.3,60H23.7c-0.6,0-1.1,0.5-1.1,1.1v13.7c0,0.6,0.5,1.1,1.1,1.1h13.6c0.6,0,1.1-0.5,1.1-1.1V61.1    C38.4,60.5,37.9,60,37.3,60z"
         id="path435"
         fill="#BDD1CF" /><path
         d="M35.5,68c0-2.7-2.2-4.9-4.9-4.9s-4.9,2.2-4.9,4.9s2.2,4.9,4.9,4.9S35.5,70.7,35.5,68z"
         id="path437"
         fill="#476975" /></g><polygon
       points="37.1,-46 25.4,-46 25.4,-25 37.1,-25  "
       id="polygon439"
       fill="#F9B233" /><polygon
       points="-31.8,-47.4 -43.7,-35.5 -31.8,-23.6 -19.9,-35.5  "
       id="polygon441" /><polygon
       points="-3.6,-52.5 -3.6,-46.4 2.5,-46.4 2.5,-52.5  "
       id="polygon443" /><g
       id="g445"><polygon
         points="5.3,-35.5 -5.5,-35.5 -5.5,-25 5.3,-25   "
         id="polygon447"
         fill="#FFFFFF" /><path
         d="M4-30.2c0-2.3-1.8-4.1-4.1-4.1s-4.1,1.8-4.1,4.1s1.8,4.1,4.1,4.1S4-28,4-30.2z"
         id="path449"
         fill="#BDD1CF" /></g><polygon
       points="-36.8,-54.6 -43.6,-59 -47.5,-52.9 -40.7,-48.5  "
       id="polygon451"
       fill="#FFFFFF" /></symbol><symbol
     id="calliope_mini_backside"
     viewBox="-150.5 -131.7 298.9 263.3"><path
       d="M-77.1,127.5L-77.1,127.5c6.2,4.6,14.6,4.8,20.9,0.5c12.5-8.4,34.7-21,56-21c23.2,0,45.7,13.5,56.4,21   c4.3,3,9.8,3.8,14.7,2l0.6-0.2c7.3-2.6,11.8-9.8,11-17.4c-1.7-15.4-3-41.9,13-62.9c16.8-21.9,31.7-31.2,42.3-34.8   c5.9-2,9.9-7.4,10.4-13.6v0c0.5-8-5.1-13.6-12.3-17c-12-5.7-30.8-15.7-42.8-36.2C78.7-77,80.1-103.4,81.7-114.8   c0.7-5.1-1.6-10.1-5.9-12.8c-4.8-3-11.9-4.6-21.4,1.5c-5.5,3.6-12,8.6-20.8,12c-10.8,4.1-16.9,5.5-20.3,5.8c-2.4,0.2-4.4,1.8-5.2,4   c-1.1,2.9-3.4,6.2-8.2,6.2c-5,0-7.2-3.6-8.2-6.6c-0.8-2.5-3.3-3.4-5.9-3.7c-4.9-0.4-12.5-2.4-20.5-6.1c-7.1-3.3-14-7.9-20.4-12.7   c-5.5-4.1-15-5.5-20.4-1.3l0,0c-5.7,4.4-7.4,11.7-6.5,18.8c1.9,15.3,1.1,43.3-16.7,64.2c-17.6,20.8-28.2,26.2-37.2,29.2   c-3.9,1.3-11.4,5.4-12.3,14.1s3,14.5,10.9,18.4c12.3,6.1,30.5,17.2,42.1,34.1c15.1,22,15.1,48.1,13.1,61.7   C-82.8,117.7-81.7,124.1-77.1,127.5z"
       id="path454"
       fill="#034854" /><g
       id="holes_9_"><g
         display="none"
         id="g457"><g
           display="inline"
           id="g459"><path
             d="M-53.5-89.3c-1.4,0-2.6-1.2-2.6-2.6s1.2-2.6,2.6-2.6s2.6,1.2,2.6,2.6S-52-89.3-53.5-89.3z M-53.5-93.1      c-0.7,0-1.2,0.6-1.2,1.2c0,0.7,0.6,1.2,1.2,1.2c0.7,0,1.2-0.6,1.2-1.2C-52.2-92.6-52.8-93.1-53.5-93.1z"
             id="path461"
             fill="#EFDA48" /><path
             d="M-53.5-93.1c-0.7,0-1.2,0.6-1.2,1.2c0,0.7,0.6,1.2,1.2,1.2c0.7,0,1.2-0.6,1.2-1.2C-52.2-92.6-52.8-93.1-53.5-93.1z"
             id="path463" /></g><g
           display="inline"
           id="g465"><path
             d="M-44.7-89.3c-1.4,0-2.6-1.2-2.6-2.6s1.2-2.6,2.6-2.6s2.6,1.2,2.6,2.6S-43.2-89.3-44.7-89.3z M-44.7-93.1      c-0.7,0-1.2,0.6-1.2,1.2c0,0.7,0.6,1.2,1.2,1.2c0.7,0,1.2-0.6,1.2-1.2C-43.4-92.6-44-93.1-44.7-93.1z"
             id="path467"
             fill="#EFDA48" /><path
             d="M-44.7-93.1c-0.7,0-1.2,0.6-1.2,1.2c0,0.7,0.6,1.2,1.2,1.2c0.7,0,1.2-0.6,1.2-1.2C-43.4-92.6-44-93.1-44.7-93.1z"
             id="path469" /></g><g
           display="inline"
           id="g471"><path
             d="M-35.9-89.3c-1.4,0-2.6-1.2-2.6-2.6s1.2-2.6,2.6-2.6s2.6,1.2,2.6,2.6S-34.4-89.3-35.9-89.3z M-35.9-93.1      c-0.7,0-1.2,0.6-1.2,1.2c0,0.7,0.6,1.2,1.2,1.2c0.7,0,1.2-0.6,1.2-1.2C-34.6-92.6-35.2-93.1-35.9-93.1z"
             id="path473"
             fill="#EFDA48" /><path
             d="M-35.9-93.1c-0.7,0-1.2,0.6-1.2,1.2c0,0.7,0.6,1.2,1.2,1.2c0.7,0,1.2-0.6,1.2-1.2C-34.6-92.6-35.2-93.1-35.9-93.1z"
             id="path475" /></g><g
           display="inline"
           id="g477"><path
             d="M-27-89.3c-1.4,0-2.6-1.2-2.6-2.6s1.2-2.6,2.6-2.6c1.4,0,2.6,1.2,2.6,2.6S-25.6-89.3-27-89.3z M-27-93.1      c-0.7,0-1.2,0.6-1.2,1.2c0,0.7,0.6,1.2,1.2,1.2c0.7,0,1.2-0.6,1.2-1.2C-25.8-92.6-26.4-93.1-27-93.1z"
             id="path479"
             fill="#EFDA48" /><path
             d="M-27-93.1c-0.7,0-1.2,0.6-1.2,1.2c0,0.7,0.6,1.2,1.2,1.2c0.7,0,1.2-0.6,1.2-1.2C-25.8-92.6-26.4-93.1-27-93.1z"
             id="path481" /></g><g
           display="inline"
           id="g483"><path
             d="M-18.2-89.3c-1.4,0-2.6-1.2-2.6-2.6s1.2-2.6,2.6-2.6c1.4,0,2.6,1.2,2.6,2.6S-16.8-89.3-18.2-89.3z       M-18.2-93.1c-0.7,0-1.2,0.6-1.2,1.2c0,0.7,0.6,1.2,1.2,1.2c0.7,0,1.2-0.6,1.2-1.2C-17-92.6-17.6-93.1-18.2-93.1z"
             id="path485"
             fill="#EFDA48" /><path
             d="M-18.2-93.1c-0.7,0-1.2,0.6-1.2,1.2c0,0.7,0.6,1.2,1.2,1.2c0.7,0,1.2-0.6,1.2-1.2C-17-92.6-17.6-93.1-18.2-93.1z"
             id="path487" /></g><g
           display="inline"
           id="g489"><path
             d="M-9.4-89.3c-1.4,0-2.6-1.2-2.6-2.6s1.2-2.6,2.6-2.6s2.6,1.2,2.6,2.6S-8-89.3-9.4-89.3z M-9.4-93.1      c-0.7,0-1.2,0.6-1.2,1.2c0,0.7,0.6,1.2,1.2,1.2s1.2-0.6,1.2-1.2C-8.2-92.6-8.7-93.1-9.4-93.1z"
             id="path491"
             fill="#EFDA48" /><path
             d="M-9.4-93.1c-0.7,0-1.2,0.6-1.2,1.2c0,0.7,0.6,1.2,1.2,1.2s1.2-0.6,1.2-1.2C-8.2-92.6-8.7-93.1-9.4-93.1z"
             id="path493" /></g><g
           display="inline"
           id="g495"><path
             d="M-0.6-89.3c-1.4,0-2.6-1.2-2.6-2.6s1.2-2.6,2.6-2.6S2-93.3,2-91.9S0.8-89.3-0.6-89.3z M-0.6-93.1      c-0.7,0-1.2,0.6-1.2,1.2c0,0.7,0.6,1.2,1.2,1.2s1.2-0.6,1.2-1.2C0.6-92.6,0.1-93.1-0.6-93.1z"
             id="path497"
             fill="#EFDA48" /><path
             d="M-0.6-93.1c-0.7,0-1.2,0.6-1.2,1.2c0,0.7,0.6,1.2,1.2,1.2s1.2-0.6,1.2-1.2C0.6-92.6,0.1-93.1-0.6-93.1z"
             id="path499" /></g><g
           display="inline"
           id="g501"><path
             d="M8.2-89.3c-1.4,0-2.6-1.2-2.6-2.6s1.2-2.6,2.6-2.6s2.6,1.2,2.6,2.6S9.6-89.3,8.2-89.3z M8.2-93.1      c-0.7,0-1.2,0.6-1.2,1.2c0,0.7,0.6,1.2,1.2,1.2s1.2-0.6,1.2-1.2C9.4-92.6,8.9-93.1,8.2-93.1z"
             id="path503"
             fill="#EFDA48" /><path
             d="M8.2-93.1c-0.7,0-1.2,0.6-1.2,1.2c0,0.7,0.6,1.2,1.2,1.2s1.2-0.6,1.2-1.2C9.4-92.6,8.9-93.1,8.2-93.1z"
             id="path505" /></g><g
           display="inline"
           id="g507"><path
             d="M17-89.3c-1.4,0-2.6-1.2-2.6-2.6s1.2-2.6,2.6-2.6s2.6,1.2,2.6,2.6S18.4-89.3,17-89.3z M17-93.1      c-0.7,0-1.2,0.6-1.2,1.2c0,0.7,0.6,1.2,1.2,1.2c0.7,0,1.2-0.6,1.2-1.2C18.2-92.6,17.7-93.1,17-93.1z"
             id="path509"
             fill="#EFDA48" /><path
             d="M17-93.1c-0.7,0-1.2,0.6-1.2,1.2c0,0.7,0.6,1.2,1.2,1.2c0.7,0,1.2-0.6,1.2-1.2C18.2-92.6,17.7-93.1,17-93.1z"
             id="path511" /></g><g
           display="inline"
           id="g513"><path
             d="M25.8-89.3c-1.4,0-2.6-1.2-2.6-2.6s1.2-2.6,2.6-2.6c1.4,0,2.6,1.2,2.6,2.6S27.2-89.3,25.8-89.3z       M25.8-93.1c-0.7,0-1.2,0.6-1.2,1.2c0,0.7,0.6,1.2,1.2,1.2s1.2-0.6,1.2-1.2C27-92.6,26.5-93.1,25.8-93.1z"
             id="path515"
             fill="#EFDA48" /><path
             d="M25.8-93.1c-0.7,0-1.2,0.6-1.2,1.2c0,0.7,0.6,1.2,1.2,1.2s1.2-0.6,1.2-1.2C27-92.6,26.5-93.1,25.8-93.1z"
             id="path517" /></g><g
           display="inline"
           id="g519"><path
             d="M34.6-89.3c-1.4,0-2.6-1.2-2.6-2.6s1.2-2.6,2.6-2.6s2.6,1.2,2.6,2.6S36.1-89.3,34.6-89.3z M34.6-93.1      c-0.7,0-1.2,0.6-1.2,1.2c0,0.7,0.6,1.2,1.2,1.2c0.7,0,1.2-0.6,1.2-1.2C35.9-92.6,35.3-93.1,34.6-93.1z"
             id="path521"
             fill="#EFDA48" /><path
             d="M34.6-93.1c-0.7,0-1.2,0.6-1.2,1.2c0,0.7,0.6,1.2,1.2,1.2c0.7,0,1.2-0.6,1.2-1.2C35.9-92.6,35.3-93.1,34.6-93.1z"
             id="path523" /></g><g
           display="inline"
           id="g525"><path
             d="M43.4-89.3c-1.4,0-2.6-1.2-2.6-2.6s1.2-2.6,2.6-2.6s2.6,1.2,2.6,2.6S44.9-89.3,43.4-89.3z M43.4-93.1      c-0.7,0-1.2,0.6-1.2,1.2c0,0.7,0.6,1.2,1.2,1.2s1.2-0.6,1.2-1.2C44.7-92.6,44.1-93.1,43.4-93.1z"
             id="path527"
             fill="#EFDA48" /><path
             d="M43.4-93.1c-0.7,0-1.2,0.6-1.2,1.2c0,0.7,0.6,1.2,1.2,1.2s1.2-0.6,1.2-1.2C44.7-92.6,44.1-93.1,43.4-93.1z"
             id="path529" /></g><g
           display="inline"
           id="g531"><path
             d="M52.2-89.3c-1.4,0-2.6-1.2-2.6-2.6s1.2-2.6,2.6-2.6s2.6,1.2,2.6,2.6S53.7-89.3,52.2-89.3z M52.2-93.1      c-0.7,0-1.2,0.6-1.2,1.2c0,0.7,0.6,1.2,1.2,1.2c0.7,0,1.2-0.6,1.2-1.2C53.5-92.6,52.9-93.1,52.2-93.1z"
             id="path533"
             fill="#EFDA48" /><path
             d="M52.2-93.1c-0.7,0-1.2,0.6-1.2,1.2c0,0.7,0.6,1.2,1.2,1.2c0.7,0,1.2-0.6,1.2-1.2C53.5-92.6,52.9-93.1,52.2-93.1z"
             id="path535" /></g></g><g
         display="none"
         id="g537"><g
           display="inline"
           id="g539"><path
             d="M-53.5-80.4c-1.4,0-2.6-1.2-2.6-2.6s1.2-2.6,2.6-2.6s2.6,1.2,2.6,2.6S-52-80.4-53.5-80.4z M-53.5-84.3      c-0.7,0-1.2,0.6-1.2,1.2s0.6,1.2,1.2,1.2c0.7,0,1.2-0.6,1.2-1.2S-52.8-84.3-53.5-84.3z"
             id="path541"
             fill="#EFDA48" /><path
             d="M-53.5-84.3c-0.7,0-1.2,0.6-1.2,1.2s0.6,1.2,1.2,1.2c0.7,0,1.2-0.6,1.2-1.2S-52.8-84.3-53.5-84.3z"
             id="path543" /></g><g
           display="inline"
           id="g545"><path
             d="M-44.7-80.4c-1.4,0-2.6-1.2-2.6-2.6s1.2-2.6,2.6-2.6s2.6,1.2,2.6,2.6S-43.2-80.4-44.7-80.4z M-44.7-84.3      c-0.7,0-1.2,0.6-1.2,1.2s0.6,1.2,1.2,1.2c0.7,0,1.2-0.6,1.2-1.2S-44-84.3-44.7-84.3z"
             id="path547"
             fill="#EFDA48" /><path
             d="M-44.7-84.3c-0.7,0-1.2,0.6-1.2,1.2s0.6,1.2,1.2,1.2c0.7,0,1.2-0.6,1.2-1.2S-44-84.3-44.7-84.3z"
             id="path549" /></g><g
           display="inline"
           id="g551"><path
             d="M-35.9-80.4c-1.4,0-2.6-1.2-2.6-2.6s1.2-2.6,2.6-2.6s2.6,1.2,2.6,2.6S-34.4-80.4-35.9-80.4z M-35.9-84.3      c-0.7,0-1.2,0.6-1.2,1.2s0.6,1.2,1.2,1.2c0.7,0,1.2-0.6,1.2-1.2S-35.2-84.3-35.9-84.3z"
             id="path553"
             fill="#EFDA48" /><path
             d="M-35.9-84.3c-0.7,0-1.2,0.6-1.2,1.2s0.6,1.2,1.2,1.2c0.7,0,1.2-0.6,1.2-1.2S-35.2-84.3-35.9-84.3z"
             id="path555" /></g><g
           display="inline"
           id="g557"><path
             d="M-27-80.4c-1.4,0-2.6-1.2-2.6-2.6s1.2-2.6,2.6-2.6c1.4,0,2.6,1.2,2.6,2.6S-25.6-80.4-27-80.4z M-27-84.3      c-0.7,0-1.2,0.6-1.2,1.2s0.6,1.2,1.2,1.2c0.7,0,1.2-0.6,1.2-1.2S-26.4-84.3-27-84.3z"
             id="path559"
             fill="#EFDA48" /><path
             d="M-27-84.3c-0.7,0-1.2,0.6-1.2,1.2s0.6,1.2,1.2,1.2c0.7,0,1.2-0.6,1.2-1.2S-26.4-84.3-27-84.3z"
             id="path561" /></g><g
           display="inline"
           id="g563"><path
             d="M-18.2-80.4c-1.4,0-2.6-1.2-2.6-2.6s1.2-2.6,2.6-2.6c1.4,0,2.6,1.2,2.6,2.6S-16.8-80.4-18.2-80.4z       M-18.2-84.3c-0.7,0-1.2,0.6-1.2,1.2s0.6,1.2,1.2,1.2c0.7,0,1.2-0.6,1.2-1.2S-17.6-84.3-18.2-84.3z"
             id="path565"
             fill="#EFDA48" /><path
             d="M-18.2-84.3c-0.7,0-1.2,0.6-1.2,1.2s0.6,1.2,1.2,1.2c0.7,0,1.2-0.6,1.2-1.2S-17.6-84.3-18.2-84.3z"
             id="path567" /></g><g
           display="inline"
           id="g569"><path
             d="M-9.4-80.4c-1.4,0-2.6-1.2-2.6-2.6s1.2-2.6,2.6-2.6s2.6,1.2,2.6,2.6S-8-80.4-9.4-80.4z M-9.4-84.3      c-0.7,0-1.2,0.6-1.2,1.2s0.6,1.2,1.2,1.2s1.2-0.6,1.2-1.2S-8.7-84.3-9.4-84.3z"
             id="path571"
             fill="#EFDA48" /><path
             d="M-9.4-84.3c-0.7,0-1.2,0.6-1.2,1.2s0.6,1.2,1.2,1.2s1.2-0.6,1.2-1.2S-8.7-84.3-9.4-84.3z"
             id="path573" /></g><g
           display="inline"
           id="g575"><path
             d="M-0.6-80.4c-1.4,0-2.6-1.2-2.6-2.6s1.2-2.6,2.6-2.6S2-84.5,2-83.1S0.8-80.4-0.6-80.4z M-0.6-84.3      c-0.7,0-1.2,0.6-1.2,1.2s0.6,1.2,1.2,1.2s1.2-0.6,1.2-1.2S0.1-84.3-0.6-84.3z"
             id="path577"
             fill="#EFDA48" /><path
             d="M-0.6-84.3c-0.7,0-1.2,0.6-1.2,1.2s0.6,1.2,1.2,1.2s1.2-0.6,1.2-1.2S0.1-84.3-0.6-84.3z"
             id="path579" /></g><g
           display="inline"
           id="g581"><path
             d="M8.2-80.4c-1.4,0-2.6-1.2-2.6-2.6s1.2-2.6,2.6-2.6s2.6,1.2,2.6,2.6S9.6-80.4,8.2-80.4z M8.2-84.3      c-0.7,0-1.2,0.6-1.2,1.2s0.6,1.2,1.2,1.2s1.2-0.6,1.2-1.2S8.9-84.3,8.2-84.3z"
             id="path583"
             fill="#EFDA48" /><path
             d="M8.2-84.3c-0.7,0-1.2,0.6-1.2,1.2s0.6,1.2,1.2,1.2s1.2-0.6,1.2-1.2S8.9-84.3,8.2-84.3z"
             id="path585" /></g><g
           display="inline"
           id="g587"><path
             d="M17-80.4c-1.4,0-2.6-1.2-2.6-2.6s1.2-2.6,2.6-2.6s2.6,1.2,2.6,2.6S18.4-80.4,17-80.4z M17-84.3      c-0.7,0-1.2,0.6-1.2,1.2s0.6,1.2,1.2,1.2c0.7,0,1.2-0.6,1.2-1.2S17.7-84.3,17-84.3z"
             id="path589"
             fill="#EFDA48" /><path
             d="M17-84.3c-0.7,0-1.2,0.6-1.2,1.2s0.6,1.2,1.2,1.2c0.7,0,1.2-0.6,1.2-1.2S17.7-84.3,17-84.3z"
             id="path591" /></g><g
           display="inline"
           id="g593"><path
             d="M25.8-80.4c-1.4,0-2.6-1.2-2.6-2.6s1.2-2.6,2.6-2.6c1.4,0,2.6,1.2,2.6,2.6S27.2-80.4,25.8-80.4z       M25.8-84.3c-0.7,0-1.2,0.6-1.2,1.2s0.6,1.2,1.2,1.2s1.2-0.6,1.2-1.2S26.5-84.3,25.8-84.3z"
             id="path595"
             fill="#EFDA48" /><path
             d="M25.8-84.3c-0.7,0-1.2,0.6-1.2,1.2s0.6,1.2,1.2,1.2s1.2-0.6,1.2-1.2S26.5-84.3,25.8-84.3z"
             id="path597" /></g><g
           display="inline"
           id="g599"><path
             d="M34.6-80.4c-1.4,0-2.6-1.2-2.6-2.6s1.2-2.6,2.6-2.6s2.6,1.2,2.6,2.6S36.1-80.4,34.6-80.4z M34.6-84.3      c-0.7,0-1.2,0.6-1.2,1.2s0.6,1.2,1.2,1.2c0.7,0,1.2-0.6,1.2-1.2S35.3-84.3,34.6-84.3z"
             id="path601"
             fill="#EFDA48" /><path
             d="M34.6-84.3c-0.7,0-1.2,0.6-1.2,1.2s0.6,1.2,1.2,1.2c0.7,0,1.2-0.6,1.2-1.2S35.3-84.3,34.6-84.3z"
             id="path603" /></g><g
           display="inline"
           id="g605"><path
             d="M43.4-80.4c-1.4,0-2.6-1.2-2.6-2.6s1.2-2.6,2.6-2.6s2.6,1.2,2.6,2.6S44.9-80.4,43.4-80.4z M43.4-84.3      c-0.7,0-1.2,0.6-1.2,1.2s0.6,1.2,1.2,1.2s1.2-0.6,1.2-1.2S44.1-84.3,43.4-84.3z"
             id="path607"
             fill="#EFDA48" /><path
             d="M43.4-84.3c-0.7,0-1.2,0.6-1.2,1.2s0.6,1.2,1.2,1.2s1.2-0.6,1.2-1.2S44.1-84.3,43.4-84.3z"
             id="path609" /></g><g
           display="inline"
           id="g611"><path
             d="M52.2-80.4c-1.4,0-2.6-1.2-2.6-2.6s1.2-2.6,2.6-2.6s2.6,1.2,2.6,2.6S53.7-80.4,52.2-80.4z M52.2-84.3      c-0.7,0-1.2,0.6-1.2,1.2s0.6,1.2,1.2,1.2c0.7,0,1.2-0.6,1.2-1.2S52.9-84.3,52.2-84.3z"
             id="path613"
             fill="#EFDA48" /><path
             d="M52.2-84.3c-0.7,0-1.2,0.6-1.2,1.2s0.6,1.2,1.2,1.2c0.7,0,1.2-0.6,1.2-1.2S52.9-84.3,52.2-84.3z"
             id="path615" /></g></g><g
         display="none"
         id="g617"><g
           display="inline"
           id="g619"><path
             d="M-18.2-63.5c-1.4,0-2.6-1.2-2.6-2.6s1.2-2.6,2.6-2.6c1.4,0,2.6,1.2,2.6,2.6S-16.8-63.5-18.2-63.5z       M-18.2-67.4c-0.7,0-1.2,0.6-1.2,1.2s0.6,1.2,1.2,1.2c0.7,0,1.2-0.6,1.2-1.2S-17.6-67.4-18.2-67.4z"
             id="path621"
             fill="#EFDA48" /><path
             d="M-18.2-67.4c-0.7,0-1.2,0.6-1.2,1.2s0.6,1.2,1.2,1.2c0.7,0,1.2-0.6,1.2-1.2S-17.6-67.4-18.2-67.4z"
             id="path623" /></g><g
           display="inline"
           id="g625"><path
             d="M-9.4-63.5c-1.4,0-2.6-1.2-2.6-2.6s1.2-2.6,2.6-2.6s2.6,1.2,2.6,2.6S-8-63.5-9.4-63.5z M-9.4-67.4      c-0.7,0-1.2,0.6-1.2,1.2s0.6,1.2,1.2,1.2s1.2-0.6,1.2-1.2S-8.7-67.4-9.4-67.4z"
             id="path627"
             fill="#EFDA48" /><path
             d="M-9.4-67.4c-0.7,0-1.2,0.6-1.2,1.2s0.6,1.2,1.2,1.2s1.2-0.6,1.2-1.2S-8.7-67.4-9.4-67.4z"
             id="path629" /></g><g
           display="inline"
           id="g631"><path
             d="M-0.6-63.5c-1.4,0-2.6-1.2-2.6-2.6s1.2-2.6,2.6-2.6S2-67.6,2-66.1S0.8-63.5-0.6-63.5z M-0.6-67.4      c-0.7,0-1.2,0.6-1.2,1.2s0.6,1.2,1.2,1.2s1.2-0.6,1.2-1.2S0.1-67.4-0.6-67.4z"
             id="path633"
             fill="#EFDA48" /><path
             d="M-0.6-67.4c-0.7,0-1.2,0.6-1.2,1.2s0.6,1.2,1.2,1.2s1.2-0.6,1.2-1.2S0.1-67.4-0.6-67.4z"
             id="path635" /></g><g
           display="inline"
           id="g637"><path
             d="M8.2-63.5c-1.4,0-2.6-1.2-2.6-2.6s1.2-2.6,2.6-2.6s2.6,1.2,2.6,2.6S9.6-63.5,8.2-63.5z M8.2-67.4      c-0.7,0-1.2,0.6-1.2,1.2s0.6,1.2,1.2,1.2s1.2-0.6,1.2-1.2S8.9-67.4,8.2-67.4z"
             id="path639"
             fill="#EFDA48" /><path
             d="M8.2-67.4c-0.7,0-1.2,0.6-1.2,1.2s0.6,1.2,1.2,1.2s1.2-0.6,1.2-1.2S8.9-67.4,8.2-67.4z"
             id="path641" /></g><g
           display="inline"
           id="g643"><path
             d="M17-63.5c-1.4,0-2.6-1.2-2.6-2.6s1.2-2.6,2.6-2.6s2.6,1.2,2.6,2.6S18.4-63.5,17-63.5z M17-67.4      c-0.7,0-1.2,0.6-1.2,1.2s0.6,1.2,1.2,1.2c0.7,0,1.2-0.6,1.2-1.2S17.7-67.4,17-67.4z"
             id="path645"
             fill="#EFDA48" /><path
             d="M17-67.4c-0.7,0-1.2,0.6-1.2,1.2s0.6,1.2,1.2,1.2c0.7,0,1.2-0.6,1.2-1.2S17.7-67.4,17-67.4z"
             id="path647" /></g></g><g
         display="none"
         id="g649"><g
           display="inline"
           id="g651"><polygon
             points="97.1,28 93.5,31.6 97.1,35.2 100.7,31.6     "
             id="polygon653"
             fill="#EFDA48" /><path
             d="M96.2,30.8c-0.5,0.5-0.5,1.3,0,1.8c0.5,0.5,1.3,0.5,1.8,0c0.5-0.5,0.5-1.3,0-1.8C97.5,30.3,96.7,30.3,96.2,30.8z"
             id="path655" /></g><g
           display="inline"
           id="g657"><path
             d="M104.1,28.6c-1,1-2.7,1-3.7,0s-1-2.7,0-3.7c1-1,2.7-1,3.7,0S105.1,27.5,104.1,28.6z M101.4,25.8      c-0.5,0.5-0.5,1.3,0,1.8c0.5,0.5,1.3,0.5,1.8,0c0.5-0.5,0.5-1.3,0-1.8C102.7,25.3,101.9,25.3,101.4,25.8z"
             id="path659"
             fill="#EFDA48" /><path
             d="M101.4,25.8c-0.5,0.5-0.5,1.3,0,1.8c0.5,0.5,1.3,0.5,1.8,0c0.5-0.5,0.5-1.3,0-1.8C102.7,25.3,101.9,25.3,101.4,25.8z"
             id="path661" /></g><g
           display="inline"
           id="g663"><path
             d="M108.8,24c-1,1-2.7,1-3.7,0s-1-2.7,0-3.7c1-1,2.7-1,3.7,0S109.8,23,108.8,24z M106,21.3      c-0.5,0.5-0.5,1.3,0,1.8c0.5,0.5,1.3,0.5,1.8,0c0.5-0.5,0.5-1.3,0-1.8C107.3,20.8,106.5,20.8,106,21.3z"
             id="path665"
             fill="#EFDA48" /><path
             d="M106,21.3c-0.5,0.5-0.5,1.3,0,1.8c0.5,0.5,1.3,0.5,1.8,0c0.5-0.5,0.5-1.3,0-1.8C107.3,20.8,106.5,20.8,106,21.3z"
             id="path667" /></g><g
           display="inline"
           id="g669"><path
             d="M114.1,18.7c-1,1-2.7,1-3.7,0s-1-2.7,0-3.7s2.7-1,3.7,0S115.1,17.7,114.1,18.7z M111.3,16      c-0.5,0.5-0.5,1.3,0,1.8c0.5,0.5,1.3,0.5,1.8,0c0.5-0.5,0.5-1.3,0-1.8C112.6,15.5,111.8,15.5,111.3,16z"
             id="path671"
             fill="#EFDA48" /><path
             d="M111.3,16c-0.5,0.5-0.5,1.3,0,1.8c0.5,0.5,1.3,0.5,1.8,0c0.5-0.5,0.5-1.3,0-1.8C112.6,15.5,111.8,15.5,111.3,16z"
             id="path673" /></g></g><g
         display="none"
         id="g675"><g
           display="inline"
           id="g677"><polygon
             points="-109.3,17 -112.9,13.4 -116.6,17 -112.9,20.7     "
             id="polygon679"
             fill="#EFDA48" /><path
             d="M-112.1,16.2c-0.5-0.5-1.3-0.5-1.8,0c-0.5,0.5-0.5,1.3,0,1.8c0.5,0.5,1.3,0.5,1.8,0C-111.6,17.5-111.6,16.7-112.1,16.2z      "
             id="path681" /></g><g
           display="inline"
           id="g683"><path
             d="M-109.9,24.1c-1-1-1-2.7,0-3.7c1-1,2.7-1,3.7,0s1,2.7,0,3.7S-108.9,25.1-109.9,24.1z M-107.2,21.3      c-0.5-0.5-1.3-0.5-1.8,0c-0.5,0.5-0.5,1.3,0,1.8c0.5,0.5,1.3,0.5,1.8,0C-106.7,22.6-106.7,21.8-107.2,21.3z"
             id="path685"
             fill="#EFDA48" /><path
             d="M-107.2,21.3c-0.5-0.5-1.3-0.5-1.8,0c-0.5,0.5-0.5,1.3,0,1.8c0.5,0.5,1.3,0.5,1.8,0C-106.7,22.6-106.7,21.8-107.2,21.3z      "
             id="path687" /></g><g
           display="inline"
           id="g689"><path
             d="M-105.3,28.7c-1-1-1-2.7,0-3.7s2.7-1,3.7,0s1,2.7,0,3.7S-104.3,29.8-105.3,28.7z M-102.6,26      c-0.5-0.5-1.3-0.5-1.8,0c-0.5,0.5-0.5,1.3,0,1.8c0.5,0.5,1.3,0.5,1.8,0C-102.1,27.3-102.1,26.5-102.6,26z"
             id="path691"
             fill="#EFDA48" /><path
             d="M-102.6,26c-0.5-0.5-1.3-0.5-1.8,0c-0.5,0.5-0.5,1.3,0,1.8c0.5,0.5,1.3,0.5,1.8,0C-102.1,27.3-102.1,26.5-102.6,26z"
             id="path693" /></g><g
           display="inline"
           id="g695"><path
             d="M-100.1,34c-1-1-1-2.7,0-3.7c1-1,2.7-1,3.7,0c1,1,1,2.7,0,3.7S-99,35-100.1,34z M-97.3,31.3      c-0.5-0.5-1.3-0.5-1.8,0c-0.5,0.5-0.5,1.3,0,1.8s1.3,0.5,1.8,0C-96.8,32.6-96.8,31.8-97.3,31.3z"
             id="path697"
             fill="#EFDA48" /><path
             d="M-97.3,31.3c-0.5-0.5-1.3-0.5-1.8,0c-0.5,0.5-0.5,1.3,0,1.8s1.3,0.5,1.8,0C-96.8,32.6-96.8,31.8-97.3,31.3z"
             id="path699" /></g></g><g
         id="g701"><path
           d="M-133.5,17c-9.4,0-17.1-7.6-17.1-17.1s7.6-17.1,17.1-17.1s17.1,7.6,17.1,17.1S-124.1,17-133.5,17z      M-133.5-8.2c-4.5,0-8.1,3.6-8.1,8.1S-138,8-133.5,8s8.1-3.6,8.1-8.1S-129-8.2-133.5-8.2z"
           id="path703"
           fill="#EFDA48" /><path
           d="M65.5,131.7c-9.4,0-17.1-7.6-17.1-17.1s7.6-17.1,17.1-17.1s17.1,7.6,17.1,17.1S74.9,131.7,65.5,131.7z      M65.5,106.5c-4.5,0-8.1,3.6-8.1,8.1c0,4.5,3.6,8.1,8.1,8.1s8.1-3.6,8.1-8.1C73.6,110.1,70,106.5,65.5,106.5z"
           id="path705"
           fill="#EFDA48" /><path
           d="M131.2,17c-9.4,0-17.1-7.6-17.1-17.1s7.6-17.1,17.1-17.1s17.1,7.6,17.1,17.1S140.6,17,131.2,17z      M131.2-8.2c-4.5,0-8.1,3.6-8.1,8.1s3.6,8.1,8.1,8.1s8.1-3.6,8.1-8.1S135.6-8.2,131.2-8.2z"
           id="path707"
           fill="#EFDA48" /><path
           d="M65.5-96.6c-9.4,0-17.1-7.6-17.1-17.1s7.6-17.1,17.1-17.1s17.1,7.6,17.1,17.1S74.9-96.6,65.5-96.6z      M65.5-121.7c-4.5,0-8.1,3.6-8.1,8.1c0,4.5,3.6,8.1,8.1,8.1s8.1-3.6,8.1-8.1C73.6-118.1,70-121.7,65.5-121.7z"
           id="path709"
           fill="#EFDA48" /><path
           d="M-66.5-97.6c-9.4,0-17.1-7.6-17.1-17.1s7.6-17.1,17.1-17.1s17.1,7.6,17.1,17.1S-57.1-97.6-66.5-97.6z      M-66.5-122.7c-4.5,0-8.1,3.6-8.1,8.1c0,4.5,3.6,8.1,8.1,8.1c4.5,0,8.1-3.6,8.1-8.1C-58.4-119.1-62-122.7-66.5-122.7z"
           id="path711"
           fill="#EFDA48" /><path
           d="M-66.5,131.7c-9.4,0-17.1-7.6-17.1-17.1s7.6-17.1,17.1-17.1s17.1,7.6,17.1,17.1S-57.1,131.7-66.5,131.7z      M-66.5,106.5c-4.5,0-8.1,3.6-8.1,8.1c0,4.5,3.6,8.1,8.1,8.1s8.1-3.6,8.1-8.1C-58.4,110.1-62,106.5-66.5,106.5z"
           id="path713"
           fill="#EFDA48" /></g></g><path
       d="M131.2-8.2c-4.5,0-8.1,3.6-8.1,8.1s3.6,8.1,8.1,8.1s8.1-3.6,8.1-8.1S135.6-8.2,131.2-8.2z"
       id="path715"
       fill="#FFFFFF" /><path
       d="M65.5,106.5c-4.5,0-8.1,3.6-8.1,8.1c0,4.5,3.6,8.1,8.1,8.1s8.1-3.6,8.1-8.1C73.6,110.1,70,106.5,65.5,106.5   z"
       id="path717"
       fill="#FFFFFF" /><path
       d="M-66.5,106.5c-4.5,0-8.1,3.6-8.1,8.1c0,4.5,3.6,8.1,8.1,8.1c4.5,0,8.1-3.6,8.1-8.1   C-58.4,110.1-62,106.5-66.5,106.5z"
       id="path719"
       fill="#FFFFFF" /><path
       d="M-133.5-8.1c-4.5,0-8.1,3.6-8.1,8.1s3.6,8.1,8.1,8.1s8.1-3.6,8.1-8.1S-129-8.1-133.5-8.1z"
       id="path721"
       fill="#FFFFFF" /><path
       d="M-66.5-122.7c-4.5,0-8.1,3.6-8.1,8.1c0,4.5,3.6,8.1,8.1,8.1c4.5,0,8.1-3.6,8.1-8.1   C-58.4-119.1-62-122.7-66.5-122.7z"
       id="path723"
       fill="#FFFFFF" /><path
       d="M65.5-121.7c-4.5,0-8.1,3.6-8.1,8.1c0,4.5,3.6,8.1,8.1,8.1s8.1-3.6,8.1-8.1C73.6-118.1,70-121.7,65.5-121.7   z"
       id="path725"
       fill="#FFFFFF" /></symbol><g
     id="Ebene_2"
     display="none"><image
       display="inline"
       overflow="visible"
       width="1024"
       height="898"
       xlink:href="file:///C:/Users/jhalleux/AppData/Local/Microsoft/Windows/INetCache/Content.Outlook/POK9Z6FJ/../../1607_Juli/Calliope/mini_mit_logo_1024.png"
       transform="matrix(0.3025 0 0 0.3025 17.8521 265.1405)"
       id="image728"
       sodipodi:absref="C:\Users\jhalleux\AppData\Local\Microsoft\Windows\INetCache\Content.Outlook\POK9Z6FJ\..\..\1607_Juli\Calliope\mini_mit_logo_1024.png" /></g><g
     id="Ebene_1" /><g
     id="Ebene_3" /><g
     id="Ebene_4" /><use
     style="overflow:visible"
     overflow="visible"
     transform="matrix(1.3709867,0,0,-1.3709867,170.13972,147.46239)"
     y="-112.9"
     x="-122.3"
     id="XMLID_11_"
     height="225.8"
     width="244.60001"
     xlink:href="#Mini_front" /><g
     id="Ebene_7"
     display="none"><polygon
       display="inline"
       points="717.6,154.6 604.5,154.6 604.5,54.2 589.7,54.2 589.7,154.6 476.6,154.6    476.6,169.4 589.7,169.4 589.7,221.4 604.5,221.4 604.5,169.4 717.6,169.4  "
       id="polygon928"
       fill="#E6007E" /><polygon
       display="inline"
       points="1145.9,152.4 1032.8,152.4 1032.8,52 1018,52 1018,152.4 904.9,152.4    904.9,167.2 1018,167.2 1018,219.2 1032.8,219.2 1032.8,167.2 1145.9,167.2  "
       id="polygon930"
       fill="#E6007E" /><polygon
       display="inline"
       points="1986.9,163.6 1873.8,163.6 1873.8,63.2 1859.1,63.2 1859.1,163.6 1746,163.6    1746,178.4 1859.1,178.4 1859.1,230.5 1873.8,230.5 1873.8,178.4 1986.9,178.4  "
       id="polygon932"
       fill="#E6007E" /><polygon
       display="inline"
       points="2403,163.6 2289.9,163.6 2289.9,63.2 2275.1,63.2 2275.1,163.6 2162,163.6    2162,178.4 2275.1,178.4 2275.1,230.5 2289.9,230.5 2289.9,178.4 2403,178.4  "
       id="polygon934"
       fill="#E6007E" /></g><g
     id="Ebene_6"
     display="none"><rect
       x="1859.1"
       y="432.2"
       display="inline"
       width="14.8"
       height="167.2"
       id="rect937"
       fill="#E6007E" /><rect
       x="1746"
       y="532.6"
       display="inline"
       width="240.9"
       height="14.8"
       id="rect939"
       fill="#E6007E" /></g></svg>