<?xml version="1.0" encoding="UTF-8" standalone="no"?>
<!-- Generator: Adobe Illustrator 18.0.0, SVG Export Plug-In . SVG Version: 6.00 Build 0)  -->

<svg
   xmlns:dc="http://purl.org/dc/elements/1.1/"
   xmlns:cc="http://creativecommons.org/ns#"
   xmlns:rdf="http://www.w3.org/1999/02/22-rdf-syntax-ns#"
   xmlns:svg="http://www.w3.org/2000/svg"
   xmlns="http://www.w3.org/2000/svg"
   xmlns:xlink="http://www.w3.org/1999/xlink"
   xmlns:sodipodi="http://sodipodi.sourceforge.net/DTD/sodipodi-0.dtd"
   xmlns:inkscape="http://www.inkscape.org/namespaces/inkscape"
   version="1.1"
   id="Ebene_1"
   x="0px"
   y="0px"
   viewBox="0 0 525.21599 126.9"
   enable-background="new 0 0 841.9 595.3"
   xml:space="preserve"
   inkscape:version="0.91 r13725"
   sodipodi:docname="Logo_Calliope_lang.svg"
   width="525.216"
   height="126.9"><metadata
     id="metadata75"><rdf:RDF><cc:Work
         rdf:about=""><dc:format>image/svg+xml</dc:format><dc:type
           rdf:resource="http://purl.org/dc/dcmitype/StillImage" /><dc:title></dc:title></cc:Work></rdf:RDF></metadata><defs
     id="defs73" /><sodipodi:namedview
     pagecolor="#ffffff"
     bordercolor="#666666"
     borderopacity="1"
     objecttolerance="10"
     gridtolerance="10"
     guidetolerance="10"
     inkscape:pageopacity="0"
     inkscape:pageshadow="2"
     inkscape:window-width="1536"
     inkscape:window-height="801"
     id="namedview71"
     showgrid="false"
     inkscape:zoom="0.34208337"
     inkscape:cx="420.95001"
     inkscape:cy="297.64999"
     inkscape:window-x="-8"
     inkscape:window-y="-8"
     inkscape:window-maximized="1"
     inkscape:current-layer="Ebene_1" /><g
     id="g8135"
     transform="translate(-183.18441,126.89999)"><path
       style="fill:#4a5261"
       inkscape:connector-curvature="0"
       id="path3"
       d="m 406.9,-38.099997 0.2,0 5.6,17 -11.1,0.1 5.3,-17.1 z m -4.9,-11.1 -14.3,42.2000002 -3.5,0.5 0.1,5.79999996 16.5,-0.1 -0.1,-5.79999996 -3.4,-0.6 2.1,-6.7000002 15.7,-0.1 2.2,6.6000002 -3.3,0.6 0,5.79999996 16.5,-0.19999996 0,-5.8 -3.5,-0.5 -15,-41.9000002 -10,0.2 z" /><polygon
       transform="translate(0,-330.99999)"
       style="fill:#4a5261"
       id="polygon5"
       points="440.1,287.9 445.2,288.8 445.6,323.5 440.4,324.6 440.5,330.4 476.9,330.1 476.7,316.5 469.3,316.6 468.9,322.7 455.3,322.8 454.9,288.7 460.1,287.7 460.1,281.8 454.9,281.9 445.2,282 440,282 " /><polygon
       transform="translate(0,-330.99999)"
       style="fill:#4a5261"
       id="polygon7"
       points="486.8,287.9 491.9,288.8 492.2,323.5 487.1,324.6 487.2,330.4 523.6,330.1 523.4,316.5 516,316.6 515.6,322.7 501.9,322.8 501.6,288.7 506.8,287.7 506.8,281.8 501.6,281.9 491.9,282 486.7,282 " /><polygon
       transform="translate(0,-330.99999)"
       style="fill:#4a5261"
       id="polygon9"
       points="553.8,324.4 548.6,323.5 548.3,288.7 553.5,287.7 553.4,281.8 533.4,282 533.4,287.9 538.6,288.8 538.9,323.5 533.8,324.6 533.8,330.4 553.9,330.2 " /><polygon
       transform="translate(0,-330.99999)"
       style="fill:#4a5261"
       id="polygon11"
       points="708.1,294.9 707.9,281.7 674.9,282 669.7,282 669.8,287.9 674.9,288.8 675.2,323.5 670.1,324.6 670.2,330.4 708.4,330.1 708.3,316.8 700.9,316.9 700.6,322.7 684.9,322.8 684.8,309 701.2,308.8 701.1,301.4 684.7,301.5 684.6,289.4 700.1,289.2 700.6,295 " /><g
       transform="translate(0,-330.99999)"
       id="g13"><g
         id="g15"><defs
           id="defs17"><rect
             height="188.7"
             width="234.3"
             y="204.10001"
             x="133.2"
             id="SVGID_7_" /></defs><clipPath
           id="SVGID_1_"><use
             height="100%"
             width="100%"
             y="0"
             x="0"
             style="overflow:visible"
             id="use21"
             overflow="visible"
             xlink:href="#SVGID_7_" /></clipPath></g><g
         id="g23"><defs
           id="defs25"><rect
             height="188.7"
             width="234.3"
             y="204.10001"
             x="133.2"
             id="SVGID_9_" /></defs><clipPath
           id="SVGID_2_"><use
             height="100%"
             width="100%"
             y="0"
             x="0"
             style="overflow:visible"
             id="use29"
             overflow="visible"
             xlink:href="#SVGID_9_" /></clipPath></g><g
         id="g31"><defs
           id="defs33"><rect
             height="188.7"
             width="234.3"
             y="204.10001"
             x="133.2"
             id="SVGID_11_" /></defs><clipPath
           id="SVGID_3_"><use
             height="100%"
             width="100%"
             y="0"
             x="0"
             style="overflow:visible"
             id="use37"
             overflow="visible"
             xlink:href="#SVGID_11_" /></clipPath><path
           style="fill:#4a5261"
           inkscape:connector-curvature="0"
           id="path39"
           d="m 312.3,246.7 -35.3,0 0,-33.8 c 0,-3.4 2.8,-6.2 6.2,-6.2 l 22.9,0 c 3.4,0 6.2,2.8 6.2,6.2 l 0,33.8 z"
           clip-path="url(#SVGID_3_)" /></g><rect
         style="fill:#8096a1"
         id="rect41"
         height="31.799999"
         width="25.799999"
         y="214.8"
         x="281.79999" /><path
         style="fill:#855c33"
         inkscape:connector-curvature="0"
         id="path43"
         d="m 224.9,230.1 0,44.9 52.3,0.2 c 0,0 0,-42.2 0,-44.9 0,-14.4 -11.8,-26.2 -26.2,-26.2 -14.4,0 -26.1,11.6 -26.1,26" /><path
         style="fill:#26a6ab"
         inkscape:connector-curvature="0"
         id="path45"
         d="m 294.7,331 -84.1,0 c -26.2,0 -37.4,-33.3 -16.6,-49.2 l 47,-35.2 71.3,0 0,66.8 c 0,9.8 -7.9,17.6 -17.6,17.6" /><polygon
         style="fill:#42c9c9"
         id="polygon47"
         points="201,276.6 245.6,243.3 237.6,273.8 " /><polygon
         style="fill:#f7f5e8"
         id="polygon49"
         points="245.6,243.3 251.7,262.7 235.9,262.7 " /><polygon
         style="fill:#f7f5e8"
         id="polygon51"
         points="257.7,243.3 267.4,262.7 251.7,262.7 " /><polygon
         style="fill:#bdd1cf"
         id="polygon53"
         points="267.4,262.7 265.7,273.8 237.6,273.8 235.9,262.7 " /><path
         style="fill:#f7f5e8"
         inkscape:connector-curvature="0"
         id="path55"
         d="m 286,331 c -2.6,-19.3 -7.8,-42.7 -20.1,-57.2 l -0.1,0 -14,0 -14,0 -0.1,0 c -12.3,14.5 -17.6,37.9 -20.1,57.2 l 68.4,0 z" /><path
         style="fill:#ffcc99"
         inkscape:connector-curvature="0"
         id="path57"
         d="m 253.9,243.8 -4.5,0 c -4.7,0 -8.5,-3.8 -8.5,-8.5 l 0,-14.5 21.5,0 0,14.5 c 0,4.7 -3.8,8.5 -8.5,8.5" /><path
         style="fill:#bdd1cf"
         inkscape:connector-curvature="0"
         id="path59"
         d="m 238.3,331 0,-57.2 c 9.1,21.4 20.4,47.3 34.2,57.2 l -34.2,0 z" /><polygon
         style="fill:#ffcc99"
         id="polygon61"
         points="251.7,262.7 257.7,243.3 245.6,243.3 " /><polygon
         style="fill:#42c9c9"
         id="polygon63"
         points="312.3,246.7 312.3,285.9 281.8,246.7 " /></g><path
       style="fill:#4a5261"
       inkscape:connector-curvature="0"
       id="path65"
       d="m 373.2,-33.499997 -7.2,0.1 -1.1,-6.4 c -1,-0.9 -2.2,-1.7 -3.6,-2.2 -1.5,-0.5 -3.2,-0.8 -5.1,-0.8 -4.2,0 -7.4,1.6 -9.7,4.7 -2.2,3.1 -3.3,7.1 -3.3,12 l 0,1.7 c 0,4.9 1.2,8.9 3.5,12 2.3,3.1000002 5.5,4.6000002 9.6,4.5000002 1.9,0 3.7,-0.3 5.2,-0.9 1.6,-0.6 2.8,-1.3000002 3.7,-2.3000002 l 0.9,-6.5 7.2,-0.1 0.1,9.6000002 c -1.9,2.3 -4.4,4.1 -7.4,5.5 -3,1.4 -6.4,2.09999996 -10.1,2.09999996 -6.5,0.1 -11.8,-2.09999996 -16,-6.59999996 -4.2,-4.5000002 -6.3,-10.2000002 -6.4,-17.3000002 l 0,-1.6 c -0.1,-7 1.9,-12.8 6,-17.4 4.1,-4.6 9.4,-6.9 15.9,-6.9 3.7,0 7.1,0.6 10.2,2 3,1.3 5.5,3.1 7.5,5.3 l 0.1,9.5 z" /><path
       style="fill:#4a5261"
       inkscape:connector-curvature="0"
       id="path67"
       d="m 598.7,-25.999997 c 0,-5 -1.1,-9.1 -3.2,-12.2 -2.1,-3.1 -5.2,-4.6 -9.3,-4.6 -4.1,0 -7.1,1.6 -9.1,4.7 -2,3.1 -2.9,7.2 -2.9,12.3 l 0,0.8 c 0,5.1 1.1,9.2 3.2,12.3 2.1,3.1000002 5.1,4.6000002 9.2,4.6000002 4.1,0 7.2,-1.6 9.2,-4.8000002 2,-3.1 3,-7.2 3,-12.3 l -0.1,-0.8 z m 9.7,0.7 c 0.1,7.1 -1.9,13 -5.9,17.6000002 -4,4.7 -9.3,6.99999996 -15.9,7.09999996 -6.5,0.1 -11.8,-2.19999996 -15.9,-6.79999996 -4.1,-4.6000002 -6.1,-10.4000002 -6.2,-17.5000002 l 0,-0.7 c -0.1,-7 1.9,-12.9 5.9,-17.6 4,-4.7 9.2,-7.1 15.8,-7.1 6.6,-0.1 11.9,2.2 16,6.8 4.1,4.6 6.2,10.4 6.3,17.5 l -0.1,0.7 z" /><path
       style="fill:#4a5261"
       inkscape:connector-curvature="0"
       id="path69"
       d="m 633.9,-25.799997 8.2,-0.1 c 2.7,0 4.7,-0.8 6.1,-2.3 1.4,-1.5 2,-3.4 2,-5.7 0,-2.3 -0.7,-4.2 -2.1,-5.7 -1.4,-1.5 -3.5,-2.2 -6.2,-2.2 l -8.2,0.1 0.2,15.9 z m 8,-23.4 c 5.5,0 9.9,1.3 13.2,4.1 3.2,2.8 4.9,6.5 4.9,11.1 0,4.6 -1.5,8.4 -4.7,11.2 -3.2,2.8 -7.5,4.3 -13.1,4.3 l -8.2,0.1 0.1,10.7000002 5.2,0.9 0,5.79999996 -20,0.2 -0.1,-5.79999996 5.1,-1 -0.3,-34.7000002 -5.2,-1 -0.1,-5.9 5.2,0 18,0 z" /></g></svg>