<?xml version="1.0" encoding="utf-8"?>
<!-- Generator: Adobe Illustrator 18.0.0, SVG Export Plug-In . SVG Version: 6.00 Build 0)  -->
<!DOCTYPE svg PUBLIC "-//W3C//DTD SVG 1.1//EN" "http://www.w3.org/Graphics/SVG/1.1/DTD/svg11.dtd">
<svg version="1.1" id="Ebene_1" xmlns="http://www.w3.org/2000/svg" xmlns:xlink="http://www.w3.org/1999/xlink" x="0px" y="0px"
	 viewBox="0 0 595.3 841.9" enable-background="new 0 0 595.3 841.9" xml:space="preserve">
<g>
	<defs>
		<rect id="SVGID_1_" x="180.2" y="152.7" width="234.3" height="188.7"/>
	</defs>
	<clipPath id="SVGID_2_">
		<use xlink:href="#SVGID_1_"  overflow="visible"/>
	</clipPath>
	<path clip-path="url(#SVGID_2_)" fill="#4A5261" d="M205,320.8l-4.5,0l-0.7-4c-0.6-0.6-1.4-1.1-2.3-1.4c-0.9-0.3-2-0.5-3.2-0.5
		c-2.6,0-4.6,1-6.1,2.9c-1.4,1.9-2.1,4.4-2.1,7.5l0,1.1c0,3.1,0.8,5.6,2.2,7.5c1.4,1.9,3.4,2.9,6,2.8c1.2,0,2.3-0.2,3.3-0.5
		c1-0.4,1.7-0.8,2.3-1.4l0.6-4l4.5,0l0.1,6c-1.2,1.4-2.7,2.6-4.6,3.4s-4,1.3-6.3,1.3c-4.1,0-7.4-1.3-10-4.1c-2.6-2.8-3.9-6.4-4-10.8
		l0-1c0-4.4,1.2-8,3.8-10.9c2.6-2.8,5.9-4.3,10-4.3c2.3,0,4.5,0.4,6.3,1.2c1.9,0.8,3.5,1.9,4.7,3.3L205,320.8z"/>
</g>
<path fill="#4A5261" d="M226.1,317.4l0.1,0l3.5,10.6l-6.9,0.1L226.1,317.4z M223,310.5l-9,26.4l-2.2,0.3l0,3.6l10.3-0.1l0-3.6
	l-2.1-0.4l1.3-4.2l9.8-0.1l1.4,4.1l-2.1,0.4l0,3.6l10.3-0.1l0-3.6l-2.2-0.3l-9.4-26.2L223,310.5z"/>
<polygon fill="#4A5261" points="256.1,310.2 250,310.2 246.8,310.3 246.8,313.9 250.1,314.5 250.3,336.2 247,336.9 247.1,340.5 
	269.8,340.3 269.7,331.8 265.1,331.9 264.9,335.7 256.3,335.8 256.1,314.4 259.4,313.8 259.3,310.1 "/>
<polygon fill="#4A5261" points="285.3,309.9 279.2,310 276,310 276,313.6 279.2,314.2 279.4,335.9 276.2,336.6 276.3,340.2 299,340 
	298.9,331.6 294.3,331.6 294,335.4 285.5,335.5 285.3,314.2 288.5,313.5 288.5,309.9 "/>
<polygon fill="#4A5261" points="305.1,309.7 305.2,313.4 308.4,314 308.6,335.7 305.4,336.3 305.4,340 317.9,339.9 317.9,336.2 
	314.7,335.6 314.5,313.9 317.7,313.3 317.7,309.6 "/>
<g>
	<defs>
		<rect id="SVGID_3_" x="180.2" y="152.7" width="234.3" height="188.7"/>
	</defs>
	<clipPath id="SVGID_4_">
		<use xlink:href="#SVGID_3_"  overflow="visible"/>
	</clipPath>
	<path clip-path="url(#SVGID_4_)" fill="#4A5261" d="M346,324.2c0-3.1-0.7-5.7-2-7.6c-1.3-1.9-3.3-2.9-5.8-2.9c-2.6,0-4.4,1-5.7,3
		c-1.2,2-1.8,4.5-1.8,7.7l0,0.5c0,3.2,0.7,5.7,2,7.7c1.3,1.9,3.2,2.9,5.7,2.9c2.6,0,4.5-1,5.7-3c1.3-2,1.9-4.5,1.9-7.7L346,324.2z
		 M352,324.6c0,4.4-1.2,8.1-3.7,11c-2.5,2.9-5.8,4.4-9.9,4.4c-4.1,0-7.4-1.4-9.9-4.3c-2.5-2.9-3.8-6.5-3.9-11l0-0.5
		c0-4.4,1.2-8.1,3.7-11c2.5-2.9,5.8-4.4,9.8-4.5c4.1,0,7.4,1.4,10,4.3s3.9,6.5,3.9,10.9L352,324.6z"/>
	<path clip-path="url(#SVGID_4_)" fill="#4A5261" d="M368,323.8l5.1,0c1.7,0,3-0.5,3.8-1.4c0.9-0.9,1.3-2.1,1.3-3.5
		c0-1.5-0.5-2.7-1.3-3.6c-0.9-0.9-2.2-1.4-3.8-1.4l-5.1,0L368,323.8z M373,309.1c3.5,0,6.2,0.8,8.2,2.6c2,1.8,3,4.1,3.1,7
		c0,2.9-1,5.2-2.9,7c-2,1.8-4.7,2.7-8.2,2.7l-5.1,0l0.1,6.7l3.2,0.6l0,3.6l-12.5,0.1l0-3.6l3.2-0.7l-0.2-21.7l-3.2-0.6l0-3.7l3.2,0
		L373,309.1z"/>
</g>
<polygon fill="#4A5261" points="393.6,308.9 390.3,308.9 390.4,312.6 393.6,313.2 393.8,334.9 390.6,335.6 390.6,339.2 414.6,339 
	414.5,330.7 409.9,330.7 409.6,334.4 399.9,334.4 399.8,325.8 410,325.7 410,321 399.8,321.1 399.7,313.5 409.4,313.4 409.7,317 
	414.3,317 414.2,308.7 "/>
<g>
	<defs>
		<rect id="SVGID_5_" x="180.2" y="152.7" width="234.3" height="188.7"/>
	</defs>
	<clipPath id="SVGID_6_">
		<use xlink:href="#SVGID_5_"  overflow="visible"/>
	</clipPath>
	<path clip-path="url(#SVGID_6_)" fill="#4A5261" d="M359.3,195.4H324v-33.8c0-3.4,2.8-6.2,6.2-6.2h22.9c3.4,0,6.2,2.8,6.2,6.2
		V195.4z"/>
</g>
<rect x="328.8" y="163.5" fill="#8096A1" width="25.8" height="31.8"/>
<g>
	<defs>
		<rect id="SVGID_7_" x="180.2" y="152.7" width="234.3" height="188.7"/>
	</defs>
	<clipPath id="SVGID_8_">
		<use xlink:href="#SVGID_7_"  overflow="visible"/>
	</clipPath>
	<path clip-path="url(#SVGID_8_)" fill="#855C33" d="M271.9,178.8v44.9l52.3,0.2c0,0,0-42.2,0-44.9c0-14.4-11.8-26.2-26.2-26.2
		C283.6,152.7,271.9,164.4,271.9,178.8"/>
	<path clip-path="url(#SVGID_8_)" fill="#26A6AB" d="M341.7,279.7h-84.1c-26.2,0-37.4-33.3-16.6-49.2l47-35.2h71.3v66.8
		C359.3,271.8,351.4,279.7,341.7,279.7"/>
</g>
<polygon fill="#42C9C9" points="284.6,222.5 248,225.2 292.6,191.9 "/>
<polygon fill="#F7F5E8" points="282.9,211.4 292.6,191.9 298.7,211.4 "/>
<polygon fill="#F7F5E8" points="298.7,211.4 304.7,191.9 314.4,211.4 "/>
<polygon fill="#BDD1CF" points="312.7,222.5 284.6,222.5 282.9,211.4 314.4,211.4 "/>
<g>
	<defs>
		<rect id="SVGID_9_" x="180.2" y="152.7" width="234.3" height="188.7"/>
	</defs>
	<clipPath id="SVGID_10_">
		<use xlink:href="#SVGID_9_"  overflow="visible"/>
	</clipPath>
	<path clip-path="url(#SVGID_10_)" fill="#F7F5E8" d="M333,279.7c-2.6-19.3-7.8-42.7-20.1-57.2h-0.1h-14h-14h-0.1
		c-12.3,14.5-17.6,37.9-20.1,57.2H333z"/>
	<path clip-path="url(#SVGID_10_)" fill="#FFCC99" d="M300.9,192.4h-4.5c-4.7,0-8.5-3.8-8.5-8.5v-14.5h21.5v14.5
		C309.4,188.6,305.6,192.4,300.9,192.4"/>
	<path clip-path="url(#SVGID_10_)" fill="#BDD1CF" d="M285.3,279.7v-57.2c9.1,21.4,20.4,47.3,34.2,57.2H285.3z"/>
</g>
<polygon fill="#FFCC99" points="292.6,191.9 298.7,211.4 304.7,191.9 "/>
<polygon fill="#42C9C9" points="328.8,195.4 359.3,195.4 359.3,234.6 "/>
</svg>
