<?xml version="1.0" encoding="UTF-8" standalone="no"?>
<!-- Generator: Adobe Illustrator 18.0.0, SVG Export Plug-In . SVG Version: 6.00 Build 0)  -->

<svg
   xmlns:dc="http://purl.org/dc/elements/1.1/"
   xmlns:cc="http://creativecommons.org/ns#"
   xmlns:rdf="http://www.w3.org/1999/02/22-rdf-syntax-ns#"
   xmlns:svg="http://www.w3.org/2000/svg"
   xmlns="http://www.w3.org/2000/svg"
   xmlns:xlink="http://www.w3.org/1999/xlink"
   xmlns:sodipodi="http://sodipodi.sourceforge.net/DTD/sodipodi-0.dtd"
   xmlns:inkscape="http://www.inkscape.org/namespaces/inkscape"
   version="1.1"
   id="Ebene_1"
   x="0px"
   y="0px"
   viewBox="0 0 234.4 188.6"
   enable-background="new 0 0 595.3 841.9"
   xml:space="preserve"
   inkscape:version="0.91 r13725"
   sodipodi:docname="Logo_Calliope_norm.svg"
   width="234.39999"
   height="188.60001"><metadata
     id="metadata89"><rdf:RDF><cc:Work
         rdf:about=""><dc:format>image/svg+xml</dc:format><dc:type
           rdf:resource="http://purl.org/dc/dcmitype/StillImage" /><dc:title></dc:title></cc:Work></rdf:RDF></metadata><defs
     id="defs87" /><sodipodi:namedview
     pagecolor="#ffffff"
     bordercolor="#666666"
     borderopacity="1"
     objecttolerance="10"
     gridtolerance="10"
     guidetolerance="10"
     inkscape:pageopacity="0"
     inkscape:pageshadow="2"
     inkscape:window-width="1920"
     inkscape:window-height="1137"
     id="namedview85"
     showgrid="false"
     inkscape:zoom="3.1714397"
     inkscape:cx="73.725892"
     inkscape:cy="132.25623"
     inkscape:window-x="-8"
     inkscape:window-y="156"
     inkscape:window-maximized="1"
     inkscape:current-layer="Ebene_1" /><g
     id="g4307"
     transform="translate(0.15971695,653.11241)"><g
       transform="translate(-180.35972,-805.91209)"
       id="g3"><defs
         id="defs5"><rect
           height="188.7"
           width="234.3"
           y="152.7"
           x="180.2"
           id="SVGID_1_" /></defs><clipPath
         id="SVGID_2_"><use
           height="100%"
           width="100%"
           y="0"
           x="0"
           style="overflow:visible"
           id="use9"
           overflow="visible"
           xlink:href="#SVGID_1_" /></clipPath><path
         style="fill:#4a5261"
         inkscape:connector-curvature="0"
         id="path11"
         d="m 205,320.8 -4.5,0 -0.7,-4 c -0.6,-0.6 -1.4,-1.1 -2.3,-1.4 -0.9,-0.3 -2,-0.5 -3.2,-0.5 -2.6,0 -4.6,1 -6.1,2.9 -1.4,1.9 -2.1,4.4 -2.1,7.5 l 0,1.1 c 0,3.1 0.8,5.6 2.2,7.5 1.4,1.9 3.4,2.9 6,2.8 1.2,0 2.3,-0.2 3.3,-0.5 1,-0.4 1.7,-0.8 2.3,-1.4 l 0.6,-4 4.5,0 0.1,6 c -1.2,1.4 -2.7,2.6 -4.6,3.4 -1.9,0.8 -4,1.3 -6.3,1.3 -4.1,0 -7.4,-1.3 -10,-4.1 -2.6,-2.8 -3.9,-6.4 -4,-10.8 l 0,-1 c 0,-4.4 1.2,-8 3.8,-10.9 2.6,-2.8 5.9,-4.3 10,-4.3 2.3,0 4.5,0.4 6.3,1.2 1.9,0.8 3.5,1.9 4.7,3.3 l 0,5.9 z"
         clip-path="url(#SVGID_2_)" /></g><path
       style="fill:#4a5261"
       inkscape:connector-curvature="0"
       id="path13"
       d="m 45.740275,-488.51209 0.1,0 3.5,10.6 -6.9,0.1 3.3,-10.7 z m -3.1,-6.9 -9,26.4 -2.2,0.3 0,3.6 10.3,-0.1 0,-3.6 -2.1,-0.4 1.3,-4.2 9.8,-0.1 1.4,4.1 -2.1,0.4 0,3.6 10.3,-0.1 0,-3.6 -2.2,-0.3 -9.4,-26.2 -6.1,0.2 z" /><polygon
       style="fill:#4a5261"
       transform="translate(-180.35972,-805.91209)"
       id="polygon15"
       points="256.3,335.8 256.1,314.4 259.4,313.8 259.3,310.1 256.1,310.2 250,310.2 246.8,310.3 246.8,313.9 250.1,314.5 250.3,336.2 247,336.9 247.1,340.5 269.8,340.3 269.7,331.8 265.1,331.9 264.9,335.7 " /><polygon
       style="fill:#4a5261"
       transform="translate(-180.35972,-805.91209)"
       id="polygon17"
       points="285.5,335.5 285.3,314.2 288.5,313.5 288.5,309.9 285.3,309.9 279.2,310 276,310 276,313.6 279.2,314.2 279.4,335.9 276.2,336.6 276.3,340.2 299,340 298.9,331.6 294.3,331.6 294,335.4 " /><polygon
       style="fill:#4a5261"
       transform="translate(-180.35972,-805.91209)"
       id="polygon19"
       points="305.1,309.7 305.2,313.4 308.4,314 308.6,335.7 305.4,336.3 305.4,340 317.9,339.9 317.9,336.2 314.7,335.6 314.5,313.9 317.7,313.3 317.7,309.6 " /><g
       transform="translate(-180.35972,-805.91209)"
       id="g21"><defs
         id="defs23"><rect
           height="188.7"
           width="234.3"
           y="152.7"
           x="180.2"
           id="SVGID_3_" /></defs><clipPath
         id="SVGID_4_"><use
           height="100%"
           width="100%"
           y="0"
           x="0"
           style="overflow:visible"
           id="use27"
           overflow="visible"
           xlink:href="#SVGID_3_" /></clipPath><path
         style="fill:#4a5261"
         inkscape:connector-curvature="0"
         id="path29"
         d="m 346,324.2 c 0,-3.1 -0.7,-5.7 -2,-7.6 -1.3,-1.9 -3.3,-2.9 -5.8,-2.9 -2.6,0 -4.4,1 -5.7,3 -1.2,2 -1.8,4.5 -1.8,7.7 l 0,0.5 c 0,3.2 0.7,5.7 2,7.7 1.3,1.9 3.2,2.9 5.7,2.9 2.6,0 4.5,-1 5.7,-3 1.3,-2 1.9,-4.5 1.9,-7.7 l 0,-0.6 z m 6,0.4 c 0,4.4 -1.2,8.1 -3.7,11 -2.5,2.9 -5.8,4.4 -9.9,4.4 -4.1,0 -7.4,-1.4 -9.9,-4.3 -2.5,-2.9 -3.8,-6.5 -3.9,-11 l 0,-0.5 c 0,-4.4 1.2,-8.1 3.7,-11 2.5,-2.9 5.8,-4.4 9.8,-4.5 4.1,0 7.4,1.4 10,4.3 2.6,2.9 3.9,6.5 3.9,10.9 l 0,0.7 z"
         clip-path="url(#SVGID_4_)" /><path
         style="fill:#4a5261"
         inkscape:connector-curvature="0"
         id="path31"
         d="m 368,323.8 5.1,0 c 1.7,0 3,-0.5 3.8,-1.4 0.9,-0.9 1.3,-2.1 1.3,-3.5 0,-1.5 -0.5,-2.7 -1.3,-3.6 -0.9,-0.9 -2.2,-1.4 -3.8,-1.4 l -5.1,0 0,9.9 z m 5,-14.7 c 3.5,0 6.2,0.8 8.2,2.6 2,1.8 3,4.1 3.1,7 0,2.9 -1,5.2 -2.9,7 -2,1.8 -4.7,2.7 -8.2,2.7 l -5.1,0 0.1,6.7 3.2,0.6 0,3.6 -12.5,0.1 0,-3.6 3.2,-0.7 -0.2,-21.7 -3.2,-0.6 0,-3.7 3.2,0 11.1,0 z"
         clip-path="url(#SVGID_4_)" /></g><polygon
       style="fill:#4a5261"
       transform="translate(-180.35972,-805.91209)"
       id="polygon33"
       points="399.8,325.8 410,325.7 410,321 399.8,321.1 399.7,313.5 409.4,313.4 409.7,317 414.3,317 414.2,308.7 393.6,308.9 390.3,308.9 390.4,312.6 393.6,313.2 393.8,334.9 390.6,335.6 390.6,339.2 414.6,339 414.5,330.7 409.9,330.7 409.6,334.4 399.9,334.4 " /><g
       transform="translate(-180.35972,-805.91209)"
       id="g35"><defs
         id="defs37"><rect
           height="188.7"
           width="234.3"
           y="152.7"
           x="180.2"
           id="SVGID_5_" /></defs><clipPath
         id="SVGID_6_"><use
           height="100%"
           width="100%"
           y="0"
           x="0"
           style="overflow:visible"
           id="use41"
           overflow="visible"
           xlink:href="#SVGID_5_" /></clipPath><path
         style="fill:#4a5261"
         inkscape:connector-curvature="0"
         id="path43"
         d="m 359.3,195.4 -35.3,0 0,-33.8 c 0,-3.4 2.8,-6.2 6.2,-6.2 l 22.9,0 c 3.4,0 6.2,2.8 6.2,6.2 l 0,33.8 z"
         clip-path="url(#SVGID_6_)" /></g><rect
       style="fill:#8096a1"
       id="rect45"
       height="31.799999"
       width="25.799999"
       y="-642.41211"
       x="148.44026" /><g
       transform="translate(-180.35972,-805.91209)"
       id="g47"><defs
         id="defs49"><rect
           height="188.7"
           width="234.3"
           y="152.7"
           x="180.2"
           id="SVGID_7_" /></defs><clipPath
         id="SVGID_8_"><use
           height="100%"
           width="100%"
           y="0"
           x="0"
           style="overflow:visible"
           id="use53"
           overflow="visible"
           xlink:href="#SVGID_7_" /></clipPath><path
         style="fill:#855c33"
         inkscape:connector-curvature="0"
         id="path55"
         d="m 271.9,178.8 0,44.9 52.3,0.2 c 0,0 0,-42.2 0,-44.9 0,-14.4 -11.8,-26.2 -26.2,-26.2 -14.4,-0.1 -26.1,11.6 -26.1,26"
         clip-path="url(#SVGID_8_)" /><path
         style="fill:#26a6ab"
         inkscape:connector-curvature="0"
         id="path57"
         d="m 341.7,279.7 -84.1,0 c -26.2,0 -37.4,-33.3 -16.6,-49.2 l 47,-35.2 71.3,0 0,66.8 c 0,9.7 -7.9,17.6 -17.6,17.6"
         clip-path="url(#SVGID_8_)" /></g><polygon
       style="fill:#42c9c9"
       transform="translate(-180.35972,-805.91209)"
       id="polygon59"
       points="284.6,222.5 248,225.2 292.6,191.9 " /><polygon
       style="fill:#f7f5e8"
       transform="translate(-180.35972,-805.91209)"
       id="polygon61"
       points="282.9,211.4 292.6,191.9 298.7,211.4 " /><polygon
       style="fill:#f7f5e8"
       transform="translate(-180.35972,-805.91209)"
       id="polygon63"
       points="298.7,211.4 304.7,191.9 314.4,211.4 " /><polygon
       style="fill:#bdd1cf"
       transform="translate(-180.35972,-805.91209)"
       id="polygon65"
       points="312.7,222.5 284.6,222.5 282.9,211.4 314.4,211.4 " /><g
       transform="translate(-180.35972,-805.91209)"
       id="g67"><defs
         id="defs69"><rect
           height="188.7"
           width="234.3"
           y="152.7"
           x="180.2"
           id="SVGID_9_" /></defs><clipPath
         id="SVGID_10_"><use
           height="100%"
           width="100%"
           y="0"
           x="0"
           style="overflow:visible"
           id="use73"
           overflow="visible"
           xlink:href="#SVGID_9_" /></clipPath><path
         style="fill:#f7f5e8"
         inkscape:connector-curvature="0"
         id="path75"
         d="m 333,279.7 c -2.6,-19.3 -7.8,-42.7 -20.1,-57.2 l -0.1,0 -14,0 -14,0 -0.1,0 c -12.3,14.5 -17.6,37.9 -20.1,57.2 l 68.4,0 z"
         clip-path="url(#SVGID_10_)" /><path
         style="fill:#ffcc99"
         inkscape:connector-curvature="0"
         id="path77"
         d="m 300.9,192.4 -4.5,0 c -4.7,0 -8.5,-3.8 -8.5,-8.5 l 0,-14.5 21.5,0 0,14.5 c 0,4.7 -3.8,8.5 -8.5,8.5"
         clip-path="url(#SVGID_10_)" /><path
         style="fill:#bdd1cf"
         inkscape:connector-curvature="0"
         id="path79"
         d="m 285.3,279.7 0,-57.2 c 9.1,21.4 20.4,47.3 34.2,57.2 l -34.2,0 z"
         clip-path="url(#SVGID_10_)" /></g><polygon
       style="fill:#ffcc99"
       transform="translate(-180.35972,-805.91209)"
       id="polygon81"
       points="292.6,191.9 298.7,211.4 304.7,191.9 " /><polygon
       style="fill:#42c9c9"
       transform="translate(-180.35972,-805.91209)"
       id="polygon83"
       points="328.8,195.4 359.3,195.4 359.3,234.6 " /></g></svg>