<?xml version="1.0" encoding="utf-8"?>
<!-- Generator: Adobe Illustrator 22.1.0, SVG Export Plug-In . SVG Version: 6.00 Build 0)  -->
<svg version="1.1"
	 id="svg2" inkscape:export-filename="/Users/sammysam/Work/pxt-microbit/docs/static/packages/bluetooth/icon.png" inkscape:export-xdpi="100.04" inkscape:export-ydpi="100.04" inkscape:version="0.91 r13725" sodipodi:docname="icon.svg" xmlns:cc="http://creativecommons.org/ns#" xmlns:dc="http://purl.org/dc/elements/1.1/" xmlns:inkscape="http://www.inkscape.org/namespaces/inkscape" xmlns:rdf="http://www.w3.org/1999/02/22-rdf-syntax-ns#" xmlns:sodipodi="http://sodipodi.sourceforge.net/DTD/sodipodi-0.dtd" xmlns:svg="http://www.w3.org/2000/svg"
	 xmlns="http://www.w3.org/2000/svg" xmlns:xlink="http://www.w3.org/1999/xlink" x="0px" y="0px" viewBox="0 0 286 176"
	 style="enable-background:new 0 0 286 176;" xml:space="preserve">
<style type="text/css">
	.st0{fill:#0082FB;stroke:#CDCDCD;stroke-width:3.333091e-02;stroke-linecap:round;stroke-linejoin:round;}
	.st1{fill:#FFFFFF;}
	.st2{fill:#00FFFF;}
	.st3{fill:#0A3D91;}
	.st4{fill:none;stroke:#FFFFFF;stroke-width:5.3;}
</style>
<sodipodi:namedview  bordercolor="#666666" borderopacity="1" gridtolerance="10" guidetolerance="10" id="namedview4" inkscape:current-layer="svg2" inkscape:cx="138.77058" inkscape:cy="82.582563" inkscape:pageopacity="0" inkscape:pageshadow="2" inkscape:window-height="744" inkscape:window-maximized="0" inkscape:window-width="1558" inkscape:window-x="0" inkscape:window-y="0" inkscape:zoom="1.9493364" objecttolerance="10" pagecolor="#ffffff" showgrid="false">
	</sodipodi:namedview>
<rect id="rect4138" x="0" y="0" class="st0" width="286" height="176"/>
<image style="overflow:visible;enable-background:new    ;" width="1440" height="496" id="image4156" xlink:href="99048C5B9AD515D2.png"  transform="matrix(0.3665 0 0 0.3665 -73.8575 -2.0237)">
</image>
<path class="st1" d="M228.1,65.4l-59.5-10.1c-3.2-0.4-6.1,1.7-6.8,4.8l-9.8,45.8c-0.7,2.9,1,5.9,4,6.6c0.1,0,0.2,0.1,0.3,0.1
	l59.5,10.1c3.2,0.4,6.1-1.7,6.8-4.8l9.9-45.8c0.7-2.9-1.1-5.9-4-6.6C228.3,65.5,228.2,65.4,228.1,65.4L228.1,65.4z M164.3,62
	c0.5-2.4,2.7-3.9,5.1-3.6l12.6,2.1l8.5,1.4l4.2,0.7l-5.2,3.6l0.9-4.3l-10.3,7.3l1.9-8.8l-20.4,14.3L164.3,62z M168.6,88.7l-0.6,2.9
	c-0.2,1.2-1.4,2-2.5,1.8l-2.8-0.5c-1.1-0.2-1.8-1.3-1.6-2.4c0,0,0-0.1,0-0.1l0.6-2.9c0.2-1.2,1.3-1.9,2.5-1.8l2.8,0.5
	c1.1,0.2,1.8,1.3,1.6,2.4C168.6,88.6,168.6,88.6,168.6,88.7z M209.5,87.8c-2.1,3.9-6.5,5.9-10.8,5.2l-14.2-2.4
	c-4.3-0.7-7.5-4.1-7.9-8.4c-0.6-5.9,3.7-11.1,9.6-11.7c0.8-0.1,1.7-0.1,2.5,0l14.5,2.5C209.5,74.1,213.1,81.3,209.5,87.8L209.5,87.8
	z M221.2,97.6l-0.6,2.9c-0.2,1.2-1.4,2-2.6,1.8l-2.8-0.5c-1.1-0.2-1.8-1.3-1.6-2.4c0,0,0-0.1,0-0.1l0.6-2.9c0.2-1.2,1.3-2,2.5-1.8
	l2.8,0.5c1.1,0.2,1.8,1.3,1.6,2.4C221.2,97.5,221.2,97.5,221.2,97.6L221.2,97.6z"/>
<path class="st1" d="M201.6,77.2L188.3,75c-3-0.5-6,1.3-6.9,4.2c-1,2.9,0.5,6,3.4,7c0.3,0.1,0.5,0.2,0.8,0.2l13.8,2.3
	c3.3,0.4,6.4-1.9,6.8-5.2c0,0,0-0.1,0-0.1C206.6,80.4,204.5,77.7,201.6,77.2L201.6,77.2z M188.6,80.4c-0.2,1.1-1.2,1.8-2.3,1.7
	c-1-0.2-1.7-1.2-1.5-2.2c0,0,0-0.1,0-0.1c0.2-1.1,1.3-1.8,2.4-1.7c1,0.2,1.7,1.2,1.5,2.2C188.6,80.3,188.6,80.3,188.6,80.4z
	 M202.7,82.8c-0.2,1.1-1.2,1.8-2.3,1.7c-1-0.2-1.7-1.2-1.5-2.2c0,0,0-0.1,0-0.1c0.2-1.1,1.3-1.8,2.4-1.7c1,0.2,1.7,1.2,1.5,2.2
	C202.7,82.7,202.7,82.7,202.7,82.8L202.7,82.8z"/>
<path class="st2" d="M144.6,100c0,9.2,3.2,18.2,9.1,25.3l-3.1,2.6c-6.4-7.8-10-17.7-10-27.8H144.6z M231.6,51
	c5.9,7.1,9.1,16.1,9.1,25.3h4c0-10.2-3.5-20-10-27.8L231.6,51z M240,47c5.9,7.1,9.1,16.1,9.1,25.3h4c0-10.2-3.5-20-10-27.8L240,47z
	 M134.9,103.7c0,9.2,3.2,18.2,9.1,25.3l-3.1,2.6c-6.4-7.8-10-17.7-10-27.8H134.9z"/>
<path class="st3" d="M59.2,37.5H65c16.1,0,29.1,13,29.1,29.1V106c0,16.1-13,29.1-29.1,29.1h-5.8c-16.1,0-29.1-13-29.1-29.1V66.6
	C30.1,50.5,43.2,37.5,59.2,37.5z"/>
<path class="st4" d="M45.8,70.5l30.5,30.7L61.6,119V55.4l14.7,17l-30.5,29.9"/>
</svg>
