<svg xmlns="http://www.w3.org/2000/svg" viewBox="0 0 64 64"><title>BackSideUp</title><path d="M64,64H0V0H64Z" fill="#f6f6f6" opacity="0"/><path d="M58.382,36.052,42.736,51.832A6.19,6.19,0,0,1,37.85,53.3l-31.5-5.436c-1.618-.28-2.055-1.389-.975-2.478L21.02,29.6a6.2,6.2,0,0,1,4.886-1.467l16.632,2.871-.149-.026-2.2,2.219c-.405.408-.241.825.366.929l3.3.569a2.321,2.321,0,0,0,1.833-.55l2.2-2.219,2.93.506-3.667,3.7c-.405.409-.241.825.366.93l4.4.758a2.318,2.318,0,0,0,1.832-.55l3.667-3.7C59.026,33.853,59.462,34.963,58.382,36.052Z" fill="#fff"/><path d="M31,21h2v2H31Zm0,6h2V25H31Zm0-8h2V17H31ZM32.018,6.037,27.438,13H31v2h2V13h3.562Z" fill="aqua"/></svg>