<svg xmlns="http://www.w3.org/2000/svg" viewBox="0 0 64 64"><title>FreeFall</title><path d="M64,64H0V0H64Z" fill="#f6f6f6" opacity="0"/><path d="M49.65,28.084l-29.547-5a3,3,0,0,0-3.358,2.378l-4.876,22.75a2.7,2.7,0,0,0,2.139,3.309l29.547,5a3,3,0,0,0,3.358-2.378l4.876-22.75A2.7,2.7,0,0,0,49.65,28.084ZM17.967,26.408a2.253,2.253,0,0,1,2.519-1.784l6.262,1.059,4.2.711,2.1.355-2.564,1.8.463-2.159-5.132,3.635.932-4.346L16.6,32.806ZM20.11,39.663l-.3,1.422a1.126,1.126,0,0,1-1.259.892l-1.375-.233a1.014,1.014,0,0,1-.8-1.241l.3-1.421a1.125,1.125,0,0,1,1.259-.892l1.374.232A1.013,1.013,0,0,1,20.11,39.663Zm20.321-.448a5.177,5.177,0,0,1-5.369,2.609l-7.074-1.2a4.648,4.648,0,0,1-3.916-4.179,5.309,5.309,0,0,1,5.978-5.786l7.216,1.221C40.414,32.415,42.19,35.976,40.431,39.215Zm5.791,4.865-.3,1.422a1.126,1.126,0,0,1-1.259.892l-1.375-.233a1.013,1.013,0,0,1-.8-1.24l.3-1.422a1.126,1.126,0,0,1,1.259-.892l1.374.232A1.015,1.015,0,0,1,46.222,44.08Z" fill="#fff"/><path d="M36.493,33.962l-6.584-1.114a3.093,3.093,0,0,0-3.435,2.094,2.724,2.724,0,0,0,2.072,3.569l6.872,1.163a3.016,3.016,0,0,0,3.4-2.643A2.776,2.776,0,0,0,36.493,33.962Zm-6.44,1.581a1.047,1.047,0,0,1-1.168.829.942.942,0,0,1-.744-1.153,1.045,1.045,0,0,1,1.169-.826A.94.94,0,0,1,30.053,35.543Zm7.021,1.188a1.044,1.044,0,0,1-1.168.828.941.941,0,0,1-.743-1.152,1.044,1.044,0,0,1,1.167-.827A.939.939,0,0,1,37.074,36.731Z" fill="#fff"/><path d="M30,11.072l2,.338v8.423l-2-.394Zm5,11.134,2,.394V5.548L35,5.21ZM40,7.341V19.313l2,.394V7.68Z" fill="aqua"/></svg>