<svg xmlns="http://www.w3.org/2000/svg" viewBox="0 0 64 64"><title>FrontSideUp</title><path d="M64,64H0V0H64Z" fill="#f6f6f6" opacity="0"/><path d="M39.788,36.886l-7.019-1.212a6.535,6.535,0,0,0-4.847,1.26C26.607,38.076,27,39.3,28.7,39.592l7.327,1.265a6.067,6.067,0,0,0,5.053-1.651C41.972,38.148,41.331,37.152,39.788,36.886Zm-8.048.7a2.157,2.157,0,0,1-1.7.511c-.563-.1-.715-.484-.339-.863a2.15,2.15,0,0,1,1.7-.509C31.962,36.825,32.115,37.211,31.74,37.59Zm7.485,1.291a2.152,2.152,0,0,1-1.7.511c-.562-.1-.712-.483-.337-.862a2.149,2.149,0,0,1,1.7-.51C39.451,38.117,39.6,38.5,39.225,38.881Z" fill="#fff"/><path d="M57.407,33.574l-31.5-5.437A6.2,6.2,0,0,0,21.02,29.6L5.374,45.384c-1.08,1.089-.643,2.2.975,2.478L37.85,53.3a6.19,6.19,0,0,0,4.886-1.466l15.646-15.78C59.462,34.963,59.026,33.853,57.407,33.574ZM22,30.35a4.641,4.641,0,0,1,3.664-1.1L32.337,30.4l4.479.773,2.239.386-3.724,1.112,1.485-1.5-7.468,2.242L32.337,30.4,17.6,34.788Zm-3.429,9.514-.978.987a2.326,2.326,0,0,1-1.832.55l-1.465-.253c-.607-.105-.771-.521-.366-.929l.978-.987a2.328,2.328,0,0,1,1.833-.55l1.465.253C18.81,39.04,18.973,39.456,18.568,39.864Zm16.1,2.491-7.542-1.3c-2.224-.384-3.372-1.664-2.616-3.208,1.252-2.556,6.029-4.288,9.386-3.708l7.692,1.327c3.357.58,3.805,3.213.363,5.391A11.2,11.2,0,0,1,34.672,42.355Zm11.734,2.314-.978.986a2.318,2.318,0,0,1-1.832.55l-1.465-.253c-.607-.1-.77-.52-.365-.929l.977-.986a2.321,2.321,0,0,1,1.833-.55l1.465.253C46.648,43.844,46.811,44.26,46.406,44.669Z" fill="#fff"/><path d="M31,25h2v2H31Zm0-2h2V21H31Zm0-4h2V17H31ZM32.018,6.037,27.438,13H31v2h2V13h3.562Z" fill="aqua"/></svg>