<svg xmlns="http://www.w3.org/2000/svg" viewBox="0 0 64 64"><title>Impact3G</title><path d="M64,64H0V0H64Z" fill="#f6f6f6" opacity="0"/><path d="M35.5,34.348l-6.163-1.042a2.894,2.894,0,0,0-3.215,1.959,2.552,2.552,0,0,0,1.939,3.342L34.494,39.7a2.823,2.823,0,0,0,3.185-2.474A2.6,2.6,0,0,0,35.5,34.348Zm-6.028,1.48a.979.979,0,0,1-1.092.776.883.883,0,0,1-.7-1.079.979.979,0,0,1,1.1-.773A.879.879,0,0,1,29.472,35.828Zm6.572,1.112a.977.977,0,0,1-1.093.775.881.881,0,0,1-.7-1.078.977.977,0,0,1,1.093-.774A.879.879,0,0,1,36.044,36.94Z" fill="#fff"/><path d="M47.815,28.847,20.159,24.168a2.811,2.811,0,0,0-3.143,2.226l-4.564,21.3a2.532,2.532,0,0,0,2,3.1L42.11,55.464a2.811,2.811,0,0,0,3.144-2.226l4.564-21.294A2.531,2.531,0,0,0,47.815,28.847ZM18.16,27.277a2.108,2.108,0,0,1,2.357-1.669l5.862.991,3.931.665,1.966.333-2.4,1.689.433-2.022-4.8,3.4.872-4.068-9.5,6.667Zm2.006,12.407-.285,1.331a1.054,1.054,0,0,1-1.179.835l-1.286-.217a.95.95,0,0,1-.751-1.162l.285-1.331a1.055,1.055,0,0,1,1.179-.835l1.286.218A.949.949,0,0,1,20.166,39.684Zm19.021-.418a4.849,4.849,0,0,1-5.026,2.441l-6.622-1.12a4.351,4.351,0,0,1-3.665-3.912,4.969,4.969,0,0,1,5.6-5.415L36.223,32.4A4.543,4.543,0,0,1,39.187,39.266Zm5.419,4.553-.285,1.331a1.055,1.055,0,0,1-1.179.835l-1.286-.218a.949.949,0,0,1-.751-1.161l.286-1.331a1.054,1.054,0,0,1,1.178-.835l1.287.218A.948.948,0,0,1,44.606,43.819Z" fill="#fff"/><path d="M62.293,31.531S53.615,34.369,52.2,34.74c1.215-.811,4.881-3,5.472-3.343-.233-.088-4.064-1.682-4.064-1.682s-.461-6.295-.6-8.9c-1.187,1.572-4.778,6.085-4.778,6.085s-5.667-4.974-6.241-5.5c-.011.495-.149,3.961-.256,5.2-.324-1.2-2.024-9.274-2.024-9.274s7.1,4.384,7.808,4.851c1.8-2.8,9.02-13.046,9.02-13.046s.4,14.322.367,18.549C57.378,28,62.293,31.531,62.293,31.531Z" fill="aqua"/></svg>