<svg xmlns="http://www.w3.org/2000/svg" viewBox="0 0 64 64"><title>Impact8G</title><path d="M64,64H0V0H64Z" fill="#f6f6f6" opacity="0"/><path d="M35.5,34.348l-6.163-1.042a2.894,2.894,0,0,0-3.215,1.959,2.552,2.552,0,0,0,1.939,3.342L34.494,39.7a2.823,2.823,0,0,0,3.185-2.474A2.6,2.6,0,0,0,35.5,34.348Zm-6.028,1.48a.979.979,0,0,1-1.092.776.883.883,0,0,1-.7-1.079.979.979,0,0,1,1.1-.773A.879.879,0,0,1,29.472,35.828Zm6.572,1.112a.977.977,0,0,1-1.093.775.881.881,0,0,1-.7-1.078.977.977,0,0,1,1.093-.774A.879.879,0,0,1,36.044,36.94Z" fill="#fff"/><path d="M47.815,28.847,20.159,24.168a2.811,2.811,0,0,0-3.143,2.226l-4.564,21.3a2.532,2.532,0,0,0,2,3.1L42.11,55.464a2.811,2.811,0,0,0,3.144-2.226l4.564-21.294A2.531,2.531,0,0,0,47.815,28.847ZM18.16,27.277a2.108,2.108,0,0,1,2.357-1.669l5.862.991,3.931.665,1.966.333-2.4,1.689.433-2.022-4.8,3.4.872-4.068-9.5,6.667Zm2.006,12.407-.285,1.331a1.054,1.054,0,0,1-1.179.835l-1.286-.217a.95.95,0,0,1-.751-1.162l.285-1.331a1.055,1.055,0,0,1,1.179-.835l1.286.218A.949.949,0,0,1,20.166,39.684Zm19.021-.418a4.849,4.849,0,0,1-5.026,2.441l-6.622-1.12a4.351,4.351,0,0,1-3.665-3.912,4.969,4.969,0,0,1,5.6-5.415L36.223,32.4A4.543,4.543,0,0,1,39.187,39.266Zm5.419,4.553-.285,1.331a1.055,1.055,0,0,1-1.179.835l-1.286-.218a.949.949,0,0,1-.751-1.161l.286-1.331a1.054,1.054,0,0,1,1.178-.835l1.287.218A.948.948,0,0,1,44.606,43.819Z" fill="#fff"/><path d="M60.889,37.511s-8.041,1-9.389,1.066l6.1-2.111c-.6-.547-5.537-5.113-5.537-5.113s2.293-3.471,3.027-4.568c-1.937-.478-8.214-2.113-8.214-2.113s1.519-6.123,1.973-7.86c-1.043.811-5.833,4.512-5.833,4.512s-3.5-6.347-4.436-8.088c-.553,1.417-2.326,5.791-2.326,5.791s-8.554-1.812-9.682-2.069c1.022,2.56,2.035,5.125,2.988,7.719-1.8-2.825-5.992-9.841-5.992-9.841s8.978.139,10.1.179c.685-2.871,3.567-13.93,3.567-13.93S43.232,10.4,44.63,12.654C45.469,11.962,59.557.8,59.557.8S53.888,19.631,53.4,21.14c1.971.7,9.006,3.329,9.006,3.329s-4.7,5.265-6.062,6.742C56.8,31.837,60.889,37.511,60.889,37.511Z" fill="aqua"/></svg>