<svg xmlns="http://www.w3.org/2000/svg" viewBox="0 0 64 64"><title>Impact6G</title><path d="M64,64H0V0H64Z" fill="#f6f6f6" opacity="0"/><path d="M35.66,34.348,29.5,33.306a2.894,2.894,0,0,0-3.215,1.959,2.552,2.552,0,0,0,1.939,3.342L34.654,39.7a2.824,2.824,0,0,0,3.185-2.474A2.6,2.6,0,0,0,35.66,34.348Zm-6.028,1.48a.979.979,0,0,1-1.092.776.883.883,0,0,1-.7-1.079.978.978,0,0,1,1.094-.773A.879.879,0,0,1,29.632,35.828ZM36.2,36.94a.978.978,0,0,1-1.094.775.881.881,0,0,1-.7-1.078.977.977,0,0,1,1.093-.774A.879.879,0,0,1,36.2,36.94Z" fill="#fff"/><path d="M47.975,28.847,20.319,24.168a2.81,2.81,0,0,0-3.143,2.226l-4.564,21.3a2.531,2.531,0,0,0,2,3.1L42.27,55.464a2.812,2.812,0,0,0,3.144-2.226l4.564-21.294A2.531,2.531,0,0,0,47.975,28.847ZM18.32,27.277a2.108,2.108,0,0,1,2.357-1.669l5.862.991,3.931.665,1.966.333-2.4,1.689.433-2.022-4.8,3.4.872-4.068-9.5,6.667Zm2.006,12.407-.285,1.331a1.054,1.054,0,0,1-1.179.835l-1.286-.217a.95.95,0,0,1-.751-1.162l.285-1.331a1.055,1.055,0,0,1,1.179-.835l1.286.218A.949.949,0,0,1,20.326,39.684Zm19.021-.418a4.85,4.85,0,0,1-5.027,2.441L27.7,40.587a4.351,4.351,0,0,1-3.665-3.912,4.969,4.969,0,0,1,5.6-5.415L36.383,32.4A4.543,4.543,0,0,1,39.347,39.266Zm5.419,4.553-.285,1.331a1.055,1.055,0,0,1-1.179.835l-1.286-.218a.949.949,0,0,1-.751-1.161l.285-1.331a1.055,1.055,0,0,1,1.179-.835l1.287.218A.949.949,0,0,1,44.766,43.819Z" fill="#fff"/><path d="M59.718,34.767s-5.938.872-6.913.978c.9-.385,3.76-1.517,4.283-1.719-.759-.666-5.948-5.419-5.948-5.419L53.294,23.8c-1.953.508-7.768,1.933-7.768,1.933s-1.274-5.155-1.651-6.774c-.713,1.649-2.9,6.444-2.9,6.444s-6.97-4.182-7.8-4.707c.31,1.472.6,2.95.859,4.44-.945-1.909-3.361-7.373-3.361-7.373s7.848,3.215,8.748,3.605c.432-1.316,5.307-15.056,5.307-15.056S47.762,18.1,48.448,20.99c2.534-.558,11.419-2.34,11.419-2.34s-4.19,7.43-5.393,9.494Z" fill="aqua"/></svg>