<?xml version="1.0" encoding="UTF-8" standalone="no"?>
<svg
   xmlns:dc="http://purl.org/dc/elements/1.1/"
   xmlns:cc="http://creativecommons.org/ns#"
   xmlns:rdf="http://www.w3.org/1999/02/22-rdf-syntax-ns#"
   xmlns:svg="http://www.w3.org/2000/svg"
   xmlns="http://www.w3.org/2000/svg"
   xmlns:sodipodi="http://sodipodi.sourceforge.net/DTD/sodipodi-0.dtd"
   xmlns:inkscape="http://www.inkscape.org/namespaces/inkscape"
   viewBox="0 0 64 64"
   id="svg2"
   version="1.1"
   inkscape:version="0.91 r13725"
   sodipodi:docname="Shake.svg"
   inkscape:export-filename="/Users/sam/pxt-microbit/libs/core/jres/gestures/shake-icon.png"
   inkscape:export-xdpi="99.84375"
   inkscape:export-ydpi="99.84375">
  <metadata
     id="metadata18">
    <rdf:RDF>
      <cc:Work
         rdf:about="">
        <dc:format>image/svg+xml</dc:format>
        <dc:type
           rdf:resource="http://purl.org/dc/dcmitype/StillImage" />
        <dc:title>Shake</dc:title>
      </cc:Work>
    </rdf:RDF>
  </metadata>
  <defs
     id="defs16" />
  <sodipodi:namedview
     pagecolor="#db3838"
     bordercolor="#666666"
     borderopacity="1"
     objecttolerance="10"
     gridtolerance="10"
     guidetolerance="10"
     inkscape:pageopacity="0"
     inkscape:pageshadow="2"
     inkscape:window-width="1570"
     inkscape:window-height="925"
     id="namedview14"
     showgrid="false"
     inkscape:zoom="7.375"
     inkscape:cx="32"
     inkscape:cy="32"
     inkscape:window-x="0"
     inkscape:window-y="0"
     inkscape:window-maximized="0"
     inkscape:current-layer="svg2" />
  <title
     id="title4">Shake</title>
  <path
     d="M64,64H0V0H64Z"
     fill="#f6f6f6"
     opacity="0"
     id="path6" />
  <path
     d="M49.65,20.084l-29.547-5a3,3,0,0,0-3.358,2.378l-4.876,22.75a2.7,2.7,0,0,0,2.139,3.309l29.547,5a3,3,0,0,0,3.358-2.378l4.876-22.75A2.7,2.7,0,0,0,49.65,20.084ZM17.967,18.408a2.253,2.253,0,0,1,2.519-1.784l6.262,1.059,4.2.711,2.1.355-2.564,1.8.463-2.159-5.132,3.635.932-4.346L16.6,24.806ZM20.11,31.663l-.3,1.422a1.126,1.126,0,0,1-1.259.892l-1.375-.233a1.014,1.014,0,0,1-.8-1.241l.3-1.421a1.125,1.125,0,0,1,1.259-.892l1.374.232A1.013,1.013,0,0,1,20.11,31.663Zm20.321-.448a5.177,5.177,0,0,1-5.369,2.609l-7.074-1.2a4.648,4.648,0,0,1-3.916-4.179,5.309,5.309,0,0,1,5.978-5.786l7.216,1.221C40.414,24.415,42.19,27.976,40.431,31.215Zm5.791,4.865-.3,1.422a1.126,1.126,0,0,1-1.259.892l-1.375-.233a1.013,1.013,0,0,1-.8-1.24l.3-1.422a1.126,1.126,0,0,1,1.259-.892l1.374.232A1.015,1.015,0,0,1,46.222,36.08Z"
     fill="#fff"
     id="path8"
     style="fill:#ffffff;fill-opacity:1" />
  <path
     d="M36.493,25.962l-6.584-1.114a3.093,3.093,0,0,0-3.435,2.094,2.724,2.724,0,0,0,2.072,3.569l6.872,1.163a3.016,3.016,0,0,0,3.4-2.643A2.776,2.776,0,0,0,36.493,25.962Zm-6.44,1.581a1.047,1.047,0,0,1-1.168.829.942.942,0,0,1-.744-1.153,1.045,1.045,0,0,1,1.169-.826A.94.94,0,0,1,30.053,27.543Zm7.021,1.188a1.044,1.044,0,0,1-1.168.828.941.941,0,0,1-.743-1.152,1.044,1.044,0,0,1,1.167-.827A.939.939,0,0,1,37.074,28.731Z"
     fill="#fff"
     id="path10" />
  <path
     d="M8.2,37.3a19.8,19.8,0,0,0,4.5,12.559l-1.544,1.271A21.8,21.8,0,0,1,6.2,37.3Zm-6,1a21.673,21.673,0,0,0,1.341,7.537l1.876-.693A19.676,19.676,0,0,1,4.2,38.3ZM51.426,12.931a19.8,19.8,0,0,1,4.5,12.559h2A21.8,21.8,0,0,0,52.97,11.66Zm9.161,4.023-1.876.692a19.706,19.706,0,0,1,1.216,6.844h2A21.675,21.675,0,0,0,60.587,16.954Z"
     fill="aqua"
     id="path12" />
</svg>
