<svg xmlns="http://www.w3.org/2000/svg" viewBox="0 0 64 64"><title>TiltBackward</title><path d="M64,64H0V0H64Z" fill="#f6f6f6" opacity="0"/><path d="M34.3,36.284a3.081,3.081,0,0,0-3.064-3.361H23.538a3.08,3.08,0,0,0-3.064,3.36A3.186,3.186,0,0,0,23.7,39.077H31.07A3.186,3.186,0,0,0,34.3,36.284ZM23.5,37.359a1.071,1.071,0,1,1,1.07-1.07A1.069,1.069,0,0,1,23.5,37.359Zm7.859,0a1.071,1.071,0,1,1,1.072-1.069A1.07,1.07,0,0,1,31.359,37.358Z" fill="#fff"/><path d="M43.923,16.769H10.846a3.077,3.077,0,0,0-3.077,3.077V44.462a3.077,3.077,0,0,0,3.077,3.076H43.923A3.077,3.077,0,0,0,47,44.462V19.846A3.077,3.077,0,0,0,43.923,16.769ZM40.077,28.692a1.154,1.154,0,0,1,1.154-1.154h1.538a1.154,1.154,0,0,1,1.154,1.154v1.539a1.154,1.154,0,0,1-1.154,1.154H41.231a1.154,1.154,0,0,1-1.154-1.154ZM14.692,30.231a1.154,1.154,0,0,1-1.154,1.154H12a1.154,1.154,0,0,1-1.154-1.154V28.692A1.154,1.154,0,0,1,12,27.538h1.538a1.154,1.154,0,0,1,1.154,1.154Zm3.536,4.056a5.4,5.4,0,0,1,5.2-3.672h7.919a5.385,5.385,0,1,1,.079,10.77H23.346A5.4,5.4,0,0,1,18.228,34.287Zm27.234,9.405A2.308,2.308,0,0,1,43.154,46H29.09l2.351-2.336V46l4.7-4.7V46l9.318-9.231Z" fill="#fff"/><path d="M56,23H54V21h2Zm0,2H54v2h2Zm0,4H54v2h2Zm0,4H54v2h2Zm-5.25,3L55,42.536,59.25,36Z" fill="aqua"/></svg>