<svg xmlns="http://www.w3.org/2000/svg" viewBox="0 0 64 64"><title>TiltRight</title><path d="M64,64H0V0H64Z" fill="#f6f6f6" opacity="0"/><path d="M38.153,31.148l-6.268-2.922c-1.377-.643-2.989-.7-3.646-.014-.782.815,0,2.225,1.664,3l7.172,3.344c1.668.778,3.262.475,3.4-.638C40.6,32.985,39.53,31.79,38.153,31.148Zm-6.366-1.284c-.169.3-.741.34-1.271.092s-.811-.687-.624-.976.748-.313,1.262-.073S31.954,29.573,31.787,29.864Zm6.961,3.246c-.108.325-.627.393-1.16.144s-.86-.71-.735-1.028.637-.365,1.152-.125S38.854,32.791,38.748,33.11Z" fill="#fff"/><path d="M52.213,34.8c-.016-.839-1.074-1.979-2.363-2.58l-25.093-11.7c-1.289-.6-2.853-.683-3.52-.163L6.585,31.805c-1.554,1.214-1.176,3.063.945,4.052L48.8,55.1c2.12.989,3.806.1,3.768-1.853Zm-30.632-13.9a2.892,2.892,0,0,1,2.665.1l5.424,2.529,3.639,1.7,1.819.848-2.37.053.551-.9-5.021.065,1.382-1.762-11.087-.131Zm-1.211,7.82-.788.832a1.7,1.7,0,0,1-1.792.105l-1.566-.73c-.649-.3-.861-.828-.481-1.165l.884-.787a1.757,1.757,0,0,1,1.736-.051l1.47.685C20.442,27.9,20.685,28.4,20.37,28.729Zm21.84,7.293c-.963,1.094-3.286,1.068-5.545.015l-7.659-3.571c-2.258-1.053-3.754-2.808-3.511-4.238.368-2.164,3.805-2.5,6.707-1.151l6.648,3.1C41.752,31.531,43.669,34.366,42.21,36.022Zm6.554,7.146c-.024.505-.569.676-1.217.374l-1.566-.73a1.66,1.66,0,0,1-1.057-1.434l.15-1.129c.06-.451.6-.58,1.21-.3l1.47.685a1.719,1.719,0,0,1,1.063,1.356Z" fill="#fff"/><path d="M28.285,7.837l1.074,1.686a14.489,14.489,0,0,0-1.507,1.1L26.568,9.094A16.465,16.465,0,0,1,28.285,7.837Zm1.866-1.024L31,8.625a14.6,14.6,0,0,1,1.74-.677l-.6-1.907A16.107,16.107,0,0,0,30.151,6.813Zm4.055-1.279.346,1.97a14.446,14.446,0,0,1,1.857-.2l-.09-2A16.65,16.65,0,0,0,34.206,5.534ZM23.689,12.215l1.633,1.156A14.678,14.678,0,0,1,26.5,11.917l-1.471-1.355A17.009,17.009,0,0,0,23.689,12.215ZM50.725,17.2l1.9-.62a16.3,16.3,0,0,0-.793-1.979l-1.8.865A14.214,14.214,0,0,1,50.725,17.2ZM38.279,7.336a14.319,14.319,0,0,1,1.846.276l.426-1.954a16.434,16.434,0,0,0-2.106-.315Zm12.513,5.407a16.483,16.483,0,0,0-1.272-1.7L48,12.336a14.67,14.67,0,0,1,1.118,1.5ZM41.919,8.127a14.286,14.286,0,0,1,1.713.746l.916-1.779A16.771,16.771,0,0,0,42.6,6.245Zm4.451.062L45.233,9.834A14.129,14.129,0,0,1,46.7,11l1.344-1.483A16.4,16.4,0,0,0,46.37,8.189Zm7,12.107a16.654,16.654,0,0,0-.213-1.654l-1.966.365c.078.425.131.857.171,1.289h-3.18l4.25,6.536,4.25-6.536Z" fill="aqua"/></svg>