<svg xmlns="http://www.w3.org/2000/svg" viewBox="0 0 64 64"><title>TiltForward</title><path d="M64,64H0V0H64Z" fill="#f6f6f6" opacity="0"/><path d="M30.3,24.462H22.93A3.186,3.186,0,0,0,19.7,27.254a3.081,3.081,0,0,0,3.064,3.361h7.693a3.08,3.08,0,0,0,3.064-3.36A3.186,3.186,0,0,0,30.3,24.462Zm-7.66,3.859A1.07,1.07,0,1,1,23.71,27.25,1.072,1.072,0,0,1,22.641,28.321Zm7.859,0a1.071,1.071,0,1,1,1.07-1.071A1.071,1.071,0,0,1,30.5,28.321Z" fill="#fff"/><path d="M43.154,16H10.077A3.077,3.077,0,0,0,7,19.077V43.692a3.077,3.077,0,0,0,3.077,3.077H43.154a3.077,3.077,0,0,0,3.077-3.077V19.077A3.077,3.077,0,0,0,43.154,16ZM8.538,26.769V19.846a2.309,2.309,0,0,1,2.308-2.308H24.91l-2.351,2.337V17.538l-4.7,4.7v-4.7Zm5.385,8.077A1.154,1.154,0,0,1,12.769,36H11.231a1.154,1.154,0,0,1-1.154-1.154V33.308a1.154,1.154,0,0,1,1.154-1.154h1.538a1.154,1.154,0,0,1,1.154,1.154Zm21.849-5.595a5.4,5.4,0,0,1-5.2,3.672H22.656a5.385,5.385,0,1,1-.079-10.769h8.077A5.4,5.4,0,0,1,35.772,29.251Zm7.382,5.595A1.154,1.154,0,0,1,42,36H40.462a1.154,1.154,0,0,1-1.154-1.154V33.308a1.153,1.153,0,0,1,1.154-1.154H42a1.154,1.154,0,0,1,1.154,1.154Z" fill="#fff"/><path d="M54,29h2v2H54Zm0,10h2V37H54Zm0,4h2V41H54Zm0-8h2V33H54Zm1-13.536L50.75,28h8.5Z" fill="aqua"/></svg>