<svg xmlns="http://www.w3.org/2000/svg" viewBox="0 0 64 64"><title>TiltLeft</title><path d="M64,64H0V0H64Z" fill="#f6f6f6" opacity="0"/><path d="M31.355,28.667,25.088,31.59c-1.377.642-2.457,1.841-2.354,2.785.122,1.122,1.7,1.433,3.369.655l7.172-3.345c1.668-.777,2.461-2.193,1.7-3.018C34.334,27.974,32.733,28.025,31.355,28.667Zm-5.822,5.085c-.532.248-1.047.178-1.149-.15s.241-.774.756-1.014,1.024-.185,1.14.13S26.064,33.5,25.533,33.752Zm7.072-3.3c-.531.248-1.1.2-1.259-.1s.129-.723.644-.963,1.074-.207,1.25.08S33.139,30.205,32.6,30.454Z" fill="#fff"/><path d="M57.552,31.829,43.194,20.247c-.653-.527-2.207-.45-3.5.151L14.605,32.1c-1.289.6-2.357,1.747-2.387,2.592l-.65,18.581c-.07,1.97,1.59,2.869,3.71,1.88L56.549,35.907C58.669,34.919,59.074,33.057,57.552,31.829ZM17.131,43.313l-1.566.731c-.649.3-1.187.128-1.2-.381l-.035-1.183a1.762,1.762,0,0,1,1.078-1.363l1.469-.685c.609-.284,1.144-.152,1.2.3l.132,1.138A1.7,1.7,0,0,1,17.131,43.313Zm-4.285-4.631.014-3.9c0-.64.8-1.517,1.789-1.977l5.424-2.529,3.639-1.7,1.819-.849-1.483,1.85-.336-1-3.177,3.888-.462-2.191Zm21.3-5.733-7.659,3.572c-2.259,1.053-4.565,1.071-5.5-.034-1.421-1.674.528-4.525,3.429-5.878l6.649-3.1c2.9-1.353,6.306-1,6.637,1.183C37.916,30.133,36.4,31.9,34.145,32.949Zm12.743-3.511-1.566.73a1.662,1.662,0,0,1-1.778-.112l-.768-.841c-.307-.336-.058-.834.551-1.118l1.469-.685a1.722,1.722,0,0,1,1.723.057l.865.8C47.755,28.607,47.536,29.135,46.888,29.438Z" fill="#fff"/><path d="M21,6.246l.676,1.881a14.252,14.252,0,0,0-1.712.746l-.916-1.779A16.353,16.353,0,0,1,21,6.246Zm-8.2,6.5,1.676,1.091a14.287,14.287,0,0,1,1.118-1.5l-1.522-1.3A16.364,16.364,0,0,0,12.8,12.742Zm2.754-3.23L16.9,11a14.236,14.236,0,0,1,1.462-1.161L17.225,8.189A16.4,16.4,0,0,0,15.556,9.512Zm-3.147,9.5-1.967-.365A16.652,16.652,0,0,0,10.23,20.3H6.917l4.25,6.536,4.25-6.536h-3.18C12.278,19.864,12.33,19.432,12.409,19.007Zm1.154-3.543-1.8-.865a15.829,15.829,0,0,0-.793,1.979l1.9.62A14.274,14.274,0,0,1,13.563,15.464Zm25-4.9L37.1,11.917a14.782,14.782,0,0,1,1.177,1.455l1.631-1.157A16.541,16.541,0,0,0,38.567,10.562Zm-15.523-4.9.426,1.954a14.305,14.305,0,0,1,1.845-.277l-.166-1.993A16.221,16.221,0,0,0,23.044,5.659Zm7.812,2.289a14.545,14.545,0,0,1,1.741.677l.845-1.812a16.032,16.032,0,0,0-1.984-.772Zm3.379,1.576a14.532,14.532,0,0,1,1.508,1.1l1.283-1.533A16.453,16.453,0,0,0,35.31,7.837ZM27.186,7.3a14.547,14.547,0,0,1,1.857.2l.348-1.969A16.478,16.478,0,0,0,27.275,5.3Z" fill="aqua"/></svg>