<?xml version="1.0" encoding="utf-8"?>
<!-- Generator: Adobe Illustrator 22.1.0, SVG Export Plug-In . SVG Version: 6.00 Build 0)  -->
<svg version="1.1"
	 id="svg2" inkscape:export-filename="/Users/sammysam/Work/pxt-microbit/docs/static/packages/radio/icon.png" inkscape:export-xdpi="100.04" inkscape:export-ydpi="100.04" inkscape:version="0.91 r13725" sodipodi:docname="icon.svg" xmlns:cc="http://creativecommons.org/ns#" xmlns:dc="http://purl.org/dc/elements/1.1/" xmlns:inkscape="http://www.inkscape.org/namespaces/inkscape" xmlns:rdf="http://www.w3.org/1999/02/22-rdf-syntax-ns#" xmlns:sodipodi="http://sodipodi.sourceforge.net/DTD/sodipodi-0.dtd" xmlns:svg="http://www.w3.org/2000/svg"
	 xmlns="http://www.w3.org/2000/svg" xmlns:xlink="http://www.w3.org/1999/xlink" x="0px" y="0px" viewBox="0 0 286 176"
	 style="enable-background:new 0 0 286 176;" xml:space="preserve">
<style type="text/css">
	.st0{fill:#E3008B;stroke:#CDCDCD;stroke-width:3.333091e-02;stroke-linecap:round;stroke-linejoin:round;}
	.st1{fill:#FFFFFF;}
	.st2{fill:#00FFFF;}
</style>
<sodipodi:namedview  bordercolor="#666666" borderopacity="1" gridtolerance="10" guidetolerance="10" id="namedview4" inkscape:current-layer="svg2" inkscape:cx="240.23897" inkscape:cy="53.563179" inkscape:pageopacity="0" inkscape:pageshadow="2" inkscape:window-height="744" inkscape:window-maximized="0" inkscape:window-width="1558" inkscape:window-x="11" inkscape:window-y="0" inkscape:zoom="1.378389" objecttolerance="10" pagecolor="#ffffff" showgrid="false">
	</sodipodi:namedview>
<rect id="rect4138" x="0" y="0" class="st0" width="286" height="176"/>
<image style="overflow:visible;enable-background:new    ;" width="1440" height="496" id="image4156" xlink:href="B3A78EF0E366567F.png"  transform="matrix(0.3665 0 0 0.3665 -73.8575 -2.0237)">
</image>
<path class="st1" d="M250.8,26l-44-7.5c-2.3-0.3-4.5,1.2-5,3.5L194.5,56c-0.5,2.2,0.8,4.3,2.9,4.9c0.1,0,0.2,0,0.2,0.1l44,7.5
	c2.3,0.3,4.5-1.2,5-3.5l7.3-33.9c0.5-2.2-0.8-4.3-2.9-4.9C251,26,250.9,26,250.8,26L250.8,26z M203.6,23.5c0.3-1.7,2-2.9,3.8-2.7
	l9.3,1.6l6.3,1.1l3.1,0.5l-3.8,2.7l0.7-3.2l-7.7,5.4l1.4-6.5L201.5,33L203.6,23.5z M206.8,43.2l-0.4,2.1c-0.2,0.9-1,1.4-1.9,1.3
	l-2-0.4c-0.8-0.1-1.4-0.9-1.2-1.7c0,0,0-0.1,0-0.1l0.4-2.1c0.2-0.9,1-1.4,1.9-1.3l2.1,0.3C206.4,41.5,206.9,42.3,206.8,43.2
	C206.8,43.2,206.8,43.2,206.8,43.2z M237.1,42.6c-1.6,2.9-4.8,4.4-8,3.9l-10.5-1.8c-3.1-0.5-5.6-3.1-5.8-6.2
	c-0.4-4.3,2.7-8.2,7.1-8.6c0.6-0.1,1.2-0.1,1.8,0l10.8,1.8C237,32.5,239.7,37.8,237.1,42.6L237.1,42.6z M245.7,49.8l-0.4,2.1
	c-0.2,0.9-1,1.5-1.9,1.3l-2-0.4c-0.8-0.1-1.4-0.9-1.2-1.7c0,0,0-0.1,0-0.1l0.4-2.1c0.2-0.9,1-1.5,1.9-1.3l2,0.4
	C245.3,48.1,245.9,48.9,245.7,49.8C245.7,49.8,245.7,49.8,245.7,49.8L245.7,49.8z"/>
<path class="st1" d="M231.2,34.7l-9.8-1.7c-2.2-0.4-4.4,1-5.1,3.1c-0.7,2.1,0.4,4.4,2.5,5.2c0.2,0.1,0.4,0.1,0.6,0.2l10.2,1.7
	c2.5,0.3,4.7-1.4,5.1-3.9c0,0,0,0,0-0.1C234.9,37.1,233.4,35.1,231.2,34.7L231.2,34.7z M221.6,37.1c-0.2,0.8-0.9,1.3-1.7,1.2
	c-0.8-0.1-1.3-0.9-1.1-1.6c0,0,0-0.1,0-0.1c0.2-0.8,0.9-1.4,1.7-1.2C221.2,35.5,221.7,36.3,221.6,37.1
	C221.6,37,221.6,37.1,221.6,37.1z M232,38.9c-0.2,0.8-0.9,1.3-1.7,1.2c-0.8-0.1-1.3-0.9-1.1-1.6c0,0,0-0.1,0-0.1
	c0.2-0.8,0.9-1.4,1.7-1.2C231.7,37.3,232.2,38,232,38.9C232.1,38.8,232.1,38.8,232,38.9L232,38.9z"/>
<path class="st2" d="M189,51.6c0,6.8,2.4,13.4,6.7,18.7l-2.3,1.9c-4.8-5.8-7.4-13.1-7.4-20.6H189z M253.4,15.3
	c4.3,5.3,6.7,11.9,6.7,18.7h3c0-7.5-2.6-14.8-7.4-20.6L253.4,15.3z M259.7,12.4c4.3,5.3,6.7,11.9,6.7,18.7h3
	c0-7.5-2.6-14.8-7.4-20.6L259.7,12.4z M181.8,54.4c0,6.8,2.4,13.4,6.7,18.7l-2.3,1.9c-4.8-5.8-7.4-13.1-7.4-20.6H181.8z"/>
<path class="st1" d="M90.3,29.8l-44-7.5c-2.3-0.3-4.5,1.2-5,3.5L34,59.8c-0.5,2.2,0.8,4.3,2.9,4.9c0.1,0,0.2,0,0.2,0.1l44,7.5
	c2.3,0.3,4.5-1.2,5-3.5l7.3-33.9c0.5-2.2-0.8-4.3-2.9-4.9C90.5,29.9,90.4,29.9,90.3,29.8L90.3,29.8z M43.1,27.3
	c0.3-1.7,2-2.9,3.8-2.7l9.3,1.6l6.3,1.1l3.1,0.5l-3.8,2.7l0.7-3.2l-7.7,5.4l1.4-6.5L41.1,36.8L43.1,27.3z M46.3,47.1l-0.4,2.1
	c-0.2,0.9-1,1.4-1.9,1.3l-2-0.4c-0.8-0.1-1.4-0.9-1.2-1.7c0,0,0-0.1,0-0.1l0.4-2.1c0.2-0.9,1-1.4,1.9-1.3l2.1,0.3
	C45.9,45.4,46.5,46.1,46.3,47.1C46.3,47,46.3,47,46.3,47.1z M76.6,46.4c-1.6,2.9-4.8,4.4-8,3.9l-10.5-1.8c-3.1-0.5-5.6-3.1-5.8-6.2
	c-0.4-4.3,2.7-8.2,7.1-8.6c0.6-0.1,1.2-0.1,1.8,0l10.8,1.8C76.6,36.3,79.2,41.6,76.6,46.4L76.6,46.4z M85.2,53.7l-0.4,2.1
	c-0.2,0.9-1,1.5-1.9,1.3l-2-0.4c-0.8-0.1-1.4-0.9-1.2-1.7c0,0,0-0.1,0-0.1l0.4-2.1c0.2-0.9,1-1.5,1.9-1.3l2,0.4
	C84.8,52,85.4,52.7,85.2,53.7C85.2,53.6,85.2,53.6,85.2,53.7L85.2,53.7z"/>
<path class="st1" d="M70.7,38.6l-9.8-1.7c-2.2-0.4-4.4,1-5.1,3.1c-0.7,2.1,0.4,4.4,2.5,5.2c0.2,0.1,0.4,0.1,0.6,0.2l10.2,1.7
	c2.5,0.3,4.7-1.4,5.1-3.9c0,0,0,0,0-0.1C74.4,40.9,72.9,38.9,70.7,38.6L70.7,38.6z M61.1,40.9c-0.2,0.8-0.9,1.3-1.7,1.2
	c-0.8-0.1-1.3-0.9-1.1-1.6c0,0,0-0.1,0-0.1c0.2-0.8,0.9-1.4,1.7-1.2C60.8,39.4,61.3,40.1,61.1,40.9C61.1,40.9,61.1,40.9,61.1,40.9z
	 M71.6,42.7c-0.2,0.8-0.9,1.3-1.7,1.2c-0.8-0.1-1.3-0.9-1.1-1.6c0,0,0-0.1,0-0.1c0.2-0.8,0.9-1.4,1.7-1.2
	C71.2,41.1,71.7,41.9,71.6,42.7C71.6,42.6,71.6,42.7,71.6,42.7L71.6,42.7z"/>
<path class="st2" d="M28.5,55.5c0,6.8,2.4,13.4,6.7,18.7L33,76.1c-4.8-5.8-7.4-13.1-7.4-20.6H28.5z M93,19.2
	c4.3,5.3,6.7,11.9,6.7,18.7h3c0-7.5-2.6-14.8-7.4-20.6L93,19.2z M99.2,16.2c4.3,5.3,6.7,11.9,6.7,18.7h3c0-7.5-2.6-14.8-7.4-20.6
	L99.2,16.2z M21.3,58.2c0,6.8,2.4,13.4,6.7,18.7l-2.3,1.9C21,73,18.4,65.7,18.4,58.2H21.3z"/>
<path class="st1" d="M157.4,107.7l-44-7.5c-2.3-0.3-4.5,1.2-5,3.5l-7.3,33.9c-0.5,2.2,0.8,4.3,2.9,4.9c0.1,0,0.2,0,0.2,0.1l44,7.5
	c2.3,0.3,4.5-1.2,5-3.5l7.3-33.9c0.5-2.2-0.8-4.3-2.9-4.9C157.6,107.8,157.5,107.8,157.4,107.7L157.4,107.7z M110.2,105.2
	c0.3-1.7,2-2.9,3.8-2.7l9.3,1.6l6.3,1.1l3.1,0.5l-3.8,2.7l0.7-3.2l-7.7,5.4l1.4-6.5l-15.1,10.6L110.2,105.2z M113.4,125l-0.4,2.1
	c-0.2,0.9-1,1.4-1.9,1.3l-2-0.4c-0.8-0.1-1.4-0.9-1.2-1.7c0,0,0-0.1,0-0.1l0.4-2.1c0.2-0.9,1-1.4,1.9-1.3l2.1,0.3
	C113.1,123.3,113.6,124.1,113.4,125C113.4,124.9,113.4,124.9,113.4,125z M143.7,124.3c-1.6,2.9-4.8,4.4-8,3.9l-10.5-1.8
	c-3.1-0.5-5.6-3.1-5.8-6.2c-0.4-4.3,2.7-8.2,7.1-8.6c0.6-0.1,1.2-0.1,1.8,0l10.8,1.8C143.7,114.2,146.3,119.5,143.7,124.3
	L143.7,124.3z M152.4,131.6l-0.4,2.1c-0.2,0.9-1,1.5-1.9,1.3l-2-0.4c-0.8-0.1-1.4-0.9-1.2-1.7c0,0,0-0.1,0-0.1l0.4-2.1
	c0.2-0.9,1-1.5,1.9-1.3l2,0.4C152,129.9,152.5,130.6,152.4,131.6C152.4,131.5,152.3,131.5,152.4,131.6L152.4,131.6z"/>
<path class="st1" d="M137.9,116.5l-9.8-1.7c-2.2-0.4-4.4,1-5.1,3.1c-0.7,2.1,0.4,4.4,2.5,5.2c0.2,0.1,0.4,0.1,0.6,0.2l10.2,1.7
	c2.5,0.3,4.7-1.4,5.1-3.9c0,0,0,0,0-0.1C141.6,118.8,140,116.8,137.9,116.5L137.9,116.5z M128.2,118.8c-0.2,0.8-0.9,1.3-1.7,1.2
	c-0.8-0.1-1.3-0.9-1.1-1.6c0,0,0-0.1,0-0.1c0.2-0.8,0.9-1.4,1.7-1.2C127.9,117.3,128.4,118,128.2,118.8
	C128.3,118.8,128.2,118.8,128.2,118.8z M138.7,120.6c-0.2,0.8-0.9,1.3-1.7,1.2c-0.8-0.1-1.3-0.9-1.1-1.6c0,0,0-0.1,0-0.1
	c0.2-0.8,0.9-1.4,1.7-1.2C138.4,119,138.9,119.8,138.7,120.6C138.7,120.6,138.7,120.6,138.7,120.6L138.7,120.6z"/>
<path class="st2" d="M95.7,133.4c0,6.8,2.4,13.4,6.7,18.7l-2.3,1.9c-4.8-5.8-7.4-13.1-7.4-20.6H95.7z M160.1,97.1
	c4.3,5.3,6.7,11.9,6.7,18.7h3c0-7.5-2.6-14.8-7.4-20.6L160.1,97.1z M166.3,94.1c4.3,5.3,6.7,11.9,6.7,18.7h3
	c0-7.5-2.6-14.8-7.4-20.6L166.3,94.1z M88.5,136.1c0,6.8,2.4,13.4,6.7,18.7l-2.3,1.9c-4.8-5.8-7.4-13.1-7.4-20.6H88.5z"/>
</svg>
